<svg width="14" height="15" viewBox="0 0 14 15" fill="none" xmlns="http://www.w3.org/2000/svg">
<path d="M8.2549 14.2923C8.2351 14.2722 8.21528 14.2539 8.19522 14.237C8.07718 14.1366 7.93951 14.083 7.78762 14.0036C7.64427 13.9288 7.49132 13.8288 7.38701 13.6755C7.32089 13.5785 7.27569 13.4606 7.27205 13.3283C7.27073 13.2807 7.27307 13.2369 7.27792 13.1956C7.30274 13.001 7.3926 12.8202 7.46768 12.7394C7.55634 12.6571 7.63011 12.5677 7.63305 12.3825C7.63461 12.2849 7.65382 12.1906 7.67951 12.1015C7.74922 11.8597 7.86657 11.6557 7.80758 11.5263C7.79238 11.493 7.79195 11.4676 7.80105 11.4467C7.84032 11.3567 8.05698 11.3511 8.03084 11.1596C8.01161 11.0187 8.0284 10.9169 8.07591 10.8207C8.10794 10.7559 8.15393 10.6936 8.21226 10.6236C8.27793 10.5448 8.35592 10.3827 8.41295 10.2065C8.48168 9.99406 8.51997 9.76119 8.46958 9.62898C8.4575 9.59729 8.45177 9.56625 8.45111 9.53593C8.44672 9.33478 8.66558 9.16504 8.73748 9.04473C8.76325 9.0016 8.79345 8.96953 8.82299 8.94614C8.85111 8.9239 8.92988 8.94446 8.93074 8.97304C8.93307 9.04998 8.95511 9.16846 9.02654 9.31697C9.10651 9.48325 9.06535 9.54584 9.02622 9.64418C9.00018 9.7096 8.97505 9.79085 8.98709 9.92897C8.99991 10.0759 9.03378 10.2023 9.05378 10.3271C9.08083 10.4958 9.08249 10.6614 8.97232 10.8707C8.95182 10.9096 8.93902 10.9465 8.93203 10.9819C8.88524 11.2186 9.09856 11.3893 9.00847 11.674C8.98612 11.7446 8.94512 11.8222 8.87687 11.9096C8.7548 12.0659 8.7228 12.1882 8.73493 12.3002C8.75883 12.5208 8.954 12.7012 8.96924 13.022C8.97284 13.0398 8.97783 13.0512 8.9823 13.0513C8.9909 13.0416 8.9932 13.0531 8.99434 13.0591C8.99563 13.069 8.99161 13.0792 8.9848 13.0908C8.97801 13.1023 8.96852 13.115 8.95772 13.1281C8.94661 13.1417 8.93376 13.1557 8.92178 13.1703C8.90885 13.1862 8.89743 13.2036 8.89435 13.22C8.9082 13.2389 8.85737 13.2569 8.91441 13.2584C8.93609 13.2576 8.9556 13.2551 8.97282 13.2506C9.14155 13.2058 9.25862 13.1384 9.44533 13.0803C9.50238 13.0622 9.56252 13.0459 9.62722 13.0328C9.74274 13.0091 9.84729 12.9288 9.95101 12.8309C10.0889 12.7014 10.2237 12.5439 10.4334 12.4187C10.4531 12.407 10.4729 12.395 10.4937 12.3817C10.7168 12.2426 10.9988 12.0066 11.2608 11.7502C11.4293 11.587 11.5878 11.4221 11.7058 11.3066C11.9189 11.0968 12.0271 10.9829 12.127 10.8095C12.1762 10.7239 12.2244 10.6215 12.2837 10.4829C12.3872 10.241 12.6072 9.94948 12.8822 9.77238C13.0212 9.6825 13.0824 9.76364 13.0404 9.91445C12.9794 10.1348 12.8453 10.2669 12.8866 10.4275C12.9695 10.748 12.9974 10.8785 12.7289 11.0537C12.6947 11.076 12.6682 11.0999 12.6477 11.1249C12.5071 11.2962 12.6467 11.521 12.545 11.626C12.4363 11.7335 12.2879 11.6713 12.0218 12.2596C12.0054 12.2953 11.9885 12.3334 11.9708 12.374C11.7803 12.8144 11.6253 13.0783 11.4988 13.2701C11.4279 13.3775 11.365 13.4618 11.3127 13.5322C11.2166 13.6618 10.9785 13.7996 10.7533 13.9273C10.6344 13.9956 10.5181 14.0636 10.4211 14.1428C10.3136 14.2314 10.1432 14.3252 9.95926 14.4007C9.67824 14.5222 9.31116 14.5997 9.16615 14.676C9.13901 14.6901 9.11458 14.7001 9.0923 14.7066C8.87832 14.7521 8.67851 14.6781 8.5732 14.5865C8.4767 14.5112 8.38292 14.4196 8.2549 14.2923ZM6.01199 13.3294C6.22327 13.3771 6.43496 13.371 6.65127 13.3372C6.68903 13.3327 6.7465 13.3313 6.78482 13.33C6.8271 13.329 6.86708 13.3289 6.90499 13.3291C6.94287 13.3294 6.97867 13.3299 7.0125 13.3303C7.04624 13.3307 7.07802 13.331 7.10777 13.3307C7.13738 13.3304 7.16498 13.3296 7.19024 13.3279C7.21689 13.3266 7.23444 13.323 7.25785 13.3203C7.25785 13.3203 7.25785 13.3203 7.25785 13.3203C7.19772 13.1882 6.94598 13.3365 7.08233 13.1087C7.10781 13.0417 7.1442 12.9554 7.19029 12.8576C7.26326 12.7023 7.331 12.5542 7.39457 12.4272C7.53753 12.1352 7.66975 11.9201 7.77875 11.5972C7.84568 11.3973 7.90313 11.1515 7.94453 10.8129C7.94965 10.7709 7.95513 10.7288 7.96094 10.6864C8.00433 10.3701 8.064 10.058 8.12858 9.76037C8.20093 9.42649 8.27971 9.11041 8.34377 8.83653C8.41752 8.51329 8.46807 8.24197 8.46229 8.0481C8.45521 7.81191 8.52134 7.6844 8.60154 7.54856C8.69887 7.3837 8.81692 7.20658 8.84994 6.80802C8.86642 6.60913 8.88773 6.43293 8.91462 6.26953C8.98602 5.8357 9.09673 5.49213 9.26064 5.05397C9.26696 5.0371 9.27345 5.0192 9.2801 5.00035C9.37734 4.7249 9.5094 4.24454 9.62964 3.72818C9.7318 3.28949 9.82543 2.82481 9.88195 2.4377C9.91709 2.1971 9.93788 1.98646 9.93748 1.83067C9.93687 1.59619 9.9766 1.3586 10.0355 1.12864C10.0557 1.04758 10.0664 1.00118 10.0712 0.923931C10.0756 0.850811 10.0705 0.776063 10.0553 0.704261C10.0392 0.627769 10.0119 0.555019 9.97591 0.490862C9.93594 0.419387 9.88527 0.358606 9.82965 0.312144C9.79586 0.283854 9.76025 0.260777 9.72461 0.243201C9.68931 0.225791 9.65483 0.211507 9.62128 0.199528C9.548 0.173336 9.4794 0.158175 9.41934 0.14773C9.38259 0.141382 9.36116 0.123464 9.35738 0.102047C9.35738 0.102033 9.35738 0.102019 9.35737 0.102005C9.35249 0.0757409 9.37674 0.0435305 9.42921 0.0353541C9.49396 0.025511 9.56769 0.0199288 9.64928 0.0246237C9.74172 0.029988 9.84429 0.0486636 9.95208 0.0901281C10.0457 0.126128 10.1431 0.179482 10.2374 0.25505C10.3126 0.315271 10.3857 0.389677 10.4513 0.478951C10.4608 0.49178 10.4698 0.504699 10.4784 0.51769C10.5551 0.633591 10.5999 0.753571 10.623 0.865029C10.6521 0.996714 10.646 1.14421 10.6276 1.2401C10.5675 1.57677 10.4492 1.83113 10.3768 2.53085C10.3757 2.54162 10.3746 2.5525 10.3735 2.56348C10.3256 3.04519 10.3123 3.44539 10.2801 3.85062C10.2483 4.25119 10.1982 4.65666 10.0782 5.15059C10.0494 5.26932 10.0165 5.39317 9.97887 5.52328C9.87447 5.88426 9.83991 6.17156 9.82709 6.44128C9.80739 6.85587 9.83905 7.22894 9.74744 7.76426C9.69736 8.05687 9.6106 8.39724 9.45819 8.82125C9.43158 8.89523 9.40705 8.9665 9.38445 9.03532C9.26419 9.39465 9.20152 9.6855 9.16956 9.94572C9.1271 10.2933 9.14084 10.5825 9.15672 10.8973C9.1705 11.1802 9.1882 11.4787 9.16208 11.8687C9.14749 12.082 9.12017 12.3219 9.06443 12.602C9.04775 12.685 9.02967 12.7675 9.00907 12.8526C8.9265 13.1798 8.82991 13.5208 8.61595 13.9187C8.488 14.2287 7.8167 15.0323 6.95891 14.7971C6.95889 14.7971 6.95891 14.7971 6.9589 14.7971C6.92666 14.7891 6.88725 14.7787 6.85925 14.7707C6.82924 14.7622 6.80234 14.7542 6.77817 14.7469C6.75395 14.7396 6.73249 14.733 6.71376 14.7273C6.69497 14.7216 6.67894 14.7168 6.66586 14.7128C6.65274 14.7088 6.64261 14.7057 6.6358 14.7032C6.62351 14.7004 6.63829 14.6995 6.62571 14.6971C5.60009 14.6213 4.60976 14.3764 3.99753 14.2018C3.62369 14.0984 3.26461 13.9809 2.8378 13.7731C1.95232 13.3632 0.959198 12.4714 0.604485 11.2679C0.528751 11.0266 0.468432 10.7823 0.422226 10.5236C0.189269 9.24951 0.391237 7.82482 0.898014 6.63533C1.01495 6.35882 1.1464 6.09629 1.29356 5.84476C1.73703 5.08079 2.36939 4.23639 3.0423 3.53964C3.72436 2.82438 4.44109 2.26311 4.91461 1.94917C5.37416 1.64414 5.67718 1.47548 5.96241 1.30203C6.26307 1.1234 6.54152 0.938881 7.01994 0.663677C7.55514 0.351976 8.38916 0.0767567 9.11772 0.0726352C9.4828 0.0733229 9.41324 0.179975 9.08076 0.294948C8.5956 0.469246 8.18573 0.567111 7.98293 0.772018C7.58573 1.18785 7.44609 1.34781 6.81198 1.54001C6.58693 1.61151 6.42899 1.72008 6.30831 1.83375C6.09093 2.03944 5.9899 2.26201 5.78414 2.38759C5.4885 2.6056 5.28417 2.37883 4.05397 3.88387C3.97366 3.98904 3.89774 4.09177 3.8256 4.19218C2.85355 5.57286 2.50738 6.46258 2.27861 7.07258C2.26772 7.10328 2.25595 7.13553 2.24357 7.1689C1.97368 7.83849 1.47567 9.18378 1.72312 10.1959C1.729 10.2227 1.7354 10.2513 1.74215 10.2801C1.86509 11.0637 2.55684 12.1245 3.48945 12.5148C3.83784 12.6837 4.14604 12.772 4.39501 12.8193C5.279 12.9469 5.22997 13.1319 6.01199 13.3294Z" fill="black"/>
</svg>
