<svg width="11" height="21" viewBox="0 0 11 21" fill="none" xmlns="http://www.w3.org/2000/svg">
<path d="M5.41509 4.49389C5.17481 4.80683 5.55479 5.2625 5.32973 5.66743C5.30585 5.71044 5.28141 5.7485 5.25662 5.78282C5.04761 6.07297 4.81211 6.09952 4.70581 6.55998C4.656 6.77622 4.56565 6.97788 4.47994 7.15794C4.36104 7.40787 4.25076 7.61728 4.26802 7.76658C4.29797 8.02371 3.96908 7.93717 3.93334 8.27577C3.92023 8.40005 3.89825 8.50124 3.86532 8.5934C3.80884 8.75146 3.72056 8.87903 3.5966 9.03146C3.46376 9.19444 3.25165 9.62633 3.14196 9.99607C3.0896 10.1719 3.06012 10.333 3.07075 10.4455C3.10401 10.7945 2.77276 11.0804 2.65636 11.2789C2.62003 11.3408 2.58193 11.3864 2.54652 11.4196C2.53152 11.4336 2.5082 11.4353 2.48743 11.4293C2.48742 11.4293 2.48741 11.4293 2.48739 11.4293C2.46153 11.4217 2.43965 11.4022 2.44277 11.3793C2.45796 11.2684 2.46293 11.097 2.42609 10.8802C2.35796 10.4764 2.56164 10.4967 2.6199 9.99696C2.62646 9.94149 2.6313 9.88783 2.63513 9.83554C2.66522 9.41956 2.62653 9.09682 2.8916 8.63903C2.96235 8.51689 2.9919 8.40818 3.00302 8.30351C3.039 7.96675 2.88175 7.67136 3.29464 7.14978C3.39334 7.0251 3.45825 6.91594 3.50033 6.8137C3.68858 6.35815 3.4051 6.06575 3.57887 5.41475C3.59807 5.34301 3.62095 5.26996 3.64629 5.19747C3.82036 4.69941 4.12448 4.18977 4.34482 3.78082C4.44862 3.58809 4.53373 3.41763 4.57781 3.28039C4.66646 3.00378 4.75515 2.69449 4.87708 2.35242C4.9287 2.11151 4.94591 1.93966 4.95922 1.82149C4.96537 1.74829 4.94785 1.70242 4.94121 1.69831C4.98777 1.71456 4.79872 1.66415 4.47088 1.75188C4.32964 1.78424 4.17524 1.82645 4.01544 1.86318C3.83512 1.90472 3.63235 1.96975 3.42521 2.05513C3.04294 2.2103 2.65658 2.43574 2.37204 2.6331C2.25881 2.71077 2.15978 2.78413 2.07997 2.84339C1.75265 3.09418 1.64076 3.20879 1.51244 3.49789C1.49034 3.5503 1.46892 3.60843 1.44862 3.67399C1.36845 3.92642 1.23009 4.23042 1.08044 4.53293C1.00832 4.68622 0.910278 4.66098 0.873448 4.48158C0.825902 4.21705 0.9268 4.02196 0.853653 3.85899C0.726483 3.55685 0.696916 3.38177 0.910929 3.16917C0.932364 3.14837 0.95606 3.12782 0.982641 3.1067C1.27502 2.88332 1.1168 2.57687 1.27448 2.43311C1.39513 2.33181 1.49489 2.36909 1.79141 2.05374C1.89168 1.95044 2.01559 1.81035 2.18584 1.62236C2.39977 1.38682 2.60599 1.20054 2.79386 1.05031C3.21362 0.718344 3.54298 0.553555 3.81321 0.434968C3.89743 0.398888 4.00039 0.367967 4.12551 0.343252C4.52025 0.278281 5.42422 0.165882 6.027 0.931251C6.06743 0.984977 6.1042 1.04106 6.137 1.09747C6.43276 1.55972 6.36031 2.32564 6.24036 2.7766C6.0949 3.16933 5.96045 3.56025 5.92511 3.78424C5.87672 4.08909 5.77759 4.16578 5.64809 4.26717C5.57824 4.32181 5.49922 4.3846 5.41509 4.49389ZM1.19973 19.3992C1.16297 19.2346 1.06875 19.1038 0.955203 18.955C0.754401 18.6867 0.483017 18.3608 0.499269 17.7529C0.501854 17.6755 0.507138 17.5996 0.514546 17.5256C0.614403 16.726 0.800291 16.5491 1.01783 15.0702C1.03656 14.9556 1.05513 14.84 1.0777 14.7025C1.25345 13.5812 1.65809 12.2437 1.9831 11.1265C1.9831 11.1265 1.9831 11.1265 1.9831 11.1265C2.52781 10.6557 3.0147 10.231 3.23432 9.9815C3.45514 9.73105 3.6402 9.63927 3.84063 9.55417C4.0869 9.45199 4.36102 9.34672 4.79427 9.02733C5.16513 8.7577 5.46976 8.595 5.75018 8.48569C6.0661 8.36407 6.35495 8.30845 6.66556 8.29672C6.82332 8.29075 7.04938 8.27857 7.28592 8.29081C7.67243 8.30637 8.0663 8.4008 8.36464 8.51903C8.56901 8.59686 8.73762 8.67946 8.86365 8.7192C9.01362 8.76664 9.13703 8.86855 9.23181 8.99138C9.40911 9.21977 9.47445 9.50357 9.54335 9.68056C9.57624 9.765 9.59153 9.83893 9.59686 9.89888C9.60182 9.95628 9.52506 9.98503 9.49417 9.94246C9.41139 9.82906 9.26452 9.67387 9.05037 9.56488C8.93688 9.50831 8.86444 9.46163 8.81016 9.41441C8.67356 9.30462 8.63576 9.13942 8.28381 9.029C8.24363 9.01782 8.20492 9.00953 8.16617 9.00295C7.87704 8.95773 7.64551 9.00268 7.32156 9.03596C7.14043 9.05765 6.92473 9.07746 6.59829 9.13432C6.42076 9.16606 6.25593 9.2268 6.10468 9.30293C5.5963 9.56743 5.25721 9.93836 4.5447 10.4838C4.24659 10.7143 3.83269 11.0281 3.4219 11.308C3.23095 11.4371 3.07242 11.5619 2.93063 11.6933C2.93064 11.6932 2.93062 11.6933 2.93065 11.6932C2.45376 13.0182 2.31936 14.2852 2.27338 15.2905C2.24527 15.8823 2.23749 16.4615 2.23277 17.0174C2.23155 17.1899 2.23235 17.3551 2.2351 17.4987C2.24405 17.9765 2.2721 18.3032 2.30469 18.5376C2.34123 18.7947 2.38158 18.9457 2.4318 19.0487C2.46019 19.1066 2.49374 19.1475 2.52819 19.1674C2.57795 19.1961 2.63484 19.2174 2.69963 19.234C2.7964 19.2542 2.8617 19.2693 3.0765 19.2869C3.69818 19.2767 4.13633 19.2061 4.57125 19.1058C5.14099 18.9707 5.64163 18.7303 6.07103 18.4402C6.75313 17.9795 7.27471 17.3887 7.72118 16.8123C7.85962 16.6334 7.98974 16.4576 8.11827 16.2823C8.39422 15.9074 8.66803 15.4556 8.89597 14.9871C9.23975 14.2888 9.47154 13.5637 9.6004 13.0456C9.63982 12.8897 9.6712 12.7527 9.69702 12.6364C9.83699 11.9618 9.85061 11.746 9.76056 11.2725C9.74877 11.2178 9.73453 11.159 9.71789 11.0995C9.62846 10.766 9.55407 10.389 9.54508 10.0736C9.53837 9.91389 9.63526 9.88828 9.74923 10.0135C9.91383 10.2009 9.93913 10.4281 10.0935 10.5409C10.3516 10.7326 10.4791 10.8729 10.463 11.1838C10.4596 11.2429 10.4507 11.3083 10.4356 11.3818C10.3359 11.8449 10.6439 12.0796 10.5968 12.3849C10.5593 12.5903 10.4723 12.6445 10.3954 13.1534C10.3544 13.3987 10.3144 13.7514 10.2215 14.2999C10.1521 14.7018 10.0611 15.0665 9.96135 15.3936C9.63315 16.4508 9.24638 17.1072 8.94239 17.5866C8.92648 17.6113 8.90948 17.6367 8.8914 17.6629C8.54511 18.1682 7.7897 18.9381 6.79441 19.5608C6.51457 19.7376 6.2223 19.901 5.92109 20.0513C5.37618 20.3211 4.43093 20.6809 3.07014 20.7045C2.80816 20.709 2.43149 20.6484 2.15963 20.544C1.96129 20.4729 1.78838 20.3813 1.65905 20.3135C1.47234 20.2159 1.37731 20.102 1.32967 20.0033C1.24891 19.8301 1.26844 19.6833 1.19973 19.3992Z" fill="black"/>
</svg>
