<svg width="12" height="15" viewBox="0 0 12 15" fill="none" xmlns="http://www.w3.org/2000/svg">
<path d="M1.61821 9.27286C1.53126 9.54757 1.56042 9.80874 1.62792 10.067C1.73399 10.4635 1.92066 10.8257 1.97844 11.2683C2.07848 11.8512 1.9946 12.1031 2.27764 12.531C2.34633 12.6245 2.44035 12.7223 2.57043 12.8135C3.23013 13.2881 4.05602 13.5229 4.56706 13.4419C4.58915 13.4372 4.60999 13.432 4.62966 13.4262C5.07514 13.285 5.1384 13.6304 5.76645 13.4642C5.80102 13.4543 5.83439 13.4448 5.8667 13.4355C6.35901 13.2926 6.68376 13.2299 7.101 13.1363C7.15593 13.1232 7.21219 13.109 7.26913 13.0939C7.48576 13.0375 7.87317 12.8629 8.20604 12.5446C8.52675 12.2475 8.78279 11.8279 8.92334 11.4706C8.99421 11.2937 9.04049 11.1317 9.06031 11.0077C9.10502 10.73 9.20821 10.4553 9.32624 10.1952C9.4801 9.85627 9.66119 9.54157 9.76085 9.30565C9.8161 9.17384 9.86802 9.07684 9.91518 9.00062C9.95991 8.92862 10.0334 8.96711 10.0166 9.04945C9.97205 9.26743 9.92425 9.6033 9.90602 10.0111C9.90037 10.1469 9.88583 10.2652 9.86778 10.3633C9.7788 10.798 9.63222 10.9614 9.37752 11.6825C9.36603 11.713 9.3542 11.7444 9.34197 11.7767C9.16113 12.2493 8.98011 12.6453 8.69572 13.0102C8.41426 13.3692 8.01729 13.6979 7.4417 13.9014C7.40176 13.9154 7.36062 13.929 7.31821 13.942C6.75616 14.1074 6.41827 14.2507 6.03536 14.3947C5.67375 14.5274 5.23384 14.6488 4.59306 14.6162C4.43369 14.6023 4.26383 14.576 4.08411 14.5312C2.67621 14.1129 2.18205 14.106 1.25231 13.406C1.01482 13.1969 0.773301 12.911 0.575826 12.5083C0.196968 11.7427 0.114848 10.8189 0.190419 10.0218C0.295685 8.86968 0.672339 7.91976 0.856165 7.33022C0.907021 7.16894 0.960661 7.00769 1.0228 6.83509C1.3346 5.96419 1.82799 4.93733 2.57241 4.01055C2.61438 3.9582 2.65711 3.9062 2.70057 3.85462C3.29143 3.15201 3.9859 2.34456 4.85478 1.69555C5.39557 1.2918 5.98013 0.960933 6.64321 0.746419C7.05483 0.613829 7.50379 0.510717 7.95215 0.460149C8.42082 0.4582 8.94855 0.482923 9.41353 0.57279C9.92154 0.670383 10.4475 0.846322 10.8236 1.20606C11.1564 1.51433 11.2707 1.94023 11.2675 2.21703C11.2701 2.41775 11.2399 2.58088 11.2052 2.72407C11.0464 3.28152 10.8888 3.55122 10.6698 4.01483C10.6045 4.14483 10.5377 4.27544 10.4485 4.43768C10.3242 4.66533 10.1488 4.92171 9.94629 5.16364C9.70371 5.45449 9.41728 5.73304 9.12824 5.95291C8.85635 6.15879 8.83872 6.03587 9.01925 5.75818C9.25304 5.39566 9.49615 5.1338 9.58324 4.89002C9.59401 4.85988 9.60221 4.83027 9.60756 4.80103C9.69721 4.29287 9.73022 4.08748 10.0833 3.69034C10.1022 3.66848 10.1218 3.64621 10.1422 3.62349C10.5204 3.18466 10.3339 2.82356 10.3758 2.59455C10.378 2.5812 10.3808 2.56814 10.3843 2.55528C10.3969 2.38782 10.6615 2.24688 10.2867 1.84365C10.1665 1.7484 9.95379 1.65297 9.62216 1.61183C9.51663 1.59895 9.39987 1.59023 9.29463 1.58718C8.82807 1.5748 8.47955 1.61935 8.11466 1.66732C7.35035 1.88385 6.95531 2.10925 6.60552 2.30731C6.38441 2.43721 6.04957 2.60923 5.6879 2.84399C5.16226 3.17964 4.58601 3.65986 4.19384 4.16635C4.04911 4.35129 3.87207 4.57862 3.68836 4.83541C3.14051 5.58133 2.5811 6.61718 2.34438 7.35235C2.28859 7.51786 2.24806 7.66246 2.21962 7.78859C2.05004 8.64671 1.85805 8.58895 1.61821 9.27286Z" fill="black"/>
</svg>
