<svg width="15" height="22" viewBox="0 0 15 22" fill="none" xmlns="http://www.w3.org/2000/svg">
<path d="M3.03151 19.122C3.44212 19.3299 3.77882 18.8891 4.18044 18.6188C4.23529 18.5831 4.29591 18.5481 4.3649 18.5134C4.96716 18.1722 5.25936 18.2712 5.82345 17.5439C5.85876 17.496 5.89475 17.448 5.93126 17.4C6.45226 16.7156 7.04261 16.0656 7.15968 15.6721C7.18485 15.5875 7.21725 15.5251 7.25523 15.4749C7.40378 15.2772 7.64664 15.2707 7.83057 14.8153C8.05695 14.2454 8.26307 13.9389 8.59886 13.5083C8.60223 13.5039 8.60565 13.4995 8.60912 13.495C8.89847 13.123 9.48044 12.0483 9.7103 11.3471C9.75631 11.2103 9.78662 11.0963 9.80357 10.9985C9.90987 10.3887 10.3747 9.83744 10.5674 9.47267C10.6318 9.34777 10.6857 9.26764 10.7337 9.20611C10.7597 9.16396 10.7793 9.17385 10.7997 9.18126C10.7997 9.18127 10.7997 9.18127 10.7997 9.18128C10.8288 9.17957 10.8427 9.22053 10.8336 9.25629C10.7812 9.4533 10.7134 9.76418 10.6741 10.138C10.6034 10.7854 10.4126 10.83 10.1711 11.5415C10.1524 11.5959 10.1319 11.6574 10.1127 11.7193C9.86461 12.5106 9.78898 13.0711 9.34165 13.8545C9.29422 13.9368 9.24224 14.022 9.18491 14.1105C8.69292 14.8591 8.82256 15.3035 8.31004 16.1036C8.1947 16.2806 8.04833 16.4708 7.8516 16.6814C7.25795 17.3102 7.06533 17.7026 6.85843 18.1556C6.67675 18.5306 6.50041 18.9552 5.93213 19.497C5.67378 19.7365 5.36914 19.9626 5.01444 20.1458C4.16189 20.7209 2.49233 20.5509 1.9222 19.978C1.5729 19.7312 1.27547 19.4214 1.06532 19.1557C0.610385 18.6001 0.318171 17.823 0.289122 16.989C0.265044 16.4192 0.353574 15.8273 0.527042 15.2751C0.663186 14.8399 0.824299 14.3797 1.02091 13.9215C1.41537 12.9969 1.96722 12.0682 2.67051 11.3627C2.70257 11.3305 2.73494 11.2987 2.76759 11.2674C3.39704 10.6565 4.2622 9.99813 5.10234 9.56811C5.71717 9.24602 6.30865 9.04407 6.70966 8.94858C7.28187 8.81453 7.59697 8.78683 7.95242 8.72964C8.18793 8.69562 8.44356 8.65262 8.81296 8.62192C9.34575 8.57067 10.1031 8.71216 10.6341 9.04095C10.9046 9.2088 10.7989 9.26917 10.5025 9.21885C10.0769 9.15315 9.72788 9.05194 9.49817 9.14465C9.0385 9.33915 8.88963 9.42045 8.35042 9.32459C8.2364 9.30679 8.13557 9.31122 8.0466 9.32867C7.70835 9.39719 7.55426 9.63566 7.31797 9.67551C7.03555 9.75949 6.9095 9.47332 5.6111 10.3763C5.60042 10.3844 5.58969 10.3926 5.57888 10.4009C4.59227 11.1769 4.08404 11.8193 3.7228 12.2719C3.62109 12.4035 3.5334 12.5231 3.45619 12.6337C3.17975 13.0216 2.58875 13.7063 2.23524 14.4721C2.14468 14.6642 2.06534 14.8677 2.01088 15.056C1.86942 15.5293 1.67567 16.2734 1.71051 16.9397C1.72385 17.5665 1.98795 18.0856 2.1828 18.2488C2.41811 18.4618 2.5316 18.6062 2.6666 18.787C2.76126 18.9032 2.84986 19.0206 3.03151 19.122ZM13.0152 5.35475C12.8219 5.51177 13.2271 5.87282 13.055 6.0913C12.9337 6.24526 12.7655 6.256 12.6542 6.35633C12.6076 6.39836 12.5711 6.45613 12.5522 6.54675C12.4882 6.85362 12.196 7.06348 12.2454 7.23334C12.2949 7.4032 11.9774 7.28365 11.9705 7.49199C11.9655 7.64263 11.9187 7.73195 11.8296 7.81267C11.7955 7.84358 11.7553 7.87322 11.7087 7.90456C11.5408 8.01779 11.2496 8.46141 11.2997 8.68917C11.3498 8.91693 11.0488 9.02418 10.9465 9.1222C10.9147 9.15273 10.8803 9.1728 10.848 9.18564C10.8343 9.19107 10.8122 9.18691 10.7923 9.17842C10.7923 9.17841 10.7923 9.17841 10.7923 9.1784C10.7675 9.16786 10.7461 9.15064 10.7482 9.13704C10.7583 9.07105 10.7561 8.96501 10.711 8.82165C10.627 8.55433 10.8212 8.61177 10.8478 8.3105C10.8745 8.00922 10.7701 7.77693 11.014 7.513C11.0249 7.50118 11.0345 7.48936 11.0428 7.47751C11.2207 7.22479 10.8428 6.96453 11.2737 6.65212C11.6562 6.37487 11.3785 6.15031 11.3593 5.80473C11.3558 5.74266 11.3607 5.67669 11.3793 5.60581C11.5011 5.14027 12.0053 4.70192 12.0955 4.42842C12.1064 4.39534 12.1173 4.36072 12.1286 4.32481C12.2103 4.06378 12.307 3.73423 12.5036 3.42931C12.6201 3.24866 12.6853 3.01805 12.7621 2.78706C12.8327 2.57449 12.9132 2.3616 13.0525 2.18703C13.2479 1.94219 13.4898 1.62592 13.6918 1.37547C13.7903 1.25333 13.8793 1.14684 13.9488 1.07193C14.1608 0.843461 14.2107 0.787022 14.262 0.502045C14.2915 0.338237 14.4113 0.14627 14.6106 0.0259652C14.711 -0.0345793 14.7904 0.022655 14.795 0.128556C14.8016 0.283416 14.7156 0.371553 14.7971 0.484625C14.9601 0.710582 15.0203 0.802747 14.8214 0.915593C14.6224 1.02844 14.8791 1.23087 14.8042 1.31414C14.737 1.38878 14.593 1.33661 14.5068 1.72263C14.4968 1.76721 14.4876 1.81764 14.4794 1.87478C14.4002 2.4267 14.3181 2.71279 14.2698 2.91401C14.2437 3.02247 14.1401 3.16796 14.038 3.33055C13.9507 3.4696 13.8646 3.62116 13.8292 3.77273C13.7612 4.06437 13.5064 4.57022 13.4364 4.88189C13.4275 4.9216 13.4216 4.95816 13.4194 4.99072C13.4004 5.27884 13.2086 5.19774 13.0152 5.35475ZM8.63176 20.3464C8.6903 20.6011 8.71793 20.3466 8.8875 20.2926C8.99207 20.249 9.02258 20.1947 9.07181 20.2075C9.26191 20.2141 9.4981 20.2882 9.7533 20.1995C9.83919 20.1687 9.94149 20.1096 10.0493 20.0141C10.2867 19.8049 10.5607 19.625 10.7844 19.4571C10.9753 19.3136 11.1258 19.183 11.1804 19.0567C11.2953 18.783 11.5593 19.0001 11.7788 18.6565C11.7916 18.6361 11.8044 18.6164 11.817 18.5973C12.0172 18.2945 12.2042 18.1499 12.4978 17.9658C12.5866 17.9093 12.7079 17.8116 12.8444 17.6832C13.1806 17.3703 13.5825 16.8882 13.6864 16.6012C13.6891 16.5937 13.6913 16.5868 13.694 16.5791C13.8263 16.1795 14.2765 15.9575 14.4799 15.7634C14.5409 15.7066 14.5969 15.6674 14.6487 15.6355C14.6703 15.6225 14.6935 15.6273 14.7095 15.6422C14.7095 15.6422 14.7095 15.6422 14.7096 15.6422C14.7375 15.6491 14.7412 15.6907 14.7344 15.7066C14.6661 15.8353 14.5917 16.0174 14.5271 16.2742C14.4354 16.6408 14.3018 16.6726 14.1099 16.921C14.0562 16.9902 13.9919 17.0848 13.9257 17.2056C13.73 17.56 13.6247 17.8561 13.4159 18.1541C13.3066 18.3095 13.1719 18.462 12.9795 18.6218C12.7242 18.8333 12.6373 19.0394 12.5321 19.2577C12.4043 19.5196 12.2508 19.8064 11.7276 20.0877C11.6375 20.135 11.5544 20.1843 11.4831 20.2304C10.9355 20.5739 10.9183 20.9309 10.4683 21.3826C10.3493 21.4939 10.2114 21.6034 10.0037 21.7098C9.7298 21.8699 9.05596 22.0449 8.61663 21.9177C6.74444 21.2262 7.49328 19.7304 7.38747 19.4359C7.39076 19.3751 7.39568 19.3054 7.40024 19.245C7.44973 18.6066 7.58305 17.8497 7.85334 17.1029C7.85466 17.0992 7.85598 17.0956 7.85729 17.0919C8.07547 16.4852 8.21251 15.7401 8.42948 15.0489C8.50477 14.8088 8.58716 14.5822 8.68808 14.3607C8.8607 13.9839 9.06146 13.5352 9.25251 13.1051C9.49756 12.554 9.72638 12.0293 9.87538 11.7137C9.98465 11.4832 10.0591 11.3214 10.1146 11.1735C10.1938 10.9612 10.2369 10.7703 10.2849 10.4256C10.332 10.0881 10.4744 9.64475 10.6924 9.28877C10.802 9.10941 10.886 9.17312 10.8871 9.37962C10.8883 9.68156 10.789 9.90653 10.8695 10.0821C11.0299 10.4326 11.0868 10.5843 10.8566 10.9213C10.7472 11.0811 10.7471 11.2221 10.7675 11.3485C10.7903 11.4887 10.838 11.612 10.7882 11.7212C10.6922 11.9274 10.52 11.8758 10.3401 13.0056C10.3176 13.1464 10.2941 13.2832 10.2721 13.4092C10.1179 14.2842 9.99358 14.7909 9.91344 15.1566C9.89417 15.2445 9.85894 15.3541 9.81594 15.4728C9.65586 15.915 9.37731 16.521 9.27243 17.0568C9.24903 17.1753 9.21838 17.3088 9.18307 17.4555C9.02579 18.0921 8.80966 18.9471 8.81424 19.4153C8.81424 19.4671 8.81573 19.5215 8.8202 19.564C8.88802 20.0349 8.6802 20.0294 8.63176 20.3464Z" fill="black"/>
</svg>
