<svg width="12" height="16" viewBox="0 0 12 16" fill="none" xmlns="http://www.w3.org/2000/svg">
<path d="M6.22408 15.0941C6.22009 15.0931 6.21611 15.0922 6.21214 15.0914C5.82884 15.0072 5.50508 15.5115 5.01138 15.4141C4.61952 15.3318 4.51166 15.1314 4.18276 15.0586C4.18276 15.0586 4.18276 15.0586 4.18276 15.0586C4.11148 15.0489 4.0315 15.0475 3.92879 15.0548C3.69608 15.0721 3.44015 15.0179 3.23492 14.9487C2.96835 14.861 2.76543 14.7511 2.61361 14.7543C2.44553 14.7563 2.42418 14.6312 2.36405 14.5176C2.32565 14.4449 2.27146 14.3764 2.14743 14.3273C1.89159 14.2228 1.75397 14.0761 1.65376 13.8776C1.62752 13.825 1.6041 13.7684 1.58249 13.7068C1.52765 13.5566 1.3916 13.2835 1.27631 13.0082C1.16163 12.744 1.06048 12.4814 0.953583 12.354C0.914067 12.3076 0.886119 12.2538 0.86825 12.1991C0.785323 11.946 0.907392 11.6609 0.933476 11.501C0.943155 11.4397 0.961671 11.3903 0.982564 11.352C1.00254 11.3156 1.08406 11.3151 1.09368 11.3487C1.11964 11.4386 1.17964 11.5728 1.30472 11.7166C1.4293 11.8581 1.43703 11.9398 1.44612 12.0484C1.45493 12.1425 1.46415 12.2582 1.57241 12.4262C1.65253 12.5488 1.74194 12.6425 1.82771 12.7275C1.99474 12.8904 2.13544 13.0215 2.26547 13.2837C2.26801 13.2887 2.27062 13.2936 2.27327 13.2983C2.43112 13.5646 2.68319 13.477 2.898 13.5543C2.99574 13.5876 3.0918 13.6527 3.22841 13.7887C3.30531 13.8644 3.38375 13.9107 3.45817 13.9359C3.74945 14.0249 3.90481 13.8395 4.24795 13.7033C4.24795 13.7033 4.24795 13.7033 4.24795 13.7033C4.38386 13.6754 4.53755 13.6566 4.71923 13.6573C5.22617 13.6608 5.72034 13.7523 6.14449 13.7999C6.45424 13.8356 6.72089 13.8481 6.89241 13.8096C7.14095 13.7543 7.42686 13.6611 7.71541 13.5557C7.89809 13.4892 8.08477 13.4173 8.27711 13.3453C8.52594 13.2526 8.75778 13.0643 8.96842 12.8507C9.18283 12.6349 9.37839 12.3944 9.6097 12.1867C9.74291 12.0674 9.88682 11.9222 10.0258 11.7679C10.3723 11.3851 10.6875 10.9401 10.8695 10.7089C10.9248 10.6392 10.9708 10.5794 11.0099 10.525C11.1479 10.3353 11.2002 10.215 11.2561 9.92693C11.2972 9.71487 11.4291 9.4543 11.6364 9.27417C11.7416 9.18096 11.8228 9.23849 11.8249 9.37061C11.8282 9.56286 11.7363 9.68548 11.8148 9.81806C11.9738 10.0763 12.0286 10.1922 11.8098 10.372C11.6253 10.5255 11.7668 10.7081 11.7642 10.8404C11.7636 10.8669 11.7574 10.891 11.7419 10.9121C11.6422 11.041 11.498 10.9545 11.2693 11.744C11.195 11.9842 11.1145 12.196 11.0357 12.3779C10.8499 12.804 10.6732 13.0768 10.5355 13.2831C10.4235 13.4508 10.1694 13.6721 9.88204 13.8841C9.66422 14.0462 9.42844 14.2024 9.22648 14.3588C8.99394 14.5428 8.59388 14.7522 8.18437 14.8983C7.77534 15.049 7.35968 15.1433 7.12618 15.2289C6.65114 15.3949 6.62172 15.1833 6.22408 15.0941ZM5.95417 2.7772C5.66758 2.90032 5.48979 3.13417 5.32941 3.38777C5.14427 3.68056 4.9824 3.99614 4.66535 4.26566C4.26075 4.6168 4.00817 4.70222 3.71766 4.96688C3.58572 5.08983 3.44874 5.25134 3.30244 5.50409C3.01317 6.00316 2.68677 6.48079 2.47327 6.88429C2.3446 7.12597 2.25609 7.33851 2.23807 7.49749C2.19683 7.91966 1.856 7.84501 1.75672 8.43853C1.72258 8.66406 1.68798 8.8532 1.64664 9.02685C1.58064 9.30772 1.49414 9.55202 1.38955 9.85958C1.28561 10.1336 1.22668 10.7477 1.19769 11.0674C1.19769 11.0674 1.19769 11.0674 1.19769 11.0674C1.06631 11.0826 1.34931 11.012 1.49567 10.9543C1.69374 10.8845 1.87276 10.8136 2.01469 10.7457C2.07371 10.7175 2.12632 10.6897 2.17122 10.6628C2.28137 10.5968 2.40002 10.5449 2.52256 10.5033C2.70105 10.4428 2.88779 10.4042 3.06851 10.3763C3.27104 10.3451 3.46601 10.3271 3.63337 10.3066C3.70707 10.2975 3.77541 10.2879 3.83669 10.2765C3.96434 10.2526 4.06797 10.2434 4.14945 10.2425C4.22697 10.2417 4.23784 10.3236 4.16735 10.3534C4.04881 10.4034 3.89596 10.4758 3.72148 10.5735C3.61673 10.6321 3.50419 10.6998 3.38661 10.7772C3.33146 10.8135 3.28033 10.8449 3.23224 10.8723C3.02846 10.9883 2.87942 11.0325 2.71125 11.0749C2.56368 11.1121 2.40139 11.1479 2.17446 11.2297C2.07432 11.2658 1.96159 11.3108 1.83199 11.3688C1.77247 11.3955 1.71485 11.422 1.65877 11.4484C1.44841 11.5329 1.44463 11.6021 0.716429 11.8073C0.716435 11.8073 0.716413 11.8072 0.716447 11.8073C0.457036 10.8517 0.463224 10.201 0.640363 9.47861C0.705056 9.22999 0.740429 9.02439 0.761087 8.8335C0.843113 8.19371 0.700414 7.6616 1.3961 6.61056C1.43834 6.54906 1.47832 6.48996 1.51616 6.43293C2.19499 5.45782 2.09552 5.02381 2.59259 4.10377C2.68244 3.94568 2.79415 3.77475 2.93758 3.59147C3.32468 3.09531 3.84198 2.61864 4.3919 2.22889C5.23225 1.62384 6.14198 1.24843 6.69985 1.00803C6.72481 0.997039 6.7491 0.986245 6.77268 0.975632C7.38631 0.692825 8.3005 0.377822 9.24511 0.28468C9.63549 0.284935 10.1202 0.330227 10.613 0.553871C11.0894 0.759727 11.6011 1.2113 11.8105 1.79236C12.1742 2.81659 11.9072 3.77194 11.5754 4.54216C11.4554 4.80808 11.3114 5.065 11.1579 5.29176C10.8773 5.70873 10.5241 6.15168 10.1435 6.55847C9.55085 7.19682 8.87651 7.76053 8.34806 8.13688C8.1783 8.25843 8.01915 8.36559 7.88797 8.4486C7.17089 8.89266 6.92768 9.01678 6.37236 9.41151C6.29886 9.46242 6.21929 9.51746 6.13128 9.57742C5.70057 9.87459 5.03177 10.1738 4.42162 10.274C4.11321 10.324 4.14587 10.2096 4.40615 10.0533C4.7825 9.82381 5.12691 9.70331 5.2713 9.49503C5.51888 9.13532 5.63154 8.96198 6.0058 8.81159C6.06721 8.78655 6.1349 8.76227 6.21282 8.73617C6.7603 8.55018 6.79263 8.13193 7.06731 7.97098C7.26024 7.85214 7.37422 7.89769 7.81887 7.529C8.01098 7.36599 8.26235 7.12452 8.57955 6.73428C8.84356 6.40807 9.0604 6.11032 9.24144 5.84295C9.77274 5.05229 10.025 4.51362 10.1828 4.11597C10.1995 4.07275 10.2192 4.02503 10.2409 3.97295C10.4337 3.53962 10.7523 2.7359 10.5639 2.25623C10.5253 2.14932 10.4669 2.06493 10.3952 2.00432C10.2047 1.84829 9.93043 1.71329 9.32603 1.70637C8.4968 1.80535 7.75213 2.06117 7.33457 2.29978C7.3131 2.31205 7.29231 2.32383 7.27214 2.33515C6.65793 2.69976 6.55535 2.53662 5.95417 2.7772Z" fill="black"/>
</svg>
