<svg width="13" height="37" viewBox="0 0 13 37" fill="none" xmlns="http://www.w3.org/2000/svg">
<path d="M4.27514 29.2766C4.51138 31.0552 5.26605 32.7023 6.44049 33.7652C6.62552 33.9068 6.77339 34.011 6.94055 34.114C7.48346 34.4056 7.49064 34.3767 7.6499 34.3134C7.98127 34.0576 8.24712 33.3592 8.32098 32.3834C8.34992 31.9999 8.35276 31.5477 8.31395 31.0038C8.28758 30.6362 8.2543 30.273 8.21485 29.9062C8.12157 29.0421 7.99728 28.1941 7.85356 27.4177C7.67689 26.464 7.47132 25.6259 7.25212 24.9786C7.14493 24.6611 7.0275 24.3738 6.92177 24.1702C6.57327 23.5189 6.52766 23.244 6.31687 22.9388C6.04562 22.7211 5.72043 22.1934 5.64812 21.6381C5.61857 21.4673 5.59976 21.2844 5.58905 21.0897C5.57528 20.835 5.58245 20.5987 5.59568 20.3779C5.62272 19.9465 5.67317 19.5699 5.71055 19.2196C5.75054 18.8461 5.7815 18.4783 5.73095 18.228C5.66373 17.9984 5.65336 17.9499 5.28935 17.9174C5.16184 17.9149 5.03696 17.9252 4.88357 17.9503C4.72507 17.9752 4.51343 18.026 4.25742 18.1105C4.25743 18.1105 4.25739 18.1105 4.2574 18.1105C3.83993 18.2531 3.30687 18.4764 3.19439 18.8966C3.10284 19.2469 3.45259 19.721 3.84824 20.0655C4.24423 20.4157 4.70784 20.708 5.1693 20.957C5.67784 21.23 6.18888 21.4483 6.64538 21.6123C7.07958 21.7683 7.46571 21.8752 7.76679 21.9381C7.90857 21.9675 8.05757 21.9989 8.20169 22.0281C8.72396 22.1323 9.23682 22.233 9.75 22.256C9.9787 22.2639 10.1889 22.2606 10.3969 22.2436C10.6156 22.2255 10.8269 22.1919 11.0284 22.1401C11.244 22.0848 11.4459 22.0089 11.6274 21.9157C11.832 21.8105 12.0092 21.6847 12.1579 21.5478C12.2302 21.4812 12.2955 21.4123 12.3534 21.3433C12.4391 21.2412 12.5121 21.1394 12.574 21.043C12.6835 20.872 12.7617 20.7128 12.8175 20.5785C12.8909 20.3738 12.9688 20.4276 12.9078 20.6623C12.8661 20.8054 12.8065 20.9627 12.7248 21.126C12.629 21.3177 12.5008 21.5203 12.3327 21.7157C12.1856 21.8867 12.0095 22.0506 11.8004 22.1988C11.6122 22.3326 11.3986 22.4519 11.1657 22.5514C11.134 22.5649 11.1044 22.5772 11.0728 22.5898C10.8587 22.6745 10.6593 22.7293 10.4699 22.7678C10.1995 22.8219 9.96532 22.8414 9.75 22.8463C9.15834 22.8507 8.67776 22.741 8.06412 22.5816C7.63795 22.4664 7.13213 22.3161 6.46536 22.0789C6.32854 22.0299 6.18479 21.9769 6.03392 21.919C5.63326 21.765 5.26343 21.6065 4.91136 21.4371C4.37797 21.178 3.89032 20.9053 3.43272 20.5459C3.01817 20.1696 2.40365 19.7483 2.48036 18.7625C2.68278 17.8912 3.43008 17.5918 3.97652 17.3692C3.97652 17.3692 3.97652 17.3692 3.97652 17.3692C4.32703 17.245 4.73766 17.104 5.24613 17.0822C5.40204 17.0793 5.5504 17.0857 5.743 17.1368C6.1811 17.2233 6.5169 17.6942 6.56747 18.0049C6.6882 18.5524 6.62919 18.9409 6.61476 19.3133C6.58666 19.7308 6.55769 20.1014 6.55242 20.4613C6.54763 20.8155 6.56173 21.1651 6.63528 21.4697C6.72255 21.7681 6.7593 21.8621 6.97557 22.039C7.78066 22.7523 8.00053 23.6094 8.31541 24.6308C8.36704 24.8191 8.41024 24.9951 8.45559 25.1923C8.63243 25.9712 8.75789 26.6301 8.86965 27.2086C9.06445 28.2354 9.21735 29.0175 9.36041 29.7854C9.50335 30.59 9.65104 31.381 9.66887 32.454C9.62353 33.1942 9.75401 34.0405 8.96027 35.2792C8.92324 35.3273 8.87179 35.3882 8.82247 35.4401C7.50249 36.7321 5.94028 35.5969 5.36228 35.1353C3.50659 33.4077 3.29216 31.1081 2.97465 29.3242C2.72172 27.4476 2.68168 25.8481 2.62451 24.7119C2.60543 24.3091 2.58913 23.8687 2.57782 23.4269C2.53292 21.6998 2.55921 19.693 2.70623 17.5666C2.77929 16.5063 2.88188 15.4138 3.01899 14.3073C3.11955 13.4965 3.22763 12.6283 3.34764 11.7468C3.60179 9.8896 3.9083 7.9134 4.37214 5.96444C4.7659 4.41397 5.1537 2.88218 6.06586 1.42878C6.31789 1.07224 6.70967 0.527829 7.34508 0.41013C9.97257 0.482958 9.56421 2.9692 9.66783 4.14855C9.62089 5.60462 9.34277 6.99574 9.01668 8.24199C8.61309 9.76702 8.11747 11.0655 7.73139 11.9711C7.71246 12.0155 7.69364 12.0593 7.67494 12.1026C6.91429 13.8273 6.47128 14.6226 5.88076 15.7548C5.61468 16.2526 5.31202 16.8107 4.89641 17.5134C4.58273 18.0427 4.1983 18.6291 3.75907 19.2223C3.079 20.1441 2.26569 21.0713 1.45923 21.8255C0.783777 22.4449 0.864971 22.2283 1.44638 21.5279C2.28832 20.4964 2.98214 19.6538 3.28889 19.0292C3.30679 18.9926 3.3243 18.9567 3.34147 18.9213C3.89742 17.745 4.15428 17.2226 5.09613 15.8483C5.18438 15.7171 5.26652 15.5863 5.34019 15.4622C6.05724 14.2399 6.12895 13.4458 6.51407 12.6332C6.65885 12.3214 6.76802 12.1332 6.92424 11.8111C7.15992 11.2859 7.60782 10.4187 8.14108 8.03747C8.21446 7.68923 8.28327 7.32121 8.3467 6.90559C8.50013 5.89116 8.56855 4.97422 8.54942 4.14698C8.59181 2.65462 7.93025 1.32221 7.61682 1.7006C7.26265 1.89533 6.75792 3.04517 6.54396 3.70761C6.32055 4.35366 6.0388 5.23807 5.76056 6.30278C5.31598 7.98695 4.90108 10.0652 4.66423 11.9289C4.63786 12.1343 4.61321 12.3394 4.59159 12.5339C4.44363 13.8467 4.24533 15.7221 4.12239 17.6609C3.98641 19.7248 3.94358 21.8568 3.99741 23.4053C4.01256 23.8721 4.03529 24.3002 4.06134 24.6425C4.2825 27.1174 4.10543 27.2108 4.25754 29.1134C4.26297 29.1667 4.26882 29.2211 4.27514 29.2766Z" fill="black"/>
</svg>
