<svg width="13" height="24" viewBox="0 0 13 24" fill="none" xmlns="http://www.w3.org/2000/svg">
<path d="M3.61091 21.7892C3.43278 21.3102 3.24367 20.898 3.08151 20.4456C2.8866 19.8926 2.74211 19.2683 2.87604 18.5439C3.08501 17.541 3.36502 17.2608 3.6427 16.5558C3.734 16.3347 3.81914 16.1106 3.93335 15.7918C4.3153 14.7205 4.95587 13.7918 5.32056 13.1691C5.41567 13.0061 5.49606 12.8566 5.54501 12.7351C5.77839 12.1616 6.10986 12.2665 6.54118 11.5175C6.88665 10.9315 7.18314 10.5627 7.55381 10.1837C7.66546 10.0702 7.78547 9.9545 7.91844 9.83032C8.35192 9.41756 9.40158 8.30203 10.1045 7.50761C10.307 7.27544 10.4814 7.06408 10.5957 6.90005C11.0769 6.19865 11.9467 5.66681 12.3983 5.30936C12.5418 5.19474 12.6633 5.11131 12.7613 5.05198C12.8028 5.02685 12.8338 5.02757 12.8487 5.04326C12.8487 5.04327 12.8487 5.04328 12.8487 5.04329C12.8673 5.06277 12.8609 5.10541 12.8193 5.14981C12.6175 5.36534 12.3334 5.69964 12.0487 6.11955C11.4953 6.93272 11.3004 6.83558 10.4782 7.84722C10.477 7.84863 10.4759 7.85004 10.4748 7.85145C9.67949 8.85544 9.31638 9.54347 8.29355 10.6313C8.26931 10.6574 8.24584 10.6831 8.22312 10.7085C7.32685 11.7433 7.44255 12.2823 6.27429 13.7424C6.23211 13.7968 6.18862 13.8523 6.14378 13.9088C5.10633 15.2638 5.19252 15.8457 4.93998 16.9987C4.88774 17.2691 4.82236 17.5799 4.75018 17.9349C4.59673 18.6829 4.47668 19.494 4.54369 20.2286C4.60208 21.3915 5.33201 22.2121 5.88826 22.357C5.94296 22.376 6.00184 22.394 6.06464 22.41C6.36209 22.7209 7.01976 21.5587 7.27367 20.2629C7.33352 20.0166 7.39502 19.7339 7.44922 19.4751C7.62628 18.6249 7.7036 17.6496 7.75721 16.6432C7.81268 15.6023 7.84297 14.5353 7.93406 13.5253C7.95144 13.3332 7.96884 13.1303 7.98597 12.9226C8.0854 11.7324 8.17333 10.3412 8.24346 9.17926C8.28655 8.46978 8.32396 7.84274 8.35614 7.39405C8.42214 6.47032 8.45027 6.03771 8.4334 5.42237C8.42627 5.16462 8.41113 4.87483 8.38713 4.50504C8.34027 3.77926 8.361 2.78272 8.48694 1.93587C8.55046 1.51312 8.64703 1.60699 8.69792 2.03198C8.77257 2.65993 8.73497 3.1665 8.85873 3.49041C9.10599 4.1278 9.20148 4.40299 9.0733 5.21592C9.06241 5.28512 9.05475 5.35121 9.04983 5.41451C8.99666 6.09436 9.26197 6.44992 9.23319 6.88375C9.20324 7.31595 9.05034 7.34944 9.13882 9.17701C9.14712 9.35388 9.15751 9.54969 9.17015 9.76265C9.25143 11.1344 9.28451 12.156 9.29912 12.951C9.30996 13.5601 9.31051 14.0268 9.31067 14.4273C9.31096 14.9569 9.229 15.8209 9.13081 16.7434C9.05943 17.4169 8.97724 18.1334 8.92052 18.7702C8.87707 19.251 8.79523 19.8774 8.64852 20.5664C8.38333 21.7105 7.79748 24.2316 5.67905 23.7858C5.59679 23.7672 5.51809 23.7471 5.44346 23.7261C3.95946 23.1223 4.11072 22.788 3.61091 21.7892ZM2.50952 6.74545C2.86538 7.05637 3.33057 6.65615 3.7825 6.7548C3.79826 6.75793 3.81366 6.76114 3.82872 6.76442C4.27549 6.84435 4.42402 7.09676 5.00306 6.88656C5.22097 6.79874 5.44021 6.72381 5.64327 6.64335C5.98404 6.50998 6.27533 6.35706 6.3695 6.19189C6.50912 5.92933 6.76647 6.16486 6.99832 5.80433C7.06718 5.69126 7.12638 5.59829 7.18779 5.5133C7.32491 5.32117 7.46462 5.18638 7.65371 4.99476C7.84012 4.81536 8.14155 4.27977 8.24124 3.77865C8.29462 3.53459 8.3086 3.29571 8.27917 3.15441C8.19666 2.72247 8.42901 2.23955 8.46542 1.93594C8.47732 1.84089 8.49509 1.76366 8.51474 1.70316C8.52306 1.67755 8.54382 1.66404 8.56537 1.66213C8.56539 1.66212 8.5654 1.66212 8.56541 1.66212C8.59223 1.65968 8.62026 1.67534 8.62635 1.70725C8.65593 1.86402 8.71423 2.0839 8.8127 2.35837C8.98316 2.88121 8.79328 2.9322 8.77765 3.63532C8.77314 3.72688 8.76917 3.81333 8.76504 3.89632C8.72699 4.4667 8.71322 4.94623 8.24418 5.56307C8.09546 5.75098 8.00387 5.90711 7.92449 6.06589C7.7141 6.46417 7.62004 6.94265 6.74009 7.30934C6.47471 7.41087 6.27248 7.49404 6.10479 7.57996C5.51278 7.85134 5.33794 8.30999 4.29248 8.4782C4.12447 8.49887 3.94884 8.50589 3.76857 8.49836C2.85346 8.47683 1.88973 7.99564 1.34723 7.44814C1.13738 7.24815 0.975908 7.05123 0.848173 6.89636C0.500137 6.50465 0.148658 5.76928 0.0865512 5.12918C0.0459052 4.80311 0.0299371 4.44501 0.0754789 4.04915C0.109902 3.76005 0.152713 3.45926 0.234837 3.1434C0.391303 2.4894 0.80301 1.76812 1.40801 1.34868C1.64331 1.1793 1.89481 1.05345 2.14741 0.969075C2.51102 0.847045 2.91519 0.770184 3.31822 0.736409C3.99606 0.678523 4.65924 0.738336 5.15387 0.815607C5.33052 0.84326 5.48532 0.873105 5.61324 0.901228C6.21344 1.03932 6.41117 1.09869 6.89412 1.13352C6.96716 1.13934 7.04782 1.14527 7.1358 1.1515C7.522 1.17802 8.03795 1.31776 8.4392 1.55332C8.64105 1.67209 8.5682 1.75239 8.34078 1.74571C8.00828 1.73672 7.75633 1.63947 7.56846 1.72416C7.23986 1.87482 7.08599 1.94449 6.78746 1.82067C6.74752 1.80425 6.70503 1.78448 6.6592 1.76119C6.26513 1.56425 6.03352 1.85859 5.80335 1.80073C5.63462 1.7616 5.5968 1.64751 5.12931 1.62722C4.9494 1.62141 4.70508 1.63092 4.37698 1.68752C4.04734 1.74511 3.77019 1.81263 3.53647 1.88327C2.93712 2.06702 2.62221 2.25815 2.41463 2.41406C2.3747 2.44478 2.3268 2.47793 2.27534 2.51404C2.00478 2.69037 1.62881 3.02204 1.51368 3.49944C1.49399 3.57496 1.48026 3.65275 1.47305 3.73224C1.44485 4.03791 1.427 4.43128 1.49702 4.95261C1.58069 5.52614 1.77704 5.82145 1.98162 6.0107C2.14845 6.14868 2.21647 6.23328 2.26291 6.33653C2.31743 6.44946 2.34276 6.58247 2.50952 6.74545Z" fill="black"/>
</svg>
