<svg width="21" height="36" viewBox="0 0 21 36" fill="none" xmlns="http://www.w3.org/2000/svg">
<path d="M7.04693 21.3717C7.0063 22.1405 7.03752 22.8807 7.09466 23.5922C7.20914 25.0391 7.42743 26.4888 7.38824 28.3881C7.38144 28.7265 7.37172 29.0149 7.36007 29.2904C7.13485 31.2039 7.44617 32.5009 6.72265 34.3162C6.681 34.3231 6.6353 34.3334 6.5884 34.3483C5.50355 34.5578 6.33164 33.3703 6.24301 32.8075C6.3569 32.0711 6.48683 31.3608 6.62651 30.6957C6.78973 29.9173 6.96522 29.2095 7.13768 28.5911C7.30907 27.9741 7.47493 27.46 7.59861 27.0632C7.66941 26.8364 7.74121 26.654 7.8225 26.4816C8.1972 25.7694 8.48379 25.4079 9.36036 24.7106C9.61476 24.5325 9.94341 24.3437 10.3819 24.2339C10.8577 24.1115 11.3635 24.1536 11.7283 24.2364C12.6241 24.4297 13.0842 25.25 13.2878 25.8232C13.5134 26.4537 13.6032 27.0768 13.6606 27.7744C13.665 27.8316 13.6691 27.8895 13.6729 27.9483C13.7013 28.3659 13.7333 28.9752 13.7538 29.6876C13.7716 30.2662 13.783 30.91 13.8062 31.5803C13.829 32.1975 13.8591 32.8399 13.9436 33.4431C14.024 34.0398 14.2224 34.818 14.6001 34.7898C15.0466 34.7613 15.4484 34.4283 15.7437 34.1712C15.8736 34.054 15.9855 33.9405 16.0833 33.8343C16.2936 33.6051 16.5073 33.3627 16.7188 33.1183C17.0352 32.7525 17.3504 32.3783 17.6584 32.0073C17.9807 31.6188 18.2942 31.2343 18.5848 30.8698C18.92 30.4497 19.2301 30.0479 19.4814 29.7035C19.5418 29.6203 19.5971 29.5432 19.6478 29.4712C19.8978 29.115 20.0953 28.8418 20.251 28.6336C20.3134 28.5513 20.3662 28.5054 20.3785 28.527C20.3785 28.527 20.3785 28.527 20.3785 28.527C20.4011 28.5418 20.387 28.6173 20.3146 28.7423C20.1423 29.0397 19.9315 29.4036 19.6806 29.8335C19.4593 30.2137 19.2039 30.6499 18.9298 31.1121C18.8971 31.1672 18.8638 31.2232 18.8299 31.2799C18.5653 31.7238 18.3355 32.0677 18.1198 32.3634C17.7998 32.8003 17.5149 33.1317 17.1609 33.5128C16.8728 33.8171 16.5525 34.1561 16.0703 34.5663C15.7574 34.8054 15.4364 35.1255 14.7817 35.2797C14.7181 35.2906 14.6575 35.2962 14.6001 35.2978C13.4121 34.9977 13.5743 34.0641 13.3721 33.5279C13.2492 32.872 13.1866 32.2471 13.1302 31.6155C13.0774 31.0068 13.0379 30.3945 12.9943 29.7327C12.9556 29.1588 12.9163 28.5445 12.8434 27.8863C12.8163 27.6468 12.7853 27.4082 12.744 27.1595C12.6797 26.7739 12.5922 26.4372 12.4762 26.1447C12.2193 25.5273 11.9383 25.235 11.5121 25.1551C10.8966 25.0583 10.4332 25.1596 9.97365 25.5329C9.61455 25.8294 9.26939 26.317 8.93568 27.0016C8.68463 27.5162 8.44041 28.1344 8.18968 28.8796C8.1798 28.909 8.16954 28.94 8.15991 28.9688C7.92537 29.6758 7.76501 30.3222 7.64479 30.891C7.47965 31.6796 7.38706 32.3518 7.32497 32.967C7.03462 33.8438 7.82249 33.9621 6.50765 35.7221C5.27719 33.5874 5.89514 32.7263 5.66748 30.6262C5.65932 30.1993 5.65364 29.745 5.65026 29.299C5.63631 27.4467 5.65991 25.4765 5.69881 23.5941C5.74212 21.4873 5.80686 19.4752 5.85115 17.8854C5.86926 17.2232 5.88329 16.6446 5.88926 16.1394C5.90336 14.9585 5.9238 13.6114 5.97983 12.1621C6.05176 10.38 6.16618 8.44377 6.45753 6.42148C6.54544 5.81998 6.6485 5.22396 6.77822 4.62001C7.04969 3.40232 7.38165 2.01527 8.11078 0.72222C8.11078 0.72222 8.11078 0.72222 8.11078 0.72222C8.16947 0.611067 8.32349 0.415444 8.46217 0.311706C8.61135 0.192424 8.79233 0.1024 8.98187 0.0564914C9.17052 0.0101249 9.36474 0.00636444 9.54634 0.0374067C9.72783 0.0682899 9.89725 0.132632 10.0488 0.221435C10.1997 0.309798 10.3327 0.422593 10.4436 0.551326C10.5461 0.664599 10.6609 0.857708 10.7072 0.973046C11.5292 2.84673 12.2524 4.91318 12.563 7.00826C12.6977 7.90093 12.7606 8.79492 12.7496 9.67013C12.7376 10.8193 12.6055 12.088 12.3476 13.3447C11.928 15.4247 11.1727 17.487 10.365 19.2797C9.56222 21.0631 8.71361 22.5991 8.11296 23.6333C7.87296 24.0452 7.65526 24.4095 7.4513 24.7476C6.34281 26.5587 5.86365 27.3403 4.55054 29.5109C4.45263 29.6713 4.34866 29.8387 4.23908 30.0123C3.36335 31.4035 2.15686 33.1179 1.04228 34.5031C0.399222 35.3032 0.458184 35.0541 1.00489 34.1894C1.787 32.9471 2.51111 31.9517 2.83413 31.2504C3.14724 30.5757 3.34684 30.1246 3.62958 29.6179C3.93406 29.0678 4.28661 28.5366 4.88906 27.705C5.98213 26.1903 6.18345 25.2501 6.71791 24.3358C6.73494 24.3065 6.75225 24.2772 6.7699 24.2479C7.27397 23.3199 7.60721 23.4369 9.51227 18.9227C9.59629 18.7084 9.6914 18.4598 9.78073 18.2152C10.5 16.2518 10.9227 14.5602 11.1465 13.1308C11.5189 10.7175 11.3855 9.0299 11.2079 7.74501C11.1851 7.58723 11.1596 7.41648 11.1303 7.23415C10.9161 5.78271 10.3644 3.62613 9.46433 1.50438C9.43356 1.43882 9.44446 1.46146 9.41957 1.4256C9.40257 1.40431 9.38372 1.3878 9.36548 1.37618C9.34723 1.36447 9.32978 1.35798 9.31719 1.35526C9.30438 1.35248 9.29736 1.35315 9.29475 1.35335C9.29193 1.35385 9.29243 1.35286 9.28743 1.35621C9.27167 1.3747 9.29796 1.33407 9.2584 1.39254C9.2584 1.39254 9.2584 1.39254 9.2584 1.39254C8.97139 1.88982 8.78644 2.36434 8.62296 2.87694C8.31616 3.84102 8.04545 5.14189 7.84991 6.61275C7.60607 8.4269 7.47071 10.4301 7.39689 12.2277C7.33287 13.7984 7.31528 15.2132 7.32773 16.1515C7.33782 16.8988 7.33469 17.4519 7.31989 17.9034C7.27932 19.1971 7.13869 19.6427 7.04693 21.3717Z" fill="black"/>
</svg>
