<svg width="13" height="19" viewBox="0 0 13 19" fill="none" xmlns="http://www.w3.org/2000/svg">
<path d="M5.90175 11.1724C5.83176 11.6148 5.96925 11.974 6.09264 12.399C6.1864 12.697 6.27272 13.0541 6.25754 13.4331C6.23494 14.3406 5.95891 14.506 6.16259 15.5106C6.18406 15.6073 6.20421 15.7002 6.22335 15.789C6.36516 16.686 6.72153 17.4146 6.88469 17.2563C7.01146 17.1588 7.16934 17.5125 7.63833 17.1606C7.64084 17.1585 7.64336 17.1564 7.64589 17.1543C8.09726 16.7596 8.40941 16.5036 8.88341 16.1718C9.16509 15.9721 9.70453 15.4443 10.1491 14.8916C10.4659 14.5014 10.7291 14.1192 10.8477 13.8627C11.1236 13.2598 11.7535 12.7684 12.0501 12.434C12.145 12.3266 12.2288 12.2458 12.2987 12.187C12.3653 12.1309 12.4226 12.191 12.379 12.266C12.2618 12.4675 12.1047 12.774 11.9641 13.1449C11.6714 13.8739 11.4742 13.8119 10.9473 14.6731C10.8181 14.8807 10.7043 15.0725 10.6013 15.2474C10.2502 15.8288 9.95836 16.3378 9.24191 16.9414C8.75542 17.3384 8.5436 17.6518 8.16623 17.9907C7.91664 18.193 6.93782 19.0271 5.8946 17.9107C5.32137 16.9093 5.32213 16.4979 5.06889 16.0133C4.87603 15.5551 4.66581 15.1027 4.56947 14.2612C4.50365 13.6739 4.50014 13.0381 4.52532 12.421C4.57332 11.2357 4.72472 10.0885 4.72882 9.43856C4.73005 9.26202 4.73124 9.06609 4.73279 8.86903C4.73945 7.97067 4.76201 6.7909 4.88655 5.73185C5.08523 5.75008 4.38848 5.2927 5.54143 6.0669C5.54179 6.06692 5.54044 6.06684 5.5425 6.06696C6.84084 5.59361 5.9164 7.13291 6.09446 7.7255C6.04016 8.44986 5.9618 9.18422 5.80672 9.87434C5.79603 9.92211 5.78515 9.97024 5.77408 10.0187C5.61508 10.7147 5.40713 11.5222 5.14399 12.2784C4.84552 13.1531 4.45653 13.9382 4.14525 14.4175C4.12759 14.4452 4.11029 14.4718 4.09341 14.4975C3.5003 15.3467 3.32377 15.5377 2.7276 16.2838C2.71344 16.3005 2.69898 16.3175 2.68419 16.3347C2.31031 16.7798 1.65343 17.2671 1.02368 17.5063C0.703029 17.6285 0.722652 17.5055 0.972955 17.2888C1.33657 16.9696 1.66971 16.7618 1.78085 16.5115C1.92776 16.1717 2.00034 15.9719 2.19578 15.7726C2.28601 15.6793 2.40004 15.5868 2.55476 15.4716C3.0463 15.0943 2.93369 14.6712 3.13675 14.4049C3.22835 14.2798 3.31189 14.2291 3.43815 14.0569C3.58297 13.8486 3.81729 13.4629 4.03633 12.5043C4.07345 12.3361 4.10814 12.1658 4.13674 12.011C4.30823 11.0705 4.37659 10.3654 4.43326 9.81923C4.46381 9.50973 4.48597 9.25312 4.50304 9.02679C4.52916 8.68422 4.61768 8.17023 4.7014 7.59155C4.78945 6.98606 4.87143 6.32869 4.88966 5.71149C5.12961 5.42222 4.24734 5.89071 5.63414 4.69145C5.63414 4.69145 5.63414 4.69145 5.63414 4.69145C6.82911 7.08138 5.93071 7.70996 6.15018 8.92071C6.15107 9.13389 6.15611 9.32773 6.16672 9.47815C6.23565 10.4046 6.0277 10.4249 5.90175 11.1724Z" fill="black"/>
<circle cx="5.93916" cy="1.34913" r="1.14912" fill="black"/>
</svg>
