<svg width="21" height="56" viewBox="0 0 21 56" fill="none" xmlns="http://www.w3.org/2000/svg">
<path d="M9.34904 52.8229C9.00646 53.5212 8.82147 54.574 7.76524 55.0081C7.76524 55.0081 7.76524 55.0081 7.76524 55.0081C7.7247 55.021 7.63392 55.0359 7.58211 55.0382C7.52171 55.0421 7.46332 55.0399 7.40894 55.0337C7.3545 55.0276 7.30398 55.0175 7.2574 55.0054C7.21083 54.9934 7.16812 54.9793 7.12864 54.9644C7.08915 54.9495 7.05286 54.9337 7.01903 54.9178C6.98743 54.9032 6.94875 54.8827 6.92451 54.8698C6.92451 54.8698 6.92451 54.8698 6.92451 54.8698C5.64825 54.2275 4.25038 53.1428 3.34127 51.394C3.10663 50.9433 2.9454 50.5532 2.81223 50.1834C2.19798 48.1988 2.12857 47.3769 1.94701 44.4313C1.94368 44.3244 1.9415 44.2143 1.94041 44.1103C1.9126 41.8926 2.38843 39.742 2.85373 38.1589C3.1025 37.3032 3.34147 36.6059 3.48687 36.1034C3.94591 34.6293 4.29468 34.5912 5.20912 32.6585C5.21423 32.6481 5.21935 32.6377 5.2245 32.6273C6.20687 30.6813 7.00607 29.6018 8.26146 28.1784C8.36435 28.0638 8.48434 27.9295 8.61999 27.7791C9.54135 26.7348 11.2501 25.0017 12.8946 23.6681C13.3753 23.2656 13.8205 22.8819 14.2197 22.5257C14.6838 22.1118 15.0826 21.7371 15.3637 21.4513C15.4018 21.4124 15.4455 21.3687 15.4863 21.328C15.8876 20.9267 16.3225 20.5218 16.7502 20.1304C17.1866 19.7313 17.6267 19.3357 18.0307 18.9592C18.4958 18.5252 18.9144 18.1158 19.2505 17.7312C19.3693 17.5951 19.4746 17.4662 19.5684 17.3406C19.8323 16.9882 20.0079 16.692 20.1088 16.4464C20.1514 16.3434 20.1827 16.295 20.204 16.3009C20.204 16.3009 20.2041 16.3009 20.2041 16.3009C20.2298 16.3056 20.2405 16.3941 20.195 16.5395C20.0711 16.936 19.8049 17.3928 19.4551 17.8911C19.1866 18.2739 18.8657 18.6862 18.5191 19.1144C18.4707 19.1742 18.4181 19.2373 18.3745 19.2901C17.8971 19.859 17.528 20.23 17.1666 20.5703C16.7708 20.9411 16.3841 21.2701 15.8531 21.7377C15.5011 22.0472 15.0802 22.4217 14.5465 22.9056C14.4707 22.9743 14.3901 23.0474 14.3088 23.1213C13.937 23.4597 13.5879 23.7776 13.2447 24.0888C11.7712 25.4271 10.7072 26.5818 9.2367 28.2894C8.93536 28.6446 8.62851 29.0142 8.29617 29.4299C7.14449 30.8881 6.64359 31.9232 6.07616 33.123C5.53895 34.3179 4.89849 35.6666 4.01285 38.0704C3.96694 38.1986 3.92365 38.3239 3.88277 38.4464C3.04116 41.0736 3.06235 42.5195 3.1591 44.1142C3.26983 45.303 3.41067 46.6327 4.02318 48.5832C4.12762 48.9005 4.24664 49.2222 4.37799 49.5347C5.06269 51.176 6.14266 52.6674 7.67435 53.6533C7.67435 53.6533 7.67435 53.6533 7.67435 53.6533C7.68738 53.6617 7.68204 53.659 7.68674 53.6621C7.68854 53.6636 7.68781 53.6636 7.68368 53.6624C7.67955 53.6611 7.67196 53.6586 7.65992 53.6555C7.64788 53.6524 7.63128 53.6487 7.60976 53.646C7.58829 53.6434 7.56177 53.6419 7.53201 53.6434C7.51402 53.6428 7.44205 53.6545 7.43754 53.6579C7.43754 53.6579 7.43754 53.6579 7.43754 53.6579C8.4793 52.4304 9.11338 48.7061 9.33655 47.237C9.33962 47.2157 9.34269 47.1942 9.34576 47.1726C9.64919 45.0511 9.91279 42.3775 10.158 39.5071C10.2722 38.1744 10.3816 36.8239 10.4953 35.4243C10.5885 34.2779 10.6619 33.0581 10.7218 31.7977C10.84 29.3179 10.9062 26.6616 10.9788 24.0658C11.0124 22.8702 11.049 21.629 11.0927 20.4646C11.1401 19.2004 11.1821 17.7852 11.205 16.3342C11.3634 14.1245 10.9154 9.74729 11.2834 9.92453C11.2834 9.92453 11.2834 9.92453 11.2834 9.92453C10.9557 10.9979 10.6335 11.9444 10.3251 12.7092C10.2709 12.844 10.2188 12.9695 10.1654 13.0946C9.75363 14.0575 9.36136 14.7563 8.98465 15.345C8.42622 16.2064 7.91647 16.8507 7.2032 17.6898C6.8744 18.0736 6.50455 18.4899 6.05203 18.983C5.79735 19.2605 5.52134 19.5507 5.23023 19.8484C4.58858 20.5045 3.87317 21.1992 3.14182 21.8855C2.58579 22.407 2.02474 22.9193 1.48609 23.3952C0.69152 24.099 0.802357 23.8507 1.50632 23.0773C2.00798 22.5279 2.47469 22.052 2.884 21.6275C3.33112 21.1636 3.70462 20.7658 3.95977 20.4212C4.25861 20.015 4.50056 19.6851 4.74677 19.373C5.25941 18.7136 5.773 18.1837 6.7135 17.2606C6.72625 17.2479 6.73905 17.2352 6.7519 17.2225C7.64118 16.3365 8.03921 15.6042 8.34919 14.9589C8.52863 14.5826 8.67909 14.2321 8.86988 13.8683C9.1146 13.3898 9.27582 13.1578 9.58145 12.4363C9.80302 11.9026 10.0911 11.099 10.4633 9.69674C10.4634 9.69671 10.4633 9.69681 10.4634 9.69666C11.9948 7.27925 12.0178 10.785 12.1139 11.0691C12.3154 13.16 12.3607 14.8319 12.4076 16.3242C12.4819 19.1886 12.4676 21.1264 12.4626 22.6089C12.4601 23.0467 12.449 23.5284 12.4298 24.1029C12.3609 26.2115 12.1806 29.1911 12.0475 31.8664C12.0242 32.3428 12.0026 32.8103 11.9841 33.2618C11.9181 34.885 11.7718 37.2395 11.5735 39.6271C11.333 42.6114 10.9777 45.6934 10.7672 47.3864C10.7652 47.403 10.7632 47.4195 10.7613 47.4358C10.3529 50.4321 10.1839 50.4419 9.34904 52.8229Z" fill="black"/>
<circle cx="10.7503" cy="2.47499" r="1.575" fill="black"/>
</svg>
