<svg width="15" height="26" viewBox="0 0 15 26" fill="none" xmlns="http://www.w3.org/2000/svg">
<path d="M6.02125 16.0515C6.01246 16.2511 6.0123 16.4478 6.0187 16.6387C6.06309 17.9797 6.43548 19.1577 6.45111 20.8035C6.45215 20.921 6.45134 21.0409 6.44841 21.1634C6.21524 22.7428 6.71221 23.9365 5.59079 24.3896C5.59079 24.3896 5.59079 24.3896 5.59079 24.3896C4.47514 25.0758 5.21905 24.1984 5.03284 23.9905C5.0411 23.6312 5.0595 23.2499 5.08467 22.8885C5.13476 22.1664 5.21494 21.4615 5.31294 20.8172C5.4346 20.0104 5.58659 19.3016 5.72239 18.7372C5.77667 18.5085 5.83129 18.2915 5.86911 18.1216C6.03994 17.4162 6.28596 17.1586 6.64988 16.731C6.87582 16.4877 7.14248 16.1646 7.67444 15.7942C7.96322 15.599 8.26284 15.4737 8.5483 15.3942C9.37238 15.1769 10.0806 15.2588 10.7786 15.401C10.9965 15.472 11.2423 15.5607 11.4665 15.6772C11.5258 15.7077 11.5813 15.7388 11.6424 15.7765C11.7761 15.8644 11.9562 15.9723 12.1121 16.2139C12.2937 16.4749 12.2542 16.8798 12.118 17.126C12.0079 17.3508 11.8567 17.542 11.6945 17.7249C11.545 17.8919 11.3794 18.0545 11.2091 18.2115C11.0446 18.363 10.8751 18.51 10.7022 18.6552C10.5997 18.7435 10.5421 18.8206 10.4899 18.9339C10.4416 19.0424 10.4178 19.1655 10.4152 19.293C10.4125 19.4229 10.4309 19.5562 10.4631 19.6866C10.4964 19.8209 10.5442 19.952 10.6007 20.0767C10.6599 20.2073 10.7289 20.331 10.8031 20.4456C10.8842 20.5704 10.9657 20.6773 11.057 20.7815C11.148 20.8854 11.2286 20.9999 11.2935 21.1063C11.3678 21.228 11.4272 21.3456 11.4778 21.4555C11.5183 21.5434 11.5531 21.6266 11.5838 21.7026C11.5987 21.7393 11.6131 21.7773 11.6265 21.8146C11.6696 21.9349 11.7054 22.0579 11.7353 22.1819C11.7649 22.305 11.7885 22.4282 11.8077 22.5529C11.8266 22.6756 11.8414 22.803 11.8518 22.9243C11.8518 22.9243 11.8518 22.9243 11.8518 22.9243C11.8526 22.9341 11.8532 22.9404 11.8541 22.9491C11.8549 22.9571 11.8559 22.965 11.8569 22.9727C11.8579 22.9804 11.859 22.9878 11.8602 22.995C11.8614 23.0022 11.8626 23.0092 11.864 23.0159C11.8653 23.0226 11.8667 23.0291 11.8682 23.0352C11.87 23.0424 11.8704 23.0447 11.8728 23.0527C11.9294 23.2322 11.9893 23.3673 12.0812 23.4904C12.1735 23.6135 12.2952 23.7062 12.4459 23.7725C12.6053 23.843 12.7888 23.8826 12.9688 23.906C13.1691 23.9318 13.3676 23.9386 13.5506 23.9375C13.6682 23.9367 13.7799 23.9323 13.8849 23.9253C13.9761 23.9193 14.0658 23.913 14.1458 23.9078C14.3364 23.895 14.4973 23.8858 14.6303 23.881C14.8124 23.8739 14.7881 23.9607 14.6064 23.9974C14.4768 24.0233 14.332 24.0528 14.1711 24.0845C13.99 24.12 13.7925 24.1583 13.5724 24.1935C13.3825 24.2236 13.1774 24.2519 12.9553 24.2639C12.7915 24.2722 12.6178 24.2721 12.4321 24.2449C12.3856 24.2378 12.341 24.2294 12.2963 24.2187C12.0398 24.1599 11.8144 24.0243 11.6604 23.8623C11.4697 23.6653 11.3648 23.4352 11.3009 23.2488C11.2963 23.2356 11.2904 23.2167 11.2864 23.2025C11.2821 23.1872 11.2782 23.1721 11.2747 23.1571C11.2712 23.1421 11.2681 23.1273 11.2653 23.1127C11.2625 23.0981 11.2601 23.0836 11.2579 23.0693C11.2557 23.0549 11.2539 23.0408 11.2522 23.0268C11.2507 23.0133 11.2491 22.9976 11.248 22.9852C11.248 22.9852 11.248 22.9852 11.248 22.9852C11.2382 22.8676 11.2285 22.7563 11.2155 22.6375C11.2034 22.5274 11.1889 22.4149 11.1684 22.2947C11.1504 22.1891 11.1279 22.0781 11.0972 21.9611C11.0705 21.8596 11.0376 21.7531 10.9945 21.6436C10.9567 21.5477 10.9112 21.4498 10.854 21.3523C10.8025 21.265 10.746 21.1842 10.6719 21.1006C10.5963 21.0152 10.5117 20.9097 10.4347 20.803C10.4135 20.7738 10.3927 20.7441 10.3725 20.7145C10.2782 20.5761 10.1946 20.4348 10.1218 20.2898C10.0456 20.1376 9.98108 19.9812 9.93199 19.8184C9.8811 19.6487 9.84653 19.4718 9.83993 19.2854C9.83318 19.0944 9.85804 18.8916 9.93135 18.6966C9.99666 18.5074 10.1494 18.2929 10.2824 18.1724C10.4397 18.019 10.5871 17.8701 10.7312 17.7172C10.8715 17.568 11.0117 17.4117 11.1353 17.2553C11.2517 17.1083 11.3614 16.9485 11.4174 16.8173C11.472 16.6773 11.4542 16.6705 11.4499 16.6543C11.4375 16.6186 11.3111 16.5149 11.1406 16.4374C11.0182 16.3792 10.8814 16.3268 10.7434 16.2791C10.7005 16.2644 10.656 16.2501 10.6093 16.2361C9.85208 16.0937 9.26436 16.1386 8.78365 16.3088C8.27174 16.4988 7.90815 16.8004 7.55342 17.3499C7.30331 17.7421 7.06063 18.2785 6.81556 19.0219C6.75844 19.1969 6.70535 19.3646 6.64778 19.5615C6.49756 20.074 6.40579 20.5312 6.34144 20.9483C6.22115 21.7431 6.20401 22.3786 6.21642 22.966C5.97508 23.8433 6.99166 23.5982 5.55263 25.7432C5.55263 25.7432 5.55263 25.7432 5.55263 25.7432C4.11189 23.7687 4.98692 23.9178 4.72669 22.7989C4.71383 22.1614 4.70744 21.4997 4.70485 20.8258C4.69967 19.4406 4.71009 18.003 4.72158 16.6702C4.73506 15.0234 4.75398 13.5422 4.73515 12.4997C4.73374 12.4244 4.73212 12.3515 4.73027 12.2813C4.70083 11.1331 4.6633 9.79104 4.68609 8.30591C4.71129 6.98817 4.76972 5.54592 5.02966 4.06417C5.04307 3.98945 5.05697 3.91554 5.07136 3.84245C5.43969 2.73219 5.32897 0.750287 7.66915 0.17298C10.1131 0.100893 10.6967 2.69882 10.7677 4.08801C10.814 4.82594 10.7722 5.53408 10.6792 6.22249C10.5695 7.02719 10.3895 7.87617 10.1482 8.74126C9.7333 10.234 9.14202 11.7258 8.51184 13.0372C7.87702 14.3618 7.21397 15.4839 6.73017 16.2385C6.55381 16.5135 6.39033 16.7605 6.24012 16.9835C5.33975 18.2899 4.96174 18.8414 3.86859 20.3654C3.79285 20.469 3.71265 20.576 3.6283 20.6858C2.89501 21.6469 1.84616 22.7797 0.841262 23.6262C0.271231 24.1039 0.32694 23.9162 0.810424 23.3572C1.50822 22.5421 2.12345 21.908 2.39315 21.4079C2.65381 20.9233 2.82625 20.5834 3.05815 20.2328C3.30002 19.8637 3.5923 19.506 4.07281 18.9675C4.99109 17.927 5.07993 17.1966 5.5219 16.5442C5.52454 16.5402 5.52719 16.5363 5.52986 16.5323C5.92675 15.8691 6.22684 16.0047 7.65934 12.6648C7.71497 12.5259 7.77118 12.3817 7.82752 12.2325C8.38202 10.7614 8.73 9.5033 8.95567 8.45152C9.31204 6.7708 9.37801 5.58339 9.34586 4.6912C9.34004 4.54358 9.33201 4.36673 9.31952 4.1921C9.2828 3.21372 8.89625 1.39693 7.74839 1.51807C7.30364 1.53008 6.98165 2.01818 6.75976 2.6693C6.61719 3.09063 6.48941 3.65301 6.39452 4.28231C6.21074 5.48446 6.13185 6.96252 6.10726 8.33779C6.07997 9.90852 6.11489 11.3527 6.16834 12.2471C6.17314 12.326 6.17752 12.4021 6.18149 12.4757C6.28638 14.3431 6.09427 14.4142 6.02125 16.0515Z" fill="black"/>
</svg>
