<svg width="10" height="27" viewBox="0 0 10 27" fill="none" xmlns="http://www.w3.org/2000/svg">
<path d="M4.6729 3.66101C4.27543 4.37402 4.28469 5.13357 4.24965 5.95233C4.23501 6.32168 4.20981 6.72683 4.14435 7.1649C3.97306 8.51106 3.73024 8.80396 3.82868 10.2446C3.83648 10.3357 3.84624 10.4316 3.85833 10.533C4.04768 12.1724 4.22157 13.8372 4.49818 14.5949C4.50709 14.6196 4.51606 14.6432 4.52513 14.6658C4.81837 15.3786 4.50488 15.5463 4.88769 16.5745C5.24039 17.4917 5.42309 18.0938 5.63223 18.8851C5.65618 18.9746 5.68016 19.0653 5.70579 19.1609C5.89243 19.9157 6.66719 21.8531 7.38276 22.981C7.54848 23.2511 7.70806 23.4831 7.83594 23.6412C8.49963 24.4775 9.03481 25.5843 9.49404 26.162C9.6392 26.3482 9.74689 26.4923 9.82546 26.6055C9.90014 26.7122 9.82497 26.7527 9.72505 26.6619C9.45163 26.4125 9.04591 26.0333 8.56713 25.572C7.71919 24.7221 7.76411 24.4766 6.94724 23.2287C6.91824 23.1829 6.88815 23.1356 6.85688 23.0865C6.01312 21.7328 5.42942 20.91 4.85147 19.1856C4.82959 19.1185 4.80783 19.0499 4.78619 18.9797C4.29614 17.3101 3.74291 16.9101 3.3515 14.8674C3.30796 14.6223 3.2693 14.354 3.23836 14.0584C3.0583 12.1757 2.81264 11.4813 2.55792 10.3337C2.44703 9.79368 2.34365 9.15567 2.34345 8.25075C2.34494 7.42719 2.43449 6.52596 2.62639 5.6452C2.9673 3.93449 3.86596 2.21466 4.68338 1.28822C4.91216 1.01473 5.06192 0.854396 5.29172 0.646577C7.83361 -1.24509 8.3861 2.63217 8.39939 3.6528C8.44411 4.30738 8.44454 4.98185 8.4099 5.67396C8.36187 6.61772 8.30201 7.6733 8.20528 8.73136C8.06079 10.3173 7.8321 11.9483 7.44627 13.451C7.42568 13.5312 7.40462 13.6125 7.38311 13.6948C6.99501 15.1928 6.44067 16.9888 5.86036 18.4852C5.47928 19.4783 5.09241 20.339 4.80187 20.9209C4.30515 21.9087 4.02342 22.3861 3.69366 23.0057C3.51647 23.332 3.3139 23.7121 3.02885 24.1903C2.56263 24.9854 1.69178 26.0329 0.727433 26.5654C0.245585 26.8174 0.304937 26.6725 0.700229 26.3225C1.26845 25.794 1.72442 25.3238 1.88198 24.9441C2.18721 24.1697 2.29987 23.8498 2.92707 23.0623C3.02101 22.9405 3.09843 22.8232 3.16102 22.7152C3.52772 22.0751 3.5049 21.5922 3.73909 21.1526C3.98323 20.6396 4.22138 20.7233 4.98128 18.1947C5.01511 18.0759 5.04969 17.9509 5.0849 17.8194C5.60625 15.8476 5.86598 14.4553 6.05781 13.4149C6.14967 12.9046 6.2183 12.4878 6.276 12.1118C6.39587 11.3362 6.691 9.97348 6.86228 8.58858C6.9398 7.9726 6.99536 7.33823 7.01005 6.77495C7.03078 5.97973 7.06771 4.88856 6.98366 3.75544C6.89621 2.03033 6.30693 1.04811 6.2845 1.69198C6.11099 1.86013 5.98119 2.02157 5.83457 2.20002C5.36796 2.81332 5.14842 2.87056 4.6729 3.66101Z" fill="black"/>
</svg>
