<svg width="32" height="14" viewBox="0 0 32 14" fill="none" xmlns="http://www.w3.org/2000/svg">
<path d="M18.1412 5.26534C18.207 5.81723 18.3263 6.31684 18.4691 6.81054C18.64 7.40149 18.8435 7.98966 19.0229 8.63914C19.1404 9.06285 19.2458 9.50748 19.3372 9.99589C19.3688 10.1614 19.3943 10.2981 19.4214 10.4368C19.4656 11.1215 19.9433 11.7692 19.5 11.5744C19.5 11.5744 19.5 11.5744 19.5 11.5744C19.1222 11.878 19.766 11.225 19.8663 10.452C19.883 10.3847 19.8991 10.3161 19.9158 10.2422C20.0397 9.68729 20.1569 9.12468 20.2763 8.57649C20.4238 7.89556 20.572 7.24312 20.7083 6.66101C20.8883 5.88629 21.0495 5.23591 21.1173 4.79777C21.1216 4.76936 21.1262 4.74177 21.1309 4.71495C21.2901 3.89459 21.5497 3.73483 21.9594 2.84366C22.0365 2.68898 22.1098 2.53755 22.2216 2.33673C22.4568 1.85327 23.0756 1.24949 23.6897 1.29604C24.8036 1.42047 25.1536 2.23214 25.5431 2.89628C25.5605 2.93005 25.5794 2.96687 25.5968 3.00155C25.837 3.46658 26.1866 4.23577 26.5355 5.08098C26.8213 5.76717 27.1152 6.49793 27.4001 7.15798C27.7089 7.87651 28.0095 8.50626 28.2376 8.88914C28.2906 8.97863 28.3423 9.06878 28.3927 9.15901C28.7569 9.81117 29.0769 10.5121 29.4354 11.0901C29.7025 11.5258 30.019 11.8995 30.3348 12.0597C30.5811 12.1898 30.8067 12.214 30.9783 12.2054C31.1463 12.1878 31.1438 12.2785 30.9562 12.3217C30.4418 12.4675 29.6851 12.0504 29.1039 11.4017C29.092 11.3893 29.0803 11.3769 29.0687 11.3646C28.3588 10.5586 28.2294 10.1369 27.8817 9.40563C27.717 9.04402 27.5108 8.59339 27.2037 7.96208C27.1032 7.75549 27.0061 7.55711 26.9119 7.36598C26.554 6.63962 26.2367 6.01765 25.9068 5.36205C25.6012 4.76221 25.2974 4.12852 24.9022 3.42229C24.7859 3.21852 24.6666 3.01929 24.5274 2.81992C24.1977 2.37104 23.9707 2.20458 23.6897 2.2036C23.3368 2.24834 23.1085 2.69018 22.8744 3.2761C22.7002 3.72689 22.5233 4.29041 22.2936 5.02771C22.1879 5.36763 22.0714 5.74503 21.9378 6.17311C21.8607 6.41994 21.7931 6.65551 21.7338 6.87583C21.5296 7.6385 21.4152 8.24752 21.3341 8.79105C21.2305 9.47981 21.189 10.0752 21.0815 10.7791C20.7375 11.3666 21.5593 11.9755 19.5 13.0651C19.5 13.0651 19.5 13.0651 19.5 13.0651C18.6723 13.0938 18.2741 12.2525 18.1666 12.0433C17.9714 11.6352 17.8583 11.2499 17.7569 10.8716C17.5893 10.2277 17.4726 9.58077 17.3683 8.94001C17.2653 8.30189 17.1772 7.66402 17.0913 7.04662C17.0012 6.3986 16.9136 5.76938 16.8175 5.18325C16.7076 4.51634 16.5901 3.91214 16.4404 3.39386C16.314 2.93204 16.1118 2.50831 16.0039 2.41972C15.9657 2.41815 16.1562 2.45836 16.095 2.42134C15.6369 2.51025 15.3773 2.72972 14.9977 3.24899C14.6948 3.68863 14.4395 4.25881 14.2225 4.86973C14.0182 5.44545 13.8432 6.06537 13.6813 6.70903C13.5636 7.17738 13.4532 7.6578 13.3442 8.14703C13.3099 8.30068 13.2753 8.46267 13.2424 8.62243C13.1139 9.2423 12.9982 9.9027 12.8663 10.5883C12.4537 11.2831 13.3956 11.7918 11.366 12.9034C11.366 12.9034 11.366 12.9034 11.3659 12.9034C9.97011 11.9149 10.3615 11.4557 10.005 10.7912C9.81174 10.1691 9.65103 9.5537 9.50259 8.94395C9.35686 8.34269 9.22533 7.74679 9.10558 7.16322C9.10156 7.14365 9.09754 7.12403 9.0935 7.10437C8.97487 6.52678 8.8464 5.90601 8.70586 5.27408C8.57428 4.68452 8.42925 4.06784 8.26165 3.48446C8.17196 2.96689 7.66757 2.1189 7.85538 2.20961C7.49171 2.15305 6.98785 2.97699 6.72021 3.56339C6.37123 4.30657 6.12119 5.01178 5.92422 5.54429C5.90505 5.59677 5.88627 5.6485 5.86784 5.69948C5.52025 6.66736 5.31147 7.28394 5.1082 7.90906C4.90648 8.51985 4.73224 9.14189 4.39018 10.1031C4.38543 10.1161 4.38064 10.1292 4.37581 10.1424C4.13154 10.78 3.80266 11.5744 3.17819 12.2178C2.73102 12.746 1.82901 12.9266 1.307 12.5349C0.717402 12.0886 0.938178 12.1668 1.54014 12.4059C2.1307 12.5967 2.60988 12.2871 2.8915 11.947C3.05108 11.7582 3.16571 11.5546 3.22762 11.3769C3.43334 10.7615 3.49964 10.3632 3.68834 9.86636C3.80064 9.56038 3.94884 9.21782 4.1609 8.75417C4.33816 8.365 4.44134 8.02859 4.51209 7.72527C4.66233 7.07677 4.65994 6.59155 4.83787 6.08511C4.92231 5.84434 4.99572 5.69454 5.09504 5.46179C5.25961 5.10568 5.42794 4.55869 5.94059 3.23078C6.16328 2.76819 6.29116 2.20031 7.02094 1.51923C7.25918 1.32118 7.58797 1.20407 7.84074 1.20584C9.35813 1.9674 8.96275 2.55811 9.3385 3.12945C9.58076 3.80126 9.76224 4.41308 9.92078 4.95654C10.1216 5.65141 10.2832 6.25345 10.4245 6.7788C10.571 7.32528 10.6956 7.79457 10.8081 8.20573C10.8405 8.32427 10.8742 8.45248 10.9089 8.58803C11.0368 9.08367 11.1844 9.71339 11.3685 10.3745C11.4139 10.8196 12.0071 11.7928 11.6318 11.5631C11.6318 11.5631 11.6318 11.5631 11.6318 11.5631C10.7549 11.9741 11.635 10.8156 11.5646 10.3273C11.6276 10.007 11.6833 9.68635 11.7341 9.37218C11.7821 9.07382 11.8388 8.73534 11.9046 8.36715C12.0122 7.76741 12.1437 7.0883 12.3109 6.37994C12.4648 5.72988 12.6479 5.0548 12.8839 4.38931C13.1273 3.70834 13.4245 3.029 13.8414 2.42853C14.268 1.73205 15.2362 1.0387 15.946 1.003C16.2681 0.913306 16.8094 1.16576 16.9947 1.37653C17.6956 2.16196 17.6963 2.56942 17.8371 2.94921C18.0218 3.67424 17.9993 4.04141 18.1023 4.92564C18.1136 5.03016 18.1265 5.14283 18.1412 5.26534Z" fill="black"/>
</svg>
