<svg width="23" height="12" viewBox="0 0 23 12" fill="none" xmlns="http://www.w3.org/2000/svg">
<path d="M10.2381 6.94009C10.3686 6.38217 10.3422 5.86634 10.3359 5.30659C10.3311 4.77973 10.3418 4.21048 10.5497 3.56184C10.5555 3.54368 10.5616 3.52549 10.5678 3.50728C10.8322 2.74191 11.0879 2.3784 11.3803 1.93502C11.642 1.59258 11.807 1.18577 12.5273 0.573203C12.598 0.519972 12.6687 0.474205 12.7382 0.434439C12.8173 0.3847 13.0017 0.31584 13.1308 0.303784C13.2747 0.284939 13.423 0.29815 13.554 0.334933C13.6862 0.371681 13.8021 0.430029 13.9007 0.496939C14.0004 0.564786 14.0837 0.641663 14.1552 0.723046C14.2272 0.805264 14.2871 0.892286 14.3371 0.982748C14.3841 1.06554 14.4362 1.18997 14.4587 1.26796C14.4587 1.26796 14.4587 1.26796 14.4587 1.26796C14.7435 2.22704 14.9689 3.0715 15.2043 3.50173C15.2105 3.51324 15.2168 3.52446 15.223 3.53538C15.5684 4.12586 15.2723 4.32163 15.7227 5.17582C15.8244 5.36461 15.9156 5.53692 15.9988 5.69937C16.2911 6.26493 16.4779 6.71929 16.7431 7.31584C16.8003 7.44303 16.8854 7.61055 16.9955 7.80069C17.3057 8.3451 17.8486 9.07806 18.4692 9.56527C18.9262 9.93503 19.4125 10.1567 19.7264 10.2217C19.9914 10.2798 20.2576 10.344 20.5268 10.3963C21.1434 10.5234 21.807 10.559 22.2515 10.4834C22.4479 10.4515 22.603 10.4267 22.7299 10.4095C22.7833 10.4022 22.8141 10.4143 22.8213 10.4347C22.8213 10.4347 22.8213 10.4347 22.8213 10.4348C22.8305 10.46 22.8027 10.4983 22.7384 10.5237C22.4316 10.643 21.9775 10.8231 21.3801 10.9579C20.9798 11.0454 20.6915 11.0345 20.4357 10.9949C19.9782 10.904 19.5794 10.7862 18.7063 10.3407C18.4961 10.2273 18.308 10.1123 18.1289 9.992C17.4151 9.50292 16.8752 9.0011 16.3523 8.24062C16.1737 7.97689 16.0018 7.6826 15.8352 7.34107C15.5819 6.81841 15.3667 6.449 15.1502 6.10232C14.7912 5.51901 14.4238 4.99773 14.0939 3.91393C14.0291 3.69842 13.9645 3.45464 13.9058 3.19072C13.7512 2.49948 13.6071 2.0086 13.4487 1.59948C13.4487 1.59945 13.4487 1.5995 13.4487 1.59948C13.4286 1.55259 13.4206 1.54783 13.3982 1.51645C13.3778 1.491 13.3551 1.46996 13.3328 1.4551C13.3099 1.43962 13.2874 1.43093 13.2706 1.42963C13.2534 1.42814 13.2426 1.43478 13.2433 1.44503C13.2435 1.45535 13.2564 1.46807 13.2729 1.47651C13.2742 1.49148 13.3419 1.47557 13.3154 1.49758C13.0596 1.75377 12.9683 2.00305 12.7156 2.5927C12.6602 2.73189 12.601 2.88887 12.5405 3.05881C12.4323 3.36217 12.3287 3.68836 12.2296 4.0307C12.0857 4.52758 11.9521 5.05571 11.8327 5.58091C11.7089 6.12556 11.6 6.66695 11.5085 7.18237C11.4024 7.77964 11.3202 8.33969 11.2686 8.81251C11.2401 9.07437 11.2208 9.3096 11.2117 9.51163C10.9708 10.0384 11.8166 9.4927 10.5017 11.146C9.1596 9.30543 9.97766 9.61942 9.69665 8.80452C9.64855 8.2714 9.59216 7.72415 9.52606 7.15718C9.48597 6.81364 9.44226 6.46385 9.39501 6.11395C9.3689 5.92094 9.33772 5.72576 9.30108 5.5271C9.20562 5.01064 9.07573 4.47947 8.90678 3.95264C8.7456 3.45196 8.55015 2.95728 8.31014 2.51225C8.0547 2.05317 7.83221 1.73404 7.48227 1.46727C7.47614 1.46305 7.49194 1.47271 7.4895 1.47058C7.49109 1.47105 7.49189 1.47099 7.49202 1.47062C7.49216 1.47025 7.49163 1.46957 7.49063 1.46877C7.48963 1.46796 7.48815 1.46702 7.48639 1.46607C7.48464 1.46512 7.48261 1.46415 7.48055 1.46326C7.47485 1.46184 7.48482 1.46271 7.47448 1.46077C7.22787 1.42407 7.03145 1.43371 6.89895 1.45638C6.65635 1.48549 6.35435 1.66892 6.12264 2.05869C5.78774 2.60506 5.58993 3.39283 5.4275 4.12437C5.24369 4.97447 5.09372 5.79511 4.9315 6.44209C4.87399 6.67578 4.81752 6.88269 4.76254 7.06706C4.53032 7.83322 4.33548 8.27738 4.11625 8.72086C3.91151 9.10485 3.7055 9.52542 3.17839 10.0141C2.97763 10.1946 2.70917 10.3665 2.41386 10.4813C1.73375 10.7528 0.949988 10.7247 0.305243 10.5525C-0.179795 10.4138 -0.0353824 10.3456 0.437104 10.3558C1.12522 10.3615 1.67718 10.3224 1.97102 10.1085C2.05196 10.0477 2.12526 9.9876 2.1905 9.93018C2.54461 9.58481 2.71338 9.44462 3.21611 8.98765C3.39128 8.8149 3.49298 8.62854 3.55767 8.45145C3.70191 8.0431 3.65337 7.71427 3.77262 7.39122C3.87657 7.08742 3.99326 7.00476 4.14813 6.29955C4.23613 5.89565 4.3153 5.28643 4.40839 4.29633C4.41966 4.18339 4.43129 4.07232 4.44326 3.96428C4.55031 3.02531 4.68744 2.20251 5.03393 1.48119C5.48696 0.242239 7.09666 -0.110857 7.64189 0.039361C7.67094 0.0419355 7.72088 0.0489248 7.75377 0.0548615C7.7911 0.0614516 7.82787 0.0693669 7.86427 0.0786158C7.89832 0.0872726 7.93203 0.0970972 7.96549 0.10815C7.96839 0.109108 7.9713 0.110079 7.97421 0.111062C8.01011 0.123188 8.04672 0.137156 8.08402 0.153378C8.11998 0.169017 8.15658 0.186744 8.19379 0.207064C8.22552 0.223992 8.27613 0.255141 8.30312 0.273834C8.74807 0.54709 9.27418 1.22863 9.56106 1.85878C9.82286 2.39989 10.0203 2.98705 10.1877 3.56424C10.3157 4.0066 10.4258 4.44442 10.5292 4.85102C10.5618 4.97914 10.5946 5.11744 10.6271 5.26453C10.7361 5.75714 10.8398 6.35111 10.9246 6.97324C11.0017 7.53662 11.064 8.11797 11.1138 8.6897C10.9258 9.05791 11.8736 10.5876 10.5076 9.66684C9.09006 10.7102 10.0239 9.44492 9.77557 9.43019C9.77375 9.12874 9.7849 8.89358 9.80438 8.6955C9.87558 8.00797 10.0317 7.81601 10.2187 7.02221C10.2251 6.9956 10.2315 6.96824 10.2381 6.94009Z" fill="black"/>
</svg>
