<svg width="15" height="13" viewBox="0 0 15 13" fill="none" xmlns="http://www.w3.org/2000/svg">
<path d="M8.2797 10.5803C8.52987 10.535 8.72872 10.3883 8.88404 10.2157C9.14911 9.92297 9.30483 9.5761 9.632 9.27961C10.0015 8.92556 10.2372 8.81747 10.4777 8.48396C10.571 8.34792 10.66 8.17157 10.7276 7.91726C10.9059 7.25899 11.0679 6.56312 11.0608 6.06266C11.0596 5.89743 11.0418 5.75671 11.0054 5.6526C10.849 5.24366 11.1909 5.14557 10.9678 4.54215C10.7937 4.11314 10.6809 3.81164 10.5697 3.46526C10.5274 3.33671 10.4842 3.20297 10.4318 3.05626C10.3131 2.63654 9.63377 1.67734 8.9297 1.31191C8.72544 1.19348 8.52357 1.11244 8.38509 1.08353C7.79323 0.947293 7.19727 0.586863 6.77829 0.494163C6.65218 0.464353 6.55016 0.43457 6.4708 0.40621C6.39513 0.379589 6.41342 0.298834 6.49452 0.296328C6.71688 0.291402 7.01566 0.270068 7.42915 0.255511C8.18944 0.265216 8.22846 0.44662 9.16776 0.866663C9.17862 0.872117 9.18941 0.877567 9.20014 0.883013C10.0929 1.3673 10.7576 1.76919 11.2757 2.94182C11.2962 2.99191 11.3162 3.04013 11.3359 3.0867C11.707 4.11147 12.3095 4.38361 12.1588 6.04962C12.155 6.07648 12.1509 6.10363 12.1464 6.1311C11.8411 7.57835 12.0548 7.94961 11.7393 9.09739C11.6703 9.30446 11.572 9.53307 11.4229 9.78102C11.027 10.4496 10.3591 11.0697 9.60321 11.4476C8.58321 11.9824 7.40768 12.0496 6.79768 12.0756C6.67435 12.0826 6.5454 12.0871 6.41083 12.0882C5.59557 12.1098 4.34941 11.9349 3.35435 11.2764C3.19755 11.1754 3.04108 11.0608 2.89618 10.9394C2.26596 10.4183 1.64953 9.72101 1.23158 8.89673C0.837632 8.13143 0.614407 7.26841 0.609905 6.45396C0.608454 6.25946 0.614581 6.0567 0.629914 5.84887C0.694566 4.84695 1.02294 3.73966 1.50023 2.93418C1.77732 2.45301 2.09173 2.07698 2.34096 1.83312C2.89619 1.30836 3.19572 1.14112 3.6148 0.85964C3.77929 0.755629 3.97012 0.639675 4.22234 0.515284C4.73896 0.248231 5.5595 0.123932 6.20988 0.272258C6.54379 0.347839 6.45509 0.437554 6.1356 0.482445C5.67915 0.553781 5.29819 0.575602 5.09457 0.745218C4.70672 1.09256 4.59311 1.21908 4.04033 1.35567C4.00345 1.36584 3.96913 1.37751 3.93589 1.39119C3.47537 1.58969 3.46719 1.97343 3.24254 2.14875C3.05029 2.34458 2.81699 2.20554 2.30017 3.31746C2.24779 3.44602 2.19738 3.58944 2.15081 3.75414C1.9095 4.63133 1.9045 5.32335 1.93146 5.85015C1.95889 6.29978 2.02002 6.6385 2.08558 6.91358C2.16267 7.23748 2.25386 7.76363 2.47822 8.29186C2.66203 8.73459 2.94351 9.17101 3.27472 9.4696C3.47833 9.65588 3.75154 9.88249 4.08311 10.078C4.81526 10.5225 5.71523 10.7006 6.43574 10.6662C6.56506 10.6614 6.677 10.6508 6.77083 10.6369C7.62746 10.47 7.59145 10.6711 8.2797 10.5803ZM10.1432 4.65846C10.3799 4.78565 10.5426 4.26723 10.8009 4.30947C10.9942 4.33575 11.097 4.46866 11.2542 4.49992C11.3208 4.5123 11.3932 4.50684 11.484 4.46397C11.7853 4.32198 12.1671 4.37236 12.2681 4.20739C12.3603 4.04555 12.514 4.34968 12.6841 4.18458C12.8021 4.0661 12.9069 4.01946 13.0399 4.00339C13.0908 3.9972 13.1461 3.99512 13.2085 3.99421C13.4349 3.99807 14.0068 3.73338 14.102 3.48554C14.1966 3.24687 14.5379 3.27207 14.6937 3.21217C14.7418 3.19402 14.7863 3.18691 14.8248 3.18617C14.8411 3.18586 14.8599 3.19854 14.8741 3.21485C14.8741 3.21486 14.8741 3.21487 14.8741 3.21488C14.8919 3.23515 14.9024 3.26106 14.8924 3.27429C14.8436 3.33855 14.7831 3.44774 14.7366 3.61152C14.6442 3.91849 14.4993 3.7792 14.2675 4.06304C14.0334 4.3421 13.9446 4.62559 13.5094 4.7352C13.4901 4.73986 13.472 4.74522 13.4549 4.75121C13.093 4.87127 13.1797 5.34196 12.5178 5.3166C11.9452 5.27081 11.9408 5.6255 11.5549 5.87494C11.4853 5.91829 11.4041 5.95659 11.3068 5.98449C10.6448 6.18858 9.77196 5.85265 9.38798 5.77482C9.33923 5.7674 9.28754 5.75901 9.23453 5.74946C8.85296 5.68381 8.35183 5.53029 7.95475 5.18072C7.72226 4.9782 7.44384 4.77691 7.19879 4.53059C6.97277 4.3048 6.7765 4.04222 6.67727 3.75303C6.53638 3.35234 6.42944 2.8405 6.39799 2.4385C6.38163 2.244 6.37844 2.07353 6.38275 1.94509C6.40451 1.57371 6.41102 1.47378 6.29511 1.14912C6.22784 0.9487 6.2328 0.681593 6.35074 0.435649C6.4104 0.312618 6.50749 0.334193 6.56201 0.446147C6.64209 0.60887 6.61236 0.746353 6.74056 0.814597C6.99793 0.954053 7.09714 1.00827 6.99298 1.23114C6.89149 1.46069 7.22272 1.49933 7.2115 1.61675C7.20401 1.71857 7.05083 1.78153 7.24301 2.17265C7.26628 2.21891 7.29451 2.26879 7.32863 2.32186C7.66185 2.83081 7.85232 3.05088 7.9918 3.20837C8.06572 3.28744 8.13407 3.45053 8.23487 3.60871C8.31909 3.74304 8.43219 3.87751 8.56351 3.94751C8.80614 4.09513 9.26952 4.36629 9.58276 4.37123C9.62131 4.37339 9.65683 4.37238 9.68732 4.36788C9.95609 4.32176 9.92023 4.52447 10.1432 4.65846Z" fill="black"/>
</svg>
