<svg width="21" height="31" viewBox="0 0 21 31" fill="none" xmlns="http://www.w3.org/2000/svg">
<path d="M8.73474 24.7549C8.75631 24.572 8.77179 24.3926 8.78239 24.2156C8.88095 22.5948 8.56144 21.1716 8.79166 19.1258C8.79552 19.0917 8.79939 19.0581 8.80328 19.0249C9.06666 16.8472 9.35803 16.5008 9.57215 13.9406C9.5736 13.924 9.57507 13.9075 9.57654 13.8909C9.74563 11.9721 10.095 10.0718 10.3107 8.75767C10.3873 8.28538 10.4433 7.90403 10.4664 7.60794C10.5706 6.43227 10.9082 6.373 11.2145 4.74094C11.2994 4.32511 11.3732 4.01045 11.4744 3.65436C11.9008 2.67256 11.7833 1.63539 13.4036 1.01008C14.3084 1.17023 14.5457 2.08534 14.8815 2.92619C14.8815 2.92619 14.8815 2.92619 14.8815 2.92619C15.0699 3.47368 15.2707 4.04784 15.4788 4.62693C15.6897 5.2136 15.9016 5.78751 16.1053 6.30915C16.3523 6.94248 16.5901 7.50054 16.7759 7.86444C16.7908 7.89377 16.8055 7.92296 16.82 7.952C17.0789 8.46721 17.3181 9.03279 17.5722 9.54141C17.8472 10.0943 18.1607 10.583 18.5795 10.8572C18.8191 11.0194 19.0784 11.1153 19.3138 11.1738C19.6375 11.2525 19.9044 11.2921 20.108 11.3293C20.3057 11.3626 20.2597 11.4424 20.0546 11.4373C19.6485 11.4138 19.0703 11.4318 18.4194 11.1441C18.1993 11.0432 17.981 10.899 17.7807 10.7228C17.4244 10.4038 17.2231 10.0978 17.0589 9.82735C16.7427 9.28397 16.5897 8.84639 16.3136 8.15912C16.1627 7.77913 15.9797 7.32305 15.7241 6.71924C15.69 6.6384 15.6581 6.56356 15.6266 6.4896C15.3717 5.89031 15.1385 5.35681 14.9123 4.83754C14.6711 4.28302 14.4436 3.75838 14.2073 3.17905C14.2073 3.17897 14.2073 3.17902 14.2073 3.17901C13.9229 2.45861 13.3545 1.35924 13.1612 2.01189C12.6896 2.6218 12.5159 3.32903 12.3704 3.92368C12.0871 5.23664 11.9947 6.36213 11.3928 8.93034C11.3817 8.97819 11.3704 9.02656 11.359 9.07571C10.8135 11.4744 10.8225 12.611 10.8029 14.0278C10.7947 14.928 10.7832 15.9491 10.6694 17.5013C10.6296 18.0462 10.5853 18.5941 10.5364 19.1667C10.3911 20.8661 10.2183 22.6508 10.0743 24.2901C9.90625 26.1841 9.7878 27.8075 9.74259 29.0673C9.57827 29.2762 10.1568 29.3879 9.05802 30.0957C7.77675 27.434 8.58047 26.6813 8.35617 24.7499C8.35274 23.4684 8.35959 22.1154 8.38765 20.7333C8.39189 20.5243 8.39522 20.3124 8.39777 20.0978C8.41507 18.6418 8.39622 17.0619 8.37948 15.4458C8.3635 13.9026 8.34943 12.3264 8.37057 10.7937C8.37778 10.271 8.38909 9.75345 8.4058 9.24396C8.43724 8.28595 8.47076 7.22798 8.50501 6.14159C8.69146 4.71628 8.22618 2.57507 9.06483 1.91607C9.82395 2.04914 9.20653 3.37603 9.22599 3.9844C9.13681 4.53125 9.03143 5.0163 8.9259 5.41875C8.82818 5.79165 8.72645 6.12017 8.62375 6.41565C8.28215 7.37367 7.97229 7.98839 7.53431 8.67481C7.22157 9.14515 6.83957 9.66045 6.17594 10.2102C6.05692 10.3076 5.92678 10.4046 5.7899 10.4966C5.14852 10.9334 4.30806 11.2623 3.43678 11.403C2.77418 11.514 2.08832 11.5271 1.4699 11.4741C0.66094 11.3873 0.859841 11.3077 1.65674 11.2628C2.30746 11.2152 2.88347 11.1446 3.36107 11.031C3.74219 10.9409 4.05668 10.8248 4.28178 10.6888C4.76641 10.3939 5.07122 10.14 5.3931 9.88814C5.74384 9.60249 6.12413 9.32724 6.65407 8.7961C6.80172 8.64548 6.92417 8.49238 7.02719 8.34162C7.59512 7.47796 7.59527 6.81595 7.81887 6.17078C7.8257 6.14999 7.83273 6.1291 7.83996 6.10811C8.01445 5.54417 8.19881 5.40884 8.42657 3.88289C8.67315 3.15182 8.09361 2.98466 9.07674 0.969315C10.0286 1.94654 9.42836 1.73407 9.59598 2.06237C9.64624 3.68094 9.68286 4.996 9.71136 6.14159C9.7636 8.23823 9.78711 9.67721 9.80914 10.7937C9.80962 10.8182 9.81011 10.8425 9.81059 10.8667C9.83131 11.9063 9.781 13.6269 9.75042 15.4458C9.73021 16.6475 9.71861 17.892 9.7418 19.0114C9.74856 19.3377 9.75382 19.7032 9.75798 20.0978C9.77213 21.4398 9.77361 23.1197 9.77839 24.7499C9.53611 26.2813 10.4763 28.93 9.08391 28.6206C7.84804 29.086 8.50932 28.8785 8.32635 28.8081C8.29974 26.6811 8.52429 26.5855 8.73474 24.7549Z" fill="black"/>
</svg>
