<svg width="17" height="34" viewBox="0 0 17 34" fill="none" xmlns="http://www.w3.org/2000/svg">
<path d="M0.736215 5.05116C0.847271 4.81159 0.876199 4.5985 0.910734 4.34285C0.961916 3.93097 1.01517 3.42664 1.42356 3.00167C1.88978 2.5424 2.19942 2.5034 2.59573 2.30723C2.76613 2.22864 2.9572 2.12814 3.21814 1.99258C3.88499 1.64305 4.65174 1.64475 5.14315 1.66563C5.315 1.67072 5.45991 1.67422 5.5738 1.65831C6.02599 1.6114 6.00894 1.9392 6.58929 2.04822C7.0146 2.14436 7.2962 2.30404 7.55075 2.52593C7.64902 2.61244 7.74071 2.70801 7.83482 2.81983C8.11255 3.11152 8.73073 3.88489 9.02929 4.50767C9.13062 4.6966 9.21688 4.86745 9.29041 4.98014C9.61485 5.47739 9.47435 6.17227 9.43106 6.53191C9.41964 6.64782 9.39755 6.74034 9.37337 6.81107C9.35006 6.87858 9.26896 6.8638 9.26238 6.79599C9.24384 6.60996 9.19066 6.35556 9.04959 6.05666C8.76925 5.53753 8.97171 5.4194 8.58821 4.75259C8.58291 4.74426 8.57759 4.736 8.57226 4.72784C8.14331 4.11541 7.75961 3.89737 7.17116 3.31583C7.14336 3.29011 7.1148 3.2661 7.08666 3.24432C6.44439 2.81683 6.11797 3.09084 5.11876 2.76131C5.10419 2.75753 5.08942 2.75371 5.07445 2.74984C4.06163 2.54965 3.84561 3.03365 3.36341 3.48698C3.27732 3.57584 3.17931 3.67402 3.07117 3.7834C2.765 4.08962 2.45394 4.46182 2.21706 4.89824C1.88926 5.50215 1.72962 6.11541 1.72312 6.56352C1.72209 6.65428 1.72323 6.75141 1.72695 6.85488C1.72695 6.85488 1.72695 6.85488 1.72695 6.85488C1.75457 7.50991 1.86261 8.15906 2.11783 8.85373C2.15689 8.95763 2.19546 9.05351 2.24168 9.15738C2.44272 9.61674 2.83198 10.0336 3.30451 10.3133C3.74018 10.5758 4.23508 10.7286 4.72894 10.8327C4.85096 10.8586 4.98088 10.8788 5.11748 10.8912C5.75905 10.959 6.53251 10.8028 7.11151 10.5039C7.4565 10.3329 7.73704 10.1264 7.9315 9.96509C8.35566 9.60104 8.5158 9.37998 8.67876 9.03325C8.73806 8.8997 8.79623 8.73725 8.84598 8.53706C8.95609 8.11738 9.09744 7.54429 9.24326 7.02744C9.31514 6.76156 9.41259 6.81832 9.45085 7.097C9.50311 7.49494 9.40484 7.8253 9.47975 8.05126C9.62059 8.51186 9.65334 8.75755 9.30297 9.21701C9.27964 9.24644 9.25835 9.27507 9.23886 9.30307C8.95731 9.69736 9.03759 10.0519 8.81418 10.2879C8.57512 10.4846 8.52748 10.4841 7.5922 11.248C7.47823 11.3315 7.35069 11.4201 7.20056 11.5138C6.42064 11.9952 5.70247 12.1445 5.14642 12.1908C4.66178 12.2276 4.28285 12.1853 3.97355 12.1316C3.61357 12.0707 3.05755 11.8478 2.54811 11.4757C2.10794 11.1617 1.71327 10.7471 1.39879 10.3568C1.20439 10.1195 0.993919 9.78391 0.8279 9.40215C0.446401 8.57739 0.331866 7.45986 0.305416 6.85491C0.305416 6.85491 0.305416 6.85491 0.305416 6.85491C0.298052 6.73353 0.291753 6.62547 0.284576 6.53293C0.244565 5.70182 0.466123 5.68182 0.736215 5.05116ZM9.86614 4.12562C9.74978 4.26258 10.2641 4.37039 10.1914 4.53732C10.1402 4.65496 9.98954 4.70211 9.92655 4.7866C9.90015 4.82201 9.88914 4.86397 9.90726 4.92042C9.96863 5.11158 9.78204 5.30286 9.89412 5.38798C10.0062 5.47309 9.66727 5.48208 9.74256 5.60295C9.79699 5.69035 9.78893 5.75286 9.73862 5.82075C9.71936 5.84674 9.69391 5.87351 9.66341 5.90278C9.55323 6.00849 9.45917 6.33326 9.59452 6.45136C9.72987 6.56945 9.49502 6.70415 9.43932 6.78515C9.42197 6.81038 9.39823 6.83024 9.37352 6.84546C9.36305 6.85191 9.34114 6.8549 9.31951 6.85489C9.3195 6.85489 9.31948 6.85489 9.31947 6.85489C9.29254 6.8549 9.26606 6.85027 9.26265 6.84198C9.24614 6.80175 9.20256 6.74162 9.10489 6.67059C8.92278 6.53814 9.12402 6.52367 9.03045 6.34482C8.93687 6.16597 8.74979 6.05851 8.87076 5.84808C8.87618 5.83865 8.88034 5.82956 8.88337 5.82075C8.94799 5.63281 8.49834 5.57601 8.77239 5.29225C9.01558 5.04044 8.67213 4.97963 8.51901 4.7866C8.49151 4.75193 8.47015 4.713 8.45943 4.66793C8.38903 4.37191 8.68115 3.99825 8.65693 3.81981C8.654 3.79822 8.65052 3.77575 8.64679 3.75246C8.61971 3.5832 8.57948 3.3711 8.6409 3.14873C8.67729 3.017 8.64689 2.86918 8.62701 2.71831C8.60871 2.57948 8.59932 2.43807 8.65906 2.30426C8.74286 2.11657 8.84146 1.87667 8.92915 1.68417C8.97192 1.59028 9.01209 1.50766 9.04668 1.44787C9.15219 1.2655 9.17598 1.22105 9.11152 1.0455C9.07446 0.944598 9.10939 0.805592 9.24567 0.688178C9.31426 0.629087 9.40976 0.642477 9.45545 0.701954C9.52226 0.788928 9.47763 0.860324 9.59697 0.905138C9.83549 0.994686 9.92699 1.03274 9.78817 1.14579C9.64936 1.25883 9.96483 1.3121 9.92852 1.378C9.89595 1.43707 9.74304 1.44232 9.81501 1.68417C9.82332 1.7121 9.83463 1.74319 9.84948 1.77788C9.99285 2.11295 10.0294 2.29664 10.0638 2.42353C10.0824 2.49192 10.044 2.60043 10.0138 2.71831C9.98803 2.81914 9.96819 2.92684 9.99506 3.02217C10.0468 3.2056 10.0106 3.55709 10.0683 3.75246C10.0757 3.77735 10.0846 3.79971 10.0954 3.81886C10.1908 3.98833 9.9825 3.98868 9.86614 4.12562ZM9.86614 9.83398C9.74978 9.95137 10.2641 10.0438 10.1914 10.1869C10.1402 10.2877 9.98954 10.3281 9.92655 10.4005C9.90015 10.4309 9.88914 10.4668 9.90726 10.5152C9.96863 10.6791 9.78204 10.843 9.89412 10.916C10.0062 10.989 9.66727 10.9967 9.74256 11.1003C9.79699 11.1752 9.78893 11.2288 9.73862 11.2869C9.71936 11.3092 9.69391 11.3322 9.66341 11.3573C9.55323 11.4479 9.45917 11.7262 9.59452 11.8275C9.72987 11.9287 9.49502 12.0441 9.43932 12.1136C9.42197 12.1352 9.39823 12.1522 9.37352 12.1653C9.36305 12.1708 9.34114 12.1734 9.31951 12.1733C9.3195 12.1733 9.31948 12.1733 9.31947 12.1733C9.29254 12.1734 9.26606 12.1694 9.26265 12.1623C9.24614 12.1278 9.20256 12.0763 9.10489 12.0154C8.92278 11.9019 9.12402 11.8894 9.03045 11.7361C8.93687 11.5828 8.74979 11.4907 8.87076 11.3104C8.87618 11.3023 8.88034 11.2945 8.88337 11.2869C8.94799 11.1259 8.49834 11.0772 8.77239 10.8339C9.01558 10.6181 8.67213 10.566 8.51901 10.4005C8.49151 10.3708 8.47015 10.3374 8.45943 10.2988C8.38903 10.0451 8.68115 9.7248 8.65693 9.57185C8.654 9.55335 8.65052 9.53409 8.64679 9.51412C8.61971 9.36904 8.57948 9.18725 8.6409 8.99665C8.67729 8.88373 8.64689 8.75703 8.62701 8.62771C8.60871 8.50872 8.59932 8.38751 8.65906 8.27281C8.74286 8.11193 8.84146 7.90631 8.92915 7.7413C8.97192 7.66083 9.01209 7.59001 9.04668 7.53876C9.15219 7.38244 9.17598 7.34434 9.11152 7.19387C9.07446 7.10739 9.10939 6.98824 9.24567 6.8876C9.31426 6.83695 9.40976 6.84842 9.45545 6.8994C9.52226 6.97395 9.47763 7.03515 9.59697 7.07356C9.83549 7.15032 9.92699 7.18294 9.78817 7.27984C9.64936 7.37673 9.96483 7.42239 9.92852 7.47887C9.89595 7.52951 9.74304 7.534 9.81501 7.7413C9.82332 7.76525 9.83463 7.79189 9.84948 7.82163C9.99285 8.10883 10.0294 8.26628 10.0638 8.37504C10.0824 8.43366 10.044 8.52667 10.0138 8.62771C9.98803 8.71414 9.96819 8.80645 9.99506 8.88816C10.0468 9.04539 10.0106 9.34667 10.0683 9.51412C10.0757 9.53546 10.0846 9.55462 10.0954 9.57104C10.1908 9.7163 9.9825 9.7166 9.86614 9.83398ZM9.86614 24.0897C9.74978 24.5593 10.2641 24.9289 10.1914 25.5012C10.1402 25.9045 9.98954 26.0662 9.92655 26.3559C9.90015 26.4773 9.88914 26.6212 9.90726 26.8147C9.96863 27.4701 9.78204 28.1259 9.89412 28.4178C10.0062 28.7096 9.66727 28.7404 9.74256 29.1548C9.79699 29.4545 9.78893 29.6688 9.73862 29.9016C9.71936 29.9907 9.69391 30.0825 9.66341 30.1828C9.55323 30.5452 9.45917 31.6587 9.59452 32.0636C9.72987 32.4685 9.49502 32.9303 9.43932 33.2081C9.42197 33.2946 9.39823 33.3627 9.37352 33.4149C9.36305 33.437 9.34114 33.4472 9.31951 33.4472C9.3195 33.4472 9.31948 33.4472 9.31947 33.4472C9.29254 33.4472 9.26606 33.4313 9.26265 33.4029C9.24614 33.265 9.20256 33.0588 9.10489 32.8153C8.92278 32.3612 9.12402 32.3116 9.03045 31.6984C8.93687 31.0852 8.74979 30.7167 8.87076 29.9952C8.87618 29.9629 8.88034 29.9318 8.88337 29.9016C8.94799 29.2572 8.49834 29.0624 8.77239 28.0896C9.01558 27.2262 8.67213 27.0177 8.51901 26.3559C8.49151 26.2371 8.47015 26.1036 8.45943 25.949C8.38903 24.9341 8.68115 23.653 8.65693 23.0412C8.654 22.9672 8.65052 22.8901 8.64679 22.8103C8.61971 22.2299 8.57948 21.5028 8.6409 20.7404C8.67729 20.2887 8.64689 19.7819 8.62701 19.2646C8.60871 18.7886 8.59932 18.3038 8.65906 17.845C8.74286 17.2015 8.84146 16.379 8.92915 15.719C8.97192 15.3971 9.01209 15.1138 9.04668 14.9088C9.15219 14.2835 9.17598 14.1311 9.11152 13.5293C9.07446 13.1833 9.10939 12.7067 9.24567 12.3042C9.31426 12.1016 9.40976 12.1475 9.45545 12.3514C9.52226 12.6496 9.47763 12.8944 9.59697 13.048C9.83549 13.3551 9.92699 13.4855 9.78817 13.8731C9.64936 14.2607 9.96483 14.4433 9.92852 14.6693C9.89595 14.8718 9.74304 14.8898 9.81501 15.719C9.82332 15.8148 9.83463 15.9213 9.84948 16.0403C9.99285 17.1891 10.0294 17.8189 10.0638 18.2539C10.0824 18.4884 10.044 18.8604 10.0138 19.2646C9.98803 19.6103 9.96819 19.9796 9.99506 20.3064C10.0468 20.9353 10.0106 22.1404 10.0683 22.8103C10.0757 22.8956 10.0846 22.9723 10.0954 23.0379C10.1908 23.619 9.9825 23.6202 9.86614 24.0897ZM13.3769 11.2325C13.5641 11.2959 13.5106 10.7711 13.6976 10.7768C13.833 10.7787 13.9385 10.8973 14.0505 10.9172C14.0973 10.9254 14.1451 10.916 14.1947 10.8727C14.3598 10.7283 14.6376 10.7886 14.6681 10.642C14.6944 10.4975 14.8756 10.7848 14.9573 10.6471C15.0153 10.5476 15.0795 10.5159 15.1733 10.5146C15.2092 10.5141 15.2497 10.5177 15.2954 10.5238C15.4597 10.549 15.8348 10.3942 15.8639 10.1984C15.8911 10.0069 16.1632 10.0897 16.2749 10.0701C16.3097 10.0641 16.3436 10.0669 16.3738 10.0739C16.3866 10.0769 16.4035 10.0914 16.4172 10.1081C16.4173 10.1081 16.4173 10.1081 16.4173 10.1081C16.4345 10.1289 16.4469 10.1529 16.4411 10.1621C16.4131 10.2067 16.3835 10.2874 16.3766 10.4182C16.3592 10.6646 16.2233 10.5165 16.1009 10.7267C15.9784 10.9348 15.972 11.1705 15.679 11.2207C15.6659 11.2229 15.6538 11.2258 15.6427 11.2295C15.4091 11.3029 15.5772 11.7322 15.1128 11.6784C14.7096 11.619 14.7988 11.9553 14.6181 12.2052C14.5859 12.2494 14.5452 12.2902 14.4921 12.324C14.1357 12.5523 13.558 12.4212 13.3408 12.4982C13.3139 12.508 13.2859 12.5186 13.2568 12.5295C13.0457 12.6091 12.7753 12.7056 12.4782 12.6896C12.303 12.6802 12.1182 12.7354 11.9252 12.7763C11.7501 12.8136 11.5691 12.8388 11.393 12.7914C11.1495 12.7252 10.8407 12.641 10.6006 12.56C10.4818 12.5208 10.3807 12.4827 10.3048 12.4494C10.0798 12.3473 10.0217 12.3238 9.80846 12.3887C9.68216 12.4258 9.51408 12.3899 9.36984 12.2517C9.29721 12.1822 9.3155 12.087 9.38939 12.0422C9.49716 11.9766 9.58278 12.0218 9.63701 11.9028C9.74803 11.6647 9.79346 11.5734 9.92834 11.7118C10.0667 11.85 10.1281 11.5337 10.2059 11.569C10.2755 11.6002 10.2882 11.7543 10.5744 11.6746C10.6079 11.6653 10.6448 11.6528 10.6855 11.6365C11.0791 11.4788 11.2863 11.4255 11.4324 11.3796C11.5081 11.3549 11.6395 11.3819 11.7761 11.3975C11.8964 11.4105 12.02 11.4151 12.1259 11.3729C12.3268 11.2947 12.7242 11.2583 12.9209 11.1482C12.9459 11.1346 12.9676 11.12 12.9853 11.1044C13.1414 10.9649 13.1936 11.166 13.3769 11.2325Z" fill="black"/>
</svg>
