<svg width="22" height="17" viewBox="0 0 22 17" fill="none" xmlns="http://www.w3.org/2000/svg">
<path d="M9.8689 4.10676C10.0885 4.14853 10.3022 4.15001 10.5097 4.12391C10.5097 4.12391 10.5097 4.12391 10.5097 4.12391C11.1818 4.0718 11.9874 3.86232 12.941 4.25697C12.9732 4.27087 13.0053 4.28549 13.0373 4.30085C14.0783 4.85541 14.2466 5.30133 14.7759 6.05286C14.8887 6.23052 15.0124 6.43536 15.1458 6.68181C15.4238 7.19642 15.5759 7.74579 15.6768 8.23761C15.8354 9.02914 15.8827 9.69318 16.01 10.0543C16.06 10.1997 16.0772 10.314 16.0783 10.4182C16.0824 10.7387 15.9315 10.9589 16.0863 11.5844C16.1797 11.9578 16.2427 12.2641 16.2886 12.5566C16.345 12.9125 16.375 13.2498 16.4136 13.6516C16.4357 13.8769 16.4991 14.2422 16.6124 14.6609C16.6124 14.6609 16.6124 14.6609 16.6124 14.6609C16.6158 14.6739 16.6179 14.682 16.6216 14.694C16.625 14.7049 16.6286 14.7159 16.6326 14.7268C16.6366 14.7376 16.6409 14.7484 16.6455 14.7591C16.65 14.7697 16.6549 14.7802 16.66 14.7906C16.6651 14.801 16.6705 14.8112 16.6762 14.8212C16.6823 14.8319 16.6865 14.8392 16.6938 14.8506C16.8555 15.0933 17.0324 15.3196 17.241 15.5172C17.457 15.7229 17.6988 15.8784 17.9341 15.957C18.1906 16.0449 18.4293 16.0422 18.5956 16.0084C18.6386 15.9997 18.6823 15.9909 18.726 15.982C18.9877 15.9287 19.2656 15.8702 19.5511 15.8128C19.8584 15.7508 20.1688 15.6937 20.4386 15.6454C20.5895 15.6178 20.7274 15.5926 20.8468 15.5663C21.0236 15.5273 21.167 15.5086 21.2775 15.502C21.3247 15.4992 21.3514 15.5144 21.3574 15.5352C21.3574 15.5352 21.3574 15.5352 21.3574 15.5352C21.3648 15.5611 21.3402 15.5956 21.285 15.6154C21.0914 15.6845 20.8355 15.7936 20.5411 15.9471C20.4271 16.0064 20.3072 16.072 20.182 16.143C20.0048 16.2434 19.8547 16.3143 19.7162 16.3667C19.4004 16.4826 19.1568 16.5181 18.7696 16.5422C18.5194 16.5507 18.1937 16.5607 17.7557 16.4294C17.7553 16.4293 17.755 16.4292 17.7546 16.4291C17.3902 16.3153 17.0985 16.1375 16.8463 15.9483C16.5753 15.7441 16.3338 15.5034 16.1309 15.2635C16.1181 15.2481 16.1 15.224 16.087 15.2059C16.0731 15.1864 16.0597 15.1667 16.0468 15.1465C16.034 15.1265 16.0218 15.1061 16.0101 15.0854C15.9985 15.0648 15.9874 15.0438 15.9768 15.0225C15.9663 15.0013 15.9563 14.9797 15.9468 14.9577C15.938 14.9376 15.9272 14.9098 15.9202 14.8911C15.9202 14.891 15.9202 14.8911 15.9202 14.891C15.7674 14.4938 15.6373 14.0332 15.5526 13.4607C15.5109 13.1767 15.4638 12.9402 15.4105 12.7246C15.2359 12.0112 14.9864 11.5409 14.8683 10.5971C14.8312 10.3041 14.8074 9.96459 14.7954 9.56249C14.7822 9.12414 14.735 8.77407 14.6642 8.48423C14.4633 7.70471 14.1355 7.31201 13.6682 6.81737C13.4835 6.63242 13.2749 6.44355 12.991 6.24935C12.7874 6.11074 12.5589 5.98686 12.3006 5.88066C11.7418 5.65645 11.178 5.53504 10.4843 5.46498C10.4843 5.46498 10.4843 5.46498 10.4843 5.46498C10.152 5.44321 9.8067 5.40503 9.49468 5.36101C9.14354 5.31167 8.81019 5.25244 8.50709 5.18947C8.12803 5.11102 7.79069 5.02513 7.50977 4.94829C7.50844 4.94792 7.50711 4.94756 7.50578 4.9472C7.19228 4.85991 6.84945 4.75064 6.47848 4.54784C6.15628 4.3638 5.75733 4.09228 5.52157 3.5611C5.29048 3.09905 5.4069 2.39903 5.56542 2.08985C5.65601 1.88769 5.74795 1.66477 5.97783 1.3802C5.99332 1.12978 7.14833 0.674991 7.5019 1.20017C7.82525 1.50414 7.90295 1.74043 8.00759 1.97094C8.02193 2.00628 8.0359 2.04229 8.04905 2.07766C8.11799 2.26371 8.1751 2.44637 8.22826 2.63093C8.28838 2.84043 8.3429 3.05297 8.39328 3.2661C8.44564 3.49139 8.4793 3.63879 8.53884 3.95012C8.57824 4.82952 8.61826 5.80778 8.58697 6.7047C8.56808 7.25878 8.5241 7.80081 8.43874 8.3332C8.38265 8.68172 8.31478 9.04842 8.22697 9.43562C8.02728 10.3219 7.71556 11.2727 7.26295 12.0712C6.77987 12.9473 6.12863 13.5919 5.65983 13.9379C5.5613 14.0122 5.46522 14.0802 5.37705 14.1395C4.46945 14.707 4.13517 14.8575 3.08532 15.3399C3.04048 15.3591 2.99778 15.3768 2.95263 15.3949C2.2921 15.663 1.37502 15.8603 0.584669 15.8846C0.152655 15.898 0.235342 15.7865 0.638834 15.6597C1.22548 15.4726 1.72385 15.3881 1.98975 15.1872C2.28022 14.9687 2.46986 14.8158 2.70464 14.7011C2.90588 14.6019 3.13132 14.5342 3.47968 14.4474C4.2354 14.2494 4.37588 13.7717 4.72913 13.5595C4.77594 13.5302 4.81789 13.5069 4.85923 13.4853C5.08001 13.3059 5.57476 13.378 6.39899 11.6498C6.39998 11.6474 6.40097 11.645 6.40195 11.6425C6.77557 10.7076 6.8963 9.88627 6.9805 9.22719C7.07187 8.44342 7.09385 7.84645 7.10469 7.37919C7.10873 7.17994 7.12249 6.9432 7.13886 6.65882C7.18247 5.91569 7.2344 4.99703 7.20839 4.08136C7.19534 3.98665 7.1418 3.73348 7.09775 3.56735C7.07942 3.49687 7.05985 3.42674 7.0393 3.35844C7.00761 3.2533 6.97257 3.13962 6.93361 3.02242C6.87921 2.85909 6.81637 2.68519 6.74437 2.52867C6.68936 2.39582 6.58025 2.2448 6.59745 2.27465C6.62237 2.44968 7.26593 2.22492 7.06496 2.2894C7.02787 2.33214 6.94656 2.47132 6.87242 2.64998C6.77037 2.93807 6.8109 2.91493 6.83229 3.01527C6.86117 3.09209 7.00057 3.22552 7.18735 3.32094C7.42293 3.44568 7.69298 3.52329 7.90261 3.56457C7.9056 3.56516 7.90859 3.56575 7.91157 3.56633C8.29228 3.6386 8.54392 3.68722 8.74405 3.74992C9.02828 3.83522 9.21804 3.94398 9.60646 4.04759C9.68495 4.06815 9.7723 4.08819 9.8689 4.10676Z" fill="black"/>
</svg>
