<svg width="15" height="21" viewBox="0 0 15 21" fill="none" xmlns="http://www.w3.org/2000/svg">
<path d="M12.2281 10.0714C12.6916 10.9161 13.3719 11.4471 13.9213 12.3752C14.0727 12.6362 14.2067 12.9176 14.3138 13.253C14.6098 14.2285 14.5691 14.7377 14.5603 15.4209C14.542 15.8247 14.5374 16.2852 14.4048 16.9913C14.29 17.5756 14.0401 18.1147 13.7523 18.5325C13.0198 19.4626 12.1079 20.0783 11.5415 20.3698C11.5209 20.3814 11.5009 20.3927 11.4815 20.4037C10.665 20.7831 10.4727 20.5302 9.32295 20.429C9.07202 20.3913 8.84173 20.3296 8.64002 20.2602C7.90995 19.9992 7.42225 19.648 6.86262 19.1592C6.74516 19.0553 6.58245 18.9162 6.40099 18.7573C5.85638 18.2865 5.12571 17.6043 4.47374 16.985C3.98984 16.5278 3.54819 16.1138 3.2557 15.8876C3.00243 15.69 2.77605 15.469 2.55728 15.2266C2.05463 14.6692 1.6462 14.049 1.33443 13.6576C1.19709 13.4849 1.09468 13.3396 1.02052 13.2232C0.949818 13.1123 1.02784 13.077 1.12292 13.1706C1.37758 13.421 1.76885 13.7778 2.26528 14.1598C2.6065 14.4245 2.80643 14.6097 2.99271 14.8057C3.31756 15.145 3.56115 15.4889 4.31571 16.1445C4.50036 16.304 4.68137 16.454 4.84873 16.5876C5.54273 17.1405 6.13266 17.56 6.87383 18.1371C7.12095 18.3273 7.39368 18.5395 7.69993 18.7657C8.17506 19.1156 8.5856 19.2846 8.96922 19.3792C9.61779 19.5085 10.1652 19.5661 11.0729 19.2854C11.2557 19.222 11.4551 19.1363 11.6745 19.0179C12.2734 18.6808 12.6101 18.2933 12.8817 17.9162C13.301 17.0779 13.2439 16.5983 13.116 15.5241C13.0825 15.3175 13.0373 15.087 12.9751 14.8315C12.8425 14.2829 12.6352 13.6881 12.377 13.0967C12.0164 12.2676 11.5549 11.4344 11.0954 10.6994C10.5671 9.85494 10.0413 9.1317 9.64217 8.65746C9.5803 8.5841 9.51703 8.50971 9.45251 8.43443C8.91494 7.80504 8.27037 7.09888 7.57131 6.29858C6.99706 5.53365 6.38111 5.1976 5.84402 3.67091C5.83578 3.59386 5.83839 3.52024 5.84519 3.4512C5.84518 3.45123 5.84519 3.45112 5.84519 3.45115C5.93079 2.78188 6.31105 2.34741 6.63967 1.99781C6.97483 1.6615 7.35178 1.37503 7.80783 1.14839C8.24869 0.956534 8.78634 0.701857 9.55502 0.986649C10.3656 1.3671 10.4728 2.16107 10.4939 2.6329C10.5071 3.14119 10.4249 3.58597 10.319 4.01738C10.2064 4.46268 10.0686 4.85594 9.91002 5.24517C9.9094 5.2467 9.90878 5.2482 9.90816 5.24972C9.62373 5.93924 9.3104 6.70958 8.97148 7.49589C8.64202 8.25909 8.28941 9.02571 7.90133 9.72283C7.43526 10.5694 6.91057 11.283 6.48613 11.7714C6.42475 11.8427 6.36604 11.9091 6.3105 11.9705C5.61731 12.7242 5.21321 13.0718 4.76342 13.5225C4.49129 13.7898 4.19757 14.0858 3.78365 14.4935C3.55249 14.7206 3.2926 14.9563 3.00031 15.2018C2.47705 15.6413 1.87853 16.0849 1.31158 16.4411C0.861336 16.7246 0.896905 16.5718 1.27033 16.2027C1.81546 15.6632 2.31814 15.2935 2.53871 14.945C2.57403 14.8891 2.60724 14.8362 2.63893 14.7858C3.0086 14.2001 3.21939 13.9299 3.96708 13.401C4.11303 13.2968 4.23134 13.1964 4.33847 13.0911C4.81297 12.6224 4.92185 12.1997 5.24375 11.8758C5.43966 11.6745 5.57166 11.6079 5.85643 11.2923C6.11645 10.9896 6.53936 10.4776 7.05733 9.30637C7.08432 9.24444 7.11166 9.18029 7.13939 9.11371C7.44897 8.3659 7.67711 7.68513 7.87653 7.08441C8.18541 6.14276 8.41621 5.4018 8.61456 4.78677C8.73612 4.40744 8.81961 4.09517 8.87694 3.83406C8.88826 3.78311 8.89983 3.73108 8.91139 3.67833C8.9727 3.39763 9.05486 3.01152 9.05831 2.67578C9.06916 2.37312 8.9701 2.22484 8.99111 2.25284C8.98352 2.20979 8.6615 2.21751 8.38244 2.35861C8.08901 2.49197 7.80078 2.70435 7.58639 2.93383C7.54524 2.97784 7.50843 3.02057 7.47301 3.06524C7.32394 3.25355 7.22452 3.43401 7.21226 3.5578C7.21226 3.5578 7.21226 3.5578 7.21226 3.5578C7.21801 3.59438 8.05942 4.73212 8.64935 5.37095C9.36772 6.19327 10.0685 6.98604 10.5529 7.52458C10.623 7.60202 10.6891 7.67445 10.7508 7.74086C11.7388 8.82377 11.6222 8.9927 12.1649 9.95678C12.1851 9.99373 12.2061 10.0319 12.2281 10.0714Z" fill="black"/>
</svg>
