<svg width="16" height="25" viewBox="0 0 16 25" fill="none" xmlns="http://www.w3.org/2000/svg">
<path d="M8.72397 4.61116C8.68862 4.93593 8.70121 5.23739 8.7368 5.53143C8.8321 6.34553 9.08893 7.10051 9.0489 8.14687C9.0164 9.04195 8.90552 9.44492 8.85177 10.0383C8.81968 10.4058 8.80767 10.7974 8.86213 11.4372C8.95878 12.5626 8.97152 13.6934 9.04724 14.5172C9.08076 14.8883 9.12361 15.1836 9.18842 15.41C9.3985 16.0964 9.06802 16.2417 9.3331 17.2335C9.51825 17.8946 9.63629 18.3738 9.74876 18.8931C9.8007 19.135 9.86051 19.4104 9.92437 19.6856C10.0539 20.339 10.7337 21.9627 11.7414 22.6949C12.057 22.9456 12.3713 23.1105 12.6003 23.1916C13.4923 23.5272 14.5508 23.9146 15.2573 23.9964C15.4665 24.0234 15.6375 24.0487 15.7707 24.0732C15.8978 24.0959 15.8726 24.1776 15.7402 24.1841C15.3895 24.1994 14.87 24.2318 14.2309 24.2268C13.0444 24.1384 12.9046 23.9955 11.5231 23.164C11.487 23.1388 11.4515 23.1135 11.4165 23.088C10.193 22.133 9.51812 21.265 9.02056 19.503C8.98595 19.371 8.95485 19.2536 8.92408 19.142C8.54764 17.6341 8.00703 17.1685 7.97615 14.7252C7.97618 14.6939 7.97614 14.6629 7.97606 14.6321C7.99501 12.3883 7.60852 11.9519 7.39751 10.0843C7.37258 9.84439 7.35197 9.58735 7.33761 9.30749C7.27642 8.10438 7.31429 6.77853 7.37769 5.52371C7.45047 4.08966 7.55498 2.7774 7.561 1.97929C7.77925 1.86312 6.96788 0.891464 8.22716 1.6944C9.55251 1.75183 8.62471 4.03908 8.73047 5.4352C8.71874 5.58107 8.70635 5.72672 8.69327 5.87188C8.58432 7.0772 8.53153 8.45644 8.43538 9.84884C8.35809 10.9689 8.2518 12.1044 8.06608 13.1751C8.00777 13.5095 7.94209 13.877 7.87132 14.2487C7.60219 15.673 7.22966 17.2895 6.79067 18.5812C6.54395 19.3174 6.28061 19.9416 6.05495 20.3939C5.5109 21.449 5.18762 21.8897 4.68168 22.5352C4.49492 22.7605 4.27914 23.0035 3.97094 23.2713C3.29826 23.9037 2.01605 24.3176 0.985807 24.1931C0.461851 24.1348 0.595205 24.0449 1.09118 23.9772C1.81461 23.8681 2.4063 23.7264 2.69476 23.4718C3.25062 22.9418 3.40188 22.7481 4.11809 22.2014C4.1476 22.1771 4.17686 22.1511 4.20296 22.1271C4.80824 21.5419 4.75132 21.0013 5.00774 20.5728C5.21895 20.148 5.45357 20.2026 5.94799 18.3456C6.00986 18.093 6.0779 17.7818 6.13776 17.4515C6.39169 16.0409 6.50482 14.9566 6.59983 14.0716C6.69015 13.1918 6.74675 12.5241 6.78665 11.9936C6.82824 11.4471 6.93826 10.6414 7.04195 9.73316C7.14895 8.80046 7.24822 7.77614 7.27548 6.87817C7.28892 6.44888 7.31194 5.94435 7.34025 5.35688C7.66157 3.7078 6.79925 2.82287 8.27749 0.254679C9.62825 1.87843 8.75617 1.49095 8.99981 1.94804C9.06347 3.43313 8.85582 3.42771 8.72397 4.61116ZM11.1168 7.10906C11.3545 7.22542 11.5417 6.71113 11.8314 6.78382C12.0356 6.83505 12.1174 6.98566 12.2641 7.04866C12.3255 7.07505 12.3983 7.08607 12.4963 7.06794C12.8281 7.00657 13.1601 7.19316 13.3078 7.08108C13.4556 6.96896 13.4712 7.30793 13.681 7.23264C13.8327 7.17821 13.9412 7.18628 14.059 7.23658C14.1041 7.25584 14.1506 7.28129 14.2014 7.31179C14.3848 7.42197 14.9485 7.51603 15.1535 7.38069C15.3585 7.24534 15.5923 7.48018 15.7329 7.53588C15.7766 7.55323 15.8111 7.57698 15.8375 7.60168C15.8487 7.61215 15.8539 7.63406 15.8539 7.65569C15.8539 7.65571 15.8539 7.65572 15.8539 7.65574C15.8539 7.68267 15.8459 7.70915 15.8315 7.71255C15.7617 7.72907 15.6573 7.77264 15.534 7.87031C15.3041 8.05242 15.279 7.85118 14.9686 7.94476C14.6582 8.03833 14.4717 8.22542 14.1064 8.10444C14.0901 8.09902 14.0743 8.09487 14.059 8.09184C13.7328 8.02721 13.6342 8.47686 13.1417 8.20281C12.7046 7.95962 12.5991 8.30307 12.2641 8.45619C12.2039 8.48369 12.1363 8.50505 12.0581 8.51577C11.5443 8.58617 10.8958 8.29405 10.586 8.31828C10.5486 8.32121 10.5096 8.32468 10.4692 8.32841C10.1754 8.35549 9.80725 8.39572 9.4213 8.3343C9.19265 8.29791 8.93608 8.32831 8.67424 8.34819C8.43327 8.36649 8.18784 8.37588 7.95557 8.31614C7.62981 8.23235 7.21344 8.13374 6.87932 8.04605C6.71636 8.00328 6.57296 7.96311 6.46919 7.92852C6.15265 7.82302 6.0755 7.79922 5.77081 7.86369C5.59568 7.90074 5.35441 7.86581 5.15062 7.72953C5.04806 7.66094 5.0713 7.56545 5.17453 7.51975C5.32549 7.45294 5.44941 7.49758 5.52719 7.37823C5.68261 7.13971 5.74867 7.04821 5.94488 7.18704C6.14108 7.32585 6.23353 7.01038 6.34791 7.04669C6.45044 7.07925 6.45955 7.23217 6.87932 7.16019C6.9278 7.15188 6.98176 7.14057 7.04197 7.12573C7.62354 6.98236 7.94235 6.94577 8.16259 6.91136C8.2813 6.8928 8.46962 6.93117 8.67424 6.96136C8.84924 6.98718 9.03616 7.00701 9.20162 6.98014C9.51999 6.92844 10.1301 6.96463 10.4692 6.90687C10.5124 6.89951 10.5512 6.89063 10.5844 6.87985C10.8785 6.78442 10.8791 6.9927 11.1168 7.10906Z" fill="black"/>
</svg>
