<svg width="22" height="13" viewBox="0 0 22 13" fill="none" xmlns="http://www.w3.org/2000/svg">
<path d="M12.3049 8.12219C12.4045 8.01318 12.4887 7.89316 12.5609 7.76593C12.9491 7.06733 12.9496 6.27263 13.3636 5.36001C13.443 5.18211 13.5157 5.02596 13.5826 4.88941C13.9048 4.19736 14.2054 3.90361 14.3078 2.79858C14.3245 2.54013 14.3371 2.28171 14.33 2.03115C15.7457 -1.25642 15.8369 2.92162 15.997 2.53393C16.043 2.67381 16.0951 2.81393 16.1423 2.90635C16.4339 3.49343 16.1256 3.65657 16.4683 4.50523C16.5043 4.59341 16.5384 4.67906 16.5707 4.76255C16.8443 5.46608 16.967 5.96957 17.1203 6.66991C17.1387 6.75329 17.1641 6.85379 17.1959 6.96799C17.3472 7.5151 17.6477 8.36751 18.0153 9.09967C18.2887 9.65203 18.6059 10.1336 18.8386 10.3741C19.009 10.5544 19.1564 10.7333 19.3139 10.9245C19.7053 11.4145 20.1394 11.8753 20.5507 12.0028C20.7203 12.0605 20.8616 12.0898 20.9757 12.1105C21.0239 12.1191 21.0484 12.1386 21.0502 12.1603C21.0502 12.1603 21.0502 12.1603 21.0502 12.1603C21.0526 12.187 21.018 12.2172 20.9522 12.2221C20.6384 12.2524 20.1443 12.1896 19.6172 11.9226C19.2299 11.7279 19.0245 11.5199 18.8576 11.3246C18.6025 11.0105 18.4056 10.688 17.9319 9.99196C17.7772 9.75993 17.6461 9.5596 17.516 9.35284C17.0965 8.6817 16.7591 8.10054 16.4536 7.25173C16.3772 7.03747 16.303 6.8043 16.2329 6.55016C16.0537 5.89765 15.8569 5.4829 15.6519 5.05604C15.3912 4.51071 15.1226 3.94694 14.9175 2.8528C14.9003 2.75677 14.8783 2.63812 14.8598 2.52513C14.0238 1.61297 15.9698 1.05185 15.4391 1.9849C15.5508 2.7925 15.6728 3.58232 15.3208 4.97001C15.2806 5.12124 15.2362 5.27218 15.1878 5.42308C14.8505 6.47506 14.3089 7.55686 13.6629 8.46812C12.9691 9.45517 12.1093 10.2639 11.2892 10.5909C11.1171 10.6617 10.9379 10.7172 10.7317 10.75C9.1969 10.9866 8.17202 9.60017 7.66475 8.51362C7.44504 8.05406 7.26663 7.57041 7.11428 7.05689C6.96099 6.53791 6.78323 5.89684 6.64316 5.33904C6.61559 4.43413 5.52932 2.96138 6.77016 2.78663C8.00201 2.05196 7.21418 3.1633 7.40198 3.46655C7.38964 3.73631 7.37514 4.04492 7.35648 4.34603C7.31002 5.11136 7.24018 5.92989 7.11055 6.72982C6.97226 7.59383 6.75089 8.42685 6.45259 9.07718C6.29363 9.42899 6.11515 9.7277 5.95075 9.95482C5.56997 10.4756 5.23562 10.7522 4.92618 10.9903C4.51942 11.2872 4.13678 11.5412 3.42165 11.8431C3.22551 11.9237 3.00459 11.9964 2.76975 12.0553C2.12046 12.2206 1.35874 12.2731 0.69822 12.2165C0.237087 12.1748 0.343893 12.0756 0.786696 11.9999C1.43381 11.8855 1.96294 11.8441 2.26828 11.6585C2.39555 11.579 2.51333 11.5051 2.61305 11.4412C2.97839 11.2031 3.23977 11.1031 3.83414 10.9291C4.16353 10.8259 4.36882 10.6492 4.5091 10.477C4.69207 10.2506 4.77186 10.0354 4.9381 9.86356C5.13619 9.62446 5.32658 9.65353 5.69141 8.78619C5.81343 8.46561 5.93714 8.01228 6.00729 7.36856C6.0359 7.10685 6.05402 6.85622 6.06617 6.61859C6.10992 5.70826 6.0856 4.96329 6.06553 4.34041C6.03903 3.60476 6.00502 3.05845 5.9777 2.49333C6.13548 2.24887 5.49574 2.18933 6.62609 1.18845C8.18572 2.99219 7.43717 3.81608 7.93212 5.01483C7.9954 5.28016 8.05505 5.49872 8.13213 5.74514C8.31795 6.32992 8.56834 7.13642 8.93938 7.89258C9.39301 8.91246 10.1767 9.5326 10.5317 9.34072C10.6107 9.32276 10.6834 9.29319 10.7524 9.25636C11.4664 8.74801 11.6238 8.79002 12.3049 8.12219Z" fill="black"/>
</svg>
