<svg width="24" height="15" viewBox="0 0 24 15" fill="none" xmlns="http://www.w3.org/2000/svg">
<path d="M14.7537 11.4953C15.0535 11.123 15.1898 10.626 15.2876 10.1378C15.3942 9.60489 15.4777 9.03226 15.7169 8.38505C15.7344 8.33768 15.7515 8.29173 15.7683 8.2471C16.0723 7.42209 16.2999 7.09522 16.4935 6.41334C16.5641 6.15527 16.6266 5.84608 16.6633 5.44403C16.6925 5.11962 16.7211 4.79848 16.7404 4.48772C16.7864 3.7838 16.7742 3.11982 16.6416 2.66457C16.5608 2.37664 16.4379 2.18764 16.3223 2.10609C16.0313 1.95075 16.1585 1.81407 15.7297 1.68823C15.559 1.65928 15.3584 1.64256 15.1309 1.67859C15.1078 1.68249 15.0923 1.68584 15.0668 1.69049C14.7102 2.16757 15.1739 0.83877 15.101 1.29515C15.2477 1.39988 15.4547 1.51302 15.6457 1.62087C15.8413 1.73018 16.0436 1.84271 16.2632 1.96469C16.3326 2.0032 16.4034 2.04243 16.4775 2.08312C16.5866 2.14323 16.7317 2.21603 16.9024 2.29535C17.0893 2.38252 17.3343 2.48813 17.5444 2.573C17.883 2.65606 18.244 2.73305 18.6202 2.79613C18.9971 2.85942 19.3778 2.90585 19.7229 2.92668C20.1711 2.95475 20.5601 2.93774 20.821 2.89054C20.8224 2.8903 20.8237 2.89006 20.825 2.88982C21.1724 2.82694 21.5329 2.78786 21.8772 2.73133C22.2475 2.67218 22.6046 2.5873 22.915 2.47432C23.0985 2.40825 23.2645 2.3352 23.4037 2.2625C23.5883 2.16574 23.7379 2.09152 23.8565 2.04022C23.9696 1.99085 23.995 2.07209 23.8953 2.14804C23.6909 2.30164 23.42 2.52547 23.0687 2.7711C22.956 2.84936 22.8344 2.92935 22.7037 3.00839C22.4378 3.16814 22.2139 3.25302 22.0114 3.30811C21.6318 3.40654 21.3287 3.41171 20.841 3.42801C20.598 3.43444 20.3031 3.43994 19.9293 3.44167C19.8475 3.44213 19.7612 3.44167 19.6834 3.4413C19.27 3.43842 18.893 3.42668 18.5309 3.40566C18.1492 3.38297 17.7569 3.34439 17.3562 3.28359C17.0701 3.19256 16.8813 3.12947 16.6268 3.03116C16.4099 2.94711 16.1871 2.85255 15.9463 2.73798C15.8824 2.70756 15.8179 2.67598 15.7522 2.6428C15.5812 2.55641 15.4234 2.4798 15.2718 2.40728C15.0197 2.28399 14.7958 2.18993 14.5445 2.03275C13.7301 2.27264 14.8157 0.167412 14.9601 0.717519C15.2523 0.660568 15.4891 0.63998 15.772 0.633614C16.3513 0.504679 17.5509 1.25971 17.6553 2.26569C17.6615 2.29362 17.6674 2.32141 17.6731 2.34906C17.8463 3.37067 17.7968 3.98016 17.8404 4.54178C17.8689 5.22797 17.9368 5.79937 17.858 6.67801C17.8272 7.00488 17.7733 7.37362 17.6782 7.80021C17.6094 8.10898 17.5256 8.42594 17.429 8.74468C17.2284 9.40604 16.9718 10.0804 16.6715 10.7221C16.3516 11.3922 15.9977 12.0622 15.4966 12.6404C14.89 13.2852 14.2902 13.7869 13.7729 14.1434C13.4998 14.3349 13.1307 14.55 12.7536 14.689C11.7026 15.1897 10.0491 14.7669 9.21685 13.7907C8.8124 13.3802 8.48481 12.9116 8.21099 12.4323C7.94758 11.9704 7.70064 11.4805 7.46729 10.967C7.04121 10.0284 6.66279 9.01575 6.35619 7.99151C6.11714 7.19237 5.92142 6.38181 5.78651 5.59747C5.75047 5.3866 5.71211 5.1574 5.67548 4.92753C5.64097 4.09481 5.04435 2.49806 5.61437 2.23979C5.61457 2.23983 5.61382 2.2397 5.61496 2.2399C5.92082 2.31868 5.05389 2.89652 4.82767 3.22372C4.38373 3.69704 4.00801 4.13171 3.72464 4.46314C3.71484 4.4746 3.70513 4.48598 3.69551 4.49725C3.22787 5.04768 2.94509 5.40869 2.68924 5.77084C2.41552 6.16227 2.17547 6.55056 1.83159 7.19967C1.8237 7.21464 1.81575 7.22976 1.80775 7.24505C1.59016 7.65996 1.31532 8.15424 1.02942 8.65796C0.803723 9.05486 0.571153 9.45733 0.345481 9.82905C0.0911715 10.2554 0.0429712 10.1175 0.198988 9.63987C0.352616 9.17899 0.542109 8.79682 0.672607 8.47858C0.739022 8.31642 0.791061 8.16887 0.814682 8.03693C0.908513 7.52175 0.981052 7.20206 1.19308 6.82678C1.30202 6.63507 1.45021 6.42635 1.66114 6.17562C1.89711 5.89533 2.04457 5.64501 2.15454 5.41703C2.3345 5.04471 2.41704 4.7262 2.63647 4.45582C2.78469 4.27364 2.89215 4.19336 3.084 3.98812C3.29248 3.76966 3.58606 3.40703 4.16561 2.66863C4.35129 2.43477 4.56957 2.1585 4.84027 1.84162C5.13899 1.63655 4.73987 1.57371 5.79194 1.22701C5.79194 1.22701 5.79194 1.22701 5.79194 1.22701C6.98555 3.32913 6.61499 3.75113 6.96315 4.65343C7.12648 5.30774 7.26241 5.81547 7.38424 6.24238C7.48106 6.58062 7.59368 7.05689 7.73136 7.58971C7.95906 8.47605 8.26843 9.5384 8.67952 10.4257C8.74824 10.5748 8.81874 10.7174 8.89046 10.8518C9.18812 11.4073 9.62811 12.2018 10.2185 12.7885C10.8829 13.4747 11.6457 13.6275 12.2799 13.3531C12.5377 13.2541 12.7998 13.086 12.9504 12.963C13.7013 12.3146 13.9062 12.2354 14.4774 11.7829C14.5616 11.7129 14.6592 11.6111 14.7537 11.4953Z" fill="black"/>
</svg>
