<svg width="25" height="14" viewBox="0 0 25 14" fill="none" xmlns="http://www.w3.org/2000/svg">
<path d="M16.9459 5.65434C16.9361 6.33722 17.0587 6.95239 17.2213 7.56516C17.3885 8.18082 17.589 8.81965 17.7977 9.47888C17.8429 9.61841 17.8858 9.74768 17.9343 9.88393C18.1315 10.4232 18.2887 10.6451 18.4682 10.8097C18.7276 11.0263 19.1495 11.1632 19.9783 10.8683C19.9783 10.8683 19.9783 10.8683 19.9783 10.8683C20.1083 10.8049 20.2226 10.735 20.3265 10.6551C20.5885 10.4577 20.8216 10.1934 20.9997 9.89209C21.2723 9.43552 21.4434 8.89317 21.5592 8.38145C21.707 7.71768 21.7682 7.10587 21.7741 6.65557C21.7753 6.54194 21.7725 6.44278 21.7661 6.35219C21.7153 5.68571 21.8675 5.44489 21.937 4.87343C21.9638 4.6494 21.976 4.36446 21.9502 3.98125C21.928 3.65489 21.911 3.35241 21.9 3.07445C22.0091 2.55406 21.5067 1.52685 22.3117 1.64502C22.3117 1.64502 22.3117 1.64502 22.3117 1.64502C23.0371 1.07035 22.546 1.77648 22.6607 1.86316C22.6436 2.15421 22.6331 2.59736 22.6332 3.1157C22.6334 3.68036 22.6465 4.33491 22.679 4.98871C22.7111 5.64302 22.7636 6.29463 22.8343 6.85192C22.8901 7.29571 22.957 7.67674 23.0248 7.9512C23.0837 8.18947 23.1337 8.43349 23.1795 8.68144C23.2948 9.30739 23.3826 9.94028 23.4986 10.5002C23.5799 10.8983 23.6769 11.2609 23.7854 11.5421C23.8853 11.8017 23.9703 12.0028 24.0375 12.1603C24.1017 12.307 24.0163 12.3259 23.9224 12.1844C23.6916 11.8341 23.3967 11.2915 23.1068 10.6205C23.0824 10.5646 23.0578 10.5072 23.0329 10.4485C22.7274 9.71167 22.6633 9.28877 22.5898 8.78318C22.5292 8.33288 22.4693 7.81037 22.3335 6.90378C22.3302 6.88141 22.3268 6.85876 22.3234 6.83584C22.2246 6.16948 22.1393 5.58964 22.0655 5.02841C21.9853 4.41455 21.9195 3.81955 21.8803 3.14796C21.849 2.57053 21.832 2.05063 21.8509 1.21109C21.9596 1.1598 21.558 1.21816 22.2825 0.797133C22.2911 0.796838 22.2855 0.79703 22.287 0.796979C23.1684 2.37334 22.6257 2.38677 22.8341 3.05355C22.8934 3.63842 22.9712 4.18118 22.9985 4.87831C23.0167 5.38517 23.0115 5.97638 22.924 6.72689C22.8956 6.9652 22.8575 7.22707 22.8053 7.5036C22.7303 7.90082 22.6558 8.25527 22.5788 8.58063C22.4001 9.32852 22.2149 9.91903 21.9546 10.4504C21.6457 11.0708 21.2222 11.631 20.4763 12.0618C20.4763 12.0618 20.4763 12.0618 20.4763 12.0618C19.9314 12.2888 19.0195 12.783 17.7268 12.2143C17.6525 12.1768 17.5794 12.1348 17.5078 12.0886C16.6794 11.5358 16.3467 10.6977 16.1297 9.98587C15.909 9.21927 15.8159 8.46027 15.7524 7.73389C15.6889 6.97473 15.6655 6.2446 15.6492 5.55809C15.6312 4.76557 15.6247 4.04412 15.6087 3.41483C15.5982 2.99512 15.5845 2.62496 15.5651 2.31767C15.7702 2.16041 14.9005 1.24236 16.1956 1.96826C16.1956 1.96826 16.1956 1.96826 16.1956 1.96826C17.469 1.01879 16.6474 2.27245 16.8728 2.47505C16.8777 2.87052 16.8822 3.27965 16.8853 3.70005C16.8883 4.09893 16.8901 4.50795 16.89 4.92505C16.89 5.3265 16.8883 5.73545 16.8843 6.15005C16.8805 6.55358 16.8745 6.96248 16.8658 7.37505C16.8633 7.49207 16.8606 7.60939 16.8577 7.72696C16.8507 8.01054 16.8462 8.30621 16.8436 8.60511C16.8436 8.60511 16.8436 8.60511 16.8436 8.60511C16.8232 9.37982 16.7909 10.2334 16.645 11.1065C16.3861 11.7959 16.6067 13.2212 14.6803 13.495C13.2778 13.1394 12.9564 12.306 12.4282 11.6371C12.151 11.2143 11.9171 10.7922 11.7058 10.3678C11.5628 10.0796 11.4096 9.75408 11.2724 9.44434C10.9556 8.73268 10.6467 7.95701 10.3645 7.18433C10.0824 6.41307 9.82497 5.64319 9.59088 4.89774C9.54632 4.76976 9.5257 4.73568 9.4535 4.65316C9.38715 4.58282 9.29844 4.52557 9.19621 4.48708C9.09055 4.44707 8.9718 4.42743 8.85409 4.42815C8.73099 4.42875 8.60911 4.45126 8.49965 4.49158C8.38372 4.53414 8.282 4.5964 8.20093 4.67173C8.10863 4.76301 8.0612 4.82463 8.00805 4.95382C7.89573 5.25318 7.78033 5.52806 7.67205 5.76256C7.54911 6.029 7.42987 6.26132 7.31392 6.47128C6.98663 7.05885 6.7011 7.46337 6.39542 7.86164C6.09517 8.24582 5.77345 8.62775 5.28226 9.09633C5.17368 9.19921 5.05661 9.3057 4.92921 9.41589C4.65721 9.65149 4.33211 9.89401 3.97508 10.1204C3.52676 10.4054 3.02446 10.6674 2.51338 10.8871C2.13266 11.0509 1.74591 11.1925 1.37462 11.3075C0.736022 11.4986 0.844821 11.3542 1.43394 11.0535C1.76759 10.8801 2.08092 10.7234 2.35811 10.5756C2.79583 10.3427 3.14815 10.1296 3.36802 9.9119C3.4709 9.8093 3.56775 9.71124 3.65321 9.62229C4.04522 9.21208 4.31965 8.94209 4.80327 8.56165C4.94532 8.44793 5.1052 8.32205 5.28635 8.17265C5.56274 7.94429 5.75654 7.71042 5.90115 7.48893C6.24017 6.96157 6.31672 6.5246 6.5549 6.10593C6.556 6.10397 6.55709 6.10202 6.55819 6.10007C6.76102 5.71738 6.9191 5.61912 7.25129 4.7079C7.30084 4.54817 7.43941 4.28513 7.61235 4.11179C7.75826 3.95841 7.94514 3.82294 8.16616 3.72458C8.35416 3.64099 8.56656 3.58297 8.80091 3.56447C9.00589 3.54881 9.22886 3.56268 9.46278 3.62966C9.67071 3.6896 9.89015 3.79478 10.0858 3.96673C10.2226 4.08614 10.3523 4.2474 10.4451 4.43554C10.4692 4.48385 10.4882 4.52807 10.5051 4.57105C10.8352 5.39438 11.1424 6.11494 11.4271 6.74978C11.7997 7.58079 12.1415 8.28246 12.4482 8.86643C12.8799 9.6881 13.2573 10.3104 13.5903 10.7813C13.6012 10.7967 13.6122 10.8121 13.6232 10.8277C13.8966 11.2391 14.5382 12.0408 14.8213 12.0863C14.6957 12.3314 15.2635 11.5827 15.3266 10.8661C15.4383 10.2801 15.4801 9.7033 15.4892 9.12801C15.4912 8.96929 15.4926 8.7918 15.4925 8.59489C15.4925 8.59489 15.4925 8.59489 15.4925 8.59489C15.4864 8.22554 15.4821 7.81486 15.4789 7.37505C15.4761 6.98357 15.4742 6.57174 15.4726 6.15005C15.4711 5.74766 15.4699 5.33629 15.4686 4.92505C15.4674 4.51354 15.4659 4.10216 15.464 3.70005C15.4619 3.27799 15.4591 2.86614 15.4552 2.47505C15.6893 1.79524 14.7861 2.29404 16.1526 0.470881C16.1526 0.470881 16.1526 0.470881 16.1526 0.470881C17.6202 2.05471 16.7256 1.74323 17 2.2119C17.0487 2.70135 17.0699 3.04988 17.0761 3.3449C17.0936 4.1716 16.9792 4.47441 16.9495 5.48049C16.948 5.53653 16.9468 5.59443 16.9459 5.65434Z" fill="black"/>
</svg>
