<svg width="24" height="13" viewBox="0 0 24 13" fill="none" xmlns="http://www.w3.org/2000/svg">
<path d="M9.03009 2.34806C9.12212 2.39167 9.21367 2.42495 9.3066 2.45103C9.63809 2.544 9.97567 2.54311 10.3367 2.56039C10.6594 2.57574 11.0012 2.60522 11.3669 2.72895C11.4256 2.74882 11.4823 2.77015 11.5416 2.79485C11.8846 2.93781 12.1085 3.07168 12.306 3.19943C12.306 3.19943 12.306 3.19943 12.306 3.19943C12.7006 3.45721 13.096 3.75821 13.703 4.3565C13.8986 4.55543 14.0641 4.77741 14.2008 5.00568C14.7385 5.90012 14.8051 6.82956 14.934 7.27328C14.9429 7.30371 14.9502 7.33292 14.956 7.36102C15.0392 7.86863 14.7691 7.96106 14.7088 8.71955C14.6576 9.14432 14.535 9.47698 14.3649 9.76468C14.2068 10.0286 14.0062 10.2583 13.7372 10.4754C13.5002 10.6725 13.0321 11.0235 12.4761 11.2459C11.7414 11.5592 10.9077 11.6524 10.4855 11.7463C10.4042 11.7653 10.3196 11.7785 10.2326 11.7864C9.54698 11.8518 8.84503 11.5663 8.42935 11.4407C8.28033 11.3968 8.16253 11.3491 8.07323 11.3054C7.98797 11.2635 8.02409 11.1883 8.11705 11.2012C8.37507 11.2367 8.71315 11.2564 9.16441 11.2094C9.65918 11.1467 9.87342 11.1882 10.2244 11.2068C10.4342 11.2146 10.6956 11.2136 11.0719 11.1227C11.5364 11.007 11.8759 10.8373 12.1965 10.6427C12.5715 10.4051 12.9222 10.1535 13.3347 9.71926C13.4464 9.59817 13.5249 9.47645 13.5833 9.35488C13.8419 8.74032 13.7182 8.33369 13.7472 7.45778C13.7466 7.28692 13.7453 7.09501 13.7359 6.87282C13.7031 6.24358 13.4919 5.85411 13.2612 5.58625C12.8683 5.17221 12.4641 4.95831 11.7518 4.70349C11.7518 4.70348 11.7518 4.70348 11.7518 4.70348C11.7401 4.69974 11.7284 4.69596 11.7165 4.69214C11.4219 4.59711 11.1225 4.49438 10.8166 4.3863C10.5079 4.27723 10.1912 4.16257 9.87736 4.04735C9.55639 3.92947 9.23803 3.81095 8.92608 3.69238C8.58827 3.56364 8.25834 3.43541 7.95069 3.30536C7.56465 3.13395 7.22028 3.00363 6.84434 2.70001C6.78287 2.64677 6.71915 2.58411 6.65824 2.50571C6.04076 1.65702 6.93113 0.941955 7.08651 0.832262C7.3184 0.421482 8.72449 0.400822 9.00983 0.976548C9.3795 1.38499 9.53886 1.78413 9.68897 2.18918C9.8073 2.52634 9.89496 2.87087 9.96228 3.21425C9.97107 3.25929 9.97993 3.30485 9.98885 3.35092C10.0602 3.71988 10.1304 4.09914 10.1969 4.49218C10.2595 4.86231 10.3181 5.24157 10.3679 5.62645C10.4164 5.99956 10.4574 6.39056 10.4831 6.76431C10.5501 7.41765 10.3213 8.25564 9.91206 8.76572C9.84396 8.85702 9.77196 8.94451 9.69359 9.0318C9.2034 9.57565 8.56724 9.97853 7.9448 10.3C7.29461 10.6336 6.64535 10.8884 6.08941 11.0921C5.71224 11.2292 5.37727 11.3411 5.11709 11.4231C4.73469 11.5435 4.45321 11.629 4.21135 11.7097C3.76948 11.8571 3.43984 11.9944 2.81558 12.2882C2.68838 12.348 2.54846 12.4089 2.40217 12.468C1.89936 12.6712 1.29718 12.8649 0.746022 12.9772C0.384708 13.0515 0.424915 12.9315 0.744274 12.7512C1.21024 12.4884 1.63131 12.3676 1.84011 12.1552C1.95646 12.036 2.05929 11.9349 2.15567 11.8511C2.40129 11.638 2.63546 11.5245 3.13192 11.4331C3.52294 11.361 3.74601 11.1994 3.94215 11.0481C4.08884 10.9333 4.2191 10.8249 4.38488 10.7734C4.68728 10.6766 4.79982 10.7763 5.74347 10.3289C5.97938 10.2149 6.26142 10.0675 6.60076 9.86362C6.88968 9.68955 7.14969 9.52211 7.37879 9.36195C8.01064 8.9224 8.41208 8.52859 8.64486 8.1966C8.82882 7.93544 8.91475 7.71849 8.96175 7.52751C9.00213 7.34172 9.04907 7.20189 9.04904 6.85396C9.04171 6.51556 9.03136 6.15311 9.00538 5.7717C8.98098 5.41205 8.94322 5.04522 8.88559 4.69831C8.85999 4.54397 8.83047 4.39345 8.79695 4.25037C8.75575 4.07434 8.70944 3.87292 8.65518 3.65655C8.57698 3.34545 8.48183 2.9996 8.36077 2.67555C8.25066 2.37506 8.09689 2.07316 7.97095 1.94718C7.74824 1.87497 8.21125 1.8802 7.93659 1.96568C7.6082 2.26003 8.02694 2.00079 7.80548 1.63804C7.79065 1.61117 7.78736 1.60524 7.79184 1.60458C7.95949 1.68331 8.24761 1.84359 8.42294 1.98195C8.56952 2.08759 8.73219 2.20632 9.03009 2.34806ZM15.8019 10.619C16.0743 10.9254 16.5533 10.5732 16.9319 10.7595C17.2401 10.8967 17.3163 11.0621 17.561 11.1688C17.6663 11.2126 17.7829 11.2408 17.9458 11.2411C18.5366 11.2462 19.0668 11.4299 19.3531 11.3127C19.5972 11.1943 19.6331 11.5341 20.0077 11.4372C20.2922 11.3642 20.4617 11.3567 20.6758 11.386C20.7567 11.3972 20.8416 11.4137 20.9364 11.4335C21.3123 11.5075 22.2769 11.454 22.6486 11.2409C22.9691 11.0433 23.4299 11.186 23.7012 11.1819C23.785 11.1809 23.8539 11.1896 23.9084 11.2024C23.9315 11.2078 23.946 11.2269 23.9509 11.248C23.9509 11.248 23.9509 11.2481 23.9509 11.2481C23.957 11.2743 23.948 11.3036 23.922 11.313C23.7959 11.3589 23.6135 11.4447 23.4114 11.5874C23.0279 11.8525 22.9718 11.661 22.4112 11.8574C21.845 12.0486 21.5713 12.2818 20.8503 12.2404C20.8196 12.2382 20.7902 12.2371 20.762 12.2369C20.1878 12.2232 19.9788 12.703 19.0508 12.4367C18.2524 12.18 18.0096 12.501 17.3341 12.5579C17.2069 12.565 17.067 12.5612 16.9124 12.5388C15.8509 12.4339 14.6547 11.4352 14.2671 10.8373C14.2122 10.7706 14.1594 10.7023 14.1033 10.6214C13.6922 10.0697 13.4493 9.12848 13.6873 8.29726C13.814 7.81061 13.9874 7.28637 14.2511 6.80542C14.4917 6.36332 14.8113 5.95378 15.1905 5.66363C15.7176 5.24901 16.4639 4.85182 17.0932 4.66412C17.3988 4.56857 17.6741 4.5134 17.8735 4.48776C18.4848 4.42398 18.6214 4.42486 19.1908 4.30958C19.5168 4.2487 19.9912 4.30051 20.3415 4.49702C20.5201 4.59689 20.4555 4.68131 20.2667 4.69782C19.9924 4.72471 19.7817 4.67009 19.6401 4.786C19.3677 5.02217 19.2837 5.11413 18.9448 5.01166C18.5967 4.9177 18.5051 5.26621 18.3249 5.27501C18.1601 5.29573 18.085 5.12119 17.4676 5.46699C17.3987 5.50826 17.3226 5.55827 17.2414 5.61823C16.4704 6.20746 16.1646 6.62528 15.9548 6.89928C15.8459 7.05026 15.6306 7.2566 15.4433 7.51393C15.2821 7.73257 15.1427 7.99265 15.0962 8.23535C14.9594 8.70291 14.9752 9.54795 15.3022 9.85752C15.3385 9.90069 15.3725 9.93262 15.4062 9.95891C15.7174 10.1747 15.5739 10.3137 15.8019 10.619Z" fill="black"/>
</svg>
