<svg width="22" height="32" viewBox="0 0 22 32" fill="none" xmlns="http://www.w3.org/2000/svg">
<path d="M16.5915 16.5732C16.5842 16.6638 16.5781 16.7534 16.5729 16.8419C16.4687 18.5681 16.7543 20.0612 16.6653 22.0411C16.6491 22.3765 16.624 22.6996 16.5813 23.0652C16.3348 25.0294 16.0697 25.7405 15.7054 27.2164C15.5717 27.7133 15.4252 28.3059 15.1491 29.0685C14.7758 30.1356 13.9093 31.5457 12.4574 31.6597C12.4189 31.6639 12.3524 31.6671 12.3087 31.6658C12.2596 31.6649 12.2115 31.6611 12.1646 31.6548C12.1174 31.6485 12.0714 31.6397 12.0266 31.6287C11.9816 31.6177 11.9378 31.6045 11.8952 31.5893C11.8524 31.5741 11.8109 31.5569 11.7706 31.538C11.7334 31.5207 11.6828 31.4937 11.6526 31.4754C10.1902 30.6143 9.54089 29.2002 9.23578 28.4827C9.07538 28.1111 9.01074 27.8227 8.97552 27.5535C8.90984 26.8466 8.97036 26.3574 9.02848 24.9339C9.07592 24.1728 9.20227 23.5355 9.36339 22.9559C9.6239 22.0407 9.96881 21.2564 10.4815 20.3565C10.6785 20.013 10.9803 19.4913 11.3598 18.9171C12.0798 17.8074 13.1402 16.4902 14.1535 15.4468C14.8667 14.7023 15.5437 14.0814 15.9664 13.6733C16.4189 13.2362 16.936 12.8317 17.4667 12.4732C18.5272 11.7536 19.6372 11.2289 20.4012 10.8549C20.7536 10.682 21.0429 10.5593 21.269 10.4725C21.3649 10.4357 21.4171 10.4342 21.4267 10.4536C21.4267 10.4536 21.4268 10.4536 21.4268 10.4536C21.4388 10.4777 21.385 10.534 21.2702 10.5962C20.7163 10.8963 19.9074 11.379 19.0282 12.0511C18.5218 12.4391 18.1517 12.7189 17.8163 12.9618C17.083 13.5124 16.4468 13.8535 15.1036 15.2025C14.9017 15.41 14.7105 15.6164 14.5344 15.815C13.513 16.9793 12.8023 18.0102 12.0048 19.3142C11.6327 19.9334 11.2402 20.6291 10.847 21.4614C10.5443 22.1053 10.3605 22.6707 10.2369 23.195C9.95949 24.5354 9.89993 25.5916 10.1706 27.3152C10.2879 27.9123 10.4726 28.593 10.9005 29.3071C11.2644 29.8997 11.6851 30.2826 12.1714 30.5772C12.1878 30.5869 12.1886 30.5874 12.2016 30.5939C12.2119 30.599 12.2223 30.6034 12.2326 30.6072C12.243 30.611 12.2533 30.6142 12.2632 30.6167C12.2732 30.6192 12.2829 30.621 12.2921 30.6223C12.3014 30.6235 12.3102 30.6241 12.3184 30.6242C12.3308 30.624 12.3247 30.6246 12.3414 30.6231C13.8417 30.2359 13.9876 28.7524 14.3549 26.9136C14.4471 26.3476 14.5389 25.6874 14.6341 24.9018C14.7485 23.9579 14.8484 22.9386 14.9353 21.9131C15.0801 20.2028 15.1948 18.4246 15.2828 16.8064C15.3914 14.7824 15.4603 12.9902 15.4619 11.7689C15.462 11.734 15.462 11.6988 15.462 11.6635C15.4627 10.1745 15.4481 8.42059 15.4463 6.50837C15.6686 5.10071 14.8351 2.53197 16.1627 2.05139C17.0182 1.82427 16.7402 1.607 16.8319 1.60872C16.8477 1.92294 16.814 2.76855 16.8314 3.38877C16.8408 4.05095 16.8646 4.73224 16.8869 5.43174C16.9079 6.10991 16.9288 6.80127 16.92 7.51312C16.9088 8.21202 16.8762 8.93291 16.7297 9.67746C16.579 10.4049 16.3091 11.2487 15.5908 11.8689C14.874 12.4994 13.8599 12.5972 13.1839 12.5383C12.4943 12.531 12.062 11.8934 11.8974 11.6518C11.6621 11.2924 11.4915 10.9335 11.3295 10.5631C11.0469 9.90704 10.8127 9.22774 10.5882 8.52825C10.3736 7.85626 10.175 7.1755 9.98231 6.49246C9.78861 5.80563 9.60458 5.1266 9.42167 4.45938C9.2276 3.75404 9.04612 3.09068 8.84607 2.44679C8.77292 1.84365 7.96952 0.762331 8.63083 1.40841C8.49442 2.06426 8.34915 2.65639 8.21483 3.13513C8.15579 3.34641 8.09753 3.54409 8.03965 3.73234C7.74489 4.6836 7.48123 5.35521 7.21334 5.98562C6.91956 6.66063 6.62821 7.29867 6.12811 8.13008C5.97702 8.37769 5.80533 8.64088 5.60056 8.92116C5.3352 9.28427 5.01018 9.66561 4.62548 10.0259C4.06069 10.5582 3.35701 11.0379 2.59798 11.3576C2.02765 11.6009 1.4247 11.7575 0.854873 11.8293C-0.0797468 11.91 0.138461 11.8017 1.02156 11.5784C1.55739 11.4256 2.03686 11.2413 2.44744 11.0378C3.02279 10.7529 3.46002 10.4344 3.72957 10.1372C3.91287 9.9346 4.06199 9.74862 4.19808 9.57231C4.6473 8.97229 4.97073 8.52919 5.53761 7.75514C5.64602 7.60389 5.76254 7.43795 5.88675 7.25387C6.26597 6.68906 6.47249 6.18352 6.61414 5.74033C6.82563 5.06683 6.89312 4.52642 7.08414 3.95769C7.14012 3.78874 7.18821 3.65638 7.23904 3.51729C7.38682 3.09593 7.57716 2.66479 7.83442 1.2679C8.88161 -0.860474 9.52194 1.88595 9.69129 2.15568C9.8296 2.53321 9.9721 2.94567 10.1265 3.39899C10.2168 3.66458 10.3003 3.91324 10.3846 4.16632C10.6234 4.88313 10.8407 5.54264 11.0496 6.15984C11.2931 6.8797 11.521 7.53118 11.7429 8.12461C12.0128 8.84573 12.2677 9.46919 12.529 10.0053C12.7882 10.6593 13.4124 11.2893 13.217 11.1235C13.5203 11.1397 13.7652 11.1174 13.9522 11.0783C14.1873 11.0299 14.4377 10.9413 14.6468 10.7653C14.9397 10.5335 15.1962 10.0441 15.3382 9.39121C15.4659 8.82605 15.5241 8.16438 15.5495 7.48298C15.5736 6.82415 15.5682 6.14234 15.5544 5.46442C15.5398 4.76554 15.5163 4.0735 15.4944 3.41396C15.4943 3.41249 15.4943 3.41102 15.4942 3.40955C15.7098 2.59025 14.8137 2.73784 16.1867 0.638422C17.5 3.52312 16.6413 4.54335 16.8682 6.5131C16.8681 8.56609 16.8697 10.4788 16.8981 11.6768C16.8989 11.7077 16.8996 11.7381 16.9004 11.7679C16.9661 14.4171 16.7576 14.4295 16.5915 16.5732Z" fill="black"/>
</svg>
