<svg width="18" height="32" viewBox="0 0 18 32" fill="none" xmlns="http://www.w3.org/2000/svg">
<path d="M12.6285 16.2393C12.739 16.8823 12.8616 17.4825 12.9875 18.0823C13.2207 19.2074 13.4746 20.3423 13.5016 21.7484C13.5059 21.9984 13.5025 22.2571 13.4894 22.5251C13.419 23.8665 13.2598 24.6071 13.1037 25.4181C12.9471 26.1712 12.8217 26.9534 12.5128 28.3594C12.4569 28.5998 12.4023 28.81 12.3271 29.0589C11.959 30.0762 11.3184 32.326 9.26106 31.6003C8.03685 30.9943 7.4878 29.8792 7.21273 29.3036C6.91561 28.6586 6.90981 28.2557 6.90737 27.8072C6.9176 27.3469 6.93637 26.8308 6.97909 25.8784C7.03026 24.9553 7.19275 24.2173 7.39744 23.543C7.61502 22.8399 7.88998 22.1893 8.26857 21.4568C8.47429 21.0584 8.79566 20.4386 9.20466 19.7473C9.85148 18.6396 10.7363 17.364 11.5558 16.3121C12.101 15.6063 12.6029 15.0012 12.9294 14.581C13.3121 14.0852 13.7799 13.5938 14.2532 13.1547C15.1196 12.3482 16.0369 11.6846 16.6641 11.2037C16.963 10.9743 17.2112 10.8024 17.4069 10.6761C17.4899 10.6226 17.5393 10.6112 17.5527 10.6281C17.5527 10.6281 17.5528 10.6281 17.5528 10.6281C17.5696 10.6491 17.5311 10.7139 17.4355 10.7955C16.9746 11.1898 16.3081 11.8017 15.5961 12.5899C15.2128 13.0133 14.9425 13.3043 14.6728 13.5785C14.0281 14.2527 13.4833 14.6509 12.3125 16.1644C12.1904 16.3254 12.0755 16.4815 11.9664 16.6337C11.1002 17.8507 10.5189 18.8688 9.8554 20.1062C9.48991 20.799 9.09672 21.5738 8.69231 22.5144C8.49601 22.9726 8.35366 23.3986 8.25085 23.7866C7.9199 25.1442 7.88356 26.1436 8.04829 27.6634C8.15142 28.3424 8.30649 29.1678 8.88809 29.9594C9.11866 30.2629 9.3816 30.4876 9.70995 30.6617C10.535 31.0643 11.038 29.5011 11.1958 28.706C11.3877 27.7667 11.4802 26.7927 11.6036 25.2536C11.6234 24.9897 11.6437 24.7036 11.6631 24.3978C11.7168 23.5528 11.7528 22.6579 11.7599 21.7519C11.7691 20.5856 11.7309 19.3868 11.6175 18.2564C11.492 17.0277 11.2857 15.8684 10.9151 14.9461C10.5569 13.9777 9.96089 13.6132 9.71571 13.7381C9.55954 13.769 9.39811 13.8358 9.17432 13.986C8.86962 15.6874 5.56625 12.7276 6.98282 12.0703C7.26756 11.1299 7.66657 10.2358 8.10892 9.32572C8.52535 8.47675 8.99225 7.61903 9.49221 6.77296C9.61784 6.56046 9.7461 6.34792 9.87639 6.13645C10.2393 5.54762 10.62 4.93855 11.0254 4.31594C11.5438 3.52406 12.074 2.73439 12.7138 1.92469C12.75 1.84156 15.2998 -1.4904 15.6278 1.95025C15.6796 2.79977 14.6532 3.99065 13.7982 4.09937C12.9027 4.3405 12.0987 4.26626 11.3424 4.15282C11.168 4.12455 10.9919 4.091 10.8185 4.05359C10.2677 3.93447 9.70278 3.77381 9.13451 3.58236C8.4443 3.34952 7.74096 3.06902 7.05258 2.75144C6.37574 2.43488 5.71182 2.10158 5.06438 1.66054C2.92698 -0.133616 6.61855 0.398955 6.47086 0.590035C7.45293 0.88759 8.47117 1.55862 8.80298 2.48782C9.10467 3.28014 8.9744 4.0088 8.82613 4.53564C8.73042 4.86294 8.61176 5.14771 8.48773 5.40721C7.95016 6.47478 7.45545 7.06896 6.90458 7.74605C6.47584 8.25321 5.9904 8.79564 5.24638 9.48943C5.15191 9.57704 5.05281 9.66616 4.94942 9.75615C4.31409 10.3102 3.51914 10.8888 2.65509 11.3683C1.99343 11.7367 1.29364 12.0455 0.617276 12.2525C-0.248821 12.4905 -0.0746336 12.3437 0.728722 11.9813C1.39999 11.6611 1.98828 11.3401 2.45835 11.0394C2.80428 10.8177 3.08932 10.6038 3.29075 10.4036C3.77851 9.91641 4.09755 9.55798 4.4767 9.19607C4.83408 8.84948 5.2493 8.50053 5.8519 7.96492C6.08305 7.75817 6.27817 7.55209 6.44023 7.35734C7.14064 6.50094 7.31112 5.83906 7.65276 5.19661C7.67569 5.15205 7.69678 5.1112 7.71755 5.07084C7.86862 4.60567 8.41384 4.27217 8.05267 2.80529C7.845 2.30462 7.31726 1.78839 6.20423 1.49659C6.09865 1.46831 5.99761 1.44262 5.9021 1.41982C4.9812 1.90451 5.29569 -0.192674 5.6533 0.769533C6.26727 1.13872 6.92579 1.42237 7.5189 1.66286C8.24105 1.95137 8.91203 2.17463 9.51325 2.34548C10.2831 2.56372 10.9538 2.70027 11.5343 2.77017C11.973 2.82279 12.3574 2.8366 12.6915 2.81451C12.9064 2.80025 13.1604 2.77089 13.3911 2.70489C13.8772 2.50841 14.0662 2.49717 14.2146 1.79887C14.8078 1.59272 14.5228 1.96959 13.7633 2.77574C13.1604 3.50618 12.6235 4.28302 12.1426 5.04391C12.1039 5.10539 12.0654 5.16701 12.0273 5.22869C11.6499 5.83917 11.1831 6.61144 10.7004 7.46454C10.2629 8.23753 9.80437 9.08882 9.38527 9.95015C8.97217 10.8032 8.58246 11.6811 8.34054 12.4827C8.50924 13.9514 7.11528 13.009 8.38445 12.8013C8.68305 12.6002 8.90575 12.4734 9.27111 12.3632C12.0404 12.2788 11.8307 13.8936 12.2022 14.3807C12.3614 14.8787 12.477 15.3905 12.6285 16.2393Z" fill="black"/>
</svg>
