<svg width="133" height="126" viewBox="0 0 133 126" fill="none" xmlns="http://www.w3.org/2000/svg">
<path d="M17.3114 119.605C20.5107 119.999 22.1313 116.934 25.4993 115.315C28.036 113.992 29.2633 113.854 31.1114 112.701C31.8788 112.209 32.7985 111.458 33.6897 110.488C37.1692 106.757 40.6689 103.743 41.7769 101.504C42.6622 99.5161 44.0311 100.302 45.6524 97.4651C46.9159 95.254 47.6658 94.1988 48.8717 92.7938C49.317 92.2774 49.7994 91.7493 50.3402 91.1636C52.457 88.8842 56.9701 82.076 58.019 78.7915C58.9074 75.8964 61.5162 73.2247 62.7575 71.3401C63.1429 70.7578 63.4883 70.3136 63.78 69.9846C63.9036 69.8452 64.0307 69.8152 64.1189 69.8598C64.119 69.8598 64.119 69.8599 64.1191 69.8599C64.2293 69.9148 64.2794 70.0851 64.1892 70.299C63.7516 71.3377 63.177 72.9104 62.6891 74.8091C61.7469 78.3756 60.8789 78.0865 58.8749 82.5567C56.7484 87.1428 56.3216 89.5841 52.586 94.3641C52.4269 94.5626 52.2777 94.7556 52.1371 94.9439C49.2851 98.6387 49.8447 101.633 44.1527 106.741C39.0228 111.094 38.8515 113.502 35.2762 117.606C34.59 118.353 33.7921 119.126 32.8377 119.897C26.7824 126.102 12.1427 127.371 7.89586 121.743C7.3425 121.292 6.77703 120.761 6.27079 120.214C2.43336 116.136 0.483562 109.567 0.882893 103.091C1.08832 99.3196 1.62811 95.0468 2.84027 90.9407C3.94622 87.1476 5.6415 83.4248 7.88003 80.3317C10.9546 75.9517 15.8211 71.2215 20.278 68.3098C22.4712 66.8322 24.4139 65.7925 25.9033 65.079C30.4411 63.0308 31.594 62.6444 35.8621 60.6839C38.4259 59.5598 42.0017 58.7106 45.2809 58.701C46.9391 58.7013 46.6362 59.1958 45.1063 59.7153C42.8849 60.486 41.0709 60.7765 40.1341 61.6196C38.154 63.3623 37.4209 64.0377 34.5625 64.5053C31.5541 65.088 31.0344 67.012 29.5272 67.6402C28.1735 68.3145 27.5375 67.538 22.7838 71.4911C22.2517 71.9587 21.6813 72.4938 21.08 73.1091C15.1961 79.2891 13.2816 83.4727 11.8863 86.2601C11.1905 87.7542 9.87901 90.1399 8.8849 92.8527C8.01907 95.171 7.37326 97.8077 7.25839 100.113C6.69264 104.563 7.88098 113.324 11.135 115.905C11.4803 116.245 11.8323 116.523 12.135 116.716C14.8766 118.076 14.4333 118.804 17.3114 119.605ZM92.4547 119.325C92.6624 118.536 91.0184 118.269 90.5694 117.306C90.4813 117.119 90.4446 116.912 90.4866 116.688C90.7633 115.309 92.0071 115.187 91.827 113.512C91.7905 113.09 91.8289 112.659 91.9045 112.235C92.1429 110.881 92.7669 109.54 92.5214 108.699C92.2033 107.584 93.7394 107.769 93.7294 106.119C93.7318 105.847 93.7456 105.591 93.7702 105.347C93.9036 104.037 94.3471 103.067 95.1348 101.667C95.7154 100.642 96.6961 98.0032 97.6312 94.8491C98.181 92.9845 98.7068 90.959 98.9217 89.4887C99.3904 85.8599 102.352 80.2224 104.686 74.262C105.359 72.5562 105.909 71.314 106.356 70.3813C106.784 69.4866 107.066 69.8041 106.756 70.7725C105.965 73.2468 104.551 77.948 103.801 81.6325C102.596 87.964 101.591 88.102 100.463 93.2787C100.29 94.1218 100.172 94.8425 100.061 95.5534C99.6114 98.6676 99.5579 100.762 98.4293 103.438C97.9274 104.613 97.9367 105.488 98.0299 106.279C98.1851 107.589 98.5146 108.834 97.4006 110.606C96.7846 111.594 96.7038 112.215 96.8416 112.775C97.1164 113.77 98.1596 114.521 98.3686 115.572C98.4442 115.933 98.4482 116.245 98.4143 116.52C98.3061 117.369 97.8318 117.732 97.7483 117.715C97.7403 117.712 97.7359 117.705 97.7358 117.692C97.8834 117.448 96.6457 116.789 96.9962 117.129C98.4624 117.187 99.2712 117.091 100.209 116.982C102.654 116.656 104.68 115.8 106.481 114.876C108.778 113.683 110.719 112.328 112.573 111.227C112.95 111.002 113.316 110.792 113.683 110.592C115.064 109.843 116.56 108.936 117.92 108.04C119.739 106.846 121.316 105.671 122.383 104.872C122.631 104.687 122.853 104.522 123.049 104.378C124.556 103.263 124.971 102.899 125.484 101.713C125.525 101.613 125.564 101.508 125.601 101.398C125.89 100.573 126.358 99.9234 127.013 99.5121C127.336 99.2881 127.787 99.2563 127.957 99.6968C128.176 100.351 127.763 100.822 128.107 101.389C128.634 102.319 128.808 102.923 128.281 103.447C128.144 103.583 127.96 103.711 127.717 103.844C126.531 104.466 127.296 105.813 126.662 106.339C126.268 106.654 125.88 106.56 125.096 107.287C124.606 107.736 123.977 108.487 122.909 109.882C122.364 110.589 121.823 111.237 121.299 111.829C119.31 114.066 117.619 115.497 116.311 116.562C116.155 116.688 116.004 116.809 115.858 116.925C114.652 117.88 112.167 119.132 109.122 120.449C107.801 121.019 106.383 121.597 104.861 122.174C103.266 122.701 101.205 123.577 96.7583 123.555C95.7331 123.825 93.1982 122.436 92.5597 121.748C92.4567 121.677 92.3702 121.604 92.298 121.533C91.5556 120.74 92.2745 120.231 92.4547 119.325ZM126.18 0.86575C126.581 0.468602 132.856 0.0337405 132.665 4.35164C132.893 7.67506 132.948 9.68529 131.874 12.5304C131.112 14.3944 130.401 15.4666 129.731 16.5114C128.868 17.848 128.064 19.1485 127.223 21.9377C126.662 23.8003 125.939 25.6106 125.24 27.2649C124.09 29.9898 123.013 32.2802 122.811 33.7392C122.536 35.7599 121.324 35.7853 120.481 37.8685C120.358 38.1745 120.246 38.5134 120.144 38.9109C119.33 42.0779 118.454 43.8471 116.991 46.3381C116.689 46.852 116.3 47.6068 115.869 48.5121C114.372 51.6477 112.383 56.5728 111.75 59.3317C111.689 59.5958 111.64 59.8402 111.606 60.0612C111.104 63.2527 108.874 66.2937 107.908 68.2624C107.606 68.8755 107.327 69.3418 107.084 69.6892C106.854 70.0195 106.531 69.8203 106.637 69.4327C106.925 68.3905 107.278 66.7948 107.501 64.8469C107.848 61.8362 108.594 61.2789 109.543 58.529C109.741 57.9569 109.948 57.2897 110.163 56.487C111.093 53.0202 111.443 50.4733 112.581 47.2933C112.979 46.1827 113.463 45.019 114.108 43.695C115.569 40.698 115.587 38.7577 116.159 36.2563C116.564 34.4878 117.245 32.4424 118.901 29.5405C119.774 28.0047 120.354 26.7508 120.766 25.6154C122.167 21.7243 121.519 19.4802 123.009 14.1731C123.085 13.8998 123.165 13.6224 123.249 13.3414C124.13 10.3591 125.726 6.08885 126.176 4.35157C131.433 7.8452 121.793 7.44284 121.081 9.47137C120.561 9.80822 119.972 10.2021 119.395 10.6001C116.188 12.8102 112.371 15.7802 108.265 18.8645C107.802 19.2121 107.351 19.5488 106.882 19.8965C103.887 22.1195 100.79 25.0311 97.7202 28.0054C95.2757 30.3714 92.8326 32.7891 90.3849 34.9636C89.4769 35.7701 88.5162 36.6446 87.543 37.5548C84.1199 40.7466 80.5258 44.4756 77.8472 47.6162C76.5998 49.0689 75.5506 50.3739 74.758 51.3794C72.1747 54.7425 71.3838 55.9506 70.1844 59.2003C70.003 59.6516 69.8037 60.155 69.5978 60.6831C69.5422 60.8255 69.4843 60.97 69.4241 61.1167C69.1818 61.7078 68.9024 62.3341 68.5917 62.9781C68.3051 63.5722 67.992 64.181 67.657 64.7912C67.3321 65.383 66.9867 65.9761 66.6259 66.5567C66.261 67.144 65.8805 67.7186 65.489 68.2685C65.2884 68.5503 65.0849 68.8256 64.8794 69.0924C63.8881 70.3753 63.6617 69.8553 64.1852 68.3342C64.2557 68.1287 64.3285 67.9276 64.4022 67.732C64.6593 67.0494 64.9302 66.4259 65.1741 65.8509C65.474 65.1441 65.7329 64.511 65.8731 63.9367C65.9402 63.6622 65.98 63.4016 65.9845 63.1521C65.9937 62.6387 66.0024 62.1837 66.0243 61.7659C66.0647 60.9944 66.1505 60.349 66.3658 59.6928C66.5541 59.1202 66.8302 58.5601 67.2406 57.9301C67.4146 57.6308 67.6215 57.3104 67.8687 56.961C69.72 54.3985 69.2384 52.4111 70.324 50.8844C71.2841 49.6225 71.799 49.7149 74.7097 45.335C75.3362 44.4156 76.0565 43.3381 76.9719 41.9913C79.4067 38.4152 81.5158 35.7554 83.2748 33.6271C85.263 31.2329 86.8086 29.5395 88.0533 28.1738C89.2026 26.9141 91.1705 25.1813 93.3666 23.3196C95.6568 21.3729 98.1909 19.2928 100.303 17.3236C101.337 16.3568 102.747 15.1354 104.264 13.8888C107.986 10.8097 112.703 7.38465 115.862 5.15314C116.524 4.6807 117.144 4.23831 117.621 3.87972C121.56 1.09829 121.996 1.79362 126.18 0.86575ZM88.0097 67.3707C88.9499 67.9026 89.6946 65.5516 90.842 65.8839C91.6523 66.1181 91.9758 66.8066 92.5574 67.0946C92.801 67.2152 93.0893 67.2656 93.4783 67.1827C94.7917 66.9022 96.1123 67.7551 96.6942 67.2428C97.2819 66.7302 97.3448 68.2798 98.174 67.9356C98.7743 67.6868 99.209 67.7237 99.6736 67.9536C99.8522 68.0417 100.034 68.158 100.236 68.2975C100.969 68.8011 103.2 69.2311 104.013 68.6124C104.825 67.9937 105.754 69.0672 106.31 69.3219C106.483 69.4012 106.618 69.5097 106.721 69.6226C106.764 69.6705 106.785 69.7707 106.785 69.8696C106.785 69.8696 106.785 69.8697 106.785 69.8698C106.785 69.9929 106.753 70.1139 106.697 70.1295C106.425 70.205 106.014 70.4042 105.521 70.8507C104.607 71.6832 104.515 70.7632 103.279 71.191C102.048 71.6188 101.313 72.474 99.8609 71.921C99.7964 71.8962 99.734 71.8772 99.6736 71.8634C98.3779 71.568 97.9916 73.6235 96.0371 72.3707C94.3019 71.259 93.8869 72.829 92.5574 73.529C92.3189 73.6547 92.051 73.7524 91.741 73.8014C89.7053 74.1232 87.1308 72.7878 85.9067 72.8985C85.7572 72.9119 85.6018 72.9278 85.4411 72.9449C84.2799 73.0687 82.8207 73.2525 81.2869 72.9718C80.3761 72.8054 79.3749 72.9444 78.3237 73.0353C77.3765 73.1189 76.3993 73.1619 75.4741 72.8888C74.1868 72.5057 72.5292 72.0549 71.206 71.6541C70.5912 71.4585 69.9716 71.2749 69.5874 71.1168C68.3246 70.6345 68.0214 70.5257 66.813 70.8204C66.1132 70.9898 65.1589 70.8301 64.3562 70.2071C63.9185 69.8936 64.0732 69.457 64.4505 69.2481C65.0409 68.9427 65.5241 69.1468 65.8563 68.6012C66.4519 67.5108 66.7176 67.0925 67.5108 67.7271C68.2691 68.3617 68.6534 66.9196 69.0993 67.0855C69.53 67.2344 69.5304 67.9334 71.206 67.6044C71.3977 67.5664 71.6139 67.5147 71.8602 67.4469C74.1532 66.7915 75.4196 66.6242 76.2987 66.4669C76.7541 66.3821 77.5319 66.5575 78.3237 66.6955C79.0258 66.8135 79.755 66.9042 80.4161 66.7813C81.6739 66.545 84.1018 66.7104 85.4411 66.4464C85.6128 66.4128 85.7675 66.3721 85.9001 66.3228C87.0614 65.8866 87.068 66.8388 88.0097 67.3707Z" fill="black"/>
</svg>
