<svg width="115" height="122" viewBox="0 0 115 122" fill="none" xmlns="http://www.w3.org/2000/svg">
<path d="M24.1153 115.563C24.3077 115.704 24.4825 115.632 24.6474 115.458C25.09 114.992 25.4784 113.798 26.0433 114.003C26.5129 114.176 26.8041 114.705 27.1462 114.994C27.3563 115.172 27.6209 115.254 27.9234 115.092C28.4851 114.798 29.1379 114.976 29.6124 114.859C29.8282 114.805 29.9875 114.702 30.034 114.503C30.1796 113.846 30.9723 115.208 31.4987 114.415C31.8279 113.877 32.2087 113.546 32.7977 113.183C33.102 112.986 33.4288 112.81 33.8677 112.516C34.767 112.096 37.2146 108.849 38.872 104.97C39.4073 103.758 39.8377 102.596 40.0436 101.76C40.8775 98.4028 43.4762 95.0005 44.6749 92.7984C45.0438 92.1231 45.3836 91.5905 45.6734 91.1888C45.7962 91.0185 45.9254 90.9688 46.0166 91.007C46.0167 91.007 46.0167 91.0071 46.0168 91.0071C46.1305 91.0542 46.1853 91.2375 46.0988 91.4855C45.6834 92.6774 45.1505 94.471 44.7138 96.6406C43.8867 100.669 42.8783 100.775 41.1185 105.591C41.0699 105.721 41.0225 105.848 40.9763 105.974C39.3611 110.314 38.6834 113.213 36.1772 115.42C36.0014 115.567 35.8441 115.707 35.7015 115.844C34.0364 117.318 34.3678 119.499 31.5063 119.455C31.4714 119.451 31.4354 119.449 31.4033 119.446C29.207 119.084 29.3391 120.753 27.9406 121.6C27.7775 121.699 27.594 121.781 27.3856 121.837C26.5233 122.07 25.6027 121.902 24.7987 121.668C23.8627 121.397 23.068 121.042 22.5897 121.102C22.4097 121.125 22.2157 121.153 22.0085 121.182C22.0085 121.182 22.0085 121.182 22.0085 121.182C18.0994 121.328 13.1949 120.763 9.63687 118.831C9.31421 118.661 9.00063 118.482 8.69718 118.293C6.13832 116.723 3.74901 114.698 2.32517 112.154C1.17226 110.14 0.688186 107.856 0.963003 105.908C1.0475 105.284 1.18 104.655 1.36083 104.036C2.04514 101.619 3.50519 99.6478 4.77733 98.5796C5.49911 97.956 6.17631 97.5541 6.65469 97.3387C7.82821 96.8256 8.30437 96.7468 8.91529 96.3349C9.14335 96.1906 9.35464 96.0336 9.6456 95.8287C10.2888 95.3649 11.3722 95.2292 12.2122 95.7391C12.6469 95.9942 12.5925 96.4398 12.2779 96.6998C11.8338 97.0814 11.3728 96.9965 11.2745 97.597C11.1245 98.793 11.1693 99.2157 10.3488 98.9094C10.3128 98.8979 10.2788 98.8896 10.2468 98.8842C9.49181 98.7812 9.94292 100.077 9.60111 100.136C9.26601 100.252 8.7596 99.6407 7.92626 101.046C7.81854 101.247 7.71845 101.482 7.62137 101.785C7.24492 102.996 7.14563 104.074 7.16262 104.916C7.18135 105.766 7.30087 106.403 7.44956 106.914C7.5988 107.414 7.62852 108.224 7.98188 109.177C8.32682 110.144 9.0809 111.25 10.2246 111.938C10.7496 112.257 11.4413 112.669 12.3547 113.076C14.5956 114.143 18.4247 114.882 22.0084 114.701C22.0084 114.701 22.0084 114.701 22.0084 114.701C22.2336 114.66 22.4264 114.604 22.5772 114.527C23.4139 114.088 23.4414 115.04 24.1153 115.563ZM39.343 13.0827C41.8435 11.8142 42.3278 8.61236 45.5308 7.13666C47.8017 6.12548 48.9412 6.34109 50.628 5.85424C51.3462 5.65175 52.1138 5.35748 53.137 4.83814C56.6198 3.0581 60.5835 2.78587 62.0892 1.86869C63.6569 0.93969 64.1555 2.39788 66.4403 1.56779C68.1309 0.976929 69.3346 0.820731 70.7186 0.854863C71.2445 0.869664 71.7936 0.914963 72.3894 0.984524C74.5169 1.15911 80.885 1.26902 83.2108 0.777505C85.5811 0.199625 88.1616 1.46386 89.7036 1.88124C90.1887 2.00976 90.5657 2.16091 90.8505 2.30725C90.9712 2.36932 91.018 2.47572 91.0062 2.57388C91.0062 2.57395 91.0062 2.57401 91.0062 2.57407C90.992 2.69639 90.8878 2.80595 90.7251 2.80303C89.9351 2.78879 88.7464 2.86568 87.3635 3.21229C84.8066 3.88659 84.5364 2.92787 81.1347 3.34073C77.7047 3.81754 75.7707 4.77085 71.7856 4.7129C71.6051 4.71204 71.4316 4.71671 71.2645 4.72629C67.7045 4.99523 67.0641 7.11519 61.6788 7.3067C56.828 7.64607 56.2457 9.61858 53.3591 11.6803C52.8357 12.0646 52.2414 12.4621 51.5428 12.8777C46.9164 15.4991 40.7908 18.6262 38.6043 21.1186C38.3363 21.4069 38.0641 21.7108 37.789 22.0285C35.7717 24.352 33.6071 27.438 31.599 30.8424C30.4007 32.8596 29.5932 35.3843 29.1276 37.9752C28.6908 40.3645 28.5356 42.7921 28.3777 45.1328C28.0974 48.4126 28.6978 52.7693 29.8452 56.1559C30.3616 57.7784 30.9884 59.2643 31.4248 60.2793C32.8787 63.4527 33.3184 64.1861 35.7257 66.5465C37.1179 67.874 38.8461 69.8242 40.1674 71.7925C40.8479 72.7921 40.3662 72.96 39.3301 72.3337C37.8159 71.406 37.009 70.3272 35.9785 70.061C33.9302 69.5153 33.0931 69.2458 32.0934 67.0522C31.1502 64.874 29.4093 64.8717 28.7556 63.5974C28.2591 62.4509 28.614 62.1413 26.1556 57.8251C25.8794 57.3065 25.5767 56.7304 25.2523 56.0855C22.1731 49.7703 22.0798 45.5389 21.9382 42.8692C21.8892 41.3932 22.255 39.0513 22.9328 36.627C23.5029 34.5414 24.2863 32.414 24.9516 30.5031C26.0696 26.7268 30.3498 20.6017 33.0524 17.5794C33.3825 17.1789 33.6795 16.8155 33.928 16.4955C36.1579 13.7202 36.8711 14.4124 39.343 13.0827ZM99.5784 74.6356C100.41 78.5696 102.196 81.695 102.668 86.1116C102.796 87.4026 102.789 88.7852 102.557 90.2557C101.595 95.5145 100.264 96.83 98.698 100.879C98.3307 101.759 97.9116 102.797 97.4082 103.997C95.7948 107.872 93.2128 111.279 90.6998 113.715C88.8768 115.508 87.1232 116.782 86.0146 117.736C83.2799 119.82 82.1676 118.968 77.5803 119.935C77.2104 119.988 76.8537 120.023 76.5084 120.043C73.6189 120.218 71.1333 119.721 68.8364 118.771C68.0736 118.454 67.3012 118.075 66.5131 117.625C65.5051 117.053 63.9173 116.15 62.2185 114.918C60.3322 113.566 58.3333 111.806 56.6042 110.015C54.5348 107.892 52.825 105.749 51.6668 104.488C51.6288 104.447 51.5915 104.407 51.5548 104.367C49.9106 102.616 48.7313 100.298 47.9079 98.1297C47.2491 96.4 46.7955 94.7394 46.3994 93.4999C46.1241 92.6387 45.9646 91.9188 45.8945 91.3909C45.8077 90.8162 46.219 90.8777 46.4082 91.3208C46.9757 92.6518 47.9659 94.5138 49.4874 96.5308C49.6384 96.7333 49.7748 96.914 49.9044 97.0885C51.7386 99.5166 52.0379 100.673 53.6613 103.087C54.2063 103.874 54.8965 104.772 55.8859 105.817C56.7508 106.729 57.5997 107.508 58.4387 108.208C60.2774 109.73 62.0442 110.894 64.0465 112.085C65.6289 113.012 67.354 113.961 69.5687 114.894C69.7053 114.951 69.8363 115.004 69.9686 115.054C72.5718 116.004 74.434 115.883 76.5085 115.611C79.2844 115.006 80.9834 114.472 85.66 111.6C86.2537 111.205 86.7603 110.817 87.2393 110.402C91.6828 106.226 91.8235 103.235 92.9436 98.7242C93.2587 97.2673 93.6146 95.611 94.0051 93.5471C94.4528 91.1688 94.8016 88.6194 94.9022 86.0505C95.1028 81.6298 94.4502 77.1634 93.0339 73.6862C92.0687 71.2501 90.7796 69.2975 89.6317 68.0337C88.4316 66.7033 86.9322 65.377 85.1471 64.1752C81.4595 60.9009 79.4117 63.4331 70.6246 55.4296C74.8042 51.2856 75.2934 53.7824 76.6165 53.2865C80.8227 53.7915 84.7984 53.7294 88.6678 52.9559C93.2072 52.0702 97.5109 50.1532 100.983 47.4802C101.527 47.0671 102.082 46.6105 102.596 46.1593C105.189 43.923 107.631 40.5256 109.029 36.6641C110.895 31.735 110.969 26.2931 110.345 22.5683C110.226 21.8012 110.088 21.1046 109.946 20.4802C108.445 14.9357 107.449 13.207 103.889 9.68846C103.609 9.43753 103.309 9.18194 102.984 8.92242C100.346 6.71897 96.2423 4.39368 92.2967 3.1168C90.2816 2.49137 90.7807 2.08627 92.9598 2.26846C96.1496 2.60315 98.4742 3.90925 100.177 4.23637C102.849 4.79353 104.415 5.42078 106.205 7.32516C106.705 7.87396 107.217 8.5421 107.731 9.37088C109.925 13.0859 111.986 14.2668 112.883 16.7296C113.336 18.1968 113.289 18.8637 113.878 21.7623C114.199 23.7213 114.906 26.7224 114.745 31.8965C114.65 34.1537 114.318 36.2335 113.839 38.1187C111.863 45.6344 108.014 49.8562 105.115 52.4582C104.561 52.9465 104.018 53.388 103.487 53.7928C100.824 55.9238 95.4237 58.2735 89.7551 59.0605C86.865 59.5098 84.0576 59.6532 81.5696 59.7242C80.2975 58.9358 74.8626 62.0168 77.3861 56.6824C78.0977 50.858 85.3994 57.2108 88.881 58.8807C91.328 60.5469 93.2563 62.3569 94.5725 63.6944C97.8654 67.1912 98.1048 68.8385 98.731 71.0307C98.9709 71.9921 99.2316 73.092 99.5784 74.6356ZM65.34 51.5427C63.9638 53.3373 65.4204 55.8681 64.0534 58.1841C63.0881 59.8237 62.1574 60.2464 61.3594 61.3759C61.0236 61.853 60.7113 62.4547 60.4324 63.3202C59.4858 66.2548 57.5107 68.7509 57.4522 70.2151C57.4019 71.6606 55.9089 71.2134 55.479 73.1362C55.1768 74.5069 54.743 75.4539 54.1162 76.3633C53.8748 76.7151 53.6055 77.0603 53.2962 77.4421C52.1678 78.8451 49.7941 83.4628 49.6275 85.4858C49.4655 87.4973 47.6602 89.0508 46.9129 90.1846C46.6847 90.5271 46.4642 90.7745 46.2681 90.9517C46.185 91.0266 46.0746 91.0311 45.9834 90.993C45.9833 90.993 45.9833 90.9929 45.9832 90.9929C45.8695 90.9457 45.7855 90.8325 45.8212 90.7064C45.9932 90.0968 46.1807 89.1268 46.2134 87.8819C46.2456 85.6291 47.2029 85.7211 47.8995 82.9159C48.601 80.0993 48.4722 78.17 50.2845 75.2456C50.3651 75.116 50.4386 74.9888 50.5056 74.8636C51.9489 72.1632 50.3927 70.5454 53.3219 66.8073C55.9222 63.5005 54.8603 61.9885 55.4454 58.8408C55.55 58.2778 55.7076 57.6632 55.9508 56.9748C57.5446 52.4483 61.2148 47.4583 62.3052 44.7898C62.437 44.4655 62.5727 44.1272 62.713 43.777C63.7295 41.2376 65.0042 38.031 66.8079 34.9033C67.8798 33.0427 68.805 30.8193 69.8138 28.5992C70.7527 26.5341 71.7718 24.456 73.0261 22.6755C74.7927 20.1535 77.1019 16.9325 79.0795 14.4623C80.0385 13.2593 80.927 12.2098 81.5933 11.4859C83.6605 9.27373 84.1386 8.76382 85.707 6.32442C86.6006 4.95996 88.3593 3.25474 90.3129 2.60694C91.2696 2.32583 91.3028 2.81528 90.711 3.50639C89.855 4.54402 88.9039 5.24849 88.8549 6.09339C88.6895 7.88893 88.7246 8.49376 87.1398 9.49778C85.5435 10.5561 86.2918 12.0284 85.5603 12.8033C84.9361 13.4871 84.2666 13.1372 82.5404 16.5652C82.3408 16.9667 82.1244 17.4274 81.9122 17.9192C79.8038 22.8081 78.6143 25.518 77.8234 27.3511C77.3853 28.3754 76.4597 29.7918 75.4841 31.4349C74.6697 32.7985 73.8149 34.3356 73.2721 35.7421C72.2013 38.4801 69.6769 43.5002 68.6304 46.4631C68.4963 46.8398 68.3855 47.1831 68.3039 47.4834C67.5879 50.1344 66.7187 49.75 65.34 51.5427Z" fill="black"/>
</svg>
