<svg width="81" height="126" viewBox="0 0 81 126" fill="none" xmlns="http://www.w3.org/2000/svg">
<path d="M22.1374 46.3456C19.4269 50.8235 18.4517 55.3034 16.9041 60.3524C16.231 62.5665 15.4349 64.9393 14.3785 67.4747C11.6107 74.3005 10.1079 76.2205 8.3529 82.1818C7.96968 83.5436 7.58625 85.1524 7.25851 87.0065C6.08139 93.5012 5.23377 100.087 5.65741 104.947C5.87432 107.744 6.4679 109.922 7.1481 111.234C9.2591 114.549 7.95538 116.382 12.9475 119.222C14.4255 119.864 15.7245 120.195 17.23 120.453C20.9611 121.049 23.9014 121.547 27.6088 121.95C27.931 121.983 28.2564 122.014 28.585 122.043C30.5778 122.225 34.165 122.285 38.071 121.606C41.3907 121.048 44.9642 119.903 47.9754 118.288C51.4395 116.472 54.1064 114.077 55.4808 112.386C55.6584 112.17 55.8353 111.955 56.0112 111.74C58.1962 109.087 60.3853 106.205 62.0506 103.335C63.3429 101.129 64.319 98.9613 64.8344 97.2037C65.2201 95.8979 65.4722 94.8126 65.6253 93.999C65.6899 93.6434 65.7853 93.5026 65.8852 93.5001C65.8853 93.5001 65.8854 93.5001 65.8854 93.5001C66.007 93.5017 66.1358 93.7296 66.1195 94.231C66.0396 96.4965 65.4631 99.8594 64.1731 103.738C64.1109 103.923 64.0509 104.097 63.991 104.265C62.1998 108.908 60.6887 110.458 57.8537 113.493C56.5837 114.775 55.0007 116.306 52.5822 118.145C51.4276 119.018 50.2633 119.795 49.1326 120.475C45.7075 122.517 42.3932 123.875 38.713 124.774C35.4418 125.556 31.848 125.961 27.5391 125.741C26.836 125.705 26.1652 125.653 25.4312 125.582C21.7729 125.212 19.0702 124.909 16.4881 124.639C11.086 124.447 1.73271 120.203 0.934881 107.378C0.883627 106.713 0.848098 106.062 0.824175 105.424C1.03121 93.3318 1.20538 89.4769 2.38533 80.6707C2.80081 78.1807 3.4525 75.2161 4.50951 71.7253C5.9217 67.0602 7.80254 62.1684 9.93233 57.4087C13.4943 49.4188 17.7763 41.8243 21.3888 35.9152C23.0446 33.1979 24.6095 30.737 25.7878 28.8406C28.2847 24.8334 31.2463 20.3302 35.0081 15.6597C39.6488 10.3875 44.0729 4.26702 53.4576 1.23917C54.4677 1.00786 55.4495 0.909956 56.3672 0.923228C58.6816 0.952296 61.3763 1.15416 64.0138 1.75933C66.5113 2.32781 69.1159 3.29141 71.4687 4.85804C73.7796 6.37997 75.7874 8.50323 77.1999 10.9242C78.6088 13.3145 79.4654 15.9305 79.9384 18.5132C80.4122 21.1088 80.5181 23.6802 80.4028 26.1868C80.2854 28.7189 79.9258 31.2251 79.4339 33.559C79.2211 34.583 78.8406 35.5653 78.466 36.4455C76.5838 40.6606 74.0183 44.5863 70.6028 48.2605C66.8023 52.3321 61.4912 55.9581 55.6347 56.3241C48.6683 56.7995 43.318 52.9035 40.2211 50.0903C39.4529 49.3911 38.6481 48.5873 38.0952 47.9865C34.0455 43.4969 32.3596 40.6394 30.2645 37.5433C28.8515 35.3719 27.3107 32.9875 25.2227 29.4132C24.2546 27.748 23.3179 25.9855 22.3039 23.8671C20.4294 19.9558 18.5928 15.2764 17.3591 11.162C16.3761 7.89494 17.0743 8.48314 18.5414 11.5147C20.5958 15.6982 22.1729 19.619 23.665 21.4616C23.9906 21.8615 24.3362 22.3164 24.6489 22.718C27.1564 25.8774 28.379 27.7446 30.6531 32.6733C31.3046 34.0365 31.9531 35.1135 32.5834 36.0069C34.7697 39.0856 36.7798 40.3438 38.4133 42.444C39.6734 43.9747 39.9172 44.8479 42.5432 47.3178C44.4932 48.8526 48.0983 52.4648 54.9565 51.9591C55.0336 51.9494 55.1102 51.939 55.1864 51.9279C60.2709 51.1369 63.9021 47.7048 66.4969 44.6327C70.2583 40.0334 72.5284 35.0843 73.1244 32.4088C73.3519 30.9839 73.4971 29.7603 73.5943 28.5749C73.6584 27.7844 73.7255 26.8935 73.7681 25.9225C73.8484 24.0549 73.8438 21.8989 73.5027 19.6636C73.212 17.7596 72.6629 15.8115 71.7218 14.0828C70.8353 12.4421 69.5939 11.0165 68.0297 9.93276C66.4651 8.83773 64.5749 8.09315 62.6445 7.67767C61.9327 7.52364 61.3006 7.42506 60.6203 7.34729C59.4352 7.21415 58.023 7.12743 56.3674 7.14659C51.6642 7.26624 44.797 13.8373 40.0256 19.7817C36.1843 24.5181 33.1534 29.208 31.3629 32.3278C29.428 35.7283 28.225 37.6841 27.137 39.2094C25.6687 41.3077 24.3981 42.6473 22.1374 46.3456Z" fill="black"/>
</svg>
