<svg width="131" height="124" viewBox="0 0 131 124" fill="none" xmlns="http://www.w3.org/2000/svg">
<path d="M62.5407 80.932C60.688 83.7751 61.6735 87.2148 59.3439 90.7724C57.6859 93.2499 56.4657 93.8972 55.0789 95.5167C54.492 96.1922 53.8698 97.0326 53.111 98.2315C50.5422 102.341 46.5876 105.269 45.3886 107.097C44.1667 108.944 42.9874 107.963 40.876 110.137C39.348 111.672 37.9881 112.586 36.4727 113.311C35.8875 113.591 35.2642 113.849 34.569 114.11C32.1152 115.194 24.7939 118.16 22.2056 119.573C19.6418 121.143 16.1597 120.983 14.1875 121.182C13.5648 121.249 13.059 121.251 12.6643 121.223C12.4971 121.211 12.4028 121.129 12.3821 121.032C12.3821 121.032 12.3821 121.032 12.382 121.032C12.3556 120.911 12.4425 120.769 12.6393 120.709C13.5947 120.421 14.9862 119.89 16.4754 119.018C19.2381 117.35 19.9094 118.153 23.7088 116.262C27.4638 114.266 29.3353 112.451 33.7634 110.34C33.9605 110.243 34.1473 110.145 34.3247 110.044C38.1349 107.743 37.9288 105.51 43.4006 101.833C48.1961 98.273 47.806 96.0081 49.693 91.9962C50.0233 91.2609 50.4197 90.4529 50.9133 89.5395C54.1873 83.6319 58.8311 76.0368 60.2582 72.0001C60.4328 71.5161 60.6114 71.0095 60.7945 70.4827C62.123 66.6744 63.6405 61.8192 65.6702 56.8365C66.8755 53.8864 67.9226 50.4554 69.1017 46.9693C70.1858 43.7625 71.3881 40.5072 72.9032 37.5733C75.01 33.4548 77.9187 28.2799 80.5981 24.3551C81.8946 22.4344 83.1117 20.8035 84.038 19.654C86.9001 16.188 87.6042 15.4031 90.0752 11.8657C91.5 9.86026 93.9528 7.42581 96.4623 5.92589C97.7352 5.16677 97.7768 5.7162 96.8815 6.85081C95.5821 8.51635 94.2934 9.59754 93.9648 10.7687C93.3496 13.0901 93.13 13.9756 90.982 15.68C88.8547 17.4069 89.316 19.299 88.3254 20.466C87.4696 21.5446 86.6955 21.2096 84.1328 26.3313C83.844 26.9258 83.5366 27.5949 83.2122 28.3503C80.1355 35.6687 78.7724 39.8108 77.7688 42.6586C77.246 44.1983 76.1534 46.5445 75.0552 49.1487C74.1145 51.3736 73.1652 53.7846 72.522 55.9927C71.287 60.2356 68.3526 68.239 66.865 72.802C66.6779 73.386 66.5173 73.9133 66.392 74.3699C65.266 78.3938 64.3595 78.0746 62.5407 80.932ZM111.768 19.7521C111.425 19.2839 111.063 18.8461 110.685 18.4353C106.539 14.0905 101.682 12.9856 95.8244 10.5819C94.251 9.96459 92.8939 9.48973 91.6648 9.08497C86.842 7.74129 84.3349 6.44778 75.7016 6.68934C74.0523 6.77069 72.2457 6.9006 70.5754 7.07549C61.3685 7.9067 52.728 10.9324 48.9672 13.4946C48.754 13.6329 48.5545 13.7688 48.3688 13.9017C44.4069 16.9758 42.8444 15.9403 38.1112 20.9067C36.0993 23.1988 34.7011 25.118 33.4534 26.9334C31.9789 29.1106 30.7113 31.148 29.4728 33.6807C28.5248 35.5991 27.2476 39.2983 26.9737 43.4267C26.4223 49.3228 28.3406 55.8176 30.043 58.6778C30.3015 59.138 30.5594 59.6088 30.8189 60.0882C33.2372 64.669 36.1104 69.9248 38.6391 72.9758C39.478 74.0089 40.1582 74.8525 40.6739 75.5213C41.1691 76.1569 40.7912 76.3094 40.1809 75.7463C38.5568 74.238 36.1845 72.0159 33.6058 69.2811C30.5363 65.9434 29.7821 64.1349 28.4443 61.2073C27.757 59.611 26.8958 57.6125 25.9034 54.6304C24.5758 50.5172 23.9387 47.0237 23.8867 43.2879C23.8895 39.318 24.4891 35.0119 27.2118 29.6803C28.1881 27.8098 29.1381 26.1693 30.0321 24.7017C33.7384 19.1794 35.8603 14.5406 46.3672 8.80443C47.8928 8.03352 49.6065 7.28353 51.5349 6.59856C60.0059 3.71177 65.2961 2.86241 70.037 1.90164C75.8004 0.901913 81.6633 -0.14445 91.334 1.32521C91.9443 1.42406 92.5601 1.53301 93.1803 1.65196C100.649 2.84197 109.649 7.97143 114.988 14.3857C120.071 20.1456 123.004 26.5742 124.784 30.8266C125.703 33.012 126.589 35.4669 127.349 38.0954C129.603 45.8104 130.782 55.355 129.83 65.2614C129.721 66.4114 129.585 67.5644 129.42 68.7208C128.381 76.0156 126.532 84.1449 123.014 92.0239C119.582 99.7556 114.409 107.264 107.509 112.668C106.753 113.263 105.96 113.852 105.121 114.436C97.6361 119.937 85.8518 123.611 75.3859 123.051C71.6329 122.915 68.0678 122.782 64.8858 122.657C61.7649 122.535 59.0129 122.419 56.8149 122.315C55.9529 122.274 55.1462 122.236 54.3858 122.2C49.9085 121.991 47.0316 121.876 43.8858 121.858C41.2705 121.843 38.4694 121.896 34.4084 122.018C34.0748 122.028 33.7337 122.037 33.3858 122.045C30.2644 122.114 26.5968 122.088 22.8858 121.945C20.0443 121.836 17.1773 121.659 14.5104 121.405C11.2198 121.092 11.9655 120.655 15.2775 120.446C18.1653 120.264 20.7447 120.263 22.8858 120.176C24.3356 120.118 25.5845 120.019 26.5921 119.799C29.333 119.2 31.2077 118.804 33.3858 118.674C35.1702 118.567 37.1583 118.639 39.9932 118.925C41.453 119.072 42.7337 119.108 43.8858 119.077C47.7016 118.977 50.1052 118.156 52.9238 118.284C53.4689 118.308 53.9317 118.348 54.3858 118.396C56.2737 118.594 58.0108 118.929 64.8858 118.886C67.4888 118.869 70.8285 118.798 75.1918 118.645C75.2566 118.643 75.321 118.64 75.3859 118.638C88.961 118.077 96.4124 113.299 101.466 109.518C104.351 107.26 106.407 105.124 108.043 103.224C110.571 100.33 114.412 95.3885 117.276 89.3888C119.555 84.719 121.282 79.4718 122.165 74.6776C122.675 71.9589 123.198 68.5352 123.472 64.7608C124.164 56.5231 123.211 46.6796 121.104 39.8174C120.338 37.1936 119.468 34.9684 118.712 33.3519C114.782 25.7769 115.484 25.4098 111.768 19.7521ZM1.53811 114.824C2.03538 114.227 -0.314221 113.617 0.149746 112.684C0.484163 112.083 1.21832 112.007 1.60159 111.698C1.76524 111.566 1.86905 111.398 1.88146 111.12C1.93961 110.127 3.13652 109.778 2.91118 109.195C2.71065 108.575 3.99667 109.431 4.02992 108.833C4.06703 108.391 4.29684 108.195 4.65368 108.159C4.7923 108.144 4.95297 108.148 5.13507 108.168C5.79859 108.203 6.96289 107.859 7.03131 107.118C7.11569 106.34 8.09486 107.046 8.44482 107.167C8.56005 107.201 8.6691 107.271 8.76362 107.353C8.80372 107.388 8.85339 107.475 8.89297 107.566C8.89299 107.566 8.89302 107.566 8.89305 107.566C8.94236 107.679 8.97652 107.796 8.95746 107.822C8.86533 107.945 8.76287 108.211 8.77469 108.707C8.82157 109.623 8.33142 108.837 8.11213 109.485C7.91035 110.142 8.2781 110.938 7.53436 110.889C7.50036 110.888 7.47094 110.89 7.44573 110.896C6.86785 111.09 8.43202 112.395 7.09533 112.175C5.83482 112.149 7.18508 113.04 7.78689 113.471C7.89351 113.555 7.97476 113.631 8.00972 113.699C8.23751 114.04 6.93026 114.62 7.13268 114.999C7.15431 115.033 7.17924 115.067 7.20621 115.102C7.40733 115.368 7.68854 115.582 7.6595 116.052C7.64853 116.342 7.93719 116.481 8.19084 116.6C8.4299 116.716 8.63559 116.826 8.70336 117.196C8.79373 117.717 9.10793 118.374 9.4821 118.908C9.66551 119.171 9.8408 119.404 9.97872 119.596C10.4017 120.175 10.5694 120.307 11.1233 120.061C11.4501 119.917 11.834 120.089 12.2437 120.699C12.4512 121.005 12.4336 121.443 12.2232 121.659C11.9131 121.972 11.6638 121.763 11.484 122.303C11.1035 123.38 10.871 123.786 10.4834 123.108C10.1096 122.427 9.68547 123.814 9.41867 123.596C9.18298 123.388 9.325 122.741 8.25997 122.769C8.13474 122.769 7.99253 122.776 7.82954 122.79C6.21207 122.896 5.30959 122.475 4.72163 122.248C4.39288 122.113 4.07036 121.634 3.75313 121.128C3.47627 120.692 3.21006 120.247 2.82858 119.941C2.05219 119.365 1.39649 117.688 0.928666 116.782C0.862965 116.667 0.796051 116.564 0.725487 116.478C0.115608 115.687 1.06393 115.494 1.53811 114.824Z" fill="black"/>
</svg>
