<svg width="85" height="120" viewBox="0 0 85 120" fill="none" xmlns="http://www.w3.org/2000/svg">
<path d="M32.0653 68.476C31.3544 68.8846 30.6828 69.3176 30.0445 69.7704C25.7625 72.8357 22.8321 76.7277 19.4233 81.1291C18.1436 82.7947 16.7907 84.56 15.303 86.4627C13.0361 89.3825 11.5524 91.4504 10.2726 93.3436C8.31548 96.5127 6.07923 99.4975 5.67807 106.118C5.67613 106.453 5.68326 106.83 5.70282 107.176C5.93216 112.244 8.6724 114.534 13.3626 114.617C13.3626 114.617 13.3626 114.617 13.3626 114.617C18.1047 114.691 21.8266 113.613 24.1516 112.586C24.155 112.585 24.1584 112.583 24.1618 112.581C28.3663 110.523 29.6462 111.399 34.8417 108.487C35.2636 108.24 35.7098 107.962 36.1823 107.649C39.4415 105.478 41.9528 103.662 44.4112 101.911C46.5986 100.341 48.7433 98.8061 51.1973 96.9273C51.8877 96.3979 52.7566 95.6923 53.7338 94.8438C56.105 92.784 59.1502 89.8546 61.912 86.4673C64.2496 83.585 67.2428 79.2813 66.594 77.2378C65.6021 76.0204 63.7952 75.6014 62.4191 75.477C61.7788 75.4217 61.185 75.4292 60.6723 75.4693C59.5985 75.5524 58.5005 75.708 57.4182 75.9338C55.7763 76.2762 54.1465 76.7851 52.6393 77.4762C51.0594 78.1982 49.6165 79.129 48.4354 80.2208C47.0603 81.4815 46.0586 82.9549 45.447 84.3597C45.3041 84.6853 45.1832 84.9987 45.0774 85.3143C44.5953 86.7598 44.385 87.9847 44.2387 88.9075C44.1783 89.3067 44.0816 89.5002 43.982 89.5C43.9819 89.5 43.9818 89.5 43.9818 89.5C43.8598 89.5013 43.7333 89.1971 43.7408 88.6692C43.7638 87.3929 43.8945 85.7928 44.4225 83.9891C44.8988 82.3598 45.7217 80.5878 47.0156 78.9102C47.1603 78.7216 47.3142 78.5306 47.4714 78.3437C48.7979 76.7805 50.1616 75.8088 51.4153 75.1055C53.2765 74.0905 54.9418 73.6044 56.922 73.2739C58.516 73.0366 60.3294 72.8619 62.7485 73.1602C64.2171 73.4157 65.9603 73.6193 67.9057 75.2556C68.1151 75.4488 68.2984 75.6495 68.4553 75.8453C69.7298 82.6876 66.0369 84.8084 64.2462 88.3009C62.0116 91.4248 59.5108 94.3412 56.2238 97.447C54.6705 98.908 52.9513 100.391 50.9748 101.92C49.4534 103.096 48.0915 104.149 46.85 105.118C43.256 107.899 40.6109 110.122 37.1002 112.446C34.3108 114.248 30.9602 116.184 25.9028 117.748C24.0684 118.299 22.0358 118.78 19.6406 119.074C17.2803 119.361 15.1892 119.428 13.3626 119.367C13.3626 119.367 13.3626 119.367 13.3626 119.367C5.03256 119.678 0.352907 112.704 0.146856 107.371C-0.375812 102.465 0.410007 97.0495 3.82245 89.9955C3.96053 89.7162 4.09574 89.4487 4.24063 89.1694C6.64886 84.5266 9.9123 80.0234 13.6761 75.9669C17.608 71.7207 22.0955 67.976 26.6102 64.9536C31.8506 61.4273 37.1616 58.8676 41.6106 57.126C43.5817 56.3497 45.4119 55.7145 46.9697 55.1991C51.2581 54.985 50.9094 50.8036 61.7724 54.9767C53.0546 63.1835 51.6032 59.2859 46.1531 60.2863C41.8156 60.0698 37.125 58.9164 33.0725 56.129C30.822 54.5899 28.8468 52.5783 27.3339 50.2693C26.2737 48.6583 25.3985 46.8901 24.7325 45.0365C23.2268 40.857 22.7715 36.2367 23.2233 31.6873C23.6551 27.3281 24.903 23.0097 26.8647 18.9975C28.7414 15.1078 31.5654 11.2381 34.6039 8.34286C34.6039 8.34286 34.6039 8.34286 34.6039 8.34286C37.0938 5.90505 40.4642 3.60408 43.7919 2.27534C44.314 2.06188 44.8343 1.86841 45.3583 1.69184C48.196 0.731924 51.3573 0.180954 54.6276 0.234326C58.2227 0.288897 61.9185 1.07111 65.3118 2.66233C68.6495 4.22572 71.7104 6.5957 73.8131 9.68813C76.0529 12.8964 76.9736 16.9935 76.3675 20.5339C75.7539 24.5608 73.4824 27.9493 71.4526 30.173C70.5869 31.0056 69.0875 31.7795 67.7961 32.0667C67.1974 32.2144 66.5941 32.3043 66.009 32.3488C64.9668 32.4278 63.9634 32.3682 63.0484 32.2308C61.3072 31.9644 59.8847 31.445 58.7048 30.8499C57.2981 30.1317 56.2178 29.2917 55.3655 28.347C54.4369 27.3026 53.7623 26.1247 53.4739 24.6641C53.2081 23.3145 53.3213 21.57 54.2582 19.6352C58.8593 14.208 59.9746 16.0495 62.6275 15.2672C63.1487 15.2294 63.7392 15.21 64.2777 15.2078C65.6294 15.2025 67.011 15.3079 68.4127 15.4953C70.1627 15.7299 71.9365 16.0927 73.6834 16.5423C75.3429 16.9695 76.986 17.4785 78.522 18.0235C80.0542 18.5668 81.5068 19.1569 82.6553 19.6933C83.2941 19.9921 83.8293 20.271 84.1599 20.4838C84.7092 21.0389 84.8543 21.5589 83.4355 21.2332C83.0883 21.142 82.6622 21.0159 82.2253 20.8845C80.9048 20.484 79.402 20.0084 78.0292 19.6298C76.2085 19.125 74.5361 18.7595 73.1723 18.6821C73.0874 18.6772 73.0036 18.6734 72.921 18.6708C71.0096 18.6104 69.4568 18.6236 67.9773 18.618C66.3267 18.6231 64.7491 18.5658 62.7916 18.6101C61.3799 18.7485 59.8844 18.5043 57.7227 19.8639C57.5301 20.0828 57.5477 19.8196 56.8769 20.9214C56.0025 22.5307 56.0549 23.3058 56.2028 24.1273C56.4348 25.0739 57.0088 25.7016 57.6538 26.1885C58.437 26.7663 59.3314 27.1285 60.2756 27.4704C60.7885 27.6542 61.321 27.831 61.8964 28.0191C62.4724 28.2058 62.9684 28.3464 63.4799 28.4654C64.3686 28.6612 65.4345 28.8506 66.807 28.5843C67.6553 28.373 68.091 28.2337 68.7658 27.6823C70.2189 25.884 71.8337 23.759 72.3125 20.0229C72.4403 18.7293 72.3355 17.2932 71.8461 15.8288C71.4271 14.5706 70.7816 13.4319 70.0056 12.4333C68.1503 10.0577 65.6365 8.48227 63.2031 7.50781C60.2066 6.31718 57.2771 5.97517 54.7012 6.07069C51.3639 6.20435 48.5932 7.05415 46.3419 8.09512C44.5696 8.92084 43.1602 9.84129 41.9549 10.7683C41.1624 11.3807 40.2605 12.1185 39.2367 13.1008C39.2367 13.1008 39.2367 13.1008 39.2367 13.1008C36.8543 15.4088 34.5702 18.1372 32.5987 21.8574C30.9305 25.0155 29.7118 28.6656 29.2973 32.3368C28.9651 35.1999 29.1315 38.0654 29.7807 40.5657C29.9749 41.3197 30.2174 42.1053 30.528 42.913C31.5945 45.7387 33.5869 48.7657 36.6667 50.7952C39.384 52.6297 42.8728 53.6223 46.5071 53.7944C49.4782 55.2766 56.4336 49.7993 54.8031 56.3785C58.0455 62.0236 50.3453 59.6525 49.0489 61.4379C47.0421 62.1774 45.4648 62.8181 44.169 63.334C39.38 65.3744 37.8186 65.3238 32.0653 68.476Z" fill="black"/>
</svg>
