<svg width="136" height="122" viewBox="0 0 136 122" fill="none" xmlns="http://www.w3.org/2000/svg">
<path d="M48.3123 98.7169C45.9911 101.795 46.1007 105.541 43.3233 109.336C43.1146 109.617 42.8915 109.895 42.6522 110.168C38.9889 114.069 37.7309 113.94 32.9765 117.91C29.6067 120.606 24.6283 121.683 21.6603 121.456C20.1759 121.419 19.0825 121.396 18.179 121.511C16.0767 121.77 15.4382 120.835 13.5575 120.308C13.0042 120.15 12.3428 120.011 11.5471 119.901C9.05269 119.535 7.19245 118.813 5.49957 117.61C4.60974 116.966 3.76762 116.174 3.02754 115.135C2.32242 114.164 1.1698 112.312 0.979206 109.983C0.675749 107.077 1.92187 104.046 3.29334 101.922C4.1312 100.594 4.99645 99.54 5.57667 98.7648C6.45509 97.5868 7.71876 96.6386 9.06171 95.9927C11.2093 94.9402 13.4927 94.7202 15.0152 94.6462C15.7961 94.6003 16.4133 94.6724 16.8751 94.7743C17.3158 94.8773 17.2145 95.2463 16.7857 95.2838C15.6284 95.3855 13.882 95.8494 12.2208 97.0286C11.48 97.5532 10.9249 97.9634 10.4215 98.3047C8.93214 99.4333 7.50113 99.6602 5.4576 102.823C5.38045 102.954 5.3074 103.085 5.2382 103.215C3.99958 105.577 3.82236 107.702 4.22852 109.519C4.55534 110.837 5.13178 112.063 6.62885 113.518C6.9163 113.792 7.2085 114.019 7.53145 114.226C9.81569 115.608 11.8247 115.435 14.3446 115.634C15.98 115.73 18.0055 115.966 21.1389 116.479C21.3139 116.506 21.4876 116.531 21.6603 116.554C29.2913 116.646 28.9836 113.457 34.1009 108.076C35.0554 106.93 35.9292 105.847 36.9226 104.568C41.3202 98.9222 45.8099 91.9964 47.6107 88.1157C47.947 87.3893 48.2969 86.6149 48.6605 85.797C50.6367 81.36 52.9101 75.7905 55.6158 70.0629C56.3634 68.4837 57.0944 66.7703 57.8121 65.0046C60.1697 59.2068 62.4664 52.6495 65.4175 46.9668C65.9162 46.0046 66.4412 44.9975 66.9842 43.9681C70.6297 36.9376 75.5223 28.6258 78.4501 24.7773C78.6191 24.5472 78.7818 24.3281 78.9387 24.1186C81.9027 20.2923 82.736 19.1338 85.8467 15.151C87.7201 12.8012 91.2457 9.91964 94.8173 9.14699C96.5891 8.80781 96.2938 9.34527 94.8315 10.1878C92.7269 11.4785 90.945 12.6561 90.36 13.8602C89.1472 16.3927 88.815 17.3296 86.2848 19.3927C83.7558 21.5757 84.1192 23.6963 82.9549 25.1738C82.6709 25.5407 82.4143 25.7921 82.119 26.0929C81.2392 27.0493 79.8886 28.2956 76.9376 35.1027C74.9423 39.8069 73.5218 43.4757 72.3834 46.3721C71.3387 49.047 70.5541 51.0704 69.9171 52.7508C68.7086 55.9213 65.5691 61.9324 63.4143 67.3388C63.1906 67.8988 62.9774 68.4517 62.778 68.9939C60.9672 73.9554 56.9055 83.1041 54.5221 88.5797C54.1294 89.4951 53.7916 90.3042 53.5304 90.9788C51.6355 95.7674 50.7855 95.3189 48.3123 98.7169ZM61.0869 8.7779C65.059 8.88633 67.8945 6.27523 72.7171 6.26836C76.095 6.27404 77.4705 6.88857 79.8994 7.04278C80.914 7.10894 82.1097 7.09708 83.7012 6.93718C89.1303 6.39552 94.613 7.03693 96.958 6.42163C99.347 5.80587 99.7195 7.34449 103.066 6.84219C105.536 6.47351 107.337 6.41142 109.198 6.52653C109.916 6.57004 110.731 6.6333 111.564 6.71415C114.466 7.07443 123.843 6.57238 126.802 5.06267C129.81 3.72399 133.431 3.47685 134.702 1.65849C135.073 1.14555 135.276 0.67553 135.421 0.261861C135.481 0.0878507 135.579 -0.000531738 135.678 0.000326035C135.678 0.000326496 135.678 0.000326956 135.678 0.000327416C135.8 -0.000842916 135.926 0.146538 135.917 0.406272C135.948 1.6604 135.107 3.48212 133.416 4.96358C130.123 7.56493 129.307 6.73995 124.325 8.20161C119.264 9.46614 116.269 10.5677 110.226 10.4365C109.944 10.43 109.681 10.4276 109.441 10.4287C104.127 10.4468 102.584 12.57 94.4824 11.6577C87.3031 10.8459 85.6175 12.4862 80.2461 13.4679C79.2783 13.646 78.1791 13.8054 76.9226 13.9304C68.6317 14.7036 58.1448 14.4401 53.2316 15.3796C52.6422 15.4848 52.0478 15.5965 51.4064 15.7216C46.7557 16.6377 41.1165 17.9679 35.358 19.7254C31.9173 20.785 28.3476 22.5477 25.299 24.8604C22.4992 26.9699 20.2183 29.56 18.6693 32.3455C16.275 36.2297 15.9499 42.5697 17.0787 47.7222C17.5716 50.2482 18.269 52.5078 18.7312 53.9969C20.4848 59.0704 20.8239 59.8366 23.6834 64.1293C25.358 66.5659 27.1741 69.5908 28.772 72.8624C29.5647 74.4832 28.9703 74.4162 27.7536 73.0893C25.9886 71.1552 25.0468 69.3793 23.9122 68.6444C21.732 67.2862 20.6158 66.3302 19.534 63.1738C18.5146 60.0634 16.6188 59.4612 15.865 57.4721C15.3076 55.6582 15.6935 55.7359 13.1749 48.7991C12.9182 48.0089 12.6586 47.186 12.3855 46.197C9.62874 36.0533 12.6366 29.6499 14.781 26.2297C15.9361 24.3274 18.5415 21.6973 21.588 19.7202C24.1823 17.9785 27.2319 16.4939 29.7233 15.2939C34.6438 12.7159 44.8396 10.3913 50.3292 9.31302C51.0419 9.15917 51.6552 9.02001 52.1948 8.88612C56.9763 7.73591 57.1512 8.69777 61.0869 8.7779ZM66.028 56.5191C67.2641 57.0511 68.2371 54.7 69.7436 55.0323C70.8053 55.2665 71.2309 55.955 71.9935 56.243C72.313 56.3637 72.6917 56.414 73.2012 56.3312C74.9265 56.0506 76.6527 56.9036 77.421 56.3912C78.1892 55.8787 78.2702 57.4283 79.3611 57.0841C80.15 56.8352 80.7141 56.8721 81.3268 57.1021C81.5614 57.1901 81.803 57.3065 82.0671 57.4459C83.0212 57.9496 85.9523 58.3796 87.0182 57.7608C88.084 57.1421 89.2996 58.2157 90.0307 58.4703C90.2584 58.5496 90.4376 58.6582 90.575 58.7711C90.6332 58.819 90.6602 58.9192 90.6601 59.018C90.6601 59.0181 90.6601 59.0182 90.6601 59.0182C90.6602 59.1413 90.6184 59.2624 90.5436 59.2779C90.1805 59.3534 89.6379 59.5527 88.9968 59.9991C87.8014 60.8316 87.6708 59.9117 86.0566 60.3395C84.4425 60.7672 83.4727 61.6225 81.5735 61.0694C81.4884 61.0447 81.4063 61.0257 81.3268 61.0118C79.6307 60.7164 79.118 62.7719 76.5571 61.5191C74.2844 60.4074 73.7356 61.9775 71.9935 62.6774C71.6806 62.8032 71.3292 62.9008 70.9224 62.9498C68.2508 63.2716 64.8785 61.9363 63.268 62.047C63.0732 62.0604 62.8703 62.0763 62.6602 62.0933C61.1325 62.2171 59.2184 62.401 57.2114 62.1202C56.0225 61.9539 54.6884 62.0928 53.3268 62.1837C52.0738 62.2674 50.7976 62.3103 49.5899 62.0372C47.8959 61.6542 45.7309 61.2034 43.9935 60.8025C43.1461 60.607 42.4005 60.4234 41.8609 60.2652C40.2149 59.7829 39.8137 59.6742 38.2294 59.9689C37.3187 60.1383 36.0642 59.9786 35.0045 59.3556C34.4712 59.042 34.592 58.6055 35.1288 58.3966C35.9138 58.0912 36.5581 58.2952 36.9626 57.7496C37.7708 56.6592 38.1143 56.241 39.1345 56.8756C40.1548 57.5102 40.6355 56.068 41.2302 56.234C41.7634 56.3829 41.8107 57.0819 43.9935 56.7529C44.2456 56.7149 44.5261 56.6632 44.8392 56.5953C47.8633 55.9399 49.5211 55.7727 50.6663 55.6153C51.2836 55.5305 52.2629 55.7059 53.3268 55.8439C54.2368 55.962 55.2088 56.0526 56.0692 55.9298C57.7247 55.6934 60.8969 55.8589 62.6602 55.5948C62.8848 55.5612 63.0866 55.5206 63.2594 55.4713C64.7889 55.0351 64.7921 55.9872 66.028 56.5191Z" fill="black"/>
</svg>
