<svg width="87" height="158" viewBox="0 0 87 158" fill="none" xmlns="http://www.w3.org/2000/svg">
<path d="M73.0606 71.2708C72.4877 72.7156 71.9987 74.1322 71.5691 75.5268C69.6716 81.6808 68.8334 87.6929 66.756 94.8018C66.2088 96.6651 65.6013 98.5337 64.8436 100.565C62.6098 106.533 60.9937 109.767 59.3071 113.326C57.6876 116.682 56.0944 120.325 53.3204 126.726C52.5871 128.394 51.8086 130.035 50.9799 131.647C47.6141 138.244 43.3356 144.244 38.8441 148.278C35.7718 151.093 32.7032 152.891 30.4894 154.037C25.78 156.306 23.466 155.761 19.1842 155.512C17.7108 155.371 15.9497 155.25 13.5387 154.896C13.1829 154.842 12.8337 154.781 12.4985 154.717C10.0732 154.249 7.84039 153.439 5.94382 152.238C3.79028 150.886 2.03155 148.945 1.07602 146.638C0.111932 144.347 -0.0424382 141.791 0.498045 139.333C0.661404 138.582 0.889139 137.833 1.17418 137.1C1.62059 135.946 2.317 134.506 3.35727 133.015C4.48188 131.388 6.10785 129.607 8.07185 128.126C8.07188 128.126 8.07178 128.126 8.07194 128.126C10.9883 126.223 15.0576 125.739 18.5045 126.708C22.011 127.611 25.0654 129.348 27.7517 131.022C31.2043 133.21 34.0304 135.361 36.0119 136.74C36.0231 136.748 36.0343 136.756 36.0454 136.763C38.7183 138.637 41.2827 140.855 43.6907 143.128C46.279 145.573 48.6291 148.026 50.7116 150.193C51.9489 151.481 53.0643 152.644 54.0584 153.634C55.3811 154.952 56.3787 156.012 57.1363 156.858C57.8596 157.664 57.4421 157.786 56.6039 157.058C54.9176 155.595 52.5385 153.586 49.6819 151.322C48.7747 150.604 47.796 149.84 46.7901 149.074C44.7412 147.513 43.2153 146.279 41.8966 145.156C39.4037 143.043 37.6866 141.31 34.4638 138.65C32.8583 137.341 30.9229 135.825 28.241 134.093C27.6588 133.72 27.0528 133.345 26.479 133.008C23.4733 131.247 20.6152 129.973 17.846 129.446C14.9559 128.883 12.2737 129.332 10.0225 130.855C10.0225 130.855 10.0225 130.855 10.0225 130.855C8.6359 132.042 7.50563 133.256 6.3772 134.957C5.43325 136.407 4.63904 138.087 4.26601 139.946C4.16286 140.463 4.09362 141.001 4.06945 141.543C4.01074 142.84 4.25429 144.009 4.69964 145.002C5.46691 146.706 6.77559 147.875 8.21334 148.685C9.82003 149.583 11.6073 150.07 13.489 150.36C15.2572 150.626 17.0657 150.725 19.3204 150.718C23.5804 150.587 27.9531 150.067 33.8631 146.004C34.4505 145.589 34.9983 145.166 35.5307 144.722C41.8775 139.117 44.2128 133.876 46.2955 129.226C48.3944 124.193 49.9581 119.172 52.8354 110.876C53.2551 109.658 53.7035 108.363 54.1753 107.006C55.7996 102.339 57.532 97.3358 59.2903 92.2955C61.4706 86.0441 63.7304 79.6387 65.9031 73.6364C68.3941 66.7419 70.8158 60.2667 72.7958 54.9883C72.7793 54.9482 72.6409 55.604 72.6995 55.8472C72.7315 56.199 72.8677 56.5721 73.0711 56.8623C73.2772 57.1598 73.5379 57.3817 73.8307 57.535C74.1277 57.6896 74.4702 57.7796 74.8471 57.7747C75.2264 57.7725 75.6367 57.6517 75.9487 57.4583C76.1993 57.3459 76.6375 56.8325 76.5894 56.8462C75.6894 58.1802 74.8904 59.4139 74.1898 60.5371C73.1092 62.2696 71.9881 64.1166 70.8265 66.0634C69.0662 69.0115 67.2259 72.1747 65.2584 75.5056C63.4621 78.542 61.5582 81.7264 59.4713 84.9632C57.4955 88.0173 55.3668 91.1249 52.8756 94.1656C50.6931 96.8111 48.2129 99.4548 45.1732 101.67C44.8761 101.886 44.5755 102.096 44.2712 102.3C41.1056 104.51 36.5372 106.28 32.2482 106.106C23.7077 106.653 8.99082 104.48 5.54673 91.8432C3.21428 83.5146 5.36124 75.4465 7.80026 68.7412C8.60631 66.6018 9.64565 64.177 10.7049 61.9764C14.7641 53.4804 20.4593 44.795 26.3613 37.2799C33.1714 28.5618 40.3612 21.3782 45.2646 17.1372C45.6311 16.8178 45.9877 16.5107 46.335 16.2151C56.0997 8.62673 58.5681 5.75333 70.7188 1.44731C70.8783 1.40959 71.0403 1.37341 71.202 1.3395C80.4712 -2.68024 88.1618 10.7468 86.5174 18.5694C86.3128 23.2377 85.9303 21.9886 85.4953 17.628C84.8158 11.3276 82.8307 6.48453 80.0153 5.08252C76.8007 3.55491 74.6464 4.16788 71.8349 4.66604C70.1074 5.04427 67.7991 5.69871 64.992 6.81815C57.533 10.0665 55.4422 13.93 51.7631 16.7253C50.6411 17.6243 49.8678 18.1696 48.8415 18.9551C46.4552 20.9938 42.1067 23.7893 31.7308 37.6066C31.1434 38.4128 30.574 39.2095 30.0222 39.9957C23.2214 49.7187 18.9429 57.8592 16.1497 64.4095C13.6531 70.3053 12.346 74.9732 11.7159 78.8545C11.2719 81.701 10.717 85.9512 11.8166 89.9687C13.2993 97.3698 22.6656 100.69 32.2311 100.023C33.0604 100.044 33.8079 99.9754 34.4789 99.8605C36.2825 99.5675 38.5238 98.6994 40.7096 97.1424C43.143 95.44 45.5693 92.9584 47.8646 90.1046C50.0162 87.4329 52.0594 84.4614 54.0149 81.4285C56.009 78.3319 57.9133 75.169 59.7006 72.1625C61.7347 68.7355 63.6239 65.5039 65.2892 62.6828C66.5511 60.5417 67.6831 58.6331 68.6137 57.0516C69.5018 55.5416 70.29 54.2672 71.0084 53.158C71.1471 52.8759 71.9194 52.0181 72.4978 51.7179C73.1772 51.3029 74.0077 51.0732 74.7826 51.0703C75.589 51.0632 76.3325 51.2669 76.9709 51.605C77.6322 51.9562 78.1969 52.4601 78.6198 53.0822C79.059 53.7227 79.3256 54.4982 79.3874 55.2349C79.484 55.8789 79.2554 56.9843 79.1211 57.2448C77.0883 62.6654 75.868 64.2248 73.0606 71.2708Z" fill="black"/>
</svg>
