<svg width="137" height="141" viewBox="0 0 137 141" fill="none" xmlns="http://www.w3.org/2000/svg">
<path d="M58.0512 76.94C58.3334 76.9498 58.6199 76.9586 58.9108 76.9665C61.5523 77.0401 64.1857 77.0314 66.666 76.9687C69.2644 76.904 71.8229 76.7816 74.4244 76.6329C76.9917 76.4855 79.5153 76.3123 82.1762 76.1437C84.7023 75.983 87.1991 75.8265 89.9569 75.7004C94.472 75.468 98.8397 74.8698 103.601 73.5432C103.767 73.4964 103.93 73.4493 104.091 73.4018C109.882 71.652 113.588 69.4964 116.741 67.2622C120.355 64.5807 123.363 61.7229 126.353 56.6481C127.894 53.9516 129.395 50.5657 130.351 46.1888C130.587 45.0992 130.781 43.991 130.927 42.9007C131.579 38.0286 131.354 33.0325 129.875 28.8648C128.205 24.1728 125.122 21.3569 121.076 21.3507C115.607 22.0124 111.118 28.5108 109.024 31.5424C108.083 33.0029 107.221 34.3269 106.47 35.4389C103.418 40.145 101.083 41.9617 96.557 52.0407C96.0417 53.2203 95.5669 54.3312 95.1002 55.437C91.6568 63.679 89.2667 69.9062 86.6538 77.0462C85.9042 79.1153 85.1372 81.2954 84.3643 83.6031C83.2186 87.0359 81.5258 92.6728 80.1346 99.3361C78.6844 106.359 77.4939 114.639 78.0925 122.316C78.2198 131.541 84.0885 138.632 89.1513 137.734C89.3919 137.738 89.6387 137.735 89.8914 137.727C89.8914 137.727 89.8914 137.727 89.8914 137.727C92.0468 137.375 93.9527 136.323 95.8313 134.824C97.6542 133.353 99.2893 131.541 100.748 129.644C102.262 127.668 103.594 125.588 104.772 123.508C106.048 121.25 107.138 118.993 108.036 116.85C109.04 114.451 109.804 112.192 110.327 110.187C110.361 110.057 110.394 109.928 110.427 109.801C111.079 107.224 111.418 105.135 111.559 103.52C111.62 102.774 111.697 102.458 111.798 102.451C111.798 102.451 111.798 102.451 111.798 102.451C111.918 102.44 112.074 102.965 112.054 103.923C112.014 105.669 111.783 107.711 111.344 110.005C110.915 112.249 110.29 114.731 109.447 117.37C108.868 119.182 108.186 121.07 107.381 123.006C107.164 123.528 106.944 124.032 106.725 124.515C105.477 127.251 104.216 129.394 102.918 131.23C101.301 133.492 99.6485 135.316 97.5473 136.969C95.6924 138.374 93.3356 139.874 90.0198 140.227C90.0198 140.227 90.0198 140.227 90.0198 140.227C86.7396 140.483 80.9731 138.51 78.4739 133.148C76.6152 129.558 75.9608 125.902 75.5598 122.527C74.736 114.149 75.4781 106.75 76.8496 98.7078C78.0329 92.1101 79.8287 84.9598 82.7138 76.5823C82.7986 76.3369 82.8829 76.0935 82.9667 75.852C86.2309 66.5428 88.504 60.1897 91.0618 53.6417C93.5714 47.4356 96.2144 40.9803 101.754 32.3911C104.347 28.5691 107.451 24.0658 112.606 19.9751C115.087 18.0628 118.175 16.4556 121.076 16.5703C128.807 16.6818 132.889 22.9461 134.436 27.1848C136.591 33.1049 136.783 38.3049 136.37 43.6755C135.896 48.6209 134.727 53.8222 131.824 59.6536C129.655 63.9244 126.473 68.5875 121.372 72.8942C121.028 73.1829 120.683 73.4629 120.324 73.7451C116.337 76.8911 111.558 79.4006 106.497 80.9835C101.226 82.6709 95.2516 83.3946 89.9569 83.3179C87.2867 83.2918 84.7742 83.2617 82.1762 83.2287C79.5489 83.1955 77.0036 83.1593 74.4244 83.1213C71.7886 83.0827 69.2069 83.0423 66.666 83.0012C64.0792 82.959 61.4286 82.9161 58.9108 82.8739C56.2385 82.83 53.7172 82.7868 51.1541 82.7459C47.3874 81.6123 48.9229 85.6726 40.1462 79.3548C39.3521 85.1281 28.1138 82.3198 24.8796 85.3874C23.1414 86.1379 21.3834 87.0893 19.7302 88.2395C13.6978 92.3194 8.95839 99.5912 7.66262 108.315C6.50635 115.77 7.70344 125.143 12.9487 130.43C15.9684 133.392 19.9694 133.365 24.1445 130.596C26.4649 129.085 28.6723 126.931 30.8115 124.3C35.7772 118.15 39.8571 110.146 43.3113 101.957C46.6425 94.0128 49.44 85.7827 52.0965 76.9785C54.0088 70.6361 55.6792 65.3211 57.7315 59.1674C59.1407 54.9534 60.9075 49.8969 62.4325 45.8367C62.9219 44.5258 63.4801 43.0411 64.0054 41.6724C66.0606 36.3289 68.4079 30.4712 71.1003 24.4903C73.6967 18.8004 76.3385 13.2955 79.9688 7.80194C80.0949 2.39476 97.1609 -4.45054 95.8368 7.23351C96.0635 13.9934 98.3396 21.5909 89.8631 26.0097C87.2379 25.9535 84.6656 25.9063 82.2102 25.8568C79.4268 25.8012 76.8316 25.7475 74.4636 25.696C73.155 25.6676 71.9158 25.6398 70.7526 25.6128C69.3376 25.5799 67.9956 25.5487 66.7169 25.5193C63.8539 25.4535 61.308 25.3964 58.9702 25.3482C56.1485 25.29 53.6301 25.2447 51.2235 25.2125C48.5909 25.1773 46.0923 25.1577 43.4768 25.1541C40.3076 25.1685 37.1625 25.8541 33.8325 27.868C31.8829 29.062 29.9536 30.7181 28.1747 32.9201C27.6492 33.5708 27.144 34.2557 26.6526 34.9872C24.8768 37.6286 23.3632 40.792 22.3088 44.2565C21.3374 47.4542 20.742 50.9082 20.7423 54.3942C20.7521 57.816 21.3331 61.3344 22.9991 64.2164C24.0081 65.9662 25.4732 67.4166 27.2439 68.2612C33.5304 69.6112 32.1993 70.8573 25.3972 68.3688C23.9261 67.494 22.7489 66.2525 21.8791 64.9253C19.6348 61.4181 19.1344 57.5946 18.9845 54.4311C18.8664 51.2517 19.1841 48.532 19.427 46.3388C19.5373 45.3551 19.6856 44.4091 19.8555 43.5245C20.6723 39.432 21.8926 36.2472 23.883 33.0862C25.6591 30.3725 28.0517 27.5258 32.2209 25.169C33.2831 24.5838 34.4593 24.0518 35.7661 23.6206C38.6008 22.6808 41.2638 22.392 43.4768 22.3834C46.401 22.3666 48.9226 22.2456 51.2235 22.1018C54.0237 21.9268 56.4968 21.7179 58.9702 21.6216C60.2323 21.5725 61.4945 21.5526 62.8003 21.5815C64.2861 21.6144 65.4727 21.6742 66.7169 21.7438C68.6847 21.8539 70.7964 21.9886 74.4636 22.0805C76.4909 22.1313 78.9936 22.169 82.2102 22.1823C84.4198 22.1904 86.9834 22.1919 90.0803 22.1677C90.8059 22.586 93.06 14.2992 91.5453 8.2191C91.5373 8.18206 91.5292 8.14523 91.521 8.1086C89.9397 0.7543 87.602 6.13713 84.1841 10.5424C80.6911 16.2554 78.4376 21.5466 76.2536 26.7103C73.6002 33.1219 71.4779 38.9765 69.7917 43.7753C67.485 50.3567 65.6171 56.1045 64.1857 60.6385C64.1287 60.8192 64.0705 61.0031 64.0112 61.19C62.4879 65.9903 60.6566 71.5892 58.3674 78.8794C55.8086 87.0082 52.7736 95.6258 48.9971 104.343C45.9503 111.354 42.3263 118.554 38.2233 124.598C37.3988 125.811 36.5249 127.012 35.6082 128.168C31.6429 133.419 20.0127 145.174 8.54085 135.148C0.919074 127.312 -0.0282747 116.507 1.24813 107.297C2.79057 96.4191 9.35438 87.3205 16.0559 82.8712C18.2078 81.3602 20.3337 80.2278 22.1963 79.3832C34.2589 76.1001 35.0075 72.8251 46.8882 79.4885C42.551 73.203 49.2646 77.5813 51.1541 76.6341C53.0999 76.7424 55.3608 76.8476 58.0512 76.94Z" fill="black"/>
</svg>
