<svg width="93" height="121" viewBox="0 0 93 121" fill="none" xmlns="http://www.w3.org/2000/svg">
<path d="M67.1894 34.8584C65.6392 36.9417 64.5895 39.0951 63.7887 41.3379C62.6715 44.4896 62.0546 47.7504 61.3748 51.4234C61.1052 52.8897 60.8263 54.4341 60.511 56.1002C60.1039 58.2618 59.8084 60.0953 59.5574 61.7278C58.5191 66.0287 57.4412 68.9032 55.7626 74.4616C55.4316 75.5242 55.0657 76.6912 54.6434 77.9918C53.6696 80.9924 52.452 83.9032 51.1229 86.6121C48.9758 90.9998 46.5448 94.8186 44.5325 97.8105C43.2967 99.6518 42.2324 101.175 41.4929 102.383C39.665 105.323 38.3002 105.982 36.2204 107.793C35.2195 108.644 34.0455 109.754 32.3996 111.417C30.3159 113.511 28.3337 115.106 26.3366 116.39C23.4513 118.195 20.5508 119.562 16.5662 120.113C15.7028 120.219 14.6441 120.303 13.4778 120.243C11.7887 120.154 9.57015 119.917 7.3728 119.075C5.49684 118.368 3.5833 117.115 2.27772 115.298C0.991613 113.547 0.351168 111.423 0.152026 109.41C-0.067186 107.224 0.161801 105.155 0.50738 103.331C0.944708 101.059 1.5728 99.1555 2.02298 97.7573C2.04936 97.6757 2.07639 97.5941 2.10406 97.5124C2.72763 95.6576 3.69689 93.7677 4.79 92.1094C5.45803 91.1743 6.11676 90.4612 6.87603 89.752C7.65341 89.0358 8.50269 88.3961 9.429 87.8975C10.4084 87.3702 11.4977 87.0029 12.5953 86.9662C13.8166 86.9108 14.9594 87.331 15.7674 87.8987C16.3355 88.2884 16.7805 88.7287 17.1592 89.1596C17.4382 89.4789 17.6893 89.8209 17.8886 90.1294C18.4152 90.9441 18.7379 91.6868 18.952 92.2686C19.0842 92.627 19.0726 92.8391 18.9838 92.8811C18.9837 92.8811 18.9837 92.8811 18.9836 92.8812C18.8724 92.936 18.6431 92.7313 18.4109 92.3294C18.1001 91.7954 17.7284 91.2225 17.2297 90.6264C16.6858 89.9832 16.0087 89.3417 15.1612 88.9298C14.437 88.5753 13.5958 88.4428 12.7725 88.6331C12.2377 88.7518 11.7073 88.9932 11.2022 89.3255C10.9888 89.4657 10.788 89.6134 10.5978 89.7642C9.84804 90.3634 9.25638 90.9914 8.7359 91.5781C8.10896 92.2915 7.53664 93.0217 7.12162 93.6089C6.19176 95.0816 5.33901 96.3836 4.38564 98.498C3.78292 99.8713 3.14551 101.573 2.75438 103.808C2.72373 103.987 2.69531 104.168 2.66941 104.352C2.42387 106.088 2.42813 107.702 2.67344 109.146C2.9721 110.915 3.64099 112.411 4.62086 113.533C5.60781 114.667 6.89214 115.439 8.47595 115.939C9.97397 116.396 11.4448 116.597 13.4778 116.632C15.197 116.627 16.6508 116.373 18.6049 115.765C20.8154 115.05 22.5798 114.013 24.0738 112.947C27.4136 110.49 29.5358 107.948 32.6152 104.447C34.6699 102.058 37.1501 99.1863 40.3816 95.062C40.4217 95.0106 40.462 94.9589 40.5023 94.907C43.67 90.8104 45.4486 87.4545 46.697 84.5199C48.3766 80.4773 49.1115 77.157 50.0382 72.7136C50.6107 69.8689 51.2071 66.7298 51.809 62.5303C51.8806 62.0224 51.9498 61.5056 52.0158 60.9809C52.1897 57.4804 52.7257 53.4103 53.7575 49.5355C54.7606 45.7008 56.2534 41.9489 58.0404 38.5388C59.9279 34.9205 62.1242 31.6545 64.2729 28.7892C66.8476 25.3605 69.3673 22.4538 71.4652 20.0447C72.2482 19.1474 72.9775 18.3169 73.6309 17.5636C75.2454 15.7025 76.9902 13.7509 78.8933 11.6906C81.2505 9.13769 83.8485 6.42319 86.5831 3.66087C86.5393 3.66451 86.1525 4.17764 86.0932 4.39044C85.9709 4.67995 85.9121 4.9939 85.9139 5.28645C85.9153 5.57937 85.9719 5.85248 86.0717 6.10339C86.1717 6.35345 86.316 6.58521 86.5089 6.7926C86.7005 6.99885 86.9446 7.17934 87.2186 7.30505C87.3941 7.41541 88.0101 7.53408 88.0452 7.50939C88.0452 7.50939 88.0452 7.50939 88.0452 7.50939C82.4122 7.25599 76.6431 7.15619 70.6848 7.27683C69.491 7.30058 68.2346 7.34854 66.9436 7.42223C60.3303 7.80346 53.3537 8.7981 46.3262 10.6094C39.6161 12.3441 33.0513 14.8206 27.3779 18.1077C26.8178 18.4319 26.2742 18.7591 25.7464 19.0887C21.0558 21.9978 16.314 26.3271 13.6291 31.9513C10.4677 38.2697 10.5529 45.7794 12.0688 51.526C12.8474 54.6408 13.926 57.31 14.8619 59.3582C17.3088 64.5369 19.2567 67.2658 21.4786 70.1022C21.4786 70.1022 21.4786 70.1022 21.4786 70.1022C21.5142 70.1424 21.4897 70.1167 21.5138 70.1385C21.527 70.1488 21.5419 70.1577 21.5581 70.1646C21.5742 70.1714 21.5915 70.1762 21.6086 70.1786C21.6256 70.181 21.6424 70.1811 21.6578 70.1792C21.6731 70.1773 21.687 70.1735 21.6998 70.1682C21.726 70.154 21.693 70.1768 21.7364 70.1466C21.7365 70.1466 21.7364 70.1466 21.7364 70.1466C22.2615 69.7318 22.8933 69.212 23.8365 68.3635C24.3509 67.8981 24.9657 67.3295 25.7172 66.5695C26.0312 66.2511 26.3744 65.8982 26.7344 65.5133C27.7367 64.4423 28.9021 63.0836 29.8375 61.5775C30.7104 60.1759 31.373 58.6731 31.661 57.0999C31.9442 55.532 31.8921 53.8773 31.2475 51.9971C30.852 50.8594 30.2462 49.6556 29.2844 48.3224C24.7241 43.342 26.817 44.2575 30.8132 48.7548C31.5509 49.7245 32.0772 50.6355 32.4632 51.493C33.4716 53.7567 33.5573 55.6911 33.3891 57.3411C33.2008 59.0754 32.7148 60.4961 32.3714 61.6897C32.2515 62.1022 32.1184 62.4966 31.9779 62.8718C31.1705 64.9868 30.1881 66.5384 29.1291 67.8398C28.16 69.0164 27.0733 69.9954 25.8855 70.8033C25.4949 71.07 25.1188 71.2982 24.7096 71.5281C24.1654 71.8272 23.767 72.0794 23.4453 72.3249C23.4453 72.3249 23.4453 72.3249 23.4453 72.3249C23.3171 72.4344 22.9822 72.6391 22.7783 72.7177C22.5378 72.8197 22.2874 72.888 22.0366 72.9235C21.7818 72.9596 21.5267 72.962 21.2778 72.9338C21.0249 72.905 20.778 72.8445 20.543 72.7549C20.3041 72.6639 20.0776 72.5425 19.8705 72.3955C19.6867 72.2739 19.4088 72.006 19.3085 71.8781C19.3085 71.8781 19.3085 71.8781 19.3085 71.8781C16.856 69.1077 14.841 67.4987 13.3824 64.9258C12.0395 62.0995 11.5851 61.6001 8.43783 52.5856C7.64992 49.8762 6.75554 46.3854 6.69757 41.6098C6.66501 37.249 7.55645 33.266 8.93305 29.8933C13.0683 20.2686 19.5215 15.7272 24.0137 12.6781C25.6581 11.6204 27.0398 10.8354 28.4602 10.0847C32.0846 8.13964 38.0803 5.93306 44.7999 4.44293C50.7926 3.07498 57.2866 2.21303 63.0137 1.57965C64.0758 1.46011 65.2523 1.3461 66.5315 1.24422C72.6209 0.735133 80.8049 0.650337 88.3617 1.01547C88.3617 1.01547 88.3617 1.01547 88.3617 1.01547C88.654 1.00239 89.5199 1.17898 89.928 1.39497C90.4346 1.62607 90.8893 1.9584 91.256 2.35059C91.6242 2.74376 91.9085 3.19481 92.1047 3.68179C92.3009 4.16981 92.4102 4.69809 92.4142 5.24706C92.4189 5.79603 92.312 6.36667 92.0918 6.89354C91.9348 7.34391 91.4017 8.07263 91.1758 8.25952C88.4089 11.0442 85.8166 13.7312 83.5966 16.1443C81.5537 18.3626 79.8541 20.319 78.5876 21.8849C77.8177 22.8368 77.1498 23.6575 76.5486 24.3837C73.2537 28.4215 71.9204 29.3557 69.2675 32.298C68.6465 33.0009 67.9526 33.8363 67.1894 34.8584Z" fill="black"/>
</svg>
