<svg width="118" height="171" viewBox="0 0 118 171" fill="none" xmlns="http://www.w3.org/2000/svg">
<path d="M54.741 150.767C51.1982 156.55 47.2225 162.041 40.8005 165.455C35.7989 168.158 30.0146 169.485 23.5268 170.036C22.6834 170.107 21.8673 170.165 21.0746 170.214C21.0746 170.214 21.0746 170.214 21.0746 170.214C8.15943 169.922 5.37479 162.345 2.31982 154.223C1.58179 151.818 0.920142 148.955 0.468658 145.503C-0.168652 140.608 -0.031613 135.653 0.553705 131.045C1.68868 122.017 4.59963 114.244 6.92092 108.967C7.60017 107.411 8.21657 106.074 8.72265 104.938C12.0514 98.1848 13.5641 97.9883 20.1925 90.2829C20.3211 90.1445 20.4522 90.0041 20.586 89.8614C26.8865 83.3075 32.406 80.1466 39.2724 77.6702C40.5666 77.2244 41.9332 76.8132 43.4055 76.4406C47.0696 75.4649 54.1408 74.1078 61.7064 74.2902C61.7064 74.2902 61.7064 74.2902 61.7064 74.2902C65.3528 74.3441 68.9295 74.4338 72.4489 74.5738C76.3338 74.728 79.9747 74.9437 83.2129 75.2138C86.3135 75.469 89.0536 75.7821 91.185 76.071C91.995 76.1691 93.1176 76.3691 93.9882 76.563C96.6648 77.553 103.791 78.1105 101.507 84.7298C98.3069 88.3682 94.433 88.8723 91.2552 89.5949C89.5249 89.8955 87.9229 90.0308 86.4997 90.0703C84.2849 90.1322 82.4982 89.8435 81.2265 89.4314C80.0339 88.9963 80.4025 88.7427 81.6318 89.0009C83.9683 89.4348 87.3031 89.27 90.9358 88.2108C92.478 87.7585 94.0959 87.1431 95.6349 86.3059C97.3847 85.3503 98.7637 84.2869 99.3184 83.3274C100.521 81.7382 96.6839 79.996 93.3401 79.0997C90.7987 78.4127 87.6126 77.8422 82.9883 77.4957C82.5718 77.4647 82.1113 77.4329 81.6765 77.4068C78.3878 77.2131 75.3687 77.1684 72.3679 77.1731C68.75 77.1877 65.3871 77.2851 61.7066 77.3938C61.7062 77.3938 61.7065 77.3938 61.7064 77.3938C55.2982 77.6548 48.7919 78.3949 40.6982 81.2538C40.5415 81.3105 40.3737 81.3725 40.211 81.4332C31.804 84.7329 27.7211 88.7047 23.4101 93.4368C19.8839 97.554 16.072 102.431 11.6223 111.092C11.0682 112.194 10.5154 113.351 9.9623 114.585C6.91701 121.477 5.84882 126.96 5.40363 131.612C4.8737 139.115 5.511 144.787 8.205 152.294C9.44067 155.375 11.2715 158.918 14.445 161.004C16.1062 161.992 17.5322 162.543 20.329 162.35C20.3288 162.35 20.3294 162.349 20.3292 162.35C26.5112 161.741 32.7679 161.117 37.8795 158.951C43.1433 156.816 46.9529 152.486 49.7927 147.503C53.1124 141.683 55.3246 135.478 57.0023 130.414C57.7604 128.087 58.393 125.961 58.9186 124.06C59.9305 120.397 60.9553 116.376 62.0045 112.049C63.411 106.248 64.8304 100.031 66.3272 93.4106C67.6969 87.3504 69.0853 81.1573 70.5774 74.6449C71.115 72.2959 71.6758 69.9985 72.2596 67.7573C72.9528 65.089 73.683 62.3691 74.4506 59.6507C75.8303 54.7665 77.3411 49.8278 79.1148 44.7763C80.7991 39.9825 82.7314 35.0767 84.9658 30.2991C87.184 25.5629 89.6933 20.9322 92.67 16.5508C95.7385 12.07 99.1842 7.90363 103.518 4.49303C104.453 3.76476 105.522 3.01446 106.617 2.37101C106.631 -4.48418 125.283 8.2447 112.977 9.28201C112.977 9.28203 112.977 9.28194 112.977 9.28208C110.628 10.4332 108.095 11.5687 105.455 12.4744C102.86 13.3712 100.113 14.0344 97.3598 14.3942C94.603 14.7607 91.879 14.8501 89.2075 14.8171C86.4893 14.7814 83.8262 14.6228 81.2522 14.4337C78.5573 14.234 75.9404 13.9965 73.4057 13.7581C70.6934 13.502 68.1134 13.2453 65.6452 13.0028C60.3585 12.8745 55.9134 13.5638 52.2936 14.5712C51.973 14.6602 51.6625 14.7507 51.3619 14.8419C46.327 16.3972 42.924 18.4414 40.2325 20.5627C36.6859 23.4753 34.1535 26.524 32.2477 31.3334C31.4727 33.3934 30.8736 35.8035 30.7559 38.663C30.6818 40.511 30.8046 42.5086 31.1997 44.5777C31.9613 48.7116 33.9256 53.0675 36.6551 56.8327C38.7247 59.7236 41.2324 62.3469 43.7689 64.5997C47.6725 67.834 46.4588 67.6288 42.2262 64.5895C39.4116 62.4563 37.1189 60.0937 35.3384 57.8405C33.2713 55.2348 31.8821 52.7913 30.7666 50.9161C29.5483 48.8674 28.7425 46.9838 28.1944 45.1446C27.0529 40.9145 26.6871 36.6091 29.4354 30.2307C29.5635 29.9511 29.6994 29.6685 29.8436 29.383C32.7162 23.8854 35.5125 20.6826 38.1121 18.022C39.9708 16.1909 41.8557 14.7059 44.1165 13.5794C46.5259 12.4282 47.9712 11.9949 51.2129 11.1005C53.9513 10.4299 58.2831 9.25448 65.787 9.15026C68.082 9.30121 70.7448 9.46506 73.6968 9.61939C75.4383 9.70968 77.324 9.79958 79.3328 9.87195C80.0526 9.89768 80.7723 9.92123 81.48 9.94116C84.1698 10.0163 86.7436 10.0442 89.1607 9.96857C91.8224 9.88614 94.2866 9.67244 96.5666 9.26889C99.1055 8.82437 101.408 8.13918 103.554 7.30136C106.003 6.3434 108.161 5.25946 110.296 4.11184C110.296 4.11184 110.296 4.11184 110.296 4.11184C115.773 6.63957 110.368 6.32828 107.531 9.47475C105.783 10.9328 104.314 12.4706 103.019 13.9685C101.574 15.6443 99.924 17.7158 98.155 20.2722C95.6797 23.8428 93.1245 28.1637 90.7237 33.0374C88.5809 37.3747 86.5775 42.1211 84.8638 46.8371C83.3977 50.8607 82.0934 55.0053 81.0759 58.7253C80.8569 59.523 80.6271 60.37 80.3881 61.2662C79.2861 65.3997 78.0349 70.4428 76.8306 76.0173C75.5091 82.124 74.1049 88.4935 72.6659 94.8571C71.1567 101.532 69.6609 107.954 68.2859 113.628C67.1212 118.444 66.0627 122.625 65.2671 125.776C64.5966 128.436 63.9721 130.622 63.4032 132.423C60.7554 140.282 59.7171 141.948 54.996 150.35C54.9122 150.488 54.8272 150.627 54.741 150.767Z" fill="black"/>
</svg>
