<svg width="159" height="129" viewBox="0 0 159 129" fill="none" xmlns="http://www.w3.org/2000/svg">
<path d="M94.5834 10.8628C96.2489 10.6816 97.6968 9.97027 98.7641 9.07321C100.41 7.77654 100.413 6.44607 100.197 6.37131C100.197 6.37131 100.197 6.37131 100.197 6.37131C100.36 6.064 99.4402 6.95087 101.712 8.58621C104.511 9.31594 98.6562 10.0582 96.0949 13.649C95.8851 13.8718 95.6544 14.1242 95.4499 14.358C92.5966 17.5994 89.467 20.7286 87.387 23.1746C86.4813 24.2389 85.7566 25.1955 85.358 25.9513C84.0212 28.4933 82.615 27.755 80.495 31.1898C80.034 31.9449 79.599 32.6295 79.181 33.2565C77.6963 35.4894 76.3501 37.0721 74.515 39.1407C73.7238 40.0324 72.4738 41.6609 71.1778 43.568C68.6067 47.2922 65.9714 52.2272 65.3201 54.7562C65.2881 54.8729 65.2549 54.989 65.2206 55.1045C64.1227 58.7292 61.8745 62.3748 61.3461 64.9168C61.1655 65.6987 61.0268 66.3881 60.9157 66.8585C60.8683 67.0629 60.7718 67.1587 60.6727 67.1615C60.6727 67.1615 60.6726 67.1615 60.6725 67.1615C60.5499 67.1649 60.4231 67.0198 60.4092 66.7439C60.3356 65.3397 60.407 63.3043 60.6561 60.8194C61.0322 57.492 61.8143 56.4922 62.919 54.0794C63.3832 53.0976 63.864 52.0253 64.5411 50.4186C65.9243 47.1504 66.9474 44.5864 68.3879 41.8694C69.4144 39.9464 70.6737 37.9337 72.5141 35.6059C73.9871 33.7479 74.8916 32.2309 75.688 30.7537C77.305 27.8016 78.441 24.9368 83.3654 20.2432C83.4345 20.178 83.5028 20.1134 83.5704 20.0493C88.4117 15.4959 89.5676 13.076 91.9541 9.57957C93.1077 7.94048 94.5579 5.94678 97.3473 3.63619C98.525 4.2598 101.716 -4.40807 108.164 5.95207C108.164 5.95207 108.164 5.95207 108.164 5.95207C108.535 10.8698 104.04 14.1093 101.62 14.9872C98.6785 16.2287 96.021 16.6499 93.5909 16.9904C90.5725 17.3809 87.9504 17.5055 85.94 17.669C85.7038 17.6877 85.4752 17.7068 85.255 17.7264C83.1888 17.9107 80.8931 18.0681 78.4258 18.1591C76.0732 18.2463 73.5544 18.2732 70.9525 18.2144C68.5314 18.1604 66.0374 18.0304 63.6054 17.8202C63.2517 17.809 62.899 17.7989 62.5472 17.7897C58.6286 17.6891 54.5039 18.0899 50.1485 18.8821C45.68 19.6965 41.2709 20.8939 37.0924 22.2191C36.7557 22.3257 36.4228 22.4323 36.0937 22.5385C32.5521 23.6775 28.5143 25.4105 25.0168 27.7811C20.8023 30.5478 17.6893 34.3622 16.507 37.442C16.3128 37.9121 16.1549 38.3566 16.0254 38.7691C14.7873 43.9357 15.3437 45.8907 17.7647 50.1077C17.9122 50.3338 18.0647 50.5566 18.2338 50.7937C20.0737 53.4615 23.1088 56.7632 25.86 59.6001C27.2857 61.047 26.6553 61.145 24.9079 60.0772C22.387 58.509 20.7913 56.644 19.3576 55.8709C17.2015 54.6723 15.9735 53.7799 14.8845 51.7929C14.5027 51.0759 14.1702 50.2558 13.8931 49.2145C12.9173 45.1725 11.4473 43.3035 11.6981 40.6215C11.9258 39.2015 12.2436 38.5927 13.0684 36.3279C13.8077 34.5445 14.9046 31.5429 18.4654 27.3714C19.6457 26.0118 20.8405 24.8726 22.0061 23.876C27.2697 19.5031 31.6322 17.6336 34.8533 16.2443C35.9028 15.8116 36.8193 15.4631 37.6834 15.149C40.2016 14.2199 44.5491 13.2803 49.1462 12.6941C52.1649 12.2953 55.3989 12.0123 58.2739 11.7444C59.854 11.5962 61.703 11.4966 63.7784 11.4767C66.104 11.5817 68.6197 11.6742 71.0993 11.7181C73.5839 11.7628 76.075 11.7565 78.309 11.6802C80.9176 11.5935 83.19 11.4081 84.7591 11.1693C84.9927 11.1341 85.2153 11.1013 85.4279 11.071C89.216 10.5005 90.1027 10.8719 92.4792 10.9541C93.0713 10.9677 93.7614 10.9522 94.5834 10.8628ZM31.6473 123.509C31.6175 123.52 31.5881 123.531 31.5588 123.543C29.0859 124.435 28.0045 127.535 24.2936 128.092C21.2137 128.427 20.2614 127.544 18.0959 127.319C17.5921 127.268 17.0259 127.251 16.355 127.279C14.7784 127.343 13.145 127.131 11.7148 126.853C9.87813 126.505 8.32738 126.026 7.29978 126.028C6.16119 126.027 5.79667 125.393 5.16305 124.762C4.78391 124.362 4.2613 123.968 3.3206 123.46C1.33955 122.379 0.383454 120.489 0.348249 118.723C0.330558 118.24 0.371125 117.791 0.454405 117.298C0.62455 116.095 1.16698 113.965 1.93525 111.988C2.63633 110.106 3.43365 108.247 3.61359 107.155C3.68933 106.733 3.81094 106.352 3.97894 105.978C4.74211 104.273 6.31818 102.975 7.09452 102.019C7.3883 101.658 7.66517 101.391 7.90439 101.201C8.00582 101.12 8.12065 101.121 8.20637 101.17C8.20642 101.17 8.20648 101.17 8.20653 101.17C8.31336 101.231 8.37514 101.367 8.31218 101.508C8.00665 102.196 7.64619 103.237 7.42935 104.582C7.20871 105.933 6.87999 106.462 6.42528 107.19C6.05179 107.787 5.56839 108.545 5.16505 109.986C4.87275 111.045 4.72696 111.988 4.62439 112.863C4.45039 114.571 4.25811 116.085 4.1507 117.867C4.14979 117.9 4.14953 117.932 4.14988 117.963C4.33783 119.845 5.73061 119.645 7.22396 120.173C7.93238 120.4 8.85068 120.784 10.1963 121.447C10.9549 121.815 11.6335 122.027 12.2837 122.146C14.6561 122.558 15.9636 121.685 18.3163 121.148C19.0702 120.989 19.89 120.818 20.7884 120.656C23.0403 120.277 26.0362 119.611 28.538 118.461C30.3764 117.645 31.9775 116.644 32.9014 115.788C34.2516 114.544 35.7686 112.864 37.3614 110.97C38.3683 109.777 39.4205 108.488 40.5225 107.167C41.9415 105.468 43.1849 103.332 44.3867 101.09C45.6012 98.8285 46.76 96.4884 48.1002 94.3636C48.8682 93.1479 49.6969 91.7646 50.5151 90.323C52.5411 86.7813 54.4411 82.8968 55.5125 80.7778C55.8411 80.1322 56.11 79.5926 56.3398 79.1077C57.1654 77.3513 57.493 76.3616 57.9582 73.8961C58.2976 72.0869 59.0898 69.6992 60.186 67.7573C60.7361 66.7816 61.1086 67.1135 61.0609 68.2238C60.9874 69.85 60.4605 71.069 60.7769 72.0055C61.4039 73.8803 61.6168 74.6918 60.4169 76.5248C59.411 78.0468 59.991 79.245 59.896 80.2598C59.8772 80.4595 59.8319 80.6512 59.7427 80.835C59.1739 81.9439 58.4792 81.6703 56.8967 87.7236C56.403 89.5422 55.9161 91.1146 55.4669 92.4622C54.4138 95.6027 53.5473 97.6186 52.8896 99.1672C52.3552 100.422 51.1535 102.285 49.8329 104.267C48.8338 105.771 47.7729 107.332 46.9251 108.799C45.937 110.517 44.2047 112.943 42.2995 115.199C40.4129 117.464 38.3439 119.511 37.1975 120.767C34.8462 123.264 34.2043 122.516 31.6473 123.509ZM70.2681 67.7616C70.649 68.3154 71.0202 65.979 71.4719 66.3266C71.795 66.5709 71.8936 67.2615 72.1285 67.5543C72.2256 67.6768 72.344 67.7292 72.5077 67.6484C73.048 67.3748 73.5833 68.225 73.8359 67.7102C74.074 67.1951 74.1104 68.7447 74.4527 68.3948C74.6984 68.1415 74.8798 68.1741 75.0864 68.3988C75.1655 68.4848 75.2491 68.5989 75.3337 68.7359C75.6316 69.2328 76.6345 69.6243 76.9343 68.9887C77.2394 68.3547 77.6893 69.4052 77.9495 69.645C78.0297 69.7197 78.0961 69.8245 78.149 69.9344C78.1714 69.981 78.1865 70.0805 78.1925 70.1792C78.1925 70.1792 78.1925 70.1793 78.1925 70.1794C78.2 70.3022 78.1932 70.4239 78.1689 70.441C78.051 70.5237 77.8811 70.7333 77.6923 71.1908C77.3398 72.0434 77.2474 71.1275 76.7468 71.5788C76.2164 72.0301 75.919 72.8974 75.2757 72.3625C75.2456 72.3386 75.2168 72.3203 75.1891 72.3072C74.6014 72.0256 74.4798 74.0861 73.5832 72.84C72.8099 71.7302 72.6405 73.2977 72.0066 73.9876C71.8956 74.1112 71.7718 74.2063 71.6312 74.2518C70.6689 74.5528 69.55 73.1516 68.9918 73.216C68.921 73.2239 68.8475 73.234 68.7718 73.2448C68.2429 73.3255 67.5178 73.4389 66.8358 73.0626C66.4489 72.8426 65.9252 72.9025 65.425 72.902C64.9463 72.8986 64.4538 72.837 64.0781 72.462C63.536 71.9351 62.8627 71.2593 62.3912 70.6346C62.1755 70.3381 61.9696 70.0412 61.865 69.8121C61.5209 69.0876 61.4941 68.9517 60.8173 68.8119C60.4279 68.728 60.0625 68.1386 60.4109 67.418C60.605 67.0601 61.0792 67.0836 61.2847 67.0216C61.6036 66.9778 61.5514 67.218 62.0027 66.9002C62.8843 66.2332 63.0866 65.8571 62.8687 66.4843C62.7018 67.1373 63.5385 65.9517 63.5421 66.1421C63.5665 66.3184 63.2541 66.9628 63.8985 66.8759C63.9706 66.8639 64.065 66.845 64.1584 66.8072C65.1001 66.4506 65.5776 66.3782 65.9028 66.2954C66.0952 66.2524 66.296 66.4753 66.5798 66.6682C66.8066 66.8304 67.0719 66.9662 67.3423 66.8821C67.8405 66.7218 68.7686 66.9924 69.3085 66.7685C69.3786 66.7406 69.4429 66.705 69.4992 66.6599C69.9936 66.2594 69.9105 67.2073 70.2681 67.7616ZM135.896 3.00594C139.006 3.3224 141.681 2.28439 145.197 2.95022C146.126 3.13798 147.077 3.45678 148.031 3.98526C152.371 6.76941 152.352 8.06044 156.035 12.3591C156.041 12.3683 156.048 12.3774 156.055 12.3866C159.775 17.2559 158.623 23.5402 158.571 25.8517C158.573 26.033 158.565 26.2027 158.549 26.3622C158.275 28.4056 156.953 28.4833 156.005 31.4305C154.916 34.4487 153.61 36.0461 151.695 37.8359C151.598 37.9261 151.499 38.0172 151.397 38.1094C149.704 39.7497 145.198 43.9305 142.377 46.5071C141.794 47.0656 141.285 47.5808 140.92 48.0157C138.925 50.4313 135.351 51.6579 133.52 52.5796C132.929 52.8836 132.429 53.0849 132.028 53.2141C131.645 53.337 131.51 52.9818 131.826 52.7399C132.677 52.089 133.871 51.0454 135.035 49.6648C137.24 47.078 137.996 47.5258 140.9 44.7618C141.051 44.6136 141.206 44.4565 141.365 44.29C144.311 41.1585 145.592 38.8744 148.697 35.5294C148.914 35.2876 149.136 35.0424 149.363 34.7931C152.229 31.4209 151.667 29.2803 153.107 25.1988C153.32 24.4703 153.55 23.7373 153.783 22.7997C154.659 18.7385 152.995 16.9324 151.344 15.5127C150.23 14.6102 148.964 13.7365 146.997 12.4969C145.72 11.7049 144.269 10.9473 142.713 10.3456C139.209 8.99226 135.579 8.53922 132.531 9.18548C131.432 9.42417 130.613 9.83356 129.983 10.2383C128.097 11.4293 125.562 13.985 123.192 16.8748C121.9 18.4275 120.585 20.108 119.233 21.8266C117.807 23.6394 116.43 25.7702 115.069 28.0225C112.695 31.949 110.357 36.2561 107.708 40.004C107.699 40.0167 107.69 40.0293 107.681 40.0421C105.207 43.5411 102.139 47.9593 99.3617 51.6741C97.4619 54.2261 95.703 56.4289 94.4223 57.9033C92.4473 60.1661 91.3572 61.3028 90.1592 62.7531C89.4169 63.6351 88.6989 64.5612 87.5286 65.8972C85.8278 67.859 82.5809 70.4039 79.2269 70.3876C77.6059 70.269 78.0421 69.8383 79.3715 69.3759C81.3086 68.5781 82.8273 67.686 83.3822 66.6055C84.3992 64.4004 84.677 63.5554 87.0156 61.9194C87.4249 61.6256 87.7771 61.2843 88.0329 60.9807C89.2695 59.5017 89.1927 58.0132 90.1087 57.0003C91.1498 55.777 91.9392 56.3295 95.7285 49.3808C95.8301 49.1909 95.934 48.9948 96.0404 48.7922C98.9102 43.2956 100.824 39.5631 102.287 36.8369C102.847 35.7861 103.333 34.8821 103.764 34.0747C104.91 31.9304 107.493 28.3308 109.898 24.7292C110.735 23.4757 111.563 22.2017 112.285 21.0029C113.589 18.8394 115.75 15.6927 118.197 12.7169C120.971 9.29704 124.227 6.21599 126.8 4.47858C128.545 3.2622 129.816 2.89027 130.748 2.76307C132.262 2.60216 133.328 2.82999 135.896 3.00594ZM106.825 122.214C107.047 122.267 107.275 122.283 107.507 122.266C109.751 122.081 111.032 120.004 113.3 119.606C113.759 119.518 114.134 119.471 114.5 119.435C116.134 119.245 117.258 119.674 119.163 117.944C119.719 117.41 120.283 116.888 120.825 116.366C122.448 114.815 123.905 113.164 124.124 112.012C124.305 111.017 124.976 110.915 125.612 110.371C125.946 110.078 126.263 109.671 126.468 108.934C127.052 106.793 127.708 105.645 128.866 103.983C129.026 103.753 129.212 103.446 129.413 103.078C130.498 101.122 131.964 97.4567 132.389 95.2482C132.449 94.9324 132.49 94.6422 132.502 94.3999C132.627 92.0974 134.48 90.0524 135.241 88.7121C135.477 88.2948 135.709 87.9801 135.915 87.7491C136.002 87.6512 136.116 87.633 136.208 87.6675C136.208 87.6675 136.208 87.6675 136.208 87.6676C136.324 87.7103 136.407 87.8345 136.367 87.9866C136.174 88.7272 135.98 89.8411 135.958 91.2467C135.93 93.518 135.206 93.7759 134.576 95.9874C134.482 96.3184 134.391 96.6911 134.307 97.1166C133.768 99.796 133.778 101.753 132.796 104.297C132.558 104.909 132.274 105.528 131.9 106.216C130.548 108.661 130.95 110.231 130.047 112.584C129.63 113.633 128.929 114.863 127.551 116.227C126.058 117.689 125.133 118.744 124.407 119.778C122.954 121.711 122.364 123.944 118.445 126.089C118.097 126.269 117.732 126.439 117.355 126.598C114.432 127.863 110.74 128.244 107.961 128.165C104.984 128.316 101.22 126.709 99.7863 125.568C98.317 124.603 96.9152 123.208 95.7966 121.628C94.0767 119.202 92.9061 116.41 92.141 113.468C91.8984 112.525 91.6216 111.532 91.3392 110.535C90.3538 107.06 89.2357 103.3 88.6554 99.6827C88.5511 99.0323 88.4653 98.3919 88.4002 97.7539C88.1233 95.0427 87.7581 91.7929 87.3056 88.8444C86.8957 86.1137 86.3838 83.6498 86.0202 82.0782C85.6336 80.3802 85.3042 79.3295 84.8641 78.3717C84.4477 77.4914 83.9318 76.6424 82.9589 75.5126C81.7778 74.13 80.2696 72.3178 78.6678 70.793C77.8433 70.0404 78.2091 69.7067 79.3564 70.0764C81.0212 70.6618 81.9446 71.8017 82.9523 72.0508C84.9771 72.6164 85.9229 73.1302 86.5996 75.4333C86.7888 76.1358 87.0685 76.6477 87.3913 77.0701C88.0918 77.9856 89.0097 78.4467 89.2644 79.3414C89.5522 80.6316 88.9916 80.8609 91.421 86.8727C91.5256 87.1423 91.6267 87.4078 91.7246 87.6691C93.6829 93.0046 94.4362 96.1484 95.0669 98.3206C95.0939 98.4169 95.1204 98.5112 95.1466 98.6038C95.7699 100.792 96.0506 105.435 97.2003 108.905C97.2539 109.068 97.3086 109.225 97.3661 109.383C98.1978 111.701 99.4597 115.665 101.172 117.997C102.016 119.194 102.92 119.922 103.55 120.175C105.441 120.715 104.609 121.476 106.825 122.214Z" fill="black"/>
</svg>
