<svg width="82" height="136" viewBox="0 0 82 136" fill="none" xmlns="http://www.w3.org/2000/svg">
<path d="M47.2909 127.099C47.2243 127.293 47.1582 127.484 47.0924 127.671C49.6636 133.756 32.9118 136.763 33.4474 129.739C31.7119 127.214 29.9104 124.576 28.0942 121.583C27.2757 120.236 26.4443 118.8 25.6064 117.268C24.7717 115.741 24.0415 114.386 23.3931 113.173C21.5836 109.8 20.3874 107.401 18.8006 104.859C17.4673 102.817 15.749 100.21 12.9892 98.4245C12.4054 98.0763 11.8043 97.862 11.3907 97.859C10.7608 97.7484 9.73295 98.5671 8.82466 100.299C7.48199 102.883 6.70049 105.814 6.00694 108.835C4.98708 113.398 5.67035 116.807 7.16902 119.377C7.82457 120.496 8.5984 121.371 9.302 121.985C11.9414 124.137 12.9267 125.272 15.3324 126.874C16.6309 127.68 18.3689 128.535 21.1472 129.191C23.2083 129.671 25.0803 129.985 26.8428 130.237C31.1508 130.823 34.7814 131.112 39.0672 131.214C39.903 131.229 40.7507 131.235 41.6494 131.223C43.8283 131.194 47.3691 130.95 51.374 130.081C55.1367 129.251 59.2606 127.932 62.725 125.605C62.725 125.605 62.725 125.605 62.725 125.605C64.8625 124.148 66.7525 122.572 68.4105 120.952C70.4423 118.968 72.0323 116.984 73.1022 115.336C73.3504 114.954 73.5777 114.582 73.7752 114.234C74.7252 112.555 75.6625 110.781 76.2362 109.021C76.9446 106.72 76.925 105.05 74.9995 104.713C72.7816 104.305 70.1793 105.017 68.134 105.653C67.2649 105.936 66.5232 106.208 65.7558 106.527C64.1588 107.185 62.8441 107.762 61.8434 108.18C61.4092 108.363 61.164 108.386 61.1162 108.3C61.1162 108.299 61.1161 108.299 61.1161 108.299C61.0554 108.193 61.3017 107.915 61.8222 107.614C63.2681 106.782 65.2754 105.625 67.6728 104.491C69.2187 103.774 71.0561 102.97 73.1574 102.554C73.9144 102.419 74.558 102.355 75.3335 102.418C80.2698 102.878 79.6184 108.205 78.8768 109.853C78.1106 112.051 76.9416 114.064 75.0192 116.74C73.9647 118.184 72.6469 119.835 70.9254 121.695C70.6284 122.016 70.3289 122.331 70.027 122.641C68.1191 124.604 66.1445 126.333 64.2332 127.79C64.233 127.79 64.2332 127.79 64.2331 127.79C60.6169 130.486 56.5448 132.151 52.1753 133.34C48.4023 134.335 44.2125 134.98 39.2324 135.047C38.8088 135.051 38.3763 135.052 37.9428 135.047C33.1971 134.982 29.5899 134.771 26.1969 134.449C22.0291 133.994 18.1188 133.504 13.1847 131.346C9.89058 129.789 5.61703 127.346 2.70819 121.908C2.22261 120.959 1.81181 119.94 1.4955 118.838C0.278976 114.587 0.769384 110.635 1.35623 107.889C2.19231 104.079 2.92218 100.92 4.28427 97.8708C4.67859 94.7223 11.5846 89.8828 15.9998 93.3847C19.2445 95.1466 21.6213 97.623 24.2215 100.792C25.292 102.122 26.3692 103.587 27.4592 105.188C28.3244 106.458 29.1847 107.792 30.0038 109.111C31.7287 111.891 33.3766 114.767 34.9863 117.696C36.5656 120.572 38.1109 123.506 39.6026 126.389C44.4155 130.676 37.3406 130.521 41.4434 125.944C42.8636 121.589 43.5909 116.92 44.1403 112.948C44.5553 109.82 44.8173 107.024 44.9685 104.684C45.078 102.978 45.1754 101.15 45.2561 99.2849C45.4404 95.037 45.5521 90.4213 45.5947 85.5191C45.6316 81.1034 45.6163 76.5286 45.5223 71.7509C45.4169 67.274 45.3137 62.667 44.8599 58.2581C44.8599 58.2581 44.8599 58.2581 44.8599 58.2581C44.825 57.9701 44.8076 57.6734 44.7973 57.4663C44.7887 57.2948 44.7825 57.132 44.7772 56.9691C44.7654 56.597 44.759 56.2304 44.756 55.8643C44.7531 55.5 44.7537 55.1376 44.7581 54.7693C44.7627 54.4038 44.7709 54.0361 44.7856 53.6562C44.8004 53.2792 44.8203 52.8938 44.8571 52.4741C44.9195 52.0117 44.8766 51.7127 45.2001 50.6748C46.4766 47.219 47.8181 43.6298 49.2221 39.9888C50.5781 36.4753 51.985 32.9306 53.4932 29.3474C54.9705 25.8412 56.536 22.3134 58.2427 18.8413C59.9551 15.377 61.8023 11.9109 64.0389 8.6028C66.0834 5.97866 67.3957 3.10504 72.1898 1.19544C73.5514 0.755726 75.6252 1.01191 76.8796 1.98022C81.4329 6.57218 80.7338 10.6451 81.4332 14.6776C82.0333 20.5697 80.7714 27.5356 77.6781 32.7899C74.4063 38.5934 69.3829 42.7806 64.5519 45.3569C59.9962 47.8036 55.5852 48.9442 52.1857 49.4379C50.394 49.6981 48.7848 49.8071 47.2974 49.8308C40.0021 49.7252 35.9372 48.6974 30.1501 45.7321C28.4348 44.7696 26.5981 43.5264 24.7166 41.7323C22.3114 39.4603 20.0652 36.1754 18.6919 32.4011C16.9155 27.6255 16.5256 22.3962 16.9589 17.7222C17.4701 13.4263 17.7815 14.5462 17.9108 18.6898C18.1698 24.2333 19.162 28.9376 20.6677 31.6334C20.8001 31.8772 20.9348 32.1042 21.0714 32.3144C24.5971 37.1255 26.1981 38.8917 31.6543 43.1245C31.8021 43.2266 31.9533 43.3292 32.1087 43.4323C38.6162 47.3565 42.7631 45.8439 46.9036 45.9882C46.972 45.9878 47.0393 45.9875 47.1056 45.9871C50.3085 45.5478 51.788 47.4253 62.6279 42.0113C64.9891 40.6066 67.734 38.5956 70.2956 35.4784C71.5982 33.8836 72.6554 32.2236 73.4844 30.5544C76.1793 24.9897 76.4217 20.1032 75.8289 15.3086C75.387 11.2197 74.005 7.22891 73.4138 7.09065C75.1266 6.48623 70.7138 9.6392 69.8244 11.817C69.7303 11.9602 69.6333 12.109 69.5333 12.2636C68.0029 14.6226 66.114 17.8767 64.1125 21.7532C62.5235 24.8249 60.8685 28.2639 59.2616 31.8368C57.7332 35.235 56.2545 38.7339 54.8806 42.2131C53.8879 44.7272 52.962 47.2005 52.1322 49.5652C51.7676 50.6017 51.3912 51.6745 51.0072 52.7772C51.1269 52.3779 51.031 52.7586 51.0312 52.9799C51.014 53.2335 51.0029 53.5327 50.9971 53.8403C50.9914 54.1421 50.9903 54.4552 50.9929 54.7757C50.9954 55.0892 51.0014 55.4074 51.011 55.7299C51.0203 56.0443 51.033 56.3637 51.0499 56.6724C51.0652 56.9627 51.0918 57.3153 51.1084 57.4228C51.1084 57.4228 51.1084 57.4228 51.1084 57.4228C51.6901 61.9079 51.8686 66.7107 52.0063 71.6026C52.1242 76.3491 52.1354 81.0771 52.0857 85.6199C52.0291 90.7972 51.887 95.6252 51.7397 99.6344C51.6653 101.688 51.5884 103.554 51.5318 105.094C51.3876 108.939 51.1209 111.568 50.7972 113.706C50.0106 118.298 49.3813 120.367 47.2909 127.099Z" fill="black"/>
</svg>
