<svg width="172" height="133" viewBox="0 0 172 133" fill="none" xmlns="http://www.w3.org/2000/svg">
<path d="M73.3555 119.366C78.1348 114.623 82.2509 109.82 86.2325 104.97C91.1026 99.0381 96.0431 92.7548 102.307 85.7044C103.413 84.4591 104.56 83.1886 105.746 81.9009C111.8 75.3209 115.691 71.3495 119.468 67.4215C124.022 62.6554 128.451 58.0012 135.937 48.5574C136.145 48.2933 136.355 48.026 136.566 47.7554C141.637 41.2728 146.593 34.903 150.997 28.6735C156.246 21.3542 161.803 12.0236 160.779 9.05159C162.383 8.99294 160.853 9.69265 160.066 11.5687C157.631 16.7412 156.266 19.5429 154.416 23.6329C153.297 26.2191 152.007 29.608 150.545 34.974C149.695 38.0951 148.991 40.7726 148.283 43.4564C146.371 50.7485 144.763 56.7731 142.934 63.5803C142.404 65.5594 141.857 67.6109 141.289 69.7719C140.443 72.9935 139.241 77.9745 137.995 83.8537C136.68 90.0794 135.329 97.161 134.312 104.381C133.453 111.272 132.181 119.997 133.969 123.982C136.774 125.663 140.404 125.554 142.745 125.446C142.767 125.444 142.788 125.443 142.81 125.441C145.852 125.227 148.962 124.694 151.992 123.847C155.019 122.996 157.967 121.815 160.575 120.253C163.344 118.604 165.715 116.492 167.355 114.076C169.299 111.259 170.168 108.093 170.342 105.337C170.372 104.903 170.386 104.472 170.387 104.045C170.382 101.081 169.892 98.6971 169.505 96.9622C169.329 96.2035 169.298 95.8146 169.394 95.784C169.394 95.784 169.394 95.784 169.394 95.784C169.508 95.7435 169.819 96.263 170.109 97.2245C170.749 99.3846 171.391 102.142 171.385 105.375C171.381 108.358 170.723 111.79 168.888 115.032C168.431 115.846 167.903 116.649 167.314 117.423C165.597 119.665 163.718 121.22 161.956 122.417C158.711 124.57 155.82 125.654 152.74 126.504C149.891 127.247 146.838 127.799 142.799 127.903C140.005 127.813 136.661 128.146 132.616 125.827C131.399 124.878 131.26 123.566 131.009 122.315C130.288 115.258 131.089 109.629 131.582 104.014C132.335 97.0375 133.281 90.5492 134.637 83.2029C135.771 77.1041 137.196 70.4597 139.17 62.7067C139.184 62.6512 139.198 62.5957 139.212 62.5401C141.327 54.2853 142.765 48.1661 144.136 42.3221C145.651 35.9633 147.061 29.8004 149.669 21.9668C153.427 17.8047 148.792 6.22538 165.163 6.41482C166.351 8.28275 165.978 10.9427 165.498 12.6137C162.241 21.6109 158.063 26.4579 154.935 31.3946C149.329 39.5034 145.284 45.3112 140.375 52.1343C136.388 57.6314 131.731 63.8077 124.844 72.0509C123.964 73.1028 123.046 74.1902 122.088 75.314C117.73 80.4254 113.05 85.7231 108.242 91.0289C102.636 97.2145 96.8023 103.469 91.0997 109.47C85.0479 115.84 79.1253 121.949 73.6209 127.56C73.4269 127.819 72.5155 128.501 71.9077 128.667C71.2021 128.917 70.4267 128.963 69.7447 128.838C69.0557 128.714 68.4506 128.439 67.933 128.064C67.4147 127.685 66.9739 127.197 66.648 126.597C66.3213 125.998 66.126 125.271 66.1311 124.547C66.0916 123.935 66.4218 122.87 66.601 122.605C70.6509 114.785 74.1145 107.513 76.8179 101.616C77.4987 100.129 78.1382 98.7087 78.7296 97.3735C81.0561 92.1208 83.5697 86.3162 86.211 80.1492C89.1075 73.388 92.183 66.1316 95.4089 58.5612C98.3717 51.6109 101.472 44.3664 104.714 36.9803C106.712 32.4314 108.764 27.8262 110.898 23.1953C112.016 20.7735 113.246 18.1126 114.477 15.5151C117.912 13.6662 120.408 -12.1771 129.432 8.18434C128.134 17.4595 123.457 25.722 118.625 33.2217C113.741 40.6439 108.143 47.5938 102.403 54.1286C98.4131 58.6616 94.33 62.9972 90.2275 67.1461C88.2958 69.0995 86.315 71.0695 84.242 73.1015C78.3054 78.9214 71.832 85.013 65.2275 91.0708C58.7602 97.0048 52.1695 102.908 45.8368 108.556C38.8695 114.77 32.1585 120.726 26.4745 125.942C21.8107 130.388 15.3503 133.606 10.1856 131.427C9.37855 131.112 8.64157 130.705 7.96812 130.232C1.21321 124.406 1.05403 117.754 0.336311 112.68C-0.0738119 106.604 0.287021 101.075 2.1968 93.7729C2.89608 91.2265 3.83675 88.4588 5.22038 85.469C6.54976 82.6002 8.32222 79.5744 10.6073 76.706C14.3791 71.913 19.7021 67.6689 25.7508 65.1828C30.3329 63.2648 35.1308 62.3383 39.7351 62.1352C46.952 62.1698 45.1582 62.4599 38.1863 63.2629C33.773 63.9318 29.7414 65.1423 26.4133 66.6757C22.0877 68.6559 18.9171 71.1217 16.9182 73.322C15.2529 75.1625 13.9967 76.885 12.9075 78.5354C9.92186 83.2978 7.77383 87.2095 5.20705 94.6289C4.88779 95.6064 4.57587 96.6427 4.27972 97.7452C2.69883 103.765 2.83057 108.503 3.4103 112.394C4.12249 116.756 5.33288 120.048 7.00106 123.265C7.96012 124.998 8.76067 126.116 10.0414 127.154C11.8312 128.54 16.0958 130.554 23.8864 123.224C28.019 119.269 33.501 114.095 40.7234 107.222C41.4143 106.563 42.1036 105.907 42.7906 105.253C49.8383 98.5447 56.07 92.5836 61.5759 87.218C68.8348 80.1491 74.8519 74.1112 79.9346 68.8492C86.3185 62.2395 91.2057 56.8933 95.2518 52.2527C95.9279 51.4769 96.6496 50.6489 97.4072 49.7749C101.805 44.6786 107.757 37.763 113.263 29.6726C117.773 22.93 122.24 15.2572 123.383 7.40336C121.831 -2.74956 128.308 9.25546 122.958 12.0548C122.072 13.8614 121.049 16.0309 120.08 18.1394C117.21 24.3756 113.973 31.7832 110.624 39.5423C107.596 46.5617 104.446 53.9472 101.384 61.1225C98.1399 68.7284 94.9737 76.1446 92.1493 82.7343C89.2268 89.558 86.6467 95.546 84.7755 99.9619C84.0912 101.576 83.4612 103.036 82.8766 104.368C77.9716 115.465 75.967 118.566 72.1175 125.36C72.1266 125.397 72.3226 124.772 72.2779 124.546C72.2709 124.227 72.1731 123.907 72.0286 123.664C71.8867 123.424 71.7107 123.246 71.5089 123.11C71.3107 122.978 71.0804 122.88 70.796 122.837C70.5217 122.795 70.1862 122.822 69.8858 122.938C69.6699 122.986 69.1789 123.379 69.2301 123.384C70.3705 122.303 71.8163 120.893 73.3555 119.366Z" fill="black"/>
</svg>
