<svg width="167" height="121" viewBox="0 0 167 121" fill="none" xmlns="http://www.w3.org/2000/svg">
<path d="M55.4037 80.3147C57.381 77.3529 56.9005 73.9366 58.6171 70.2641C58.7821 69.9118 58.965 69.5598 59.1693 69.2086C61.554 65.127 62.9788 65.0496 65.1609 60.0844C65.3434 59.6711 65.5309 59.2661 65.7214 58.8699C67.8544 54.4259 70.6755 50.5174 71.3107 48.3484C71.4671 47.7916 71.7016 47.353 71.9515 47.0249C72.7259 46.0128 73.8223 45.7027 74.8586 43.3243C76.2579 40.1515 77.4833 38.4731 79.5077 36.1615C79.5596 36.1026 79.6136 36.0403 79.6695 35.9749C81.4233 33.8605 85.4559 28.5259 87.713 25.2246C88.1313 24.5953 88.4802 24.0296 88.726 23.5584C90.3005 20.5291 93.5601 18.2582 95.2118 16.6576C95.7183 16.1689 96.1616 15.8037 96.5268 15.5398C96.8752 15.2878 97.1052 15.592 96.8536 15.9398C96.1856 16.8653 95.2586 18.2965 94.338 20.1289C92.7773 23.2736 91.8065 23.2971 89.5312 26.6117C89.3433 26.8883 89.1477 27.1871 88.944 27.5122C86.5684 31.3347 85.555 34.0698 82.8197 37.9441C82.4958 38.4074 82.1539 38.8798 81.7852 39.3725C78.9577 43.2015 79.3018 45.4971 76.8688 49.6895C76.2724 50.7283 75.5528 51.8209 74.5701 53.1405C71.9315 56.6794 71.1785 58.918 70.5475 61.3154C69.9713 63.5061 69.5168 65.8037 67.8989 69.4116C67.2396 70.8776 66.5648 72.2513 65.7753 73.7792C63.663 77.8597 61.2569 81.9366 59.3027 85.4154C58.1246 87.5243 57.0671 89.1916 56.246 90.5998C54.7385 93.1977 52.6334 96.3826 49.9549 99.3464C47.9613 101.562 45.6011 103.723 42.9361 105.576C40.9838 106.937 38.9012 108.323 36.6223 109.617C31.8532 112.346 26.1793 114.562 20.5405 114.937C20.2136 114.959 19.8767 114.976 19.5327 114.987C14.7075 115.101 8.30185 114.504 3.67798 110.677C-0.150105 107.794 0.0944152 102.404 1.3125 100.481C2.84624 97.4278 4.19119 96.3357 5.53232 94.814C6.37142 93.9273 7.50144 92.7636 8.92889 91.4461C11.1062 89.4241 14.5498 87.3352 17.7192 86.2477C19.4013 85.6552 19.2413 86.2392 17.8542 87.2774C15.9175 88.7549 14.1401 89.6837 13.4179 90.8509C12.1142 93.1213 11.4914 94.0632 8.87783 95.6032C8.29951 95.9608 7.90087 96.3113 7.56349 96.705C6.31885 98.1792 6.41548 99.5389 5.74322 100.453C5.72492 101.312 1.70163 102.423 6.34899 107.197C6.3676 107.209 6.38639 107.22 6.40536 107.232C11.768 109.982 16.8401 108.966 19.7618 108.605C20.5532 108.47 21.279 108.319 21.95 108.158C24.5072 107.594 29.5098 106.585 33.7034 104.275C34.6666 103.76 35.6186 103.173 36.4558 102.569C38.8358 100.892 42.3298 98.142 45.1576 94.9584C47.7033 92.1469 49.6039 89.2451 50.534 87.3341C51.8423 84.6026 52.5577 83.8423 53.606 82.6613C54.1192 82.0621 54.6963 81.3739 55.4037 80.3147ZM54.1382 6.96716C56.5951 6.6607 58.332 5.0922 60.6779 3.98519C61.6258 3.53844 62.6675 3.17114 63.8773 3.00857C68.1139 2.46611 68.9296 3.57186 73.6239 2.5037C77.6579 1.60743 81.8356 1.69924 84.2001 1.3177C84.583 1.25384 84.9835 1.16842 85.287 1.0644C87.4464 0.353017 87.6701 1.87595 90.7482 1.32455C93.6477 0.806851 95.6646 0.938485 98.3084 1.44711C99.6283 2.61464 105.352 -0.132475 106.991 5.70335C106.769 5.90608 106.553 6.14039 106.343 6.41022C106.137 6.67579 105.949 6.96544 105.824 7.23454C105.776 7.33885 105.721 7.44046 105.658 7.54133C105.397 7.96267 105.015 8.36773 104.534 8.79939C104.043 9.24115 103.448 9.71083 102.798 10.2328C102.051 10.8316 101.235 11.4945 100.435 12.2363C100.177 12.4754 99.9289 12.7138 99.6824 12.9635C98.913 13.7413 98.1397 14.4922 97.4458 15.1492C97.1413 15.4402 96.9381 15.5289 96.8621 15.4656C96.862 15.4655 96.862 15.4655 96.8619 15.4655C96.764 15.3908 96.8773 15.0637 97.1919 14.6622C98.024 13.5996 98.8427 12.5128 99.5576 11.4783C100.154 10.6154 100.685 9.78245 101.136 8.97412C101.167 8.91987 101.194 8.87042 101.223 8.82019C101.77 7.85093 102.147 7.33013 102.521 6.91881C102.952 6.448 103.367 6.14061 103.819 5.73782C104.129 5.46253 104.449 5.14889 104.762 4.75927C104.845 4.6556 104.928 4.54542 105.01 4.42974C105.16 4.22042 105.282 4.03306 105.383 3.86498C105.33 6.61951 100.908 4.98816 96.9191 5.0747C92.0819 4.66962 90.8892 6.73521 84.7288 6.47657C84.333 6.46206 83.9124 6.43913 83.4634 6.40713C76.0804 5.97762 75.6239 8.49609 68.6498 10.1104C66.6869 10.5867 64.5533 11.0007 62.4284 11.3973C56.9884 12.3921 51.4995 13.4003 48.6146 14.5264C46.3547 15.3936 43.6592 16.5627 40.8782 17.8914C38.6628 18.9514 36.4959 20.0505 34.1994 21.3154C30.3503 23.432 26.6111 26.9102 24.2365 30.8023C23.3922 32.1767 22.7302 33.5488 22.1856 34.9673C20.2649 39.2409 21.3493 45.9909 23.3996 50.4148C23.9253 51.6538 24.4519 52.7219 24.8295 53.496C26.9149 57.4518 27.5124 58.3167 30.5881 61.3838C32.4929 63.2418 34.4888 65.4785 36.3773 68.0633C37.3086 69.3376 36.7529 69.4276 35.4633 68.5245C33.5912 67.2057 32.5024 65.8272 31.3575 65.4378C29.1942 64.7722 27.9264 64.0532 26.5935 61.5135C25.3494 59.0434 23.3047 58.6924 22.4414 57.174C21.797 55.9533 22.0989 55.6986 20.0808 52.1861C19.4586 51.0273 18.7662 49.8455 17.8184 47.7493C14.074 39.3411 15.9134 33.2271 17.1723 30.0013C17.4772 29.2379 17.9489 28.3261 18.5821 27.3533C20.6925 23.9622 24.8498 20.4565 28.1571 17.9104C30.4437 16.0625 34.3291 13.7747 38.1381 11.9958C41.3773 10.454 44.5725 9.19572 46.3948 8.33664C50.3613 6.51029 50.6674 7.43932 54.1382 6.96716ZM113.806 67.2665C114.897 64.6669 115.361 62.1376 115.802 59.4944C116.34 56.2899 116.845 52.8962 118.452 49.0127C120.244 44.7096 121.566 42.8241 123.005 40.1264C123.925 38.4236 124.913 36.3373 126.203 33.1877C127.967 28.8931 130.19 24.8465 132.312 21.4688C134.228 18.3982 136.052 15.9381 137.022 14.3106C139.301 10.8634 140.532 11.255 145.144 7.53698C145.96 6.96032 146.736 6.51566 147.475 6.16587C147.497 6.15591 147.547 6.13465 147.577 6.12295C147.611 6.10914 147.646 6.09587 147.682 6.08324C147.717 6.07058 147.753 6.05856 147.79 6.04723C147.826 6.03589 147.862 6.02526 147.899 6.01537C147.936 6.00547 147.973 5.99631 148.009 5.98793C148.04 5.98058 148.096 5.96945 148.119 5.96503C148.119 5.96503 148.119 5.96503 148.119 5.96503C150.938 5.32877 153.791 6.75579 155.331 8.08911C156.672 9.19935 157.756 10.5157 158.762 12.0509C158.984 12.3919 159.238 12.7863 159.518 13.2387C160.406 14.6657 161.487 16.6058 162.479 18.829C163.294 20.6518 164.062 22.6638 164.649 24.7132C165.229 26.8467 165.738 28.9381 165.503 31.1444C165.537 35.0383 160.315 33.6494 159.951 33.055C159.669 32.9178 159.382 32.7556 159.087 32.568C158.231 32.0272 157.443 31.4463 156.645 30.6718C155.92 29.855 155.014 29.1882 154.789 27.3226C155.125 24.6551 157.212 24.8057 158.029 24.6119C159.183 24.5121 160.189 24.6075 161.122 24.7104C162.117 24.8269 163.006 24.9774 163.79 25.0986C163.88 25.1126 163.968 25.1268 164.053 25.1412C165.07 25.3131 165.881 25.5188 166.49 25.711C167.131 25.9165 166.942 26.2604 166.268 26.1914C165.603 26.1262 164.837 26.0767 163.968 26.0621C163.101 26.0485 162.131 26.0685 161.105 26.1705C160.321 26.2505 159.481 26.377 158.703 26.6121C158.607 26.6419 158.502 26.6744 158.411 26.7061C157.356 26.9927 157.195 27.5919 157.432 27.1966C157.441 27.3069 158.015 28.1437 158.561 28.6784C159.107 29.2451 159.73 29.8209 160.611 30.5058C161.681 31.4039 163.506 32.1771 163.178 31.0481C163.191 30.9682 163.204 30.8647 163.209 30.7867C163.292 29.0644 162.661 27.1529 162.031 25.4991C161.324 23.6977 160.487 22.0131 159.54 20.2739C158.681 18.7135 157.73 17.0981 156.557 15.3903C155.931 14.4844 155.244 13.5573 154.439 12.6443C153.95 12.0932 153.478 11.6509 152.982 11.2723C151.237 10.0298 150.248 9.89226 148.881 10.2389C148.881 10.2389 148.881 10.2389 148.881 10.2389C148.884 10.2397 148.923 10.2334 148.934 10.2318C148.952 10.229 148.971 10.2259 148.989 10.2223C149.008 10.2187 149.026 10.2148 149.044 10.2105C149.062 10.2062 149.081 10.2015 149.098 10.1966C149.116 10.1917 149.134 10.1865 149.151 10.1811C149.162 10.1781 149.198 10.1646 149.201 10.1645C145.915 12.3068 144.008 14.4893 138.665 20.8205C137.813 21.8562 137.049 22.9174 136.414 23.8768C131.808 31.1364 131.989 34.5109 129.196 42.6303C128.828 43.7388 128.411 44.9489 127.942 46.2555C126.194 51.1192 124.165 56.46 122.215 61.6507C119.442 69.0303 116.803 76.1122 115.298 80.8686C115.157 81.3149 115.026 81.7393 114.907 82.1404C113.382 87.2566 111.583 93.6669 109.283 100.529C108.118 103.965 106.8 107.65 105.118 111.289C103.063 113.758 104.526 117.85 96.4 120.017C86.9189 114.634 89.0933 107.852 87.524 102.013C87.0776 97.9174 86.9414 93.9223 87.0318 90.0499C87.0752 88.1924 87.1465 86.3478 87.2439 84.3342C87.5199 78.708 88.029 72.552 88.6358 66.9253C89.3167 60.563 90.1105 54.8784 90.707 51.1418C90.7891 50.6289 90.8682 50.1389 90.9444 49.6694C92.103 42.6861 92.4469 40.4684 93.1669 33.043C93.1861 32.8512 93.2065 32.6563 93.2279 32.4585C93.7112 27.9606 94.7877 22.0476 96.2333 17.1225C96.9956 14.5328 97.3193 15.2095 97.0749 17.8974C96.7229 21.8273 96.0317 24.9783 96.2691 27.0704C96.545 29.4585 96.725 31.0579 96.5764 32.9236C96.4687 34.2948 96.1779 35.8393 95.6337 37.949C94.3585 42.9311 95.5281 45.4975 95.0439 48.4098C94.9404 49.042 94.8217 49.5311 94.6899 50.0579C94.2396 51.9757 93.4411 54.4519 93.1227 66.3163C93.116 66.6165 93.1098 66.9132 93.104 67.2063C92.9647 74.3265 93.0056 79.935 93.1151 84.3704C93.2301 88.957 93.4175 92.4384 93.6407 95.205C93.771 96.8037 93.8781 98.9274 94.0756 101.307C94.1871 105.597 96.0754 113.995 97.3458 114.023C96.8345 113.645 96.592 114.044 97.1089 113.296C98.9448 110.432 101.162 104.345 103.126 98.4555C105.445 91.4495 107.6 84.2464 108.617 80.2244C108.735 79.752 108.85 79.3089 108.962 78.8921C110.614 72.7773 111.558 72.6467 113.806 67.2665Z" fill="black"/>
</svg>
