<svg width="85" height="123" viewBox="0 0 85 123" fill="none" xmlns="http://www.w3.org/2000/svg">
<path d="M44.2961 110.238C46.983 108.592 49.1277 106.417 50.993 104.088C53.9602 100.367 56.365 96.2227 59.7998 91.5103C63.7696 85.901 65.5463 83.9737 67.9975 79.7572C68.8901 78.1833 69.8831 76.173 70.8896 73.6003C73.6785 66.5223 76.1351 59.765 77.2238 55.1747C77.5817 53.6872 77.8041 52.4378 77.8759 51.4578C78.1035 47.4782 79.7703 47.3003 80.0321 41.8227C80.1472 37.8591 80.2368 35.1646 80.3899 32.2364C80.4401 31.1777 80.4914 30.1061 80.5212 28.9369C80.7412 25.5565 79.478 17.0157 76.1666 12.4127C75.2103 10.9564 74.2187 9.87879 73.3771 9.17701C70.0985 6.272 65.551 2.87459 61.2685 1.97232C60.0123 1.67218 58.956 1.46497 58.1247 1.29645C57.7724 1.2257 57.6089 1.11881 57.6141 1.01976C57.6141 1.01969 57.6141 1.01963 57.6142 1.01956C57.6193 0.897031 57.8884 0.786814 58.3523 0.804039C60.6118 0.887118 63.7873 1.1621 67.1094 2.08638C73.0032 4.20979 73.2832 5.28716 78.0006 11.002C78.045 11.0639 78.089 11.1257 78.1327 11.1875C82.1125 17.2713 84.1681 21.7897 84.2985 31.0246C84.2954 31.3939 84.293 31.7531 84.2917 32.1033C83.9543 40.4778 86.0334 43.3595 82.1144 56.3484C82.0307 56.6036 81.9439 56.8625 81.854 57.1251C77.4985 68.988 77.5603 72.6512 73.7287 82.5829C72.9247 84.521 71.923 86.6859 70.5603 89.1762C67.0243 95.6259 61.9952 102.694 55.6151 108.737C46.8133 117.522 35.5706 121.426 30.617 121.82C29.688 121.96 28.7316 122.063 27.7499 122.121C19.8414 123.61 7.77913 116.66 4.72209 106.53C4.09537 104.975 3.56564 103.341 3.13268 101.665C1.40427 94.9864 0.673327 87.2993 0.900487 79.6482C1.11073 72.3663 2.18973 64.9635 4.05262 58.2496C4.4824 56.6983 4.96244 55.0777 5.49255 53.4175C8.06977 45.2293 12.029 36.2151 16.2694 29.2324C18.7698 25.0585 21.3035 21.6192 23.2896 19.2377C27.6287 14.1484 29.9313 12.1436 33.2978 9.16485C34.6366 8.02821 36.186 6.76346 38.2953 5.34954C42.5077 2.37837 49.6755 -0.0552199 55.6799 0.647156C58.7042 1.02502 57.9276 1.3826 55.0164 1.62271C50.7887 2.07476 47.3649 2.9387 45.5264 4.21649C41.9567 6.88209 40.718 7.98496 36.0298 10.7307C35.7071 10.9303 35.4024 11.1347 35.1143 11.342C31.3035 14.157 30.5815 16.9093 28.5977 19.0072C26.8125 21.2185 25.5502 20.6511 19.8327 31.1798C19.2323 32.3564 18.5828 33.7095 17.9332 35.1866C14.3585 43.3845 12.5223 49.9083 11.2343 55.0088C10.1778 59.2904 9.55513 62.6343 9.11779 65.3996C8.58678 68.7577 7.59608 74.0763 7.22365 79.9078C6.90352 84.6947 7.02782 89.7976 7.83944 94.1719C8.34542 96.928 9.15116 100.55 10.6399 104.053C13.6659 112.197 21.0668 116.547 27.4611 115.622C28.383 115.55 29.1979 115.424 29.8946 115.278C36.9516 113.237 37.3455 113.957 44.2961 110.238Z" fill="black"/>
</svg>
