<svg width="122" height="127" viewBox="0 0 122 127" fill="none" xmlns="http://www.w3.org/2000/svg">
<path d="M48.2799 116.173C45.3644 118.466 43.5437 121.295 40.1386 123.646C38.8797 124.504 37.388 125.267 35.6502 125.75C31.0982 126.923 29.1004 126.39 26.1443 126.313C26.1443 126.313 26.1443 126.313 26.1443 126.313C24.7418 126.241 23.208 126.232 20.8827 126.084C19.7936 126.006 18.768 125.853 17.7319 125.612C14.6982 124.922 11.8848 123.399 9.88215 121.504C7.68002 119.462 6.51648 117.204 5.69712 115.843C5.26774 115.129 5.05488 114.499 4.94797 113.93C4.6737 112.014 5.15701 110.872 5.0809 107.282C5.08724 106.552 5.14667 105.852 5.24317 105.206C5.77825 102.063 6.92278 99.6589 9.42486 97.5865C9.74089 97.3415 10.054 97.1312 10.4355 96.9126C11.6614 95.8429 15.9774 95.2703 18.1722 97.7107C18.1722 97.7107 18.1722 97.7107 18.1722 97.7107C19.2406 98.6815 20.6779 100.053 20.8584 102.074C20.9576 104.313 19.4046 105.677 18.3191 106.585C17.0701 107.572 15.906 108.224 15.0963 108.756C14.859 108.909 14.6144 109.053 14.3691 109.186C13.0155 109.921 11.51 110.401 10.0406 110.727C8.44494 111.08 6.88186 111.254 5.53065 111.387C4.78447 111.46 4.09114 111.523 3.51053 111.592C2.62661 111.698 1.88504 111.73 1.36216 111.709C1.11398 111.705 0.981632 111.625 0.997036 111.522C0.997026 111.522 0.997015 111.522 0.997005 111.522C0.938494 111.407 1.10731 111.256 1.38056 111.191C2.36141 110.956 3.69152 110.567 5.19432 109.976C5.79965 109.739 6.40639 109.478 7.04906 109.175C7.92252 108.764 8.63376 108.455 9.26404 108.209C10.7218 107.631 11.803 107.409 13.3557 106.816C14.3463 106.418 15.6208 105.867 16.9277 104.747C16.9475 104.729 16.9671 104.712 16.9866 104.694C18.0491 103.773 18.4386 102.746 18.2074 102.28C17.9778 101.626 17.3707 101.039 16.1738 100.18C16.1736 100.18 16.1737 100.18 16.1737 100.18C14.3227 99.1732 13.9947 99.0914 12.0627 100.345C11.8843 100.49 11.7146 100.641 11.5372 100.816C9.9747 102.439 9.5994 104.373 9.52517 106.034C9.48772 107.967 9.726 109.839 10.3335 112.395C10.6264 113.52 11.0157 114.781 11.7798 116.199C12.1355 116.859 12.5768 117.442 13.0223 117.912C14.9724 119.899 17.0704 120.389 18.9324 120.516C20.9523 120.604 22.7757 120.3 25.8099 119.848C25.8099 119.848 25.8099 119.848 25.8099 119.848C26.9428 119.672 28.0844 119.466 29.3859 119.19C31.7268 118.69 34.2433 117.945 36.6763 116.815C40.2457 115.189 43.5392 112.724 46.0452 110.139C48.0455 108.093 49.5742 106.012 50.5309 104.381C51.2818 103.1 52.0384 101.662 52.7765 100.095C54.3614 96.7391 55.8528 92.7793 57.212 88.508C57.7409 86.8503 58.2524 85.1454 58.7501 83.4132C59.3824 81.2145 59.9036 78.8158 60.3262 76.3261C61.0121 72.2904 61.4392 68.042 61.7526 63.911C61.7472 60.8074 61.9059 57.6332 62.3646 54.5465C62.4636 53.8766 62.5725 53.1934 62.6917 52.508C63.3102 48.9064 64.269 44.9483 65.6576 41.2032C67.0905 37.2846 69.0014 33.6579 70.8731 30.8064C72.1102 28.9091 73.3156 27.3294 74.2956 26.1371C75.8277 24.2806 77.0048 23.0166 78.034 21.8826C79.8096 19.9547 81.1695 18.3647 83.749 15.4314C84.2984 14.8105 84.9263 14.1459 85.5923 13.4832C87.8101 11.272 90.5951 8.94982 93.2607 7.1809C95.0251 6.01068 94.9519 6.66106 93.5488 8.21464C91.4993 10.4897 89.5563 12.049 88.8031 13.5358C88.4022 14.3369 88.0614 15.0176 87.7163 15.6267C86.8132 17.2409 85.8466 18.3369 83.5894 20.0981C81.9016 21.4255 81.1246 22.753 80.5217 23.9381C80.0293 24.9167 79.6497 25.8089 78.9813 26.5622C77.869 27.9083 77.0222 27.7678 74.1867 32.6944C73.474 34.0011 72.6629 35.6785 71.8723 37.8757C71.2638 39.5721 70.7919 41.1729 70.414 42.6733C69.3525 46.9411 68.9796 50.3956 68.7463 53.2167C68.5623 55.5859 68.5057 57.4868 68.4889 59.1592C68.4781 60.437 68.396 62.1672 68.3419 64.1731C67.912 68.1572 67.083 73.0277 66.2989 77.4069C66.1145 78.4492 65.936 79.4616 65.7673 80.4546C65.3229 83.0851 64.5186 86.6578 63.3933 90.3969C62.091 94.7822 60.2984 99.3702 58.5748 102.98C57.6741 104.889 56.8081 106.535 56.1587 107.782C53.896 111.984 52.655 112.662 50.7293 114.23C50.0627 114.751 49.2949 115.359 48.2799 116.173ZM99.5439 5.09588C100.877 5.86422 102.269 6.47924 103.617 7.04288C106.774 8.38575 110.329 9.69721 113.3 13.3699C115.938 16.782 116.404 18.7856 117.476 21.3603C118.039 22.8014 118.749 24.4505 119.724 26.8658C121.684 31.6951 121.968 36.9635 121.907 40.6496C121.893 42.1984 121.848 43.4953 121.917 44.4609C122.056 47.7705 120.57 47.8939 119.748 52.3316C119.083 55.3905 118.121 57.5253 116.822 59.5643C116.219 60.5002 115.538 61.4056 114.719 62.3569C112.893 64.75 107.543 70.16 102.81 72.7817C101.316 73.6969 99.9353 74.4402 99.0255 74.9956C95.2045 77.3646 89.9479 77.3325 87.0759 77.3524C86.1632 77.3744 85.4277 77.3224 84.861 77.247C84.32 77.1728 84.4132 76.7964 84.9541 76.7327C86.4389 76.5522 88.4443 76.1595 90.8609 75.2076C95.0924 73.2927 95.9566 74.199 101.293 71.0026C101.411 70.9248 101.527 70.8469 101.641 70.7688C106.429 67.2587 108.583 64.3229 112.671 58.7929C112.924 58.4284 113.152 58.0672 113.355 57.7155C116.09 52.2099 115.294 49.9106 116.941 40.8211C116.947 40.7732 116.953 40.7254 116.959 40.6778C117.599 31.9336 115.041 30.1201 111.668 24.4676C111.142 23.6801 110.563 22.8308 109.89 21.8931C107.425 18.4171 104.149 14.9424 100.39 12.4371C95.814 9.33761 91.0069 7.83446 87.7196 7.43085C86.6997 7.30377 85.5777 7.20616 84.3525 7.15383C79.1074 7.10467 73.3479 7.57383 67.0546 8.89924C66.399 9.03776 65.721 9.19048 65.0502 9.35074C60.4984 10.4273 55.6134 12.6025 51.2423 15.5499C47.5619 18.0135 44.2622 20.9864 41.4311 24.1106C40.5931 25.0313 39.7449 26.0626 38.9423 27.1658C35.6016 31.6355 33.2198 37.6842 32.4859 42.9844C32.0221 46.0109 31.9905 48.758 32.0547 50.7509C32.2748 55.4281 32.7578 57.5317 33.8001 60.5925C34.1915 61.681 34.6992 62.9162 35.3993 64.363C36.9166 67.5698 39.1241 71.9252 40.9981 75.7041C41.9683 77.6316 41.3273 77.5022 39.9261 75.8341C37.93 73.4362 36.8053 71.0322 35.5719 69.8654C33.1193 67.4733 32.0515 66.2691 31.2053 62.0995C31.1667 61.8958 31.1266 61.6991 31.085 61.5088C30.3061 57.7971 28.6734 56.2193 28.4082 53.8208C28.3747 51.5906 28.3684 51.3411 28.488 42.6246C28.5547 41.4573 28.661 40.1669 28.8617 38.685C29.7623 32.2054 31.9472 27.4622 33.982 23.9902C35.9684 20.6551 37.874 18.4093 39.4943 16.6451C41.171 14.8162 44.1823 12.3443 47.7792 10.1952C51.2766 8.07275 55.2707 6.27705 58.8484 4.84374C60.6647 4.10882 62.9673 3.34125 65.5657 2.69699C71.6434 1.10141 79.5351 0.583893 84.6594 0.67555C86.0981 0.72303 87.346 0.808458 88.3559 0.87739C94.8765 1.56668 94.9551 2.70028 99.5439 5.09588Z" fill="black"/>
</svg>
