<svg width="122" height="144" viewBox="0 0 122 144" fill="none" xmlns="http://www.w3.org/2000/svg">
<path d="M71.6798 129.789C74.0688 131.248 76.8717 129.933 79.8747 131.258C79.9487 131.29 80.0229 131.324 80.0968 131.36C83.1605 132.832 83.2582 134.181 86.8926 135.219C86.9342 135.23 86.9762 135.242 87.0185 135.254C89.7813 136.013 92.3576 137.292 94.2319 137.823C94.8938 138.013 95.4379 138.107 95.8967 138.08C97.5797 137.922 97.4687 139.535 99.7954 139.445C100.41 139.406 100.917 139.37 101.41 139.347C102.751 139.272 103.796 139.346 105.279 139.302C105.988 139.281 107.208 139.019 108.53 138.435C110.963 137.393 113.574 135.341 114.501 134.051C114.563 133.965 114.628 133.88 114.696 133.797C116.189 131.957 118.725 130.996 120.079 130.087C120.509 129.801 120.887 129.601 121.199 129.467C121.331 129.41 121.445 129.441 121.512 129.513C121.512 129.513 121.512 129.513 121.512 129.513C121.596 129.604 121.606 129.759 121.488 129.889C120.918 130.517 120.155 131.489 119.366 132.797C118.305 134.533 117.568 134.792 116.325 135.749C115.808 136.143 115.194 136.663 114.411 137.428C112.871 138.916 111.69 140.189 110.059 141.284C108.801 142.111 107.239 142.857 105.082 143.094C103.597 143.244 102.491 143.409 101.446 143.601C99.113 143.989 96.8644 144.587 92.9031 142.647C92.8383 142.615 92.7729 142.582 92.7067 142.548C89.1237 140.65 87.379 140.687 84.9955 140.583C83.591 140.508 82.0372 140.377 79.8937 139.719C78.9699 139.434 78.091 139.121 77.1236 138.747C72.6111 136.996 68.0285 134.421 65.0262 133.209C64.6185 133.043 64.2304 132.898 63.8834 132.785C60.8371 131.793 56.8568 130.661 52.6792 129.469C52.1461 129.317 51.6059 129.162 51.0678 129.008C47.8444 128.074 43.9896 127.809 40.1667 127.661C38.2907 127.584 36.4091 127.523 34.5805 127.372C32.3916 127.19 29.8598 127.089 27.311 127.085C23.4067 127.068 19.5207 127.285 17.261 127.373C15.9364 127.427 14.9852 127.477 14.1452 127.556C12.533 127.716 11.4092 127.954 9.12521 128.633C7.17372 129.218 4.34148 129.696 1.86017 129.657C0.584343 129.644 0.754597 129.153 1.91425 128.657C3.60769 127.936 5.02377 127.822 5.84655 127.078C7.4149 125.612 8.08988 125.034 10.5296 125.182C11.883 125.282 12.8071 124.771 13.5398 124.319C14.0857 123.988 14.5532 123.683 15.1359 123.651C16.5674 123.598 16.5976 124.332 23.4561 122.754C24.6324 122.492 25.8226 122.263 26.8347 122.078C31.7126 121.212 34.7593 121.055 36.9977 120.937C37.8788 120.892 39.133 120.965 40.5111 121.113C43.3376 121.403 46.7843 122.062 49.7364 122.428C50.955 122.573 52.5214 122.858 54.1945 123.245C58.5693 124.228 63.6052 126.021 66.0976 126.593C66.5725 126.701 66.9841 126.816 67.3295 126.929C69.5269 127.657 69.567 128.5 71.6798 129.789ZM47.7961 110.238C50.483 108.592 52.6277 106.417 54.493 104.088C57.4602 100.367 59.865 96.2227 63.2998 91.5103C67.2696 85.901 69.0463 83.9737 71.4975 79.7572C72.3901 78.1833 73.3831 76.173 74.3896 73.6003C77.1785 66.5223 79.6351 59.765 80.7238 55.1747C81.0817 53.6872 81.3041 52.4378 81.3759 51.4578C81.6035 47.4782 83.2703 47.3003 83.5321 41.8227C83.6472 37.8591 83.7368 35.1646 83.8899 32.2364C83.9401 31.1777 83.9914 30.1061 84.0212 28.9369C84.2412 25.5565 82.978 17.0157 79.6666 12.4127C78.7103 10.9564 77.7187 9.87879 76.8771 9.17701C73.5985 6.272 69.051 2.87459 64.7685 1.97232C63.5123 1.67218 62.456 1.46497 61.6247 1.29645C61.2724 1.2257 61.1089 1.11881 61.1141 1.01976C61.1141 1.01969 61.1141 1.01963 61.1142 1.01956C61.1193 0.897031 61.3884 0.786814 61.8523 0.804039C64.1118 0.887118 67.2873 1.1621 70.6094 2.08638C76.5032 4.20979 76.7832 5.28716 81.5006 11.002C81.545 11.0639 81.589 11.1257 81.6327 11.1875C85.6125 17.2713 87.6681 21.7897 87.7985 31.0246C87.7954 31.3939 87.793 31.7531 87.7917 32.1033C87.4543 40.4778 89.5334 43.3595 85.6144 56.3484C85.5307 56.6036 85.4439 56.8625 85.354 57.1251C80.9985 68.988 81.0603 72.6512 77.2287 82.5829C76.4247 84.521 75.423 86.6859 74.0603 89.1762C70.5243 95.6259 65.4952 102.694 59.1151 108.737C50.3133 117.522 39.0706 121.426 34.117 121.82C33.188 121.96 32.2316 122.063 31.2499 122.121C23.3414 123.61 11.2791 116.66 8.22209 106.53C7.59537 104.975 7.06564 103.341 6.63268 101.665C4.90427 94.9864 4.17333 87.2993 4.40049 79.6482C4.61073 72.3663 5.68973 64.9635 7.55262 58.2496C7.9824 56.6983 8.46244 55.0777 8.99255 53.4175C11.5698 45.2293 15.529 36.2151 19.7694 29.2324C22.2698 25.0585 24.8035 21.6192 26.7896 19.2377C31.1287 14.1484 33.4313 12.1436 36.7978 9.16485C38.1366 8.02821 39.686 6.76346 41.7953 5.34954C46.0077 2.37837 53.1755 -0.0552199 59.1799 0.647156C62.2042 1.02502 61.4276 1.3826 58.5164 1.62271C54.2887 2.07476 50.8649 2.9387 49.0264 4.21649C45.4567 6.88209 44.218 7.98496 39.5298 10.7307C39.2071 10.9303 38.9024 11.1347 38.6143 11.342C34.8035 14.157 34.0815 16.9093 32.0977 19.0072C30.3125 21.2185 29.0502 20.6511 23.3327 31.1798C22.7323 32.3564 22.0828 33.7095 21.4332 35.1866C17.8585 43.3845 16.0223 49.9083 14.7343 55.0088C13.6778 59.2904 13.0551 62.6343 12.6178 65.3996C12.0868 68.7577 11.0961 74.0763 10.7236 79.9078C10.4035 84.6947 10.5278 89.7976 11.3394 94.1719C11.8454 96.928 12.6512 100.55 14.1399 104.053C17.1659 112.197 24.5668 116.547 30.9611 115.622C31.883 115.55 32.6979 115.424 33.3946 115.278C40.4516 113.237 40.8455 113.957 47.7961 110.238Z" fill="black"/>
</svg>
