<svg width="135" height="127" viewBox="0 0 135 127" fill="none" xmlns="http://www.w3.org/2000/svg">
<path d="M66.1035 37.7002C65.0717 39.015 66.8942 40.958 65.9926 42.6907C65.362 43.9084 64.5485 44.2219 63.9831 45.104C63.7472 45.4728 63.5659 45.9083 63.4614 46.567C63.1046 48.8042 61.7062 50.7406 61.9495 51.8355C62.1957 52.9227 60.6688 52.6319 60.646 54.1234C60.6416 55.1602 60.4306 55.864 60.0161 56.5953C59.8578 56.8741 59.668 57.1648 59.4521 57.4675C58.6743 58.5242 57.3874 62.201 57.6956 63.6995C57.9931 65.2172 56.6201 66.4956 56.1662 67.4094C56.0257 67.6891 55.87 67.9014 55.7215 68.0584C55.6586 68.1248 55.5531 68.1397 55.4564 68.1192C55.4563 68.1192 55.4562 68.1192 55.4562 68.1192C55.3357 68.094 55.2288 68.0141 55.2343 67.9126C55.2609 67.4202 55.216 66.6707 54.9566 65.7538C54.4729 64.0533 55.4059 64.0827 55.455 61.8989C55.4918 59.7906 54.967 58.2538 56.083 55.9804C56.1339 55.8752 56.1782 55.7728 56.2168 55.6727C57.0361 53.5766 55.205 52.3843 57.2812 49.432C59.1391 46.8157 57.8355 45.6781 57.8174 43.264C57.8193 42.8181 57.8636 42.3328 57.977 41.7972C58.7075 38.2606 61.5019 34.3848 62.2104 32.3436C62.2952 32.0924 62.382 31.832 62.4718 31.5642C63.1344 29.5934 64.0061 27.1239 65.5188 24.7926C66.4199 23.4004 67.1823 21.7409 68.119 20.0797C68.9734 18.56 69.9727 17.0536 71.2294 15.8875C72.9812 14.2372 75.3554 12.3262 77.3797 11.0306C78.3623 10.3921 79.2537 9.8802 79.9147 9.54404C81.9432 8.53488 82.4218 8.3241 83.9831 6.86903C84.8873 6.03658 86.3872 5.25343 87.8989 5.05813C88.6675 4.95549 88.7525 5.41401 88.2626 5.96046C87.5572 6.75462 86.7361 7.04209 86.5996 7.78435C86.3277 9.2715 86.2206 9.84449 84.7969 10.0773C83.37 10.3229 83.7524 11.8538 83.0784 12.1725C82.4794 12.4784 81.9418 11.9362 80.1213 14.0111C79.9154 14.2521 79.6953 14.5293 79.4618 14.8491C77.2414 17.9421 76.2252 19.6668 75.506 20.8798C75.1237 21.5447 74.3035 22.4102 73.4872 23.4525C72.7799 24.355 72.1038 25.341 71.6964 26.3496C70.8978 28.2468 69.0655 31.8175 68.4968 33.9994C68.4224 34.2731 68.3656 34.5255 68.3306 34.7482C68.028 36.729 67.1551 36.361 66.1035 37.7002ZM14.4964 125.191C13.8569 125.087 13.2701 125.055 12.6949 125.065C11.0194 125.07 7.95092 125.774 5.09629 123.173C4.50952 122.603 4.00139 121.886 3.65701 121.072C2.52119 117.966 3.26844 116.559 3.60788 115.142C3.9765 113.958 4.35117 112.764 4.7511 110.83C4.87352 110.248 5.02688 109.692 5.20364 109.146C5.86625 107.107 6.79498 105.357 7.43146 103.935C7.86757 102.969 8.16312 102.169 8.19126 101.553C8.21389 100.325 9.0656 100.143 9.41078 99.5254C9.53673 99.1762 9.35324 99.8429 10.2651 100.269C10.4667 100.429 8.88493 100.956 7.90873 101.368C7.90873 101.368 7.90873 101.368 7.90873 101.368C7.21309 101.64 6.61445 101.822 5.88782 102.096C5.61386 102.185 5.17356 102.409 4.79341 102.646C4.04849 103.115 3.18269 103.918 3.01502 104.82C2.81798 105.642 3.33486 106.644 4.05317 107.33C4.72687 107.993 5.49859 108.43 6.07727 108.626C6.38385 108.728 6.68669 108.855 6.97928 108.997C8.02628 109.504 9.02256 110.242 9.94128 110.914C10.6197 111.411 11.2526 111.872 11.7898 112.165C12.2608 112.419 12.5791 112.639 12.8651 112.849C13.1343 113.045 12.9291 113.372 12.639 113.309C11.8573 113.134 10.6408 112.904 9.16591 112.723C9.11125 112.716 9.05311 112.708 8.99978 112.702C7.27428 112.478 6.58505 111.979 5.60986 111.306C4.93474 110.811 4.10568 110.294 2.72687 109.248C2.59905 109.147 2.46657 109.038 2.34248 108.931C1.17632 107.945 0.0157834 106.443 0.078622 104.461C0.16878 102.497 1.21224 101.044 2.44586 99.9628C3.16675 99.3406 4.01891 98.8115 4.94792 98.3924C5.33141 98.2218 5.69176 98.0502 6.03688 97.8736C6.03688 97.8736 6.03688 97.8736 6.03688 97.8736C7.73672 98.2689 9.79368 91.6551 14.2113 99.736C14.1579 101.935 13.4864 103.299 12.2861 105.214C12.1712 105.388 12.0613 105.559 11.9565 105.727C10.6062 107.873 10.2527 109.347 10.1847 110.781C10.1358 112.288 10.3073 113.839 10.434 115.629C10.4616 115.926 10.4937 116.222 10.5342 116.5C10.6513 117.291 10.8161 117.615 10.9407 117.831C11.1681 118.152 11.6374 118.687 13.3809 119.062C15.9898 119.599 18.0079 119.254 19.6159 118.585C20.6428 118.135 21.7691 117.51 22.9487 116.736C25.1198 115.319 27.4794 113.373 29.9002 111.281C30.5179 110.749 31.1422 110.14 31.7365 109.504C34.2688 106.805 36.5467 103.338 38.8735 100.138C39.3591 99.4718 39.854 98.8084 40.3514 98.1743C42.1126 95.9354 44.1063 93.0955 45.8179 90.368C47.4987 87.7081 48.9167 85.1552 49.8188 83.5353C50.7442 81.8726 51.2791 80.8163 51.7044 79.7409C52.1175 78.6813 52.4273 77.6051 52.7835 75.8508C53.1979 73.82 54.0128 71.1269 55.0041 68.84C55.4955 67.6999 55.8955 68.015 55.9041 69.2773C55.9018 71.1392 55.3644 72.5626 55.6753 73.5997C56.2737 75.7077 56.4606 76.6353 55.1374 78.752C54.6911 79.4534 54.4955 80.1018 54.4197 80.6772C54.2661 81.8219 54.5381 82.8163 54.1058 83.6417C53.3962 84.8844 52.8029 84.6044 50.3844 91.311C50.2388 91.6969 50.0939 92.0722 49.9499 92.4371C47.5755 98.3794 45.6688 101.529 44.3838 103.753C44.3728 103.771 44.3616 103.79 44.3502 103.809C42.956 106.191 39.0801 110.27 36.209 113.665C36.1932 113.684 36.1775 113.703 36.1619 113.722C34.1897 116.157 30.1167 119.914 26.3166 122.274C24.7033 123.307 23.1636 124.112 22.07 124.686C18.3723 126.446 17.7735 125.542 14.4964 125.191ZM67.1304 70.6039C66.5455 70.0719 66.0851 72.423 65.3721 72.0907C64.8697 71.8565 64.6683 71.168 64.3074 70.88C64.1562 70.7593 63.977 70.709 63.7359 70.7918C62.9195 71.0724 62.1026 70.2194 61.7391 70.7318C61.3755 71.2443 61.3372 69.6948 60.8209 70.0389C60.4476 70.2878 60.1807 70.2509 59.8907 70.0209C59.7797 69.9329 59.6654 69.8165 59.5404 69.6771C59.0889 69.1734 57.7018 68.7434 57.1975 69.3622C56.6931 69.9809 56.1178 68.9073 55.7719 68.6527C55.6641 68.5734 55.5793 68.4648 55.5143 68.3519C55.4867 68.304 55.474 68.2039 55.474 68.105C55.474 68.1049 55.474 68.1049 55.474 68.1048C55.474 67.9817 55.4937 67.8606 55.5291 67.8451C55.701 67.7696 55.9578 67.5703 56.2611 67.1239C56.8268 66.2914 56.8886 67.2113 57.6525 66.7835C58.4163 66.3558 58.8753 65.5005 59.774 66.0536C59.8142 66.0783 59.8531 66.0973 59.8907 66.1112C60.6934 66.4066 60.936 64.3511 62.1479 65.6039C63.2234 66.7156 63.4831 65.1455 64.3074 64.4456C64.4555 64.3199 64.6218 64.2222 64.8143 64.1732C66.0786 63.8514 67.6744 65.1868 68.4365 65.076C68.5287 65.0626 68.6247 65.0467 68.7242 65.0297C69.4471 64.9059 70.3529 64.722 71.3026 65.0028C71.8653 65.1691 72.4966 65.0302 73.1409 64.9393C73.7338 64.8556 74.3378 64.8127 74.9093 65.0858C75.7109 65.4688 76.7355 65.9196 77.5576 66.3205C77.9586 66.516 78.3115 66.6996 78.5668 66.8578C79.3457 67.3401 79.5356 67.4489 80.2853 67.1542C80.7163 66.9847 81.31 67.1444 81.8114 67.7674C82.0638 68.081 82.0066 68.5175 81.7526 68.7264C81.3811 69.0319 81.0762 68.8278 80.8848 69.3734C80.5024 70.4638 80.3398 70.8821 79.857 70.2474C79.3742 69.6129 79.1467 71.055 78.8653 70.889C78.613 70.7401 78.5906 70.0411 77.5576 70.3701C77.4383 70.4081 77.3056 70.4598 77.1574 70.5277C75.7263 71.1831 74.9418 71.3503 74.3999 71.5077C74.1078 71.5925 73.6444 71.4171 73.1409 71.2791C72.7103 71.1611 72.2503 71.0704 71.8432 71.1932C71.0598 71.4296 69.5586 71.2641 68.7242 71.5282C68.6179 71.5618 68.5224 71.6024 68.4406 71.6517C67.7168 72.0879 67.7153 71.1358 67.1304 70.6039ZM95.3436 3.15426C99.5788 5.41372 104.504 6.10783 108.296 11.1109C108.413 11.2711 108.528 11.4323 108.632 11.5837C111.643 16.3503 111.211 17.7855 113.947 23.6404C114.377 24.6483 114.741 25.6812 115.045 26.7152C116.655 32.0692 116.417 37.2446 116.779 39.7436C116.985 41.1103 116.736 41.9217 116.416 42.7614C116.005 43.8034 115.53 44.8589 115.212 47.1781C114.542 51.3798 113.228 53.8499 110.813 56.6889C110.604 56.9269 110.361 57.2073 110.084 57.5192C107.716 60.6413 101.466 65.0517 97.2847 66.6372C96.6005 66.9482 96.0216 67.2104 95.5312 67.452C91.8119 69.3194 86.9704 68.7767 84.3397 68.6032C83.4982 68.5594 82.8201 68.4608 82.2983 68.351C82.077 68.3043 81.9742 68.2038 81.9745 68.105C81.9745 68.1049 81.9745 68.1049 81.9745 68.1048C81.9744 67.9816 82.1329 67.861 82.4135 67.8434C83.8191 67.7533 85.6383 67.5045 87.967 66.7784C91.6199 65.4826 92.4924 66.0424 96.4683 64.4937C96.9193 64.3017 97.3975 64.0754 97.9011 63.8042C102.094 61.4238 104.176 58.9899 107.125 55.3728C107.622 54.7319 108.13 54.0469 108.661 53.2713C111.275 49.13 110.624 46.6706 111.106 42.2603C111.221 40.774 111.398 39.0135 111.571 36.7159C111.832 32.697 111.05 30.2257 110.095 28.19C108.749 25.5178 107.162 23.3922 104.407 19.2363C103.788 18.3346 103.113 17.3995 102.414 16.5079C99.5479 12.8769 96.3775 9.92829 92.4264 8.33271C89.368 7.17158 86.7716 6.98881 84.6624 7.05742C81.9927 7.1752 78.861 7.66424 75.4709 8.49445C71.9532 9.35226 68.1629 10.5732 64.3328 12.0113C62.4219 12.7272 60.429 13.6498 58.4552 14.7118C53.2717 17.4901 48.1527 21.2871 43.6385 25.1227C43.1005 25.5782 42.5698 26.0338 42.041 26.4938C38.4155 29.6054 34.4804 34.0488 32.058 38.7025C29.9792 42.5616 29.0111 46.4791 28.6766 49.0785C28.2641 52.2957 28.4133 54.2436 28.7556 56.2045C29.0675 57.7954 29.5133 59.339 30.5748 61.6514C31.8859 64.5597 34.0578 68.5515 35.9407 71.8931C36.9496 73.6421 36.32 73.5839 34.8997 72.1168C32.9125 70.0511 31.7657 67.7891 30.5888 66.7873C28.1828 64.5839 27.1442 63.4892 26.543 59.4712C26.4148 58.4396 26.2224 57.5271 26.0129 56.7623C25.4397 54.6454 24.5499 53.1368 24.6164 51.399C25.1506 49.053 24.4154 48.8721 27.731 37.5171C27.8111 37.2971 27.8941 37.0767 27.9757 36.8648C31.7778 27.6608 36.3726 23.3862 39.2577 20.3611C39.716 19.9101 40.1532 19.4927 40.5713 19.1017C43.3849 16.3802 49.8132 12.3584 55.6372 9.33754C56.4349 8.91224 57.2168 8.49918 57.9703 8.09833C61.6894 6.08657 68.0059 3.5584 74.0117 2.16422C78.1054 1.17194 81.9562 0.710706 84.4665 0.484582C90.1778 0.121111 90.9042 1.14052 94.2903 2.62379C94.6118 2.78329 94.9604 2.9577 95.3436 3.15426ZM107.431 118.366C108.69 119.977 110.012 118.757 110.974 118.648C111.232 118.614 111.478 118.594 111.715 118.605C113.111 118.637 113.919 119.503 115.721 118.399C115.891 118.286 116.069 118.15 116.254 117.987C117.602 116.798 119.138 115.67 120.18 114.598C120.714 114.049 121.097 113.544 121.24 113.079C121.63 111.724 122.977 112.531 123.79 110.723C123.936 110.39 124.079 110.088 124.225 109.809C124.868 108.573 125.577 107.792 126.624 106.771C127.043 106.361 127.64 105.601 128.242 104.689C129.498 102.801 130.743 100.223 130.877 98.8549C130.881 98.8147 130.886 98.7747 130.891 98.7351C131.148 96.7928 132.908 95.1616 133.592 94.0161C133.802 93.6763 134.021 93.386 134.212 93.1808C134.387 93.0039 134.733 93.1399 134.673 93.398C134.521 94.0612 134.351 95.0988 134.337 96.3517C134.305 98.0853 133.773 98.4944 133.185 99.7302C132.966 100.187 132.742 100.741 132.509 101.527C131.988 103.284 131.753 104.703 131.165 106.204C130.778 107.192 130.232 108.221 129.322 109.356C128.504 110.375 128.162 111.25 127.872 112.148C127.344 113.725 127.036 115.469 124.208 117.552C124.089 117.637 123.974 117.721 123.863 117.804C121.015 119.833 120.622 121.327 118.935 123.354C118.165 124.199 117.211 125.114 115.302 125.864C113.888 126.411 112.278 126.651 110.974 126.587C103.648 125.615 101.92 120.287 100.179 118.569C100.108 118.477 100.038 118.389 99.9699 118.304C98.0676 115.961 95.8759 112.846 94.2142 109.157C94.0942 108.89 93.9764 108.62 93.8614 108.346C92.6862 105.556 90.9261 102.521 89.5588 99.3636C88.9683 98.0019 88.4532 96.628 88.083 95.2431C87.5817 93.3667 87.0139 91.1787 86.4922 89.0317C85.7432 85.9532 85.0847 82.9411 84.7834 81.1705C84.5744 79.9997 84.4557 79.2396 84.2904 78.5049C84.0248 77.3011 83.6915 76.3697 82.9615 74.6862C82.2856 73.1199 81.7647 70.8969 81.8093 68.831C81.8076 67.6969 82.3311 67.9428 82.7859 68.7533C83.4828 70.0395 83.6443 71.2588 84.3798 71.7912C85.8691 72.9106 86.4515 73.3703 86.4142 75.3245C86.4118 76.4267 86.8641 76.9673 87.3411 77.4939C87.7516 77.9497 88.1344 78.2557 88.2243 78.7634C88.4295 79.8608 87.5769 80.1153 90.0553 85.1144C90.4439 85.8868 90.8158 86.6364 91.1496 87.3033C92.9542 90.9134 93.9925 93.0941 94.7789 94.6631C95.0485 95.1985 95.3231 95.9347 95.6208 96.7816C96.3519 98.8715 97.239 101.629 98.4614 103.697C98.8677 104.387 99.3504 105.279 99.8632 106.218C101.503 109.294 103.743 113.007 105.214 114.338C105.291 114.41 105.362 114.479 105.43 114.545C107.062 116.08 106.398 116.692 107.431 118.366Z" fill="black"/>
</svg>
