<svg width="104" height="180" viewBox="0 0 104 180" fill="none" xmlns="http://www.w3.org/2000/svg">
<path d="M63.691 78.1955C63.5582 78.754 63.4343 79.3099 63.3193 79.8577C61.6488 87.7946 61.7202 94.8688 60.1838 103.858C59.8574 105.756 59.4661 107.699 58.9556 109.801C56.9091 118.14 55.4314 121.62 53.6715 127.225C52.7364 130.149 51.7577 133.548 50.3184 138.457C49.0917 142.591 47.5924 146.774 45.7844 150.484C45.7844 150.484 45.7844 150.484 45.7844 150.484C43.8616 154.485 41.0445 158.268 38.0951 160.87C34.1307 164.459 29.8241 166.193 26.9634 167.081C26.8189 167.127 26.6765 167.17 26.5364 167.211C20.9218 168.489 18.9795 167.504 13.4829 165.554C12.2811 165.047 10.9129 164.403 9.36755 163.45C6.66683 161.773 4.67973 159.669 3.26144 157.458C0.768635 153.521 -0.0640514 149.27 0.255887 144.876C0.348186 143.663 0.517462 142.55 0.790539 141.289C1.22951 139.228 2.16644 136.064 3.75088 132.834C5.48415 130.618 6.27231 124.151 12.5227 126.076C15.6137 129.356 15.9604 133.14 16.8827 136.542C17.7892 140.728 18.3545 144.523 18.8408 147.291C18.9206 147.753 18.9978 148.191 19.071 148.586C19.6377 151.66 19.9574 154.915 20.1278 158.109C20.3339 161.967 20.321 165.677 20.282 168.991C20.2554 170.989 20.2189 172.829 20.2169 174.45C20.2138 176.452 20.1479 177.865 20.0674 179.128C19.9874 180.334 19.6085 179.924 19.5536 178.864C19.4289 176.412 19.1755 173.055 18.7015 169.071C18.57 167.951 18.4268 166.876 18.2596 165.668C17.8236 162.585 17.5688 160.335 17.3943 158.325C17.097 155.016 17.0451 152.304 16.4754 147.58C16.2404 145.694 15.9181 143.475 15.3775 140.791C15.1151 139.498 14.8292 138.234 14.5248 137.05C13.6053 133.528 12.3533 129.704 10.7278 128.392C11.0239 127.433 8.11045 130.865 6.89444 134.249C5.49818 137.515 4.39556 140.785 4.10371 144.973C4.08863 145.225 4.07753 145.478 4.07053 145.73C3.97161 149.792 5.18396 152.888 6.81541 155.199C8.91509 158.092 11.6226 159.96 15.1759 161.19C17.89 162.078 21.2074 162.616 25.3332 161.852C27.3159 161.471 29.4747 160.757 31.7267 159.496C32.8726 158.856 33.9301 158.102 34.8382 157.338C38.2147 154.437 40.0175 151.408 41.3777 148.393C41.3777 148.393 41.3777 148.393 41.3777 148.393C44.4282 141.003 45.0742 135.679 47.3342 125.578C47.8114 123.347 48.3833 120.73 49.01 117.899C50.1143 112.92 51.2869 107.614 52.4592 102.256C54.1963 94.3168 55.937 86.2587 57.5196 78.7781C59.4848 69.4773 61.2006 61.1463 62.2765 55.172C62.3526 54.7481 62.4253 54.3375 62.4942 53.9405C63.6353 47.3955 64.9331 39.7096 66.5458 31.4103C68.1732 23.8902 69.263 16.0467 73.0223 7.36603C73.8156 5.90466 74.9644 3.93438 76.9223 2.4427C77.2654 2.18665 77.6131 1.96217 78.0025 1.75464C81.0343 -0.108947 85.0751 1.53308 86.6878 3.09434C88.5505 4.65277 89.8168 6.34422 91.0202 8.0644C92.176 9.74673 93.1956 11.462 94.1749 13.2009C95.1317 14.903 96.0418 16.6278 96.94 18.3409C97.8283 20.0244 98.681 21.7017 99.6755 23.4052C101.434 27.2142 102.805 31.6856 103.297 35.9378C103.825 40.2745 103.56 44.7904 102.351 49.0325C101.146 53.3185 98.9736 57.2849 96.1601 60.5164C96.1256 60.5563 96.0909 60.5961 96.0561 60.6358C93.328 63.7684 89.762 66.5297 85.7753 68.559C82.0283 70.4813 77.9135 71.7953 73.7525 72.5626C69.6127 73.3328 65.327 73.5735 61.3486 73.4453C61.3486 73.4453 61.3486 73.4453 61.3486 73.4453C55.8387 73.3374 50.1529 72.1293 45.7475 69.7989C40.144 66.9538 36.5906 62.3764 34.9312 58.6758C34.8613 58.5254 34.7934 58.3753 34.7279 58.2264C32.0039 51.5724 32.3752 46.9215 32.8038 42.6626C33.4305 38.3258 34.4236 33.9966 37.6841 27.898C37.6894 27.8883 37.6948 27.8785 37.7002 27.8687C39.8672 23.8901 43.3707 19.5183 47.7312 16.0413C51.0483 13.3634 54.8301 11.1959 58.5047 9.72365C62.8484 8.12733 61.9587 8.90725 57.9833 11.0539C54.2534 13.1746 51.1537 15.3692 48.9018 17.4243C47.6764 18.5409 46.6752 19.6389 45.9892 20.6196C43.5438 24.1821 42.343 26.5826 40.6146 29.5927C39.655 31.3286 38.5309 33.3147 37.3278 36.0744C36.2073 38.6769 35.777 41.0015 35.6653 42.9961C35.4897 46.8575 36.3124 49.4868 36.883 52.3848C37.2354 53.9813 37.429 55.0073 38.0397 56.639C38.9809 58.6015 40.2411 62.6022 47.4563 66.2881C49.9216 67.4478 53.0365 68.3619 56.9161 68.6876C58.4483 68.8154 59.8319 68.8458 61.3621 68.8113C61.3621 68.8113 61.3621 68.8113 61.3621 68.8113C65.6676 68.7233 69.2504 68.2516 72.6795 67.4582C76.7275 66.5103 80.1757 65.1193 83.0283 63.4949C86.6504 61.4342 89.3156 59.0072 91.2383 56.6166C93.2231 54.1445 94.4554 51.7084 95.2662 49.4539C95.5044 48.7888 95.7402 48.0621 95.959 47.2643C96.74 44.4595 97.2343 40.7787 96.8196 36.6907C96.4631 33.2061 95.6055 29.8421 94.0793 26.2337C93.2118 24.6266 92.3331 22.8529 91.4755 21.1516C90.6137 19.4406 89.7519 17.7583 88.8609 16.1498C87.946 14.4989 87.0029 12.9238 86.0071 11.5056C85.5638 10.8749 85.1037 10.2685 84.6395 9.72037C84.0701 9.04788 83.4344 8.38076 82.7997 7.88241C81.6403 7.02528 81.3149 7.07346 80.9959 7.26708C80.4012 7.60715 79.5701 8.57824 78.6914 10.2981C76.1233 16.2248 74.4727 25.1498 72.914 32.6894C71.1648 41.6091 69.7484 49.8631 68.9768 55.0457C68.9103 55.4958 68.8447 55.9316 68.7801 56.3538C66.9969 68.0196 66.0515 68.2266 63.691 78.1955Z" fill="black"/>
</svg>
