<svg width="91" height="177" viewBox="0 0 91 177" fill="none" xmlns="http://www.w3.org/2000/svg">
<path d="M37.8463 54.3375C32.7324 62.9645 31.3742 71.1225 26.8882 82.0569C26.7133 82.4879 26.5334 82.9252 26.3506 83.362C21.6048 95.0708 19.7453 96.4822 15.7796 110.497C15.6064 111.134 15.4333 111.77 15.2608 112.402C11.7612 125.054 8.55573 137.453 7.95806 143.983C7.91945 144.363 7.88878 144.721 7.86603 145.056C7.59225 151.381 5.6938 152.047 5.9274 161.028C6.38985 166.974 7.03805 171.267 9.77041 172.072C12.174 172.362 14.5639 172.584 17.2855 172.677C17.3161 172.678 17.347 172.679 17.3781 172.68C19.2121 172.735 21.883 172.683 25.0166 172.28C27.3387 171.984 29.916 171.488 32.5131 170.738C34.9248 170.043 37.3631 169.127 39.6429 167.988C41.9983 166.81 44.1706 165.406 45.9348 163.808C48.0093 161.95 49.491 159.707 49.5152 157.944C49.5509 156.898 49.5389 155.978 49.4848 155.185C49.4247 154.3 49.3445 153.419 49.2221 152.548C48.9798 150.826 48.5693 149.142 47.8035 147.743C47.0384 146.32 45.8633 145.242 44.4003 144.628C42.8344 143.958 41.0288 143.779 39.3373 143.821C37.3058 143.881 35.5003 144.209 33.9146 144.604C33.8253 144.627 33.7364 144.649 33.6479 144.673C31.8012 145.161 30.3362 145.622 29.2342 145.949C28.145 146.287 28.221 145.848 29.2921 145.378C30.4476 144.877 31.9245 144.258 33.6305 143.657C35.2704 143.088 37.0503 142.527 39.1863 142.177C40.1291 142.025 41.1452 141.922 42.2117 141.934C43.2855 141.945 44.3028 142.095 45.2151 142.371C47.6513 143.096 49.2763 144.72 50.2008 146.361C51.2251 148.188 51.638 150.068 51.843 152.271C51.9897 153.944 51.9778 155.844 51.833 158.11C51.7214 159.984 50.6888 161.926 49.3367 163.6C48.7549 164.322 48.1469 164.967 47.513 165.574C45.3672 167.608 43.1317 169.106 40.8669 170.393C38.4574 171.749 36.0115 172.828 33.4314 173.719C30.9757 174.564 28.3731 175.238 25.562 175.708C23.0796 176.121 20.4062 176.379 17.4984 176.414C16.0771 176.432 14.5971 176.395 13.0545 176.294C11.7533 176.209 10.5844 176.111 9.44258 176.005C-2.7469 166.092 1.47299 158.597 2.66856 143.174C3.02186 141.297 3.45825 139.268 4.01988 136.965C7.23526 124.302 8.56014 118.102 9.94817 110.882C11.0635 105.401 12.2852 99.4213 15.4487 89.9999C16.6453 86.4618 17.9902 82.816 19.4577 79.139C23.6095 68.7093 28.7654 58.119 33.9553 49.2286C38.1724 41.949 42.5317 35.7045 45.7493 31.5294C48.1283 28.4317 50.7989 25.2565 54.1601 22.1991C60.0001 14.3715 79.5509 9.98551 87.3711 22.2417C87.4081 22.282 87.4861 22.3733 87.5245 22.4219C87.5713 22.4801 87.6145 22.537 87.6558 22.594C87.6971 22.6511 87.7364 22.7083 87.7747 22.767C87.813 22.8257 87.8503 22.8859 87.8872 22.9491C87.9241 23.0123 87.9607 23.0785 87.9975 23.1502C88.0281 23.2086 88.0857 23.3299 88.1089 23.3853C88.9827 25.4326 89.6984 27.7638 89.9833 30.3428C90.2838 33.0367 90.0807 35.8759 89.2815 38.606C87.87 43.5142 84.6606 47.7349 80.9453 51.0266C77.358 54.2093 73.2496 56.7097 68.9632 58.7611C64.7377 60.7748 60.3218 62.3453 55.8502 63.5566C51.3374 64.7766 46.7574 65.6264 42.246 66.1236C40.8918 66.2727 39.5438 66.39 38.2035 66.4756C35.098 66.6753 31.7789 66.7475 28.4547 66.6421C28.4547 66.6421 28.4547 66.6421 28.4547 66.6421C24.0727 66.57 18.4104 65.4787 14.3862 61.9136C10.3173 58.4254 8.57656 53.2508 8.09354 48.6464C7.56682 43.6944 8.14978 38.9837 8.98714 34.793C10.0267 29.7112 11.5162 25.3071 12.9057 21.7699C13.2721 20.842 13.6498 19.9317 14.001 19.1235C15.7438 15.1275 17.334 12.1479 18.8232 9.60875C21.6937 6.21542 21.9942 0.821729 29.039 0.740799C30.3964 2.01475 32.0476 3.70757 32.6491 6.34266C32.7107 6.62236 32.7586 6.90828 32.792 7.20433C33.0151 9.10989 32.5322 11.1325 31.7657 12.9793C30.9647 14.9109 29.8596 16.7596 28.6274 18.5598C27.4602 20.2593 26.1402 21.951 24.798 23.5496C23.4383 25.1687 22.0463 26.7079 20.6316 28.1971C19.8589 29.0096 19.0898 29.7943 18.3205 30.5593C15.0679 33.7568 15.4607 32.6791 18.2923 29.1329C18.7425 28.5618 19.2406 27.9397 19.6802 27.3871C21.0817 25.6295 22.3566 24.0338 23.4919 22.5261C24.9411 20.6026 26.1105 18.8774 26.8642 17.3897C27.002 17.1173 27.1372 16.8355 27.2468 16.579C28.0289 14.7519 28.57 13.192 28.9356 11.8049C29.3967 10.0146 29.6274 8.46285 29.3403 7.00725C29.1166 5.87911 28.5009 4.60344 26.973 2.93645C26.9296 2.87352 26.9252 2.96603 27.0345 3.04424C25.9628 3.83821 22.5777 8.78292 21.828 11.276C21.1657 12.8356 20.5552 14.3526 19.8001 15.8317C18.6588 18.1341 17.8908 19.114 16.3083 22.9892C15.3398 25.503 13.9388 29.2454 12.8917 35.4775C12.4995 37.9722 12.1841 40.8827 12.2957 44.17C12.343 45.4813 12.4681 46.8284 12.6659 48.0276C13.3586 52.4557 15.2007 55.9129 17.7514 57.8625C21.0428 60.3475 24.6115 60.785 28.4719 60.7692C28.4719 60.7692 28.4719 60.7692 28.4719 60.7692C33.6554 60.6951 37.7764 60.2657 41.4245 59.7458C43.2181 59.4858 44.8637 59.198 46.3843 58.8961C48.5028 58.4752 51.1565 57.9327 54.1167 57.1666C57.8472 56.2004 62.0747 54.8775 66.265 52.9996C70.0578 51.2995 73.8268 49.1301 76.9178 46.4426C79.4804 44.2253 81.5346 41.6316 82.6556 38.9513C82.9251 38.3132 83.1666 37.633 83.3622 36.9095C84.2153 33.7323 84.0964 30.1648 82.2431 25.9531C82.2517 25.9747 82.2934 26.0628 82.3073 26.0885C82.3274 26.1275 82.3463 26.1615 82.3647 26.1931C82.3831 26.2245 82.4011 26.2534 82.4194 26.2814C82.4376 26.3093 82.4561 26.3362 82.4759 26.3635C82.4957 26.3908 82.5167 26.4185 82.5405 26.448C82.5559 26.4679 82.6102 26.5312 82.6225 26.544C75.7524 17.6928 65.1928 20.192 58.463 27.0397C55.2187 29.9991 52.7754 33.0539 50.9843 35.5092C44.5992 44.8459 43.6134 45.6009 39.2212 52.1268C38.7812 52.8129 38.3384 53.5185 37.8463 54.3375Z" fill="black"/>
</svg>
