<svg width="112" height="115" viewBox="0 0 112 115" fill="none" xmlns="http://www.w3.org/2000/svg">
<path d="M72.6086 61.9226C72.6249 61.8928 72.6411 61.863 72.6573 61.8332C76.3177 55.0814 78.0328 48.7115 80.6331 41.3056C81.733 38.162 82.9958 34.8064 84.6045 31.1784C86.5373 26.8173 88.0216 23.7919 89.4056 21.0407C91.9769 16.1673 93.5421 12.4 98.1023 2.96084C97.816 3.62683 100.983 -3.4212 104.595 2.68177C105.573 10.8446 103.615 16.2441 102.685 22.0264C101.224 29.1027 99.8449 34.9915 99.3649 38.6089C99.2964 39.121 99.2226 39.5998 99.1442 40.0507C98.1928 45.5244 96.6358 46.557 95.0807 55.3909C94.9345 56.2234 94.7869 57.0445 94.6461 57.8157C93.3786 64.7571 92.2261 69.7274 90.7151 75.6711C90.4482 76.7227 90.1705 77.806 89.8799 78.9368C89.0982 81.9808 87.8772 87.4004 86.7033 93.5114C85.5737 99.3707 84.5004 105.9 83.8288 111.535C83.8288 111.535 83.8288 111.535 83.8288 111.535C83.8267 111.603 83.8306 111.524 83.831 111.55C83.8321 111.551 83.8329 111.55 83.8347 111.552C83.8365 111.553 83.8396 111.555 83.8435 111.557C83.8474 111.559 83.8518 111.56 83.8547 111.56C83.8578 111.559 83.8592 111.558 83.8611 111.557C83.887 111.551 83.8101 111.567 83.8751 111.551C86.3396 110.7 88.4531 109.82 90.1664 108.965C90.8057 108.646 91.4028 108.324 91.9104 108.028C93.2563 107.244 94.6019 106.423 95.8968 105.536C97.7201 104.29 99.4372 102.905 100.963 101.367C102.569 99.7557 103.956 97.988 105.128 96.203C106.484 94.1407 107.564 92.0665 108.39 90.2521C108.571 89.8549 108.749 89.4464 108.903 89.0797C109.681 87.2224 110.277 85.7339 110.753 84.6068C111.205 83.5186 111.488 83.8655 111.151 85.0264C110.7 86.561 110.138 88.4661 109.396 90.6501C108.723 92.6214 107.898 94.8392 106.785 97.1549C106.631 97.4726 106.474 97.7896 106.311 98.1058C105.208 100.249 104.056 101.858 102.912 103.167C101.158 105.151 99.465 106.473 97.4031 107.797C95.7174 108.865 93.7572 109.925 91.1249 111.115C89.408 111.89 87.3685 112.727 84.9466 113.622C84.8329 113.664 84.7191 113.706 84.6052 113.748C84.4454 113.813 84.0731 113.885 83.8437 113.879C83.5787 113.88 83.313 113.836 83.0639 113.75C82.8133 113.663 82.5793 113.534 82.3726 113.371C82.1646 113.207 81.9835 113.008 81.8396 112.781C81.6948 112.553 81.5886 112.298 81.5294 112.033C81.4685 111.804 81.4602 111.409 81.4872 111.237C81.4872 111.236 81.4872 111.237 81.4872 111.237C82.1177 104.534 82.7046 98.9191 83.5535 92.9674C84.3199 87.6437 85.322 81.9905 86.9431 74.9229C87.0195 74.59 87.0973 74.2541 87.1765 73.915C88.8446 66.7906 89.5635 61.9558 90.3162 56.9C91.0586 51.9179 91.8617 46.6921 93.6947 38.895C94.3078 36.2818 95.0443 33.3437 95.9169 30.0261C96.797 26.6731 97.479 23.798 98.0261 21.1546C99.471 13.9643 100.22 7.8732 99.3182 4.23401C105.886 7.79883 98.3377 14.5789 96.1737 23.7998C96.0913 24.0113 96.0075 24.2256 95.9222 24.4431C93.4107 30.8513 90.6264 37.5416 87.6079 44.3004C84.4974 51.2702 81.217 58.1189 77.9823 64.4136C74.0387 72.1094 70.1483 78.9315 67.1051 84.0024C66.6277 84.8009 66.1814 85.5419 65.7512 86.2546C62.7036 91.269 58.9942 97.0275 54.0919 102.587C49.3533 107.721 42.8036 114.326 33.2486 114.693C33.2486 114.693 33.2486 114.693 33.2486 114.693C29.0149 115.672 21.3238 110.681 21.1098 105.433C20.4764 102.682 20.4692 99.9733 20.6454 97.3476C21.1866 90.555 22.8917 84.1179 24.8792 77.491C26.7909 71.2371 29.052 64.9673 31.451 58.8146C33.8697 52.6188 36.4492 46.5165 39.0466 40.6728C39.3226 40.0518 39.5965 39.4395 39.8711 38.8288C42.0822 33.8986 44.5766 28.3784 46.9224 22.8045C49.3923 17.6625 51.8894 8.45499 52.3688 7.54408C52.3801 7.54633 52.4243 7.55376 52.4365 7.55519C52.4554 7.55781 52.4714 7.55964 52.4857 7.56106C52.4999 7.56248 52.5125 7.56348 52.5243 7.56425C52.536 7.56502 52.5469 7.56555 52.5575 7.56594C52.5683 7.56632 52.5788 7.56655 52.5898 7.56666C52.5967 7.56672 52.6224 7.56682 52.626 7.56651C52.626 7.56651 52.626 7.56651 52.626 7.56651C47.0389 7.431 41.8175 7.79558 37.0717 8.62089C31.1159 9.64173 26.1364 11.4083 22.5516 13.1611C22.4621 13.2044 22.3734 13.2477 22.2855 13.2911C16.1174 16.4045 12.8279 19.4999 10.1489 22.8064C7.5192 26.2787 5.22701 30.1919 4.28129 36.9887C4.27639 37.0287 4.27157 37.0689 4.26681 37.1091C3.71092 41.5273 4.07908 47.0073 5.7451 52.3138C6.99909 56.4084 8.92615 60.3363 11.1091 63.8069C13.7552 67.7172 12.7074 67.2523 9.67976 63.4442C6.90052 59.7638 5.17729 55.9949 4.02467 52.8907C3.39814 51.2161 2.91674 49.7017 2.46912 48.4603C0.892095 43.8982 0.440761 40.6586 0.931367 36.5058C1.2493 34.1819 1.92793 31.5304 3.49326 28.3886C5.03102 25.3477 6.50629 23.0269 7.85723 21.0455C10.4026 17.4036 12.5111 14.8039 15.5715 12.7214C17.3207 11.5724 18.5371 10.9991 20.5544 10.0589C23.1755 8.95106 27.1385 6.84525 36.2982 4.78481C39.3389 4.13251 43.0829 3.53052 47.4264 3.18517C49.2235 3.04273 50.9051 2.95973 52.6224 2.91934C52.6224 2.91934 52.6224 2.91934 52.6224 2.91934C52.6453 2.91902 52.6947 2.91946 52.7216 2.92012C52.7535 2.92082 52.7847 2.92194 52.8162 2.92349C52.8476 2.92504 52.8792 2.92703 52.9119 2.92955C52.9445 2.93208 52.9781 2.93516 53.0137 2.93902C53.0493 2.94289 53.0869 2.94754 53.1279 2.9535C53.161 2.95805 53.2317 2.97002 53.2641 2.97644C60.1362 15.1115 52.6573 18.8166 52.0915 24.8248C49.278 32.3767 46.8619 38.2409 44.9109 43.1293C43.8586 45.7478 42.9429 48.034 42.1049 50.1518C40.9635 53.0392 39.3539 56.8618 37.5733 61.2178C35.3595 66.6429 32.8519 72.9538 30.775 79.3404C29.0685 84.5949 27.5997 90.1035 27.0356 94.9719C26.943 95.7712 26.8412 96.8315 26.7935 97.7562C26.5995 103.032 27.041 108.661 33.1504 108.231C33.1504 108.231 33.1504 108.231 33.1504 108.231C39.3134 108.003 44.7167 103.273 49.2715 98.2467C54.1802 92.7021 57.8672 86.775 60.108 82.8783C60.5735 82.0624 60.9932 81.3199 61.3952 80.6092C66.6005 71.1051 67.6364 70.812 72.6086 61.9226Z" fill="black"/>
</svg>
