<svg width="104" height="126" viewBox="0 0 104 126" fill="none" xmlns="http://www.w3.org/2000/svg">
<path d="M39.4202 111.354C39.7374 112.108 40.1094 112.824 40.532 113.501C44.3949 119.323 48.6956 119.383 54.0934 116.105C55.2134 115.44 56.2487 114.746 57.4996 113.847C62.7851 109.814 65.3005 107.513 68.5955 103.933C70.2497 102.059 72.122 99.6545 74.3937 96.0021C76.214 93.069 77.9986 90.1128 79.6701 87.2343C83.9026 79.9599 87.345 73.2297 88.769 69.2072C88.8423 69.001 88.9103 68.8021 88.9727 68.6108C90.6704 63.1992 92.4164 63.2371 94.7469 55.5043C95.2567 53.7279 95.7569 51.9547 96.1728 50.4439C97.5024 45.5039 98.7199 41.429 99.5654 36.4008C99.7588 35.0612 99.9739 33.2509 99.7577 31.1009C99.7546 31.0775 99.749 31.0305 99.7465 31.0006C99.7434 30.9666 99.7411 30.9322 99.7396 30.8977C99.7381 30.8633 99.7374 30.8288 99.7375 30.7948C99.7376 30.7609 99.7384 30.7275 99.74 30.6949C99.7415 30.6624 99.7437 30.6307 99.7463 30.6003C99.7487 30.5729 99.7528 30.5334 99.7556 30.5125C99.9908 28.8017 99.8309 27.1224 99.2262 25.1892C98.6885 23.4836 97.8175 21.755 96.7724 20.1164C95.7396 18.4951 94.5381 16.9498 93.2901 15.5065C91.9586 13.9671 90.5831 12.5531 89.2672 11.257C87.6942 9.70082 86.1811 8.32728 84.992 7.05562C84.5668 6.57588 84.191 6.18628 83.8459 5.49865C84.8459 0.426298 87.5927 3.33557 88.763 2.88423C90.031 3.10593 91.5565 3.56526 92.8206 4.44986C94.1132 5.30706 95.1475 6.82613 95.3958 8.34038C95.6884 9.93441 95.3928 11.3835 94.9942 12.6315C94.5402 14.0137 93.9232 15.1978 93.3081 16.2526C92.7578 17.1896 92.2016 18.0176 91.6902 18.7559C91.5129 19.0113 91.33 19.2656 91.1621 19.4895C90.3742 20.544 89.6752 21.3275 89.0735 21.9403C88.3825 22.6183 88.2157 22.249 88.826 21.4351C89.3191 20.7638 89.8723 19.9488 90.434 19.0072C91.0123 18.0343 91.6118 16.9101 92.1289 15.6644C92.575 14.5842 92.968 13.4022 93.1632 12.1657C93.2106 11.8617 93.2443 11.5591 93.2621 11.2524C93.3166 10.3183 93.2207 9.52991 93.0154 8.90583C92.6637 7.84674 92.0424 7.22986 91.3007 6.73872C90.4568 6.19959 89.5014 5.84117 88.2588 5.56532C86.2437 5.89203 85.4071 3.41894 86.8042 5.54229C87.7404 6.64219 89.1013 7.92035 90.7065 9.43475C90.7758 9.49994 90.8452 9.56536 90.9149 9.631C92.4575 11.0847 93.8778 12.4495 95.2072 13.8408C96.6558 15.3578 97.984 16.8808 99.1832 18.5334C100.393 20.2097 101.489 22.026 102.287 24.1355C103.019 26.001 103.518 28.6333 103.252 30.8788C103.252 30.8826 103.254 30.8534 103.255 30.8457C103.256 30.8326 103.257 30.8176 103.257 30.8009C103.258 30.7842 103.258 30.766 103.258 30.747C103.258 30.7279 103.257 30.7081 103.256 30.6881C103.255 30.6682 103.253 30.6483 103.251 30.6292C103.25 30.6173 103.244 30.5748 103.244 30.5747C103.691 33.5513 103.407 36.9078 102.726 40.4506C101.799 45.0578 101 48.4113 100.281 51.6429C98.9507 57.3076 97.8647 62.5271 93.705 71.3483C92.9224 72.9878 92.0423 74.7112 91.0049 76.5985C87.925 82.1783 85.7327 86.1595 83.94 89.6433C80.7103 95.7489 78.9412 100.416 73.7658 107.948C72.4906 109.748 71.0867 111.591 69.2418 113.669C66.1837 117.056 62.6359 120.491 57.8524 123.072C51.3205 128.537 37.5861 123.494 35.5307 116.656C31.1773 109.339 30.6774 101.083 30.5861 95.7442C30.5702 94.5487 30.5799 93.4213 30.5986 92.3781C30.6886 87.1975 31.3038 81.4365 32.4015 75.2612C33.5132 68.9844 35.1082 62.3456 36.9977 55.5671C37.7564 52.8422 38.5535 50.1224 39.3906 47.3523C40.4464 43.8583 41.5228 40.1619 42.5527 36.3794C44.2045 30.2123 45.8945 23.6819 46.6124 17.3379C47.083 10.4465 47.0144 6.38791 41.0538 7.40196C41.0538 7.40196 41.0538 7.40196 41.0538 7.40196C41.0633 7.4006 41.1124 7.39262 41.1272 7.38959C41.1497 7.3854 41.1705 7.38112 41.191 7.37662C41.2114 7.37211 41.2314 7.36738 41.2519 7.36221C41.2724 7.35703 41.2934 7.35141 41.3158 7.34499C41.3383 7.33857 41.3622 7.33137 41.3889 7.32278C41.4068 7.31719 41.4654 7.29715 41.4792 7.29168C41.4792 7.29168 41.4792 7.29168 41.4792 7.29168C39.8714 7.83869 38.3986 8.5108 37.0321 9.25453C34.8253 10.4518 32.5586 12.0961 30.3933 14.1426C27.2109 17.1372 24.3383 20.9013 21.9173 24.9319C19.4552 29.023 17.4342 33.3899 15.8237 37.6108C13.9507 42.515 12.626 47.2437 11.74 51.2154C11.326 53.0674 11.0039 54.7653 10.755 56.2658C10.149 59.954 9.91562 62.7894 9.9153 65.2866C9.77285 69.1414 11.1399 76.704 15.2742 69.7675C20.3597 61.4974 18.1939 63.2905 18.617 61.5727C18.5463 61.2203 18.4211 60.9321 18.2704 60.7008C17.8295 60.0306 17.0467 59.5544 15.7796 59.2328C14.6103 58.9423 13.0805 58.8158 11.1272 58.8961C9.32677 58.9507 6.62793 59.3245 4.77503 59.6634C2.95242 59.9888 2.20209 60.1144 1.725 60.1297C1.48916 60.1385 1.33812 60.1209 1.2323 60.0856C0.969253 59.8359 0.718285 59.4531 1.09574 59.1274C1.16501 59.0801 1.28377 59.0233 1.40807 58.9689C1.87585 58.7704 2.73532 58.4978 4.43814 58.0954C6.61927 57.5726 9.37396 57.1389 11.0071 56.9474C11.9718 56.8278 12.7776 56.7416 13.4728 56.6526C14.5985 56.5084 15.5547 56.4664 16.4359 56.5285C18.1924 56.6837 19.8606 57.1521 21.1453 58.964C21.3835 61.8277 25.0106 59.7117 17.9166 71.6439C17.1567 72.588 16.5067 73.3909 15.103 74.396C3.99107 75.2912 8.21356 67.2117 6.47886 65.4016C6.251 63.7486 6.14879 62.2794 6.30139 60.6183C6.63396 57.7329 6.99957 56.6496 8.16314 50.547C8.82178 47.4011 9.72192 42.8531 11.8068 36.2182C12.0618 35.4176 12.34 34.5778 12.6367 33.7204C14.0903 29.5241 15.7295 25.7771 17.4915 22.4473C20.1799 17.3654 23.175 13.244 26.2596 10.0266C30.5224 5.50296 35.5009 2.55315 39.2769 1.17696C39.2768 1.17699 39.2771 1.17691 39.277 1.17694C39.3134 1.16328 39.3974 1.13474 39.4385 1.12187C39.4889 1.1058 39.5365 1.09164 39.5827 1.07866C39.6289 1.06569 39.6736 1.05392 39.7178 1.04297C39.7621 1.03201 39.806 1.02187 39.8503 1.01232C39.8947 1.00277 39.9396 0.993812 39.9862 0.985305C40.0249 0.978025 40.0996 0.965898 40.1328 0.961152C40.1328 0.961152 40.1328 0.961152 40.1328 0.961152C41.167 0.798191 42.1166 0.718091 43.0348 0.721832C51.1768 -0.857114 55.0138 11.955 52.9745 18.0629C52.0395 24.8379 50.0529 31.682 48.4097 37.9893C48.1594 38.9358 47.911 39.88 47.668 40.8162C46.5341 45.207 44.8764 51.0312 43.2187 57.244C41.536 63.5484 39.8801 70.2933 38.7803 76.445C37.5943 82.9339 37.1054 88.7227 37.1736 92.4918C37.1877 93.667 37.2189 94.6933 37.2548 95.6065C37.9071 103.3 37.0023 104.197 39.4202 111.354Z" fill="black"/>
</svg>
