<svg width="139" height="122" viewBox="0 0 139 122" fill="none" xmlns="http://www.w3.org/2000/svg">
<path d="M95.9087 19.3809C95.0155 21.9955 94.3072 24.4307 93.6633 26.934C92.0402 33.2665 91.0098 39.424 89.5748 46.3775C88.7792 50.2409 87.8724 54.307 86.7068 58.8153C86.0503 61.3522 85.4517 63.6439 84.9332 65.5871C82.9981 73.009 81.6451 77.1122 80.3737 84.7609C79.9172 87.6627 79.4872 91.0624 79.3288 95.2893C79.2255 98.2664 79.2298 101.189 79.4701 104.021C79.8827 110.701 82.4346 116.686 87.1476 116.635C87.1476 116.635 87.1476 116.635 87.1476 116.635C93.4145 116.73 97.8838 112.81 100.339 110.228C100.668 109.871 100.936 109.571 101.217 109.26C105.336 104.312 107.379 103.827 112.271 95.2032C112.465 94.8431 112.663 94.4666 112.865 94.0725C115.889 88.1165 117.972 83.3716 120.06 78.6735C121.638 75.0863 123.182 71.5174 124.883 67.3584C125.482 65.8916 126.23 63.9498 127.054 61.6548C128.765 56.8997 130.786 50.605 132.527 44.0339C134.11 37.9348 135.665 31.4896 136.073 26.114C136.119 24.3489 135.74 22.8219 135.25 21.3295C134.639 19.5285 133.874 17.9836 133.177 16.717C133.091 16.5616 133.006 16.4104 132.921 16.2635C132.172 14.9558 131.373 13.628 130.561 12.2875C129.677 10.8228 128.757 9.32334 127.891 7.78891C127.393 5.89224 125.109 5.5314 126.824 1.2841C130.481 0.466153 131.23 2.0699 133.001 2.66416C133.001 2.66416 133.001 2.66416 133.001 2.66416C133.129 2.72443 133.36 2.87732 133.484 2.998C133.628 3.13105 133.751 3.28293 133.851 3.44678C133.951 3.61121 134.028 3.78765 134.079 3.97073C134.131 4.15451 134.157 4.34529 134.157 4.53738C134.156 4.73018 134.128 4.92428 134.072 5.11067C134.027 5.27747 133.909 5.52357 133.828 5.63624C133.251 6.46904 132.686 7.28195 132.137 8.07143C131.553 8.91055 130.986 9.7232 130.443 10.5051C129.852 11.3565 129.288 12.1714 128.758 12.9444C128.363 13.5209 127.988 14.0742 127.634 14.6019C127.451 14.8755 127.272 15.1409 127.097 15.3985C126.481 16.3083 125.92 17.1189 125.413 17.8377C124.978 18.4542 124.582 19.0033 124.224 19.4898C123.847 20.0041 123.606 20.2004 123.522 20.1481C123.522 20.1481 123.522 20.148 123.522 20.148C123.417 20.0826 123.556 19.6318 123.977 18.93C124.248 18.4766 124.536 17.9926 124.84 17.4795C125.304 16.6934 125.805 15.8391 126.336 14.9226C126.805 14.1133 127.298 13.2554 127.812 12.3529C128.281 11.5286 128.768 10.6671 129.269 9.77152C129.737 8.93614 130.217 8.07105 130.708 7.17875C131.173 6.33443 131.647 5.46571 132.13 4.57477C132.147 4.52648 132.108 4.59093 132.111 4.57314C132.108 4.57385 132.105 4.57477 132.102 4.57564C132.099 4.5765 132.096 4.57732 132.093 4.57803C132.087 4.57951 132.081 4.58046 132.076 4.58214C132.07 4.58384 132.065 4.58652 132.061 4.59128C132.057 4.59603 132.056 4.60298 132.056 4.61101C132.037 4.60754 132.106 4.65507 132.064 4.63569C132.064 4.63569 132.064 4.63569 132.064 4.63569C130.439 3.87168 128.009 3.38463 128.356 3.40203C128.746 2.47943 129.483 5.38508 130.295 6.40498C131.108 7.84021 131.958 9.29876 132.876 10.9432C133.638 12.3122 134.47 13.8244 135.361 15.6454C136.052 17.0745 136.793 18.6845 137.438 20.6478C137.896 22.0639 138.347 23.814 138.387 25.7159C138.391 25.8862 138.39 26.0539 138.387 26.2188C137.861 33.296 136.553 39.0973 135.374 44.7582C134.085 50.5546 132.623 56.1859 130.456 62.7671C129.337 66.1512 128.039 69.7413 126.431 73.6827C125.462 76.0569 124.578 78.2096 123.757 80.2071C121.018 86.8062 119.04 91.8021 116.208 97.4248C113.809 101.986 110.999 107.212 105.188 113.138C102.716 115.541 99.77 118.036 95.4893 119.839C92.494 121.086 89.4393 121.545 86.9387 121.399C86.9387 121.399 86.9387 121.399 86.9387 121.399C75.3175 119.359 75.502 109.3 74.3214 104.469C73.5158 97.9753 73.4378 92.1009 74.1602 83.9162C74.5437 79.8321 75.1735 75.2203 76.2101 69.7172C76.577 67.7756 76.9501 65.9276 77.3761 63.9378C78.7409 57.5646 80.3969 50.9886 82.1985 44.4391C83.9943 37.912 85.9218 31.4559 87.852 25.2444C90.6652 19.7168 90.0924 8.60979 95.9745 10.3386C101.184 13.3202 94.0069 21.3336 93.6871 25.257C93.3274 26.2464 92.9461 27.2923 92.5653 28.334C90.3337 34.4374 87.8251 41.2015 85.022 48.4034C82.5518 54.7463 79.8408 61.4617 76.8825 68.2931C74.253 74.3589 71.42 80.5525 68.2861 86.7392C68.1002 87.1061 67.9142 87.4718 67.7281 87.8364C64.6187 93.8879 61.2019 100.395 56.9376 106.769C52.4818 111.651 49.2832 121.869 36.5675 118.992C28.6692 109.514 32.6095 102.991 32.2162 95.73C32.7424 89.4678 33.5835 83.2505 34.4813 77.337C34.6133 76.473 34.749 75.5918 34.8879 74.6948C35.8971 68.1709 37.0416 61.1106 38.1153 53.9131C39.1422 47.0036 40.1052 40.0131 40.7557 33.1785C41.4304 25.8655 41.8182 18.7167 41.0339 12.6344C40.5701 4.94563 35.7345 1.52246 31.2165 4.2112C30.5685 4.47224 29.8958 4.79308 29.2089 5.16452C25.0444 8.18013 22.0177 10.5827 19.313 12.9456C16.0334 15.8426 13.3582 18.4932 10.633 22.0522C8.64812 24.7177 6.5751 27.8825 5.19762 32.315C5.12664 32.5496 5.05733 32.7894 4.9904 33.0336C3.98621 36.5945 3.71612 40.8436 4.45561 45.209C5.09992 49.1917 6.48718 53.2821 8.11379 57.1406C9.29024 59.9344 10.6124 62.6675 11.9133 65.2339C14.6332 70.4008 13.5353 69.5186 10.406 64.5258C8.98483 62.1962 7.76916 59.9387 6.73537 57.7753C4.48091 53.0954 3.20526 48.9264 2.29413 45.9299C2.26021 45.8195 2.2271 45.7099 2.19477 45.6011C0.719891 40.4842 0.590958 36.5464 1.73967 32.0882C2.57051 29.0419 4.11152 25.7458 7.01525 22.0173C7.47047 21.4357 7.92453 20.8719 8.3761 20.323C11.9541 16.0513 14.6709 13.1273 17.0969 10.5092C19.0592 8.42268 20.9438 6.55321 23.1982 4.82664C24.701 3.67841 25.735 2.99449 27.1315 2.05184C27.1066 1.22332 43.7338 -5.57481 44.8857 12.0251C45.5474 16.0439 45.7627 20.6093 45.694 26.1724C45.6567 28.7664 45.5622 31.1186 45.4288 33.5255C44.9731 41.4864 44.2293 48.4367 43.5426 54.6118C42.608 62.8541 41.7265 69.6966 41.0249 75.5171C40.3466 81.1046 39.8152 85.7715 39.4325 89.8078C39.2538 91.6946 39.0409 93.8311 38.8358 96.2577C38.335 101.141 37.9255 111.422 39.4982 113.34C42.0683 115.389 48.534 108.645 51.9158 103.35C53.7856 100.604 55.5078 97.6923 57.0173 94.9274C58.5542 92.1142 60.2991 88.7511 62.1124 85.0483C64.9654 79.2301 67.9677 72.6258 70.9258 65.7268C73.7429 59.1606 76.507 52.3606 78.9891 46.0165C81.9755 38.3841 84.5791 31.3577 86.45 26.05C86.8256 24.9842 87.1795 23.9663 87.4907 23.0542C91.9186 13.3313 88.6825 11.3359 98.1038 3.95854C101.056 14.0173 97.0001 12.9221 95.9087 19.3809Z" fill="black"/>
</svg>
