<svg width="147" height="134" viewBox="0 0 147 134" fill="none" xmlns="http://www.w3.org/2000/svg">
<path d="M65.962 66.5805C66.0411 67.302 66.1584 68.0063 66.3073 68.6968C67.6283 74.584 70.8615 78.9146 73.596 85.8348C73.949 86.7112 74.2629 87.4954 74.555 88.2317C76.9329 93.9009 77.0048 96.1991 82.1112 103.156C83.0586 104.404 83.973 105.596 84.9042 106.791C89.8129 113.131 94.8717 118.788 97.8509 120.927C98.5814 121.457 99.1448 121.938 99.6184 122.404C101.313 123.783 101.465 125.367 105.353 125.599C105.526 125.594 105.704 125.581 105.888 125.56C108.293 125.261 110.169 124.287 111.881 123.214C113.835 121.946 115.613 120.472 117.499 118.408C117.545 118.356 117.593 118.303 117.641 118.248C118.805 116.932 120.491 114.564 121.698 111.516C122.624 109.193 123.261 106.456 123.128 103.858C123.002 100.997 121.888 98.6235 120.154 97.1903C119.093 96.2894 118.111 95.7454 117.348 95.491C117.21 95.4434 117.071 95.3983 116.938 95.3587C115.844 95.0319 114.78 94.9501 113.751 95.1948C112.715 95.4324 111.683 96.0071 110.741 96.7593C109.739 97.5572 108.84 98.5303 108.064 99.5056C107.153 100.653 106.406 101.812 105.837 102.847C105.763 102.981 105.688 103.123 105.617 103.26C105.027 104.401 104.563 105.343 104.208 106.043C104.062 106.326 103.908 106.489 103.823 106.429C103.823 106.429 103.823 106.429 103.823 106.429C103.707 106.387 103.654 106.143 103.784 105.716C104.064 104.798 104.429 103.683 104.903 102.418C105.346 101.242 105.879 99.9356 106.583 98.5469C106.797 98.1261 107.029 97.6961 107.282 97.2632C107.831 96.3229 108.412 95.5497 109.027 94.9037C110.246 93.6345 111.574 92.8511 113.09 92.5049C114.54 92.1758 116.195 92.3083 117.89 93.0336C119.098 93.5378 120.432 94.41 121.692 95.4984C122.19 95.9277 122.681 96.4152 123.18 97.0474C124.861 99.2273 125.497 101.515 125.77 103.703C126.114 106.805 125.705 109.713 124.786 112.622C123.952 115.193 122.679 117.807 120.651 120.446C120.006 121.281 119.278 122.118 118.456 122.932C116.956 124.414 115.543 125.6 114.164 126.591C111.457 128.489 108.803 129.882 105.292 130.118C102.52 130.366 98.6391 129.175 95.9214 126.627C94.3313 125.164 92.6461 123.449 90.7783 121.259C86.3086 115.974 83.5237 112.801 80.8255 109.982C77.4556 106.336 74.0119 103.249 69.5023 95.4251C68.8339 94.2408 68.1479 92.9352 67.5155 91.6392C64.2167 84.9433 61.7701 77.1159 60.5184 69.9371C59.1614 62.4269 59.0382 55.6736 59.0222 51.1792C59.0146 49.8894 59.0323 48.5903 59.0885 47.1943C59.3645 40.5613 60.4597 32.6754 63.6994 24.7384C64.9034 21.8141 66.4272 18.8559 68.3693 16.1002C70.8099 12.6736 74.295 8.59497 79.2163 6.57676C79.2163 6.57676 79.2163 6.57676 79.2163 6.57676C79.9413 0.303857 91.1192 14.8287 83.1595 12.0354C80.1367 13.185 77.081 14.2022 73.9841 15.1105C70.8945 16.0151 67.7197 16.8106 64.6292 17.4257C63.6701 17.6166 62.677 17.7992 61.7229 17.9568C59.6179 18.306 57.3912 18.6271 55.0767 18.8888C51.9628 19.241 48.6923 19.485 45.3926 19.5315C42.1099 19.5801 38.8091 19.4203 35.7394 19.0087C35.7394 19.0087 35.7394 19.0087 35.7394 19.0087C32.2442 18.8876 29.2591 19.2466 26.5906 20.2407C23.5358 21.3658 21.4404 23.321 20.2324 25.1474C20.0473 25.4212 19.8769 25.6967 19.7204 25.9706C17.779 29.5889 17.6684 32.4911 17.7787 35.2358C17.9734 37.853 18.5142 40.5798 20.2397 44.3595C20.2874 44.4616 20.3355 44.5633 20.3851 44.6676C21.6222 47.2634 23.3612 50.2647 25.6848 52.8523C27.446 54.8086 29.5625 56.5353 31.9526 57.3589C34.8285 57.9678 34.3232 58.6046 30.9983 58.094C28.0468 57.3503 25.9591 55.5382 24.4003 54.1064C23.4594 53.2273 22.6894 52.4332 21.9796 51.8283C19.7054 49.8457 18.3821 48.2517 17.2866 46.0329C16.5858 44.5642 15.9862 42.7832 15.6272 40.2923C15.3651 38.4141 15.1479 36.8481 14.9561 35.4513C14.5416 32.1896 14.1353 29.7186 15.0396 27.0175C15.4271 25.9321 15.8302 25.209 16.3949 24.3069C17.5435 22.8649 18.7611 19.7719 25.0726 16.7014C27.2549 15.7152 30.2978 14.8854 33.8171 14.5808C34.5298 14.5163 35.2449 14.4744 35.9626 14.4529C35.9626 14.4529 35.9626 14.4529 35.9626 14.4529C39.3877 14.6683 42.3853 14.5285 45.1284 14.3048C48.5529 14.0143 51.5533 13.5592 54.202 13.0882C57.775 12.4458 60.6998 11.7708 63.2032 11.1445C64.344 10.8579 65.3716 10.5847 66.3508 10.314C67.898 9.88576 69.8734 9.38 72.1265 8.76461C74.8039 8.03239 77.8632 7.15445 80.9677 6.09349C84.3382 -0.52363 86.2113 15.8414 81.4441 12.2388C81.4441 12.2388 81.4441 12.2388 81.4441 12.2388C79.6772 12.9571 78.4612 13.9117 77.2654 15.0674C74.7472 17.4643 71.736 21.9686 69.701 27.1659C66.9089 34.0245 65.6923 41.9849 65.5739 47.544C65.5351 48.9208 65.551 50.1173 65.5981 51.1656C66.2198 59.5865 65.3975 59.6419 65.962 66.5805ZM64.5144 85.8802C63.6852 86.7895 62.9875 87.6558 62.3288 88.5553C59.008 93.0713 57.0274 97.9606 52.1153 103.239C49.9736 105.531 48.352 106.998 46.8225 108.348C44.2965 110.542 42.0044 112.464 37.9523 117.104C34.9562 120.517 32.0363 123.45 29.1537 126.289C26.3346 128.756 23.4386 130.905 20.7705 132.147C19.9007 132.549 19.0601 132.861 18.1664 133.063C12.4635 133.844 11.481 129.344 11.0732 126.721C10.8926 125.602 10.7236 124.287 10.5199 122.587C10.2697 120.435 10.2522 118.607 10.3038 116.915C10.4183 113.647 10.8363 110.888 11.4002 107.578C11.4338 107.385 11.4694 107.171 11.5048 106.964C11.7805 105.137 12.3394 101.946 12.1966 98.5391C12.5833 94.916 9.99609 98.2012 8.08194 100.503C8.08194 100.503 8.08194 100.503 8.08194 100.503C6.9476 101.973 5.99421 103.373 5.24265 104.699C4.2899 106.367 3.68363 107.954 3.51696 109.071C3.5112 109.107 3.50566 109.143 3.50033 109.179C3.26663 110.644 3.35456 111.986 4.05972 112.785C4.76773 113.679 6.28469 114.277 7.76822 114.598C9.48094 114.971 11.2151 115.084 12.7074 115.085C13.264 115.084 13.7595 115.068 14.2572 115.033C15.5241 114.945 16.5433 114.864 17.3363 114.812C17.6566 114.793 17.8607 114.847 17.8447 114.952C17.8447 114.952 17.8448 114.952 17.8448 114.952C17.9036 115.065 17.6623 115.248 17.2509 115.348C16.0899 115.629 14.6038 115.971 12.815 116.283C11.497 116.509 10.0209 116.726 8.37792 116.792C8.07536 116.804 7.77085 116.805 7.48474 116.798C5.17956 116.721 3.30911 116.113 1.97747 114.617C0.558437 113.003 0.480992 110.712 1.10908 108.54C1.52258 107.058 2.22336 105.448 3.28039 103.502C3.35562 103.365 3.43382 103.223 3.51519 103.079C4.35746 101.575 5.19426 100.256 6.06799 98.9578C6.0681 98.9576 6.06803 98.9577 6.06805 98.9577C6.01417 97.7236 14.3619 89.0414 15.4337 98.179C15.8212 101.328 15.5482 104.303 15.1647 107.873C15.0849 108.566 14.9944 109.298 14.8967 110.049C14.5333 112.827 14.4346 115.053 14.4938 117.063C14.6104 120.074 14.9422 122.785 15.7368 125.551C17.0106 127.832 15.6728 127.897 18.7064 127.376C19.448 127.106 19.9771 126.89 20.8402 126.435C22.7478 125.431 24.3564 124.194 25.8365 122.896C32.56 116.164 33.5409 112.717 41.3738 103.509C41.4988 103.361 41.6252 103.211 41.7531 103.061C46.692 97.249 52.536 90.7587 57.6463 84.8115C62.6238 79.0364 66.9735 73.7072 69.5479 70.0628C70.615 68.5556 71.7133 66.9717 72.8492 65.3061C76.9553 59.3031 81.5476 52.1636 86.4566 44.577C87.0948 43.5943 87.7695 42.557 88.4339 41.5425C92.0118 36.1077 95.6744 29.742 99.8761 23.399C104.028 17.1294 108.799 11.0356 114.669 6.06553C115.435 5.41421 116.233 4.75994 117.064 4.10646C120.971 1.49834 126.898 -0.349499 132.18 0.865216C137.575 1.9382 141.957 5.77442 144.137 9.96206C147.027 15.369 146.79 20.8217 146.089 24.2867C146.088 24.2931 146.086 24.2994 146.085 24.3057C144.529 30.8509 142.555 33.4671 140.281 37.045C139.164 38.6633 137.828 40.4553 135.846 42.6407C134.491 44.1317 132.813 45.7022 130.869 47.2194C127.829 49.6059 124.15 51.783 120.76 53.271C117.89 54.509 118.351 53.7795 120.892 52.0873C124.55 49.6083 127.621 47.6134 129.018 45.8045C129.13 45.6579 129.248 45.5062 129.365 45.3562C131.873 41.9471 133.049 40.5158 136.84 36.7815C137.281 36.3248 137.66 35.8804 137.989 35.4502C140.596 31.93 140.466 29.266 141.401 26.8088C141.783 25.7236 142.126 25.0248 142.473 23.7461C142.728 22.0653 144.068 18.3624 140.551 12.0629C140.081 11.3224 139.506 10.5666 138.82 9.85421C136.537 7.47912 133.788 6.2841 131.288 5.95908C126.637 5.46859 123.574 7.06344 120.77 8.96293C118.152 11.3239 116.331 13.2519 114.761 15.0221C112.428 17.6211 108.693 21.8763 105.091 26.9585C102.262 30.9079 99.4577 35.2733 97.1089 39.2865C95.7151 41.6686 93.9009 44.6856 91.8746 47.9658C87.5398 55.024 82.1618 63.147 78.1489 69.0354C76.8933 70.8917 75.7772 72.542 74.8969 73.8877C70.0723 81.1944 69.2393 80.6699 64.5144 85.8802Z" fill="black"/>
</svg>
