<svg width="89" height="154" viewBox="0 0 89 154" fill="none" xmlns="http://www.w3.org/2000/svg">
<path d="M76.7836 1.13103C77.4762 0.754347 78.3417 0.610651 78.9998 0.639189C89.7445 10.1706 86.4649 18.1894 88.0888 28.4334C88.1426 31.1152 88.0835 33.7089 87.842 36.7261C87.0674 45.6596 85.9757 49.968 84.8952 55.6344C84.1406 59.4314 83.3631 63.7869 82.1744 70.5051C81.4572 74.5224 80.5757 78.5343 79.608 82.3577C76.9235 93.0756 73.3978 102.497 71.3073 108.343C71.0203 109.155 70.768 109.887 70.5444 110.568C68.0213 117.803 66.4654 117.989 61.5711 127.638C60.5917 129.472 59.6462 131.1 58.6885 132.628C54.5396 139.118 50.6408 143.687 44.4822 148.582C43.221 149.56 41.4527 150.888 39.3536 152.213C39.3537 152.212 39.3532 152.213 39.3534 152.213C37.2657 153.159 34.2402 154.307 31.1154 153.766C28.2266 153.334 25.8566 151.047 24.5739 148.619C23.2548 146.221 22.5236 143.65 21.9397 141.127C21.3428 138.492 20.9495 135.908 20.578 133.492C20.1418 130.695 19.7795 128.09 19.1387 126.094C18.5852 124.564 18.3273 124.517 18.3087 124.801C17.7667 125.222 17.0368 126.243 16.3549 127.338C16.3549 127.338 16.3549 127.338 16.3549 127.338C15.447 128.802 14.7199 130.264 14.4876 131.628C14.246 133.041 14.6285 134.153 15.7232 135.07C16.8597 136.023 18.4779 136.619 20.0388 137.031C21.7777 137.483 23.5097 137.728 25.1335 137.881C26.7255 138.029 28.2223 138.08 29.5451 138.073C29.8263 138.072 30.1147 138.069 30.3903 138.065C32.1949 138.041 33.6748 137.991 34.8454 137.952C36.0968 137.898 35.9465 138.3 34.6065 138.49C33.412 138.651 32.0061 138.818 30.439 138.962C28.8192 139.108 27.0424 139.234 25.0814 139.266C23.3851 139.289 21.5779 139.255 19.6373 138.997C19.517 138.981 19.3968 138.964 19.2767 138.946C17.3181 138.642 15.6024 138.113 14.1671 137.095C12.1133 135.766 11.3394 133.082 11.7451 131.217C12.0739 129.221 13.052 127.476 14.1311 125.878C14.1312 125.878 14.1311 125.878 14.1311 125.878C13.8652 125.033 20.5006 118.866 21.3529 125.436C21.8666 127.158 22.1616 128.946 22.529 131.006C22.6606 131.763 22.778 132.437 22.9043 133.153C23.3734 135.81 23.8588 138.259 24.4827 140.539C25.1574 142.989 25.975 145.265 27.1458 147.147C28.3124 149.024 29.8083 150.292 31.6379 150.505C33.3936 150.707 35.1927 150.239 37.5542 149.12C37.5542 149.12 37.5542 149.12 37.5542 149.12C40.2076 147.311 42.8749 145.17 45.648 142.518C50.1451 138.164 52.7988 134.144 55.0576 130.273C58.5645 124.019 61.3556 118.009 66.3887 106.436C67.1212 104.72 67.9044 102.847 68.7168 100.854C72.095 92.4877 73.6813 86.4251 74.7813 81.1739C76.439 72.8418 76.9502 66.5026 78.2569 54.7201C78.4799 52.5873 78.7377 50.1054 78.983 47.5444C79.5704 41.4332 80.0776 34.8523 80.2544 28.3084C80.9874 20.4297 78.7964 7.40049 79 6.54012C78.9734 6.5482 75.5429 16.2303 74.9169 20.7469C74.226 24.04 73.6746 27.0398 73.2471 29.5427C72.7073 32.7125 72.1446 36.1073 71.5142 39.7203C70.4824 45.6173 69.2897 52.0592 67.6708 58.8086C66.1893 64.9281 64.4037 71.2541 61.7817 77.6619C60.4402 80.9153 58.8645 84.202 56.9122 87.3573C55.279 89.9863 53.3897 92.5913 51.0153 94.9839C46.5877 99.9063 38.1869 103.477 31.0518 102.336C30.8026 102.325 30.1432 102.159 29.8309 101.999C29.446 101.825 29.0962 101.593 28.7947 101.323C28.493 101.053 28.2381 100.746 28.0314 100.411C27.825 100.076 27.6661 99.7135 27.5604 99.3287C27.4548 98.9443 27.4032 98.537 27.4149 98.1231C27.4088 97.7805 27.5427 97.1272 27.6386 96.8995C29.6581 90.9628 31.6164 85.0562 33.5639 79.043C35.5131 73.0197 37.3873 67.0878 39.1838 61.1923C39.8624 58.9623 40.5048 56.8235 41.1427 54.6566C42.1971 51.0732 43.2568 47.2459 44.2231 43.2328C45.6098 37.4286 46.8529 31.2061 47.1883 25.1329C47.5225 19.0674 46.8018 12.6511 43.1159 9.00308C38.7839 4.70488 31.9476 4.46242 26.7276 4.53634C24.1073 4.46357 21.8691 4.67951 19.9549 5.07449C17.9551 5.48833 16.2473 6.11196 14.7612 6.88413C10.401 9.2079 8.1641 12.415 6.60684 15.7793C5.1148 19.1621 4.26065 22.8834 4.00685 28.0593C3.95466 29.2291 3.93901 30.501 3.96914 31.8395C4.02779 34.5491 4.23611 37.5949 4.5947 40.776C5.04909 44.8429 5.75193 49.1764 6.57912 53.4328C7.19592 56.615 7.88169 59.7672 8.55928 62.7496C9.76584 67.8206 8.98044 66.8463 7.30103 61.8445C6.36104 58.9728 5.62892 56.256 5.02563 53.7875C4.08664 49.951 3.46367 46.7259 2.77582 44.3645C2.43556 43.2063 2.13906 42.1016 1.88738 41.0923C0.822634 36.6239 0.3001 33.2742 0.739199 27.8588C0.883245 26.3079 1.1283 24.598 1.57206 22.6797C2.30676 19.5161 3.11047 16.9041 4.0072 14.6355C6.03314 9.60897 8.50054 5.99007 12.5517 3.70251C12.6633 3.64121 12.7737 3.58226 12.8829 3.52545C16.4193 1.98099 18.3144 1.10449 26.6337 0.892833C30.6136 1.17569 37.6349 -0.634759 46.0687 5.9353C46.9505 6.75331 47.7831 7.72885 48.491 8.79366C52.0912 14.5325 52.2145 20.3117 52.2645 25.2811C52.1232 32.8394 50.9629 39.0988 49.9234 44.4682C48.3758 52.0947 46.776 58.0472 45.4234 63.0008C45.0888 64.2164 44.759 65.3928 44.4349 66.5341C43.3809 70.2555 41.7518 75.3304 39.7851 81.08C37.88 86.6583 35.7177 92.7088 33.4832 98.9353C33.5127 98.8963 33.6082 98.4493 33.5963 98.308C33.6017 98.097 33.5748 97.8931 33.5224 97.7042C33.4698 97.515 33.3923 97.3398 33.2918 97.1777C33.1911 97.0157 33.0667 96.8659 32.9158 96.7314C32.7652 96.5973 32.5868 96.4788 32.3867 96.3886C32.258 96.3134 31.8016 96.203 31.7512 96.2148C37.3459 96.8606 41.4872 95.2685 45.2155 92.0323C45.6824 91.6196 46.1606 91.1635 46.6469 90.6595C50.0362 87.2027 53.2754 81.6529 55.814 75.2515C58.0764 69.6071 59.8744 63.4023 61.356 57.2675C62.9583 50.6201 64.1818 44.1066 65.1404 38.5535C65.8144 34.6357 66.3547 31.2003 66.7579 28.4766C67.323 24.6409 67.8169 21.8376 68.3279 19.4532C70.5609 12.7098 68.7673 10.957 76.7836 1.13103Z" fill="black"/>
</svg>
