<svg width="149" height="152" viewBox="0 0 149 152" fill="none" xmlns="http://www.w3.org/2000/svg">
<path d="M3.01612 132.186C-0.140819 130.223 0.618023 127.196 0.79298 125.859C1.62077 122.196 3.04784 119.389 4.35567 116.565C5.77335 113.603 7.84244 110.255 10.7212 107.498C13.2864 105.021 16.7024 102.871 20.8002 101.788C21.6283 101.567 22.4735 101.39 23.3438 101.258C26.8581 100.738 29.704 100.953 32.1124 101.312C36.2372 101.979 39.1793 103.062 42.4182 104.355C45.1331 105.469 48.0534 106.792 51.84 108.721C53.2731 109.453 54.8533 110.29 56.5693 111.239C57.9978 112.029 59.4069 112.862 60.7537 113.687C64.251 115.92 66.5984 118.79 68.8193 121.346C71.2089 124.181 73.3522 126.873 75.4368 129.246C77.9685 132.148 80.385 134.559 82.5255 136.325C83.7711 137.358 84.9177 138.178 85.903 138.783C87.9798 140.049 89.3545 140.942 90.6455 141.823C92.7772 143.204 94.6638 144.768 99.5073 145.981C100.132 146.127 100.793 146.258 101.529 146.372C104.356 146.8 106.854 146.925 109.323 146.917C109.323 146.917 109.323 146.917 109.323 146.917C112.818 146.859 115.431 146.246 118.369 145.053C120.376 144.214 122.369 143.095 124.424 141.6C125.034 141.156 125.736 140.603 126.499 139.937C128.495 138.206 130.862 135.679 133.184 132.59C135.098 130.065 136.988 127.16 138.808 124.218C141.172 122.045 140.913 116.127 146.754 117.979C148.273 122.108 148.056 125.541 148.401 128.451C148.401 128.451 148.401 128.451 148.401 128.451C148.512 129.995 148.588 131.041 148.656 132.226C148.71 133.168 148.738 133.982 148.716 135.009C148.533 137.239 148.794 139.37 146.899 142.008C142.291 144.448 141.27 140.33 139.902 139.127C138.592 137.213 137.573 135.252 136.675 133.426C135.626 131.273 134.751 129.255 134.003 127.551C133.951 127.431 133.892 127.298 133.838 127.175C132.962 125.174 132.356 123.569 131.926 122.314C131.757 121.808 131.722 121.47 131.839 121.493C131.839 121.493 131.839 121.493 131.84 121.493C131.941 121.416 132.215 121.754 132.518 122.399C133.138 123.719 133.929 125.317 134.899 127.115C135.808 128.795 136.883 130.673 138.134 132.609C138.665 133.429 139.231 134.263 139.841 135.099C140.549 136.069 141.217 136.932 141.837 137.665C143.211 139.542 145.322 140.633 144.873 140.117C145.567 139.302 145.952 137.1 146.104 134.884C146.221 133.129 146.233 131.159 146.091 128.556C146.091 128.556 146.091 128.556 146.091 128.556C145.994 126.846 145.868 125.112 145.607 123.162C145.396 121.652 145.106 119.975 144.628 119.145C146.046 118.673 142.259 123.257 141.25 125.702C139.631 128.619 137.94 131.567 135.877 134.536C134.014 137.205 131.863 139.927 129.014 142.587C127.215 144.255 125.131 145.892 122.632 147.292C121.751 147.784 120.883 148.219 120.025 148.603C116.233 150.322 112.434 151.034 109.323 151.145C109.323 151.145 109.323 151.145 109.323 151.145C105.771 151.291 102.188 151.148 98.4235 150.405C95.2458 149.767 91.8165 148.686 88.0416 146.652C85.2227 145.128 82.2315 143.052 79.1875 140.249C78.2422 139.38 77.2937 138.443 76.3359 137.43C74.6641 135.659 73.2187 133.995 71.8986 132.442C69.2698 129.34 67.1644 126.734 65.163 124.516C62.6416 121.731 60.3606 119.52 57.9299 118.249C55.1794 116.802 52.3984 115.452 49.1365 114.051C46.5511 112.949 43.6648 111.8 40.247 110.757C38.4606 110.216 36.5294 109.711 34.4341 109.334C33.4151 109.151 32.3882 109.007 31.3564 108.913C28.4905 108.648 25.5963 108.777 22.8879 109.494C20.2441 110.186 17.7856 111.445 15.6207 113.238C13.4046 115.097 11.7331 117.114 10.0349 119.869C8.45906 122.483 7.13474 124.946 6.61049 127.021C7.19427 128.58 3.94582 126.458 7.8641 126.391C10.43 125.496 13.0083 124.028 15.309 122.578C17.9976 120.87 20.4088 119.068 22.4271 117.425C23.2324 116.768 23.9951 116.119 24.6835 115.51C26.096 114.26 27.5321 112.918 28.9733 111.48C30.9727 109.481 32.9283 107.37 34.9028 104.947C34.9029 104.947 34.9027 104.947 34.903 104.947C39.4635 99.6224 44.416 93.8603 49.6287 87.8806C53.8852 82.9978 58.3262 77.9568 62.8859 72.8696C63.4319 72.2604 63.9815 71.6448 64.5344 71.023C69.249 65.7215 74.2077 59.978 79.3008 54.0441C84.0995 48.4531 89.0175 42.6931 93.9631 36.9747C98.9265 31.2356 103.918 25.5383 108.844 20.0955C109.436 19.4416 110.027 18.7913 110.617 18.1451C114.751 13.6156 119.318 8.60377 124.005 3.45989C124.002 3.4332 123.733 3.84609 123.71 4.00114C123.64 4.22331 123.618 4.47027 123.649 4.69708C123.678 4.92475 123.754 5.1335 123.866 5.3186C123.979 5.50336 124.132 5.66873 124.325 5.80169C124.517 5.93451 124.753 6.02986 124.987 6.06641C125.14 6.1138 125.626 6.06166 125.6 6.04133C125.6 6.04133 125.6 6.04133 125.6 6.04133C121.993 6.804 118.679 7.94438 115.279 9.43594C111.845 10.9272 108.356 12.7217 104.656 13.935C100.711 15.2637 96.6437 15.8161 92.925 15.8435C88.6367 15.8825 84.7309 15.365 81.3519 14.7741C79.1971 14.3927 77.1748 13.9524 75.5009 13.5509C73.5013 13.0734 71.7984 12.6186 70.1657 12.1653C65.7403 10.9242 62.4918 9.87853 59.2262 8.84273C59.2176 8.83998 59.2248 8.84186 59.2188 8.84004C59.2158 8.83907 59.2124 8.83807 59.2087 8.83714C59.2051 8.83621 59.2013 8.83534 59.1976 8.83458C59.1939 8.83382 59.1903 8.83317 59.1871 8.83264C59.1838 8.83211 59.181 8.8317 59.1788 8.8314C59.1732 8.83105 59.1829 8.83096 59.1746 8.83069C56.4715 8.84371 54.0008 9.35352 51.4091 10.924C49.4217 12.1534 47.4948 14.0617 45.9925 16.8577C45.9453 16.9456 45.8984 17.0345 45.8521 17.1243C44.747 19.2568 43.9004 21.8325 43.473 24.6364C43.071 27.2626 43.0265 30.0841 43.4397 32.877C43.8431 35.5983 44.6927 38.32 46.1082 40.6294C47.0114 42.1058 48.162 43.4116 49.5153 44.3885C53.8922 46.5457 52.7517 47.1375 47.9856 44.48C46.7701 43.5972 45.7816 42.5256 44.9785 41.3964C43.0304 38.6246 42.1683 35.6727 41.6465 33.1862C41.2633 31.3174 41.0823 29.6591 40.9054 28.2653C40.7225 26.8062 40.6662 25.4746 40.7004 24.2213C40.8207 20.9775 41.412 18.2244 43.0451 15.1973C44.2916 12.9876 46.1938 10.4925 49.6147 8.56066C49.7078 8.5091 49.7984 8.46005 49.8896 8.41142C53.2729 6.59941 56.6761 6.07152 59.1515 5.92242C59.1906 5.92079 59.2744 5.92139 59.32 5.92294C59.3742 5.9246 59.4265 5.92759 59.4778 5.93172C59.5292 5.93588 59.5795 5.94119 59.6293 5.94762C59.6792 5.95407 59.7287 5.96165 59.7782 5.97046C59.8279 5.9793 59.8776 5.98936 59.9282 6.00092C59.9714 6.01038 60.0473 6.03054 60.0829 6.04065C64.1909 7.02465 67.2306 7.33328 70.5782 8.28469C70.7558 8.33496 70.9263 8.38392 71.0911 8.43189C74.0315 9.23785 75.3894 10.0207 81.8876 11.185C84.5402 11.603 88.063 12.1055 92.7884 11.9137C95.782 11.768 99.1803 11.2902 102.963 9.86123C103.035 9.83412 103.107 9.80684 103.178 9.77941C106.704 8.42856 109.927 6.56313 113.21 4.97128C116.945 3.11732 120.841 1.66378 124.352 0.783298C124.352 0.783298 124.352 0.783298 124.352 0.783298C124.607 0.693195 125.456 0.62082 125.914 0.725352C126.468 0.81754 127.009 1.04174 127.462 1.36009C127.919 1.68004 128.29 2.08795 128.564 2.54625C128.839 3.00751 129.018 3.52523 129.083 4.06939C129.15 4.61598 129.095 5.18998 128.923 5.71494C128.806 6.1666 128.35 6.88664 128.157 7.07308C122.182 14.1952 117.494 19.7399 113.652 24.2794C111.838 26.4228 110.212 28.3421 108.729 30.0977C106.293 32.9797 102.844 36.8624 98.9003 41.271C94.3069 46.4056 89.0414 52.2535 83.9212 58.0647C80.7246 61.6928 77.5845 65.3065 74.7 68.7234C73.0992 70.6196 71.2563 72.779 69.2447 75.1219C64.8816 80.2037 59.7253 86.1489 54.5278 92.1438C49.4218 98.0331 44.2923 103.951 39.8426 109.139C39.8426 109.139 39.8426 109.139 39.8426 109.139C37.7303 111.726 35.495 114.127 33.5215 116.119C31.8835 117.773 30.3722 119.205 29.0669 120.412C28.2175 121.198 27.4002 121.921 26.645 122.564C23.4277 125.291 21.0713 126.881 18.9703 128.125C16.1327 129.738 13.9543 130.825 9.97579 132.115C8.31282 132.397 6.78175 133.556 3.01612 132.186ZM73.5102 61.0191C74.68 61.5511 75.6009 59.2 77.0268 59.5323C78.0316 59.7665 78.4343 60.455 79.1561 60.743C79.4585 60.8637 79.8169 60.914 80.2991 60.8312C81.932 60.5506 83.5657 61.4036 84.2928 60.8912C85.0198 60.3787 85.0966 61.9283 86.129 61.5841C86.8756 61.3352 87.4095 61.3721 87.9894 61.6021C88.2114 61.6901 88.4401 61.8065 88.6901 61.9459C89.5931 62.4496 92.3671 62.8796 93.3759 62.2608C94.3846 61.6421 95.5351 62.7157 96.227 62.9703C96.4426 63.0496 96.6122 63.1582 96.7422 63.2711C96.7973 63.319 96.8228 63.4192 96.8227 63.518C96.8227 63.5181 96.8227 63.5182 96.8227 63.5182C96.8228 63.6413 96.7833 63.7624 96.7125 63.7779C96.3688 63.8534 95.8552 64.0527 95.2485 64.4991C94.1172 65.3316 93.9935 64.4117 92.4658 64.8395C90.9382 65.2672 90.0203 66.1225 88.2228 65.5694C88.1424 65.5447 88.0646 65.5257 87.9894 65.5118C86.3841 65.2164 85.8989 67.2719 83.4752 66.0191C81.3242 64.9074 80.8048 66.4775 79.1561 67.1774C78.86 67.3032 78.5274 67.4008 78.1424 67.4498C75.6139 67.7716 72.4222 66.4363 70.898 66.547C70.7137 66.5604 70.5217 66.5763 70.3228 66.5933C68.877 66.7171 67.0653 66.901 65.1659 66.6202C64.0407 66.4539 62.778 66.5928 61.4894 66.6837C60.3036 66.7674 59.0957 66.8103 57.9527 66.5372C56.3495 66.1542 54.3004 65.7034 52.6561 65.3025C51.8541 65.107 51.1484 64.9234 50.6377 64.7652C49.0799 64.2829 48.7002 64.1742 47.2008 64.4689C46.3389 64.6383 45.1516 64.4786 44.1486 63.8556C43.6439 63.542 43.7583 63.1055 44.2663 62.8966C45.0092 62.5912 45.6191 62.7952 46.0019 62.2496C46.7667 61.1592 47.0918 60.741 48.0574 61.3756C49.023 62.0102 49.478 60.568 50.0409 60.734C50.5455 60.8829 50.5903 61.5819 52.6561 61.2529C52.8947 61.2149 53.1602 61.1632 53.4565 61.0953C56.3186 60.4399 57.8876 60.2727 58.9715 60.1153C59.5557 60.0305 60.4825 60.2059 61.4894 60.3439C62.3507 60.462 63.2706 60.5526 64.0849 60.4298C65.6517 60.1934 68.654 60.3589 70.3228 60.0948C70.5354 60.0612 70.7263 60.0206 70.8899 59.9713C72.3375 59.5351 72.3405 60.4872 73.5102 61.0191Z" fill="black"/>
</svg>
